<?xml version="1.0" encoding="UTF-8" standalone="no"?>
<!DOCTYPE svg PUBLIC "-//W3C//DTD SVG 1.1//EN" "http://www.w3.org/Graphics/SVG/1.1/DTD/svg11.dtd">
<svg xmlns="http://www.w3.org/2000/svg" version="1.1" viewBox="0.00 0.00 511.00 488.00">
<g stroke-width="2.00" fill="none" stroke-linecap="butt">
<path stroke="#7f6072" vector-effect="non-scaling-stroke" d="
  M 112.41 67.77
  L 112.21 59.66
  A 0.35 0.35 0.0 0 0 111.63 59.41
  Q 110.00 60.86 107.78 60.76
  A 1.04 1.04 0.0 0 0 106.87 61.21
  L 105.93 62.59
  A 0.44 0.44 0.0 0 1 105.13 62.37
  C 104.80 55.83 107.22 50.32 98.50 48.51
  C 94.05 47.59 88.64 46.71 84.35 48.92
  C 82.20 50.03 80.77 52.78 77.84 50.29
  A 1.40 1.39 65.1 0 0 76.94 49.96
  Q 74.91 49.98 73.89 51.66
  Q 70.23 57.71 65.57 61.95"
/>
<path stroke="#7f6072" vector-effect="non-scaling-stroke" d="
  M 99.42 92.63
  Q 98.56 95.27 98.50 97.75
  Q 98.44 100.44 98.69 106.50"
/>
<path stroke="#8692b0" vector-effect="non-scaling-stroke" d="
  M 98.69 106.50
  Q 90.83 108.46 84.50 108.49
  Q 81.15 108.52 79.84 108.69"
/>
<path stroke="#7f6072" vector-effect="non-scaling-stroke" d="
  M 79.84 108.69
  Q 73.30 100.52 69.75 90.97"
/>
<path stroke="#7f6072" vector-effect="non-scaling-stroke" d="
  M 138.66 204.65
  C 135.53 199.73 129.53 195.34 123.33 195.90
  Q 122.82 195.94 122.58 196.39
  L 112.83 214.59"
/>
<path stroke="#07396a" vector-effect="non-scaling-stroke" d="
  M 112.83 214.59
  Q 108.10 208.60 105.18 203.53
  C 100.99 196.23 100.00 189.73 100.03 180.56
  Q 100.17 143.52 98.69 106.50"
/>
<path stroke="#07396a" vector-effect="non-scaling-stroke" d="
  M 79.84 108.69
  C 80.17 112.21 80.76 115.78 80.71 119.23
  C 80.36 142.65 77.70 160.23 74.27 188.43
  C 72.01 206.96 75.06 223.74 81.13 240.64
  A 0.65 0.64 63.5 0 0 82.08 240.96
  Q 95.50 232.43 108.53 222.06"
/>
<path stroke="#7f6072" vector-effect="non-scaling-stroke" d="
  M 108.53 222.06
  Q 107.93 224.72 106.72 225.97
  C 103.11 229.69 84.51 250.74 91.96 255.77
  Q 96.53 258.85 102.49 256.25
  C 110.91 252.56 115.60 241.98 118.77 233.82
  Q 119.99 230.67 121.88 227.99
  Q 128.27 218.91 134.38 210.26"
/>
<path stroke="#737789" vector-effect="non-scaling-stroke" d="
  M 180.51 254.46
  L 184.11 275.60"
/>
<path stroke="#686b7e" vector-effect="non-scaling-stroke" d="
  M 184.11 275.60
  L 185.84 285.98"
/>
<path stroke="#7f6072" vector-effect="non-scaling-stroke" d="
  M 182.97 334.91
  Q 177.31 336.88 169.96 337.05"
/>
<path stroke="#07396a" vector-effect="non-scaling-stroke" d="
  M 166.00 336.97
  Q 165.29 336.44 163.71 336.57"
/>
<path stroke="#686b7e" vector-effect="non-scaling-stroke" d="
  M 163.71 336.57
  Q 159.90 336.68 160.23 333.26
  Q 160.71 328.33 163.17 321.82
  Q 163.35 321.35 163.22 320.85
  L 151.75 276.83"
/>
<path stroke="#737789" vector-effect="non-scaling-stroke" d="
  M 151.75 276.83
  L 149.95 269.71
  A 0.91 0.89 -7.2 0 0 149.06 269.03
  L 106.90 269.13
  Q 106.37 269.13 106.02 269.53
  L 100.71 275.59"
/>
<path stroke="#686b7e" vector-effect="non-scaling-stroke" d="
  M 100.71 275.59
  L 92.50 285.11"
/>
<path stroke="#737789" vector-effect="non-scaling-stroke" d="
  M 92.50 285.11
  C 89.79 288.04 86.13 291.33 85.14 295.34
  Q 80.65 313.54 76.18 331.76
  Q 74.66 337.96 74.12 344.36
  C 72.48 363.72 71.04 383.06 67.95 402.25
  C 67.68 403.97 66.95 405.51 66.09 406.94
  A 1.56 1.55 40.4 0 0 66.24 408.74
  C 68.18 411.01 72.51 414.88 67.98 417.46
  Q 65.83 418.68 61.83 419.27"
/>
<path stroke="#7f6072" vector-effect="non-scaling-stroke" d="
  M 61.83 419.27
  L 47.64 420.53"
/>
<path stroke="#7f6072" vector-effect="non-scaling-stroke" d="
  M 25.22 212.07
  C 25.64 212.58 26.30 213.07 26.66 213.64
  Q 39.05 232.70 51.39 251.80
  C 56.57 259.82 65.02 270.35 74.02 273.93
  C 78.69 275.78 82.16 272.91 82.52 268.23
  C 83.31 258.06 67.57 245.88 60.34 240.37
  A 3.67 3.64 4.5 0 1 59.32 239.19
  L 40.06 203.71
  A 1.49 1.48 -28.2 0 0 38.06 203.11
  L 24.18 210.50"
/>
<path stroke="#8692b0" vector-effect="non-scaling-stroke" d="
  M 112.83 214.59
  L 108.53 222.06"
/>
<path stroke="#f2d0cf" vector-effect="non-scaling-stroke" d="
  M 65.63 444.41
  L 61.83 419.27"
/>
<path stroke="#6f9dbc" vector-effect="non-scaling-stroke" d="
  M 163.71 336.57
  L 164.04 337.19"
/>
<path stroke="#dbdbdb" vector-effect="non-scaling-stroke" d="
  M 145.74 442.56
  L 144.50 287.66
  A 1.55 1.55 0.0 0 0 142.95 286.12
  Q 121.23 286.19 99.24 286.25
  C 96.60 286.26 94.85 287.11 92.50 285.11"
/>
<path stroke="#7f6072" vector-effect="non-scaling-stroke" d="
  M 65.48 451.52
  Q 60.01 450.99 54.50 450.31
  Q 52.12 450.02 49.77 450.55"
/>
<path stroke="#dbdbdb" vector-effect="non-scaling-stroke" d="
  M 502.02 277.67
  Q 502.05 277.93 502.06 278.12
  Q 502.07 278.67 501.52 278.66
  Q 420.01 277.82 338.50 277.21
  Q 242.92 276.49 193.76 276.38
  Q 187.80 276.36 184.11 275.60"
/>
<path stroke="#7f6072" vector-effect="non-scaling-stroke" d="
  M 187.77 353.87
  Q 176.18 353.04 171.23 363.33"
/>
<path stroke="#dbdbdb" vector-effect="non-scaling-stroke" d="
  M 151.75 276.83
  Q 148.87 275.76 147.25 275.78
  Q 125.62 276.00 104.00 275.58
  C 102.88 275.55 102.21 276.28 101.37 276.22
  Q 100.59 276.17 100.71 275.59"
/>
<path stroke="#dbdbdb" vector-effect="non-scaling-stroke" d="
  M 478.09 286.71
  Q 477.50 286.09 476.96 286.18
  Q 476.57 286.24 476.52 286.24
  Q 435.01 286.21 393.10 286.17
  A 1.05 1.04 -89.7 0 0 392.06 287.21
  L 391.07 446.36"
/>
<path stroke="#73819d" vector-effect="non-scaling-stroke" d="
  M 383.47 254.80
  Q 383.24 255.57 383.58 256.18
  A 0.95 0.95 0.0 0 1 382.75 257.59
  L 322.64 257.60
  A 1.11 1.10 89.5 0 1 321.54 256.51
  Q 321.53 255.15 322.67 254.06"
/>
<path stroke="#07396a" vector-effect="non-scaling-stroke" d="
  M 119.9226 187.8621
  A 3.26 0.42 94.0 0 0 120.5690 184.6393
  A 3.26 0.42 94.0 0 0 120.3774 181.3579
  A 3.26 0.42 94.0 0 0 119.7310 184.5807
  A 3.26 0.42 94.0 0 0 119.9226 187.8621"
/>
<path stroke="#7987a3" vector-effect="non-scaling-stroke" d="
  M 353.25 109.88
  A 1.15 1.15 0.0 0 0 352.10 108.73
  A 1.15 1.15 0.0 0 0 350.95 109.88
  A 1.15 1.15 0.0 0 0 352.10 111.03
  A 1.15 1.15 0.0 0 0 353.25 109.88"
/>
<path stroke="#7987a3" vector-effect="non-scaling-stroke" d="
  M 438.09 113.24
  A 0.27 0.27 0.0 0 0 437.82 112.97
  L 266.48 112.97
  A 0.27 0.27 0.0 0 0 266.21 113.24
  L 266.21 208.88
  A 0.27 0.27 0.0 0 0 266.48 209.15
  L 437.82 209.15
  A 0.27 0.27 0.0 0 0 438.09 208.88
  L 438.09 113.24"
/>
<path stroke="#001240" vector-effect="non-scaling-stroke" d="
  M 391.7873 220.3968
  A 0.89 0.89 0.0 0 0 390.8942 219.5099
  L 390.8142 219.5102
  A 0.89 0.89 0.0 0 0 389.9273 220.4033
  L 389.9527 227.7032
  A 0.89 0.89 0.0 0 0 390.8458 228.5901
  L 390.9258 228.5898
  A 0.89 0.89 0.0 0 0 391.8127 227.6967
  L 391.7873 220.3968"
/>
<path stroke="#7987a3" vector-effect="non-scaling-stroke" d="
  M 356.27 225.64
  A 4.13 4.13 0.0 0 0 352.14 221.51
  A 4.13 4.13 0.0 0 0 348.01 225.64
  A 4.13 4.13 0.0 0 0 352.14 229.77
  A 4.13 4.13 0.0 0 0 356.27 225.64"
/>
<path stroke="#80afcd" vector-effect="non-scaling-stroke" d="
  M 335.85 145.16
  A 0.55 0.55 0.0 0 0 335.30 144.61
  L 315.98 144.61
  A 0.55 0.55 0.0 0 0 315.43 145.16
  L 315.43 148.92
  A 0.55 0.55 0.0 0 0 315.98 149.47
  L 335.30 149.47
  A 0.55 0.55 0.0 0 0 335.85 148.92
  L 335.85 145.16"
/>
<path stroke="#80afcd" vector-effect="non-scaling-stroke" d="
  M 391.97 145.13
  A 0.59 0.59 0.0 0 0 391.38 144.54
  L 343.60 144.54
  A 0.59 0.59 0.0 0 0 343.01 145.13
  L 343.01 148.89
  A 0.59 0.59 0.0 0 0 343.60 149.48
  L 391.38 149.48
  A 0.59 0.59 0.0 0 0 391.97 148.89
  L 391.97 145.13"
/>
<path stroke="#80afcd" vector-effect="non-scaling-stroke" d="
  M 421.1555 145.2815
  A 0.63 0.63 0.0 0 0 420.5310 144.6460
  L 414.5912 144.5942
  A 0.63 0.63 0.0 0 0 413.9558 145.2187
  L 413.9245 148.7985
  A 0.63 0.63 0.0 0 0 414.5490 149.4340
  L 420.4888 149.4858
  A 0.63 0.63 0.0 0 0 421.1242 148.8613
  L 421.1555 145.2815"
/>
<path stroke="#80afcd" vector-effect="non-scaling-stroke" d="
  M 406.17 149.40
  A 0.61 0.61 0.0 0 0 406.78 148.76
  L 406.64 145.35
  A 0.61 0.61 0.0 0 0 406.04 144.76
  L 400.14 144.71
  A 0.61 0.61 0.0 0 0 399.53 145.31
  L 399.52 148.85
  A 0.61 0.61 0.0 0 0 400.14 149.46
  L 406.17 149.40"
/>
<path stroke="#80afcd" vector-effect="non-scaling-stroke" d="
  M 296.8175 156.2048
  A 0.67 0.67 0.0 0 0 296.1428 155.5395
  L 290.2430 155.5807
  A 0.67 0.67 0.0 0 0 289.5777 156.2553
  L 289.6025 159.8152
  A 0.67 0.67 0.0 0 0 290.2772 160.4805
  L 296.1770 160.4393
  A 0.67 0.67 0.0 0 0 296.8423 159.7647
  L 296.8175 156.2048"
/>
<path stroke="#80afcd" vector-effect="non-scaling-stroke" d="
  M 311.2568 156.1537
  A 0.62 0.62 0.0 0 0 310.6357 155.5348
  L 304.6357 155.5452
  A 0.62 0.62 0.0 0 0 304.0168 156.1663
  L 304.0232 159.8463
  A 0.62 0.62 0.0 0 0 304.6443 160.4652
  L 310.6443 160.4548
  A 0.62 0.62 0.0 0 0 311.2632 159.8337
  L 311.2568 156.1537"
/>
<path stroke="#80afcd" vector-effect="non-scaling-stroke" d="
  M 367.33 155.99
  A 0.45 0.45 0.0 0 0 366.88 155.54
  L 318.92 155.54
  A 0.45 0.45 0.0 0 0 318.47 155.99
  L 318.47 160.01
  A 0.45 0.45 0.0 0 0 318.92 160.46
  L 366.88 160.46
  A 0.45 0.45 0.0 0 0 367.33 160.01
  L 367.33 155.99"
/>
<path stroke="#80afcd" vector-effect="non-scaling-stroke" d="
  M 394.59 155.97
  A 0.41 0.41 0.0 0 0 394.18 155.56
  L 374.60 155.56
  A 0.41 0.41 0.0 0 0 374.19 155.97
  L 374.19 160.05
  A 0.41 0.41 0.0 0 0 374.60 160.46
  L 394.18 160.46
  A 0.41 0.41 0.0 0 0 394.59 160.05
  L 394.59 155.97"
/>
<path stroke="#80afcd" vector-effect="non-scaling-stroke" d="
  M 422.26 155.98
  A 0.42 0.42 0.0 0 0 421.84 155.56
  L 402.16 155.56
  A 0.42 0.42 0.0 0 0 401.74 155.98
  L 401.74 160.04
  A 0.42 0.42 0.0 0 0 402.16 160.46
  L 421.84 160.46
  A 0.42 0.42 0.0 0 0 422.26 160.04
  L 422.26 155.98"
/>
<path stroke="#80afcd" vector-effect="non-scaling-stroke" d="
  M 296.8266 166.6637
  A 0.53 0.53 0.0 0 0 296.2957 166.1346
  L 290.1157 166.1454
  A 0.53 0.53 0.0 0 0 289.5866 166.6763
  L 289.5934 170.5563
  A 0.53 0.53 0.0 0 0 290.1243 171.0854
  L 296.3043 171.0746
  A 0.53 0.53 0.0 0 0 296.8334 170.5437
  L 296.8266 166.6637"
/>
<path stroke="#80afcd" vector-effect="non-scaling-stroke" d="
  M 324.50 166.69
  A 0.56 0.56 0.0 0 0 323.94 166.13
  L 304.58 166.13
  A 0.56 0.56 0.0 0 0 304.02 166.69
  L 304.02 170.51
  A 0.56 0.56 0.0 0 0 304.58 171.07
  L 323.94 171.07
  A 0.56 0.56 0.0 0 0 324.50 170.51
  L 324.50 166.69"
/>
<path stroke="#80afcd" vector-effect="non-scaling-stroke" d="
  M 352.21 166.62
  A 0.46 0.46 0.0 0 0 351.75 166.16
  L 332.15 166.16
  A 0.46 0.46 0.0 0 0 331.69 166.62
  L 331.69 170.62
  A 0.46 0.46 0.0 0 0 332.15 171.08
  L 351.75 171.08
  A 0.46 0.46 0.0 0 0 352.21 170.62
  L 352.21 166.62"
/>
<path stroke="#80afcd" vector-effect="non-scaling-stroke" d="
  M 407.83 166.64
  A 0.49 0.49 0.0 0 0 407.34 166.15
  L 359.46 166.15
  A 0.49 0.49 0.0 0 0 358.97 166.64
  L 358.97 170.56
  A 0.49 0.49 0.0 0 0 359.46 171.05
  L 407.34 171.05
  A 0.49 0.49 0.0 0 0 407.83 170.56
  L 407.83 166.64"
/>
<path stroke="#80afcd" vector-effect="non-scaling-stroke" d="
  M 422.2299 166.6812
  A 0.57 0.57 0.0 0 0 421.6570 166.1142
  L 415.5971 166.1459
  A 0.57 0.57 0.0 0 0 415.0300 166.7189
  L 415.0501 170.5388
  A 0.57 0.57 0.0 0 0 415.6230 171.1058
  L 421.6829 171.0741
  A 0.57 0.57 0.0 0 0 422.2500 170.5011
  L 422.2299 166.6812"
/>
<path stroke="#80afcd" vector-effect="non-scaling-stroke" d="
  M 310.15 176.81
  A 0.45 0.45 0.0 0 0 309.70 176.36
  L 290.04 176.36
  A 0.45 0.45 0.0 0 0 289.59 176.81
  L 289.59 180.81
  A 0.45 0.45 0.0 0 0 290.04 181.26
  L 309.70 181.26
  A 0.45 0.45 0.0 0 0 310.15 180.81
  L 310.15 176.81"
/>
<path stroke="#80afcd" vector-effect="non-scaling-stroke" d="
  M 366.23 176.88
  A 0.52 0.52 0.0 0 0 365.71 176.36
  L 317.79 176.36
  A 0.52 0.52 0.0 0 0 317.27 176.88
  L 317.27 180.74
  A 0.52 0.52 0.0 0 0 317.79 181.26
  L 365.71 181.26
  A 0.52 0.52 0.0 0 0 366.23 180.74
  L 366.23 176.88"
/>
<path stroke="#80afcd" vector-effect="non-scaling-stroke" d="
  M 380.9904 176.8190
  A 0.47 0.47 0.0 0 0 380.5229 176.3465
  L 374.2230 176.3135
  A 0.47 0.47 0.0 0 0 373.7505 176.7811
  L 373.7296 180.7810
  A 0.47 0.47 0.0 0 0 374.1971 181.2535
  L 380.4970 181.2865
  A 0.47 0.47 0.0 0 0 380.9695 180.8189
  L 380.9904 176.8190"
/>
<path stroke="#80afcd" vector-effect="non-scaling-stroke" d="
  M 395.3731 176.8174
  A 0.49 0.49 0.0 0 0 394.8814 176.3291
  L 388.6214 176.3509
  A 0.49 0.49 0.0 0 0 388.1331 176.8426
  L 388.1469 180.7826
  A 0.49 0.49 0.0 0 0 388.6386 181.2709
  L 394.8986 181.2491
  A 0.49 0.49 0.0 0 0 395.3869 180.7574
  L 395.3731 176.8174"
/>
<path stroke="#f2cd77" vector-effect="non-scaling-stroke" d="
  M 51.1694 241.9291
  A 4.97 1.45 86.2 0 0 52.2868 236.8739
  A 4.97 1.45 86.2 0 0 50.5106 232.0109
  A 4.97 1.45 86.2 0 0 49.3932 237.0661
  A 4.97 1.45 86.2 0 0 51.1694 241.9291"
/>
<path stroke="#73819d" vector-effect="non-scaling-stroke" d="
  M 387.06 262.67
  C 378.22 259.44 367.62 258.53 358.74 262.22
  A 1.29 1.28 -28.6 0 0 358.17 264.13
  Q 360.16 267.02 363.95 268.19
  C 370.27 270.16 384.43 273.75 389.73 268.66
  C 392.41 266.09 389.38 263.52 387.06 262.67"
/>
<path stroke="#73819d" vector-effect="non-scaling-stroke" d="
  M 232.21 261.49
  A 0.97 0.97 0.0 0 0 231.29 262.14
  L 228.50 270.25
  A 0.97 0.97 0.0 0 0 229.42 271.54
  L 344.90 271.54
  A 0.97 0.97 0.0 0 0 345.84 270.31
  L 343.57 262.21
  A 0.97 0.97 0.0 0 0 342.63 261.50
  L 232.21 261.49"
/>
<path stroke="#7987a3" vector-effect="non-scaling-stroke" d="
  M 383.4301 264.5695
  A 0.80 0.80 0.0 0 0 382.6329 263.7667
  L 378.7729 263.7533
  A 0.80 0.80 0.0 0 0 377.9702 264.5505
  L 377.9699 264.6305
  A 0.80 0.80 0.0 0 0 378.7671 265.4333
  L 382.6271 265.4467
  A 0.80 0.80 0.0 0 0 383.4298 264.6495
  L 383.4301 264.5695"
/>
<path stroke="#73819d" vector-effect="non-scaling-stroke" d="
  M 112.63 316.73
  A 0.31 0.31 0.0 0 0 112.80 316.68
  L 121.23 311.34
  A 0.31 0.31 0.0 0 0 121.06 310.77
  L 84.81 310.78
  A 0.31 0.31 0.0 0 0 84.63 311.34
  L 92.21 316.67
  A 0.31 0.31 0.0 0 0 92.39 316.73
  L 112.63 316.73"
/>
<path stroke="#73819d" vector-effect="non-scaling-stroke" d="
  M 84.90 335.43
  A 0.32 0.32 0.0 0 0 84.72 336.01
  L 92.19 341.25
  A 0.32 0.32 0.0 0 0 92.37 341.31
  L 112.58 341.33
  A 0.32 0.32 0.0 0 0 112.75 341.28
  L 121.04 336.02
  A 0.32 0.32 0.0 0 0 120.87 335.43
  L 84.90 335.43"
/>
<path stroke="#73819d" vector-effect="non-scaling-stroke" d="
  M 85.02 370.22
  A 0.34 0.34 0.0 0 0 84.82 370.84
  L 92.21 376.03
  A 0.34 0.34 0.0 0 0 92.41 376.09
  L 112.59 376.09
  A 0.34 0.34 0.0 0 0 112.77 376.04
  L 120.98 370.84
  A 0.34 0.34 0.0 0 0 120.80 370.21
  L 85.02 370.22"
/>
<path stroke="#73819d" vector-effect="non-scaling-stroke" d="
  M 112.66 410.81
  A 0.34 0.34 0.0 0 0 112.84 410.76
  L 121.20 405.45
  A 0.34 0.34 0.0 0 0 121.02 404.82
  L 84.88 404.88
  A 0.34 0.34 0.0 0 0 84.68 405.50
  L 92.10 410.73
  A 0.34 0.34 0.0 0 0 92.30 410.79
  L 112.66 410.81"
/>
<path stroke="#73819d" vector-effect="non-scaling-stroke" d="
  M 444.16 320.18
  A 0.35 0.35 0.0 0 0 444.36 320.12
  L 451.84 314.88
  A 0.35 0.35 0.0 0 0 451.64 314.24
  L 415.86 314.24
  A 0.35 0.35 0.0 0 0 415.67 314.89
  L 423.89 320.12
  A 0.35 0.35 0.0 0 0 424.08 320.17
  L 444.16 320.18"
/>
<path stroke="#73819d" vector-effect="non-scaling-stroke" d="
  M 415.61 338.75
  A 0.31 0.31 0.0 0 0 415.45 339.32
  L 423.84 344.67
  A 0.31 0.31 0.0 0 0 424.01 344.72
  L 444.25 344.71
  A 0.31 0.31 0.0 0 0 444.43 344.65
  L 452.02 339.32
  A 0.31 0.31 0.0 0 0 451.84 338.76
  L 415.61 338.75"
/>
<path stroke="#73819d" vector-effect="non-scaling-stroke" d="
  M 415.62 373.55
  A 0.31 0.31 0.0 0 0 415.45 374.12
  L 423.93 379.43
  A 0.31 0.31 0.0 0 0 424.10 379.48
  L 444.22 379.49
  A 0.31 0.31 0.0 0 0 444.40 379.43
  L 451.97 374.10
  A 0.31 0.31 0.0 0 0 451.79 373.54
  L 415.62 373.55"
/>
<path stroke="#73819d" vector-effect="non-scaling-stroke" d="
  M 444.23 414.25
  A 0.33 0.33 0.0 0 0 444.42 414.19
  L 451.89 408.91
  A 0.33 0.33 0.0 0 0 451.70 408.31
  L 415.69 408.27
  A 0.33 0.33 0.0 0 0 415.52 408.88
  L 423.87 414.21
  A 0.33 0.33 0.0 0 0 424.05 414.26
  L 444.23 414.25"
/>
</g>
<path fill="#00072c" d="
  M 112.41 67.77
  L 112.21 59.66
  A 0.35 0.35 0.0 0 0 111.63 59.41
  Q 110.00 60.86 107.78 60.76
  A 1.04 1.04 0.0 0 0 106.87 61.21
  L 105.93 62.59
  A 0.44 0.44 0.0 0 1 105.13 62.37
  C 104.80 55.83 107.22 50.32 98.50 48.51
  C 94.05 47.59 88.64 46.71 84.35 48.92
  C 82.20 50.03 80.77 52.78 77.84 50.29
  A 1.40 1.39 65.1 0 0 76.94 49.96
  Q 74.91 49.98 73.89 51.66
  Q 70.23 57.71 65.57 61.95
  L 65.93 59.32
  A 0.96 0.96 0.0 0 0 65.60 58.46
  Q 60.13 53.89 58.07 48.18
  C 56.76 44.58 60.05 41.33 62.99 39.13
  Q 69.87 33.99 75.12 25.16
  Q 76.17 23.39 78.99 23.35
  C 91.84 23.19 103.56 24.81 114.40 32.11
  C 122.27 37.41 123.93 42.42 121.04 51.53
  Q 118.97 58.02 117.59 64.71
  C 117.08 67.17 114.25 67.49 112.41 67.77
  Z"
/>
<path fill="#feb9b8" d="
  M 112.41 67.77
  Q 110.07 79.15 99.97 85.19
  Q 99.51 85.47 99.35 85.98
  Q 98.42 88.91 99.42 92.63
  Q 98.56 95.27 98.50 97.75
  Q 98.44 100.44 98.69 106.50
  Q 90.83 108.46 84.50 108.49
  Q 81.15 108.52 79.84 108.69
  Q 73.30 100.52 69.75 90.97
  Q 71.32 86.90 71.38 82.60
  C 71.42 79.73 69.45 77.47 68.09 74.99
  Q 64.39 68.24 65.57 61.95
  Q 70.23 57.71 73.89 51.66
  Q 74.91 49.98 76.94 49.96
  A 1.40 1.39 65.1 0 1 77.84 50.29
  C 80.77 52.78 82.20 50.03 84.35 48.92
  C 88.64 46.71 94.05 47.59 98.50 48.51
  C 107.22 50.32 104.80 55.83 105.13 62.37
  A 0.44 0.44 0.0 0 0 105.93 62.59
  L 106.87 61.21
  A 1.04 1.04 0.0 0 1 107.78 60.76
  Q 110.00 60.86 111.63 59.41
  A 0.35 0.35 0.0 0 1 112.21 59.66
  L 112.41 67.77
  Z"
/>
<path fill="#00072c" d="
  M 69.75 90.97
  Q 73.30 100.52 79.84 108.69
  C 80.17 112.21 80.76 115.78 80.71 119.23
  C 80.36 142.65 77.70 160.23 74.27 188.43
  C 72.01 206.96 75.06 223.74 81.13 240.64
  A 0.65 0.64 63.5 0 0 82.08 240.96
  Q 95.50 232.43 108.53 222.06
  Q 107.93 224.72 106.72 225.97
  C 103.11 229.69 84.51 250.74 91.96 255.77
  Q 96.53 258.85 102.49 256.25
  C 110.91 252.56 115.60 241.98 118.77 233.82
  Q 119.99 230.67 121.88 227.99
  Q 128.27 218.91 134.38 210.26
  Q 137.85 211.87 141.36 213.41
  C 144.81 214.91 147.79 216.92 149.14 220.10
  Q 150.51 223.31 147.60 225.18
  Q 147.08 225.51 147.63 225.79
  Q 164.70 234.34 177.91 243.31
  C 179.17 244.17 179.40 245.62 179.30 247.22
  Q 179.07 251.17 180.51 254.46
  L 184.11 275.60
  L 185.84 285.98
  C 187.33 298.36 189.06 310.77 189.39 323.27
  Q 189.59 331.08 182.97 334.91
  Q 177.31 336.88 169.96 337.05
  L 166.00 336.97
  Q 165.29 336.44 163.71 336.57
  Q 159.90 336.68 160.23 333.26
  Q 160.71 328.33 163.17 321.82
  Q 163.35 321.35 163.22 320.85
  L 151.75 276.83
  L 149.95 269.71
  A 0.91 0.89 -7.2 0 0 149.06 269.03
  L 106.90 269.13
  Q 106.37 269.13 106.02 269.53
  L 100.71 275.59
  L 92.50 285.11
  C 89.79 288.04 86.13 291.33 85.14 295.34
  Q 80.65 313.54 76.18 331.76
  Q 74.66 337.96 74.12 344.36
  C 72.48 363.72 71.04 383.06 67.95 402.25
  C 67.68 403.97 66.95 405.51 66.09 406.94
  A 1.56 1.55 40.4 0 0 66.24 408.74
  C 68.18 411.01 72.51 414.88 67.98 417.46
  Q 65.83 418.68 61.83 419.27
  L 47.64 420.53
  L 42.42 420.24
  A 2.28 2.28 0.0 0 1 40.32 417.51
  Q 41.17 413.37 41.95 409.51
  C 42.84 405.11 41.60 400.28 41.57 395.73
  Q 41.34 363.86 42.19 331.99
  C 42.26 329.31 44.30 327.93 44.24 325.52
  C 44.11 319.42 41.46 312.86 40.09 307.29
  Q 38.81 302.14 38.02 295.61
  Q 35.98 278.79 35.55 261.83
  Q 35.50 259.62 34.41 257.97
  Q 32.62 255.24 30.37 252.86
  Q 30.03 252.50 29.56 252.63
  C 23.72 254.21 21.55 249.55 21.40 244.42
  C 21.09 233.70 22.89 224.54 25.22 212.07
  C 25.64 212.58 26.30 213.07 26.66 213.64
  Q 39.05 232.70 51.39 251.80
  C 56.57 259.82 65.02 270.35 74.02 273.93
  C 78.69 275.78 82.16 272.91 82.52 268.23
  C 83.31 258.06 67.57 245.88 60.34 240.37
  A 3.67 3.64 4.5 0 1 59.32 239.19
  L 40.06 203.71
  A 1.49 1.48 -28.2 0 0 38.06 203.11
  L 24.18 210.50
  Q 21.99 211.72 20.49 211.87
  Q 18.35 212.07 18.01 209.95
  C 14.49 187.89 14.22 164.80 14.82 142.50
  C 15.13 130.84 15.97 119.61 25.46 111.61
  Q 27.87 109.58 34.02 106.84
  C 42.57 103.05 53.67 97.53 59.61 90.10
  C 61.45 87.80 67.22 89.93 69.75 90.97
  Z"
/>
<path fill="#00072c" d="
  M 99.42 92.63
  C 111.31 97.00 119.71 100.23 129.05 105.64
  C 131.77 107.22 133.25 108.96 134.38 112.08
  C 140.79 129.79 145.53 148.02 146.85 166.07
  C 147.59 176.31 146.70 186.32 144.92 196.27
  Q 143.93 201.76 141.87 207.12
  A 0.97 0.97 0.0 0 1 140.11 207.24
  L 138.66 204.65
  C 135.53 199.73 129.53 195.34 123.33 195.90
  Q 122.82 195.94 122.58 196.39
  L 112.83 214.59
  Q 108.10 208.60 105.18 203.53
  C 100.99 196.23 100.00 189.73 100.03 180.56
  Q 100.17 143.52 98.69 106.50
  Q 98.44 100.44 98.50 97.75
  Q 98.56 95.27 99.42 92.63
  Z
  M 119.9226 187.8621
  A 3.26 0.42 94.0 0 0 120.5690 184.6393
  A 3.26 0.42 94.0 0 0 120.3774 181.3579
  A 3.26 0.42 94.0 0 0 119.7310 184.5807
  A 3.26 0.42 94.0 0 0 119.9226 187.8621
  Z"
/>
<path fill="#001c54" d="
  M 383.47 254.80
  Q 383.24 255.57 383.58 256.18
  A 0.95 0.95 0.0 0 1 382.75 257.59
  L 322.64 257.60
  A 1.11 1.10 89.5 0 1 321.54 256.51
  Q 321.53 255.15 322.67 254.06
  L 328.64 250.14
  A 1.06 1.06 0.0 0 0 329.10 249.44
  L 331.35 235.10
  Q 331.44 234.51 330.84 234.50
  Q 299.97 234.47 269.21 234.49
  C 262.83 234.50 260.00 232.58 260.00 226.13
  Q 259.95 170.68 259.99 115.24
  C 259.99 110.55 261.20 106.10 266.50 106.10
  Q 351.94 106.05 437.38 106.11
  C 443.63 106.11 444.37 110.91 444.37 116.26
  Q 444.39 171.77 444.36 227.28
  C 444.36 233.44 439.88 234.50 434.48 234.50
  Q 404.21 234.48 373.95 234.50
  Q 373.31 234.50 373.41 235.14
  L 375.57 249.23
  A 1.29 1.28 -78.1 0 0 376.13 250.10
  L 383.47 254.80
  Z
  M 353.25 109.88
  A 1.15 1.15 0.0 0 0 352.10 108.73
  A 1.15 1.15 0.0 0 0 350.95 109.88
  A 1.15 1.15 0.0 0 0 352.10 111.03
  A 1.15 1.15 0.0 0 0 353.25 109.88
  Z
  M 438.09 113.24
  A 0.27 0.27 0.0 0 0 437.82 112.97
  L 266.48 112.97
  A 0.27 0.27 0.0 0 0 266.21 113.24
  L 266.21 208.88
  A 0.27 0.27 0.0 0 0 266.48 209.15
  L 437.82 209.15
  A 0.27 0.27 0.0 0 0 438.09 208.88
  L 438.09 113.24
  Z
  M 391.7873 220.3968
  A 0.89 0.89 0.0 0 0 390.8942 219.5099
  L 390.8142 219.5102
  A 0.89 0.89 0.0 0 0 389.9273 220.4033
  L 389.9527 227.7032
  A 0.89 0.89 0.0 0 0 390.8458 228.5901
  L 390.9258 228.5898
  A 0.89 0.89 0.0 0 0 391.8127 227.6967
  L 391.7873 220.3968
  Z
  M 356.27 225.64
  A 4.13 4.13 0.0 0 0 352.14 221.51
  A 4.13 4.13 0.0 0 0 348.01 225.64
  A 4.13 4.13 0.0 0 0 352.14 229.77
  A 4.13 4.13 0.0 0 0 356.27 225.64
  Z"
/>
<path fill="#0e6ba8" d="
  M 98.69 106.50
  Q 100.17 143.52 100.03 180.56
  C 100.00 189.73 100.99 196.23 105.18 203.53
  Q 108.10 208.60 112.83 214.59
  L 108.53 222.06
  Q 95.50 232.43 82.08 240.96
  A 0.65 0.64 63.5 0 1 81.13 240.64
  C 75.06 223.74 72.01 206.96 74.27 188.43
  C 77.70 160.23 80.36 142.65 80.71 119.23
  C 80.76 115.78 80.17 112.21 79.84 108.69
  Q 81.15 108.52 84.50 108.49
  Q 90.83 108.46 98.69 106.50
  Z"
/>
<circle fill="#f2f2f2" cx="352.10" cy="109.88" r="1.15"/>
<path fill="#f2f2f2" d="
  M 438.09 208.88
  A 0.27 0.27 0.0 0 1 437.82 209.15
  L 266.48 209.15
  A 0.27 0.27 0.0 0 1 266.21 208.88
  L 266.21 113.24
  A 0.27 0.27 0.0 0 1 266.48 112.97
  L 437.82 112.97
  A 0.27 0.27 0.0 0 1 438.09 113.24
  L 438.09 208.88
  Z
  M 335.85 145.16
  A 0.55 0.55 0.0 0 0 335.30 144.61
  L 315.98 144.61
  A 0.55 0.55 0.0 0 0 315.43 145.16
  L 315.43 148.92
  A 0.55 0.55 0.0 0 0 315.98 149.47
  L 335.30 149.47
  A 0.55 0.55 0.0 0 0 335.85 148.92
  L 335.85 145.16
  Z
  M 391.97 145.13
  A 0.59 0.59 0.0 0 0 391.38 144.54
  L 343.60 144.54
  A 0.59 0.59 0.0 0 0 343.01 145.13
  L 343.01 148.89
  A 0.59 0.59 0.0 0 0 343.60 149.48
  L 391.38 149.48
  A 0.59 0.59 0.0 0 0 391.97 148.89
  L 391.97 145.13
  Z
  M 421.1555 145.2815
  A 0.63 0.63 0.0 0 0 420.5310 144.6460
  L 414.5912 144.5942
  A 0.63 0.63 0.0 0 0 413.9558 145.2187
  L 413.9245 148.7985
  A 0.63 0.63 0.0 0 0 414.5490 149.4340
  L 420.4888 149.4858
  A 0.63 0.63 0.0 0 0 421.1242 148.8613
  L 421.1555 145.2815
  Z
  M 406.17 149.40
  A 0.61 0.61 0.0 0 0 406.78 148.76
  L 406.64 145.35
  A 0.61 0.61 0.0 0 0 406.04 144.76
  L 400.14 144.71
  A 0.61 0.61 0.0 0 0 399.53 145.31
  L 399.52 148.85
  A 0.61 0.61 0.0 0 0 400.14 149.46
  L 406.17 149.40
  Z
  M 296.8175 156.2048
  A 0.67 0.67 0.0 0 0 296.1428 155.5395
  L 290.2430 155.5807
  A 0.67 0.67 0.0 0 0 289.5777 156.2553
  L 289.6025 159.8152
  A 0.67 0.67 0.0 0 0 290.2772 160.4805
  L 296.1770 160.4393
  A 0.67 0.67 0.0 0 0 296.8423 159.7647
  L 296.8175 156.2048
  Z
  M 311.2568 156.1537
  A 0.62 0.62 0.0 0 0 310.6357 155.5348
  L 304.6357 155.5452
  A 0.62 0.62 0.0 0 0 304.0168 156.1663
  L 304.0232 159.8463
  A 0.62 0.62 0.0 0 0 304.6443 160.4652
  L 310.6443 160.4548
  A 0.62 0.62 0.0 0 0 311.2632 159.8337
  L 311.2568 156.1537
  Z
  M 367.33 155.99
  A 0.45 0.45 0.0 0 0 366.88 155.54
  L 318.92 155.54
  A 0.45 0.45 0.0 0 0 318.47 155.99
  L 318.47 160.01
  A 0.45 0.45 0.0 0 0 318.92 160.46
  L 366.88 160.46
  A 0.45 0.45 0.0 0 0 367.33 160.01
  L 367.33 155.99
  Z
  M 394.59 155.97
  A 0.41 0.41 0.0 0 0 394.18 155.56
  L 374.60 155.56
  A 0.41 0.41 0.0 0 0 374.19 155.97
  L 374.19 160.05
  A 0.41 0.41 0.0 0 0 374.60 160.46
  L 394.18 160.46
  A 0.41 0.41 0.0 0 0 394.59 160.05
  L 394.59 155.97
  Z
  M 422.26 155.98
  A 0.42 0.42 0.0 0 0 421.84 155.56
  L 402.16 155.56
  A 0.42 0.42 0.0 0 0 401.74 155.98
  L 401.74 160.04
  A 0.42 0.42 0.0 0 0 402.16 160.46
  L 421.84 160.46
  A 0.42 0.42 0.0 0 0 422.26 160.04
  L 422.26 155.98
  Z
  M 296.8266 166.6637
  A 0.53 0.53 0.0 0 0 296.2957 166.1346
  L 290.1157 166.1454
  A 0.53 0.53 0.0 0 0 289.5866 166.6763
  L 289.5934 170.5563
  A 0.53 0.53 0.0 0 0 290.1243 171.0854
  L 296.3043 171.0746
  A 0.53 0.53 0.0 0 0 296.8334 170.5437
  L 296.8266 166.6637
  Z
  M 324.50 166.69
  A 0.56 0.56 0.0 0 0 323.94 166.13
  L 304.58 166.13
  A 0.56 0.56 0.0 0 0 304.02 166.69
  L 304.02 170.51
  A 0.56 0.56 0.0 0 0 304.58 171.07
  L 323.94 171.07
  A 0.56 0.56 0.0 0 0 324.50 170.51
  L 324.50 166.69
  Z
  M 352.21 166.62
  A 0.46 0.46 0.0 0 0 351.75 166.16
  L 332.15 166.16
  A 0.46 0.46 0.0 0 0 331.69 166.62
  L 331.69 170.62
  A 0.46 0.46 0.0 0 0 332.15 171.08
  L 351.75 171.08
  A 0.46 0.46 0.0 0 0 352.21 170.62
  L 352.21 166.62
  Z
  M 407.83 166.64
  A 0.49 0.49 0.0 0 0 407.34 166.15
  L 359.46 166.15
  A 0.49 0.49 0.0 0 0 358.97 166.64
  L 358.97 170.56
  A 0.49 0.49 0.0 0 0 359.46 171.05
  L 407.34 171.05
  A 0.49 0.49 0.0 0 0 407.83 170.56
  L 407.83 166.64
  Z
  M 422.2299 166.6812
  A 0.57 0.57 0.0 0 0 421.6570 166.1142
  L 415.5971 166.1459
  A 0.57 0.57 0.0 0 0 415.0300 166.7189
  L 415.0501 170.5388
  A 0.57 0.57 0.0 0 0 415.6230 171.1058
  L 421.6829 171.0741
  A 0.57 0.57 0.0 0 0 422.2500 170.5011
  L 422.2299 166.6812
  Z
  M 310.15 176.81
  A 0.45 0.45 0.0 0 0 309.70 176.36
  L 290.04 176.36
  A 0.45 0.45 0.0 0 0 289.59 176.81
  L 289.59 180.81
  A 0.45 0.45 0.0 0 0 290.04 181.26
  L 309.70 181.26
  A 0.45 0.45 0.0 0 0 310.15 180.81
  L 310.15 176.81
  Z
  M 366.23 176.88
  A 0.52 0.52 0.0 0 0 365.71 176.36
  L 317.79 176.36
  A 0.52 0.52 0.0 0 0 317.27 176.88
  L 317.27 180.74
  A 0.52 0.52 0.0 0 0 317.79 181.26
  L 365.71 181.26
  A 0.52 0.52 0.0 0 0 366.23 180.74
  L 366.23 176.88
  Z
  M 380.9904 176.8190
  A 0.47 0.47 0.0 0 0 380.5229 176.3465
  L 374.2230 176.3135
  A 0.47 0.47 0.0 0 0 373.7505 176.7811
  L 373.7296 180.7810
  A 0.47 0.47 0.0 0 0 374.1971 181.2535
  L 380.4970 181.2865
  A 0.47 0.47 0.0 0 0 380.9695 180.8189
  L 380.9904 176.8190
  Z
  M 395.3731 176.8174
  A 0.49 0.49 0.0 0 0 394.8814 176.3291
  L 388.6214 176.3509
  A 0.49 0.49 0.0 0 0 388.1331 176.8426
  L 388.1469 180.7826
  A 0.49 0.49 0.0 0 0 388.6386 181.2709
  L 394.8986 181.2491
  A 0.49 0.49 0.0 0 0 395.3869 180.7574
  L 395.3731 176.8174
  Z"
/>
<rect fill="#0e6ba8" x="315.43" y="144.61" width="20.42" height="4.86" rx="0.55"/>
<rect fill="#0e6ba8" x="343.01" y="144.54" width="48.96" height="4.94" rx="0.59"/>
<rect fill="#0e6ba8" x="-3.60" y="-2.42" transform="translate(417.54,147.04) rotate(0.5)" width="7.20" height="4.84" rx="0.63"/>
<path fill="#0e6ba8" d="
  M 406.17 149.40
  L 400.14 149.46
  A 0.61 0.61 0.0 0 1 399.52 148.85
  L 399.53 145.31
  A 0.61 0.61 0.0 0 1 400.14 144.71
  L 406.04 144.76
  A 0.61 0.61 0.0 0 1 406.64 145.35
  L 406.78 148.76
  A 0.61 0.61 0.0 0 1 406.17 149.40
  Z"
/>
<rect fill="#0e6ba8" x="-3.62" y="-2.45" transform="translate(293.21,158.01) rotate(-0.4)" width="7.24" height="4.90" rx="0.67"/>
<rect fill="#0e6ba8" x="-3.62" y="-2.46" transform="translate(307.64,158.00) rotate(-0.1)" width="7.24" height="4.92" rx="0.62"/>
<rect fill="#0e6ba8" x="318.47" y="155.54" width="48.86" height="4.92" rx="0.45"/>
<rect fill="#0e6ba8" x="374.19" y="155.56" width="20.40" height="4.90" rx="0.41"/>
<rect fill="#0e6ba8" x="401.74" y="155.56" width="20.52" height="4.90" rx="0.42"/>
<rect fill="#0e6ba8" x="-3.62" y="-2.47" transform="translate(293.21,168.61) rotate(-0.1)" width="7.24" height="4.94" rx="0.53"/>
<rect fill="#0e6ba8" x="304.02" y="166.13" width="20.48" height="4.94" rx="0.56"/>
<rect fill="#0e6ba8" x="331.69" y="166.16" width="20.52" height="4.92" rx="0.46"/>
<rect fill="#0e6ba8" x="358.97" y="166.15" width="48.86" height="4.90" rx="0.49"/>
<rect fill="#0e6ba8" x="-3.60" y="-2.48" transform="translate(418.64,168.61) rotate(-0.3)" width="7.20" height="4.96" rx="0.57"/>
<rect fill="#0e6ba8" x="289.59" y="176.36" width="20.56" height="4.90" rx="0.45"/>
<rect fill="#0e6ba8" x="317.27" y="176.36" width="48.96" height="4.90" rx="0.52"/>
<rect fill="#0e6ba8" x="-3.62" y="-2.47" transform="translate(377.36,178.80) rotate(0.3)" width="7.24" height="4.94" rx="0.47"/>
<rect fill="#0e6ba8" x="-3.62" y="-2.46" transform="translate(391.76,178.80) rotate(-0.2)" width="7.24" height="4.92" rx="0.49"/>
<ellipse fill="#0e6ba8" cx="0.00" cy="0.00" transform="translate(120.15,184.61) rotate(94.0)" rx="3.26" ry="0.42"/>
<path fill="#feb9b8" d="
  M 138.66 204.65
  Q 136.20 206.89 134.38 210.26
  Q 128.27 218.91 121.88 227.99
  Q 119.99 230.67 118.77 233.82
  C 115.60 241.98 110.91 252.56 102.49 256.25
  Q 96.53 258.85 91.96 255.77
  C 84.51 250.74 103.11 229.69 106.72 225.97
  Q 107.93 224.72 108.53 222.06
  L 112.83 214.59
  L 122.58 196.39
  Q 122.82 195.94 123.33 195.90
  C 129.53 195.34 135.53 199.73 138.66 204.65
  Z"
/>
<rect fill="#e6e135" x="-1.38" y="-4.34" transform="translate(211.32,202.14) rotate(-0.1)" width="2.76" height="8.68" rx="0.51"/>
<path fill="#feb9b8" d="
  M 25.22 212.07
  Q 24.94 210.95 24.18 210.50
  L 38.06 203.11
  A 1.49 1.48 -28.2 0 1 40.06 203.71
  L 59.32 239.19
  A 3.67 3.64 4.5 0 0 60.34 240.37
  C 67.57 245.88 83.31 258.06 82.52 268.23
  C 82.16 272.91 78.69 275.78 74.02 273.93
  C 65.02 270.35 56.57 259.82 51.39 251.80
  Q 39.05 232.70 26.66 213.64
  C 26.30 213.07 25.64 212.58 25.22 212.07
  Z
  M 51.1694 241.9291
  A 4.97 1.45 86.2 0 0 52.2868 236.8739
  A 4.97 1.45 86.2 0 0 50.5106 232.0109
  A 4.97 1.45 86.2 0 0 49.3932 237.0661
  A 4.97 1.45 86.2 0 0 51.1694 241.9291
  Z"
/>
<rect fill="#e6e135" x="164.36" y="206.00" width="2.90" height="8.88" rx="0.72"/>
<rect fill="#00072c" x="-0.93" y="-4.54" transform="translate(390.87,224.05) rotate(-0.2)" width="1.86" height="9.08" rx="0.89"/>
<circle fill="#f2f2f2" cx="352.14" cy="225.64" r="4.13"/>
<ellipse fill="#e6e135" cx="0.00" cy="0.00" transform="translate(50.84,236.97) rotate(86.2)" rx="4.97" ry="1.45"/>
<path fill="#e6e6e6" d="
  M 322.67 254.06
  Q 321.53 255.15 321.54 256.51
  A 1.11 1.10 89.5 0 0 322.64 257.60
  L 382.75 257.59
  A 0.95 0.95 0.0 0 0 383.58 256.18
  Q 383.24 255.57 383.47 254.80
  Q 383.80 254.77 383.95 254.50
  Q 384.06 254.29 384.00 254.09
  Q 383.93 253.84 384.19 253.82
  Q 392.21 253.27 400.25 253.29
  Q 432.87 253.37 464.88 253.23
  A 4.56 4.55 62.0 0 1 467.49 254.03
  L 502.02 277.67
  Q 502.05 277.93 502.06 278.12
  Q 502.07 278.67 501.52 278.66
  Q 420.01 277.82 338.50 277.21
  Q 242.92 276.49 193.76 276.38
  Q 187.80 276.36 184.11 275.60
  L 180.51 254.46
  Q 183.10 253.33 184.37 253.33
  Q 250.57 253.42 316.76 253.41
  C 318.81 253.41 320.68 253.75 322.67 254.06
  Z
  M 387.06 262.67
  C 378.22 259.44 367.62 258.53 358.74 262.22
  A 1.29 1.28 -28.6 0 0 358.17 264.13
  Q 360.16 267.02 363.95 268.19
  C 370.27 270.16 384.43 273.75 389.73 268.66
  C 392.41 266.09 389.38 263.52 387.06 262.67
  Z
  M 232.21 261.49
  A 0.97 0.97 0.0 0 0 231.29 262.14
  L 228.50 270.25
  A 0.97 0.97 0.0 0 0 229.42 271.54
  L 344.90 271.54
  A 0.97 0.97 0.0 0 0 345.84 270.31
  L 343.57 262.21
  A 0.97 0.97 0.0 0 0 342.63 261.50
  L 232.21 261.49
  Z"
/>
<path fill="#001c54" d="
  M 387.06 262.67
  C 389.38 263.52 392.41 266.09 389.73 268.66
  C 384.43 273.75 370.27 270.16 363.95 268.19
  Q 360.16 267.02 358.17 264.13
  A 1.29 1.28 -28.6 0 1 358.74 262.22
  C 367.62 258.53 378.22 259.44 387.06 262.67
  Z
  M 383.4301 264.5695
  A 0.80 0.80 0.0 0 0 382.6329 263.7667
  L 378.7729 263.7533
  A 0.80 0.80 0.0 0 0 377.9702 264.5505
  L 377.9699 264.6305
  A 0.80 0.80 0.0 0 0 378.7671 265.4333
  L 382.6271 265.4467
  A 0.80 0.80 0.0 0 0 383.4298 264.6495
  L 383.4301 264.5695
  Z"
/>
<path fill="#001c54" d="
  M 232.21 261.49
  L 342.63 261.50
  A 0.97 0.97 0.0 0 1 343.57 262.21
  L 345.84 270.31
  A 0.97 0.97 0.0 0 1 344.90 271.54
  L 229.42 271.54
  A 0.97 0.97 0.0 0 1 228.50 270.25
  L 231.29 262.14
  A 0.97 0.97 0.0 0 1 232.21 261.49
  Z"
/>
<rect fill="#f2f2f2" x="-2.73" y="-0.84" transform="translate(380.70,264.60) rotate(0.2)" width="5.46" height="1.68" rx="0.80"/>
<path fill="#e6e6e6" d="
  M 151.75 276.83
  Q 148.87 275.76 147.25 275.78
  Q 125.62 276.00 104.00 275.58
  C 102.88 275.55 102.21 276.28 101.37 276.22
  Q 100.59 276.17 100.71 275.59
  L 106.02 269.53
  Q 106.37 269.13 106.90 269.13
  L 149.06 269.03
  A 0.91 0.89 -7.2 0 1 149.95 269.71
  L 151.75 276.83
  Z"
/>
<path fill="#cfcfcf" d="
  M 184.11 275.60
  Q 187.80 276.36 193.76 276.38
  Q 242.92 276.49 338.50 277.21
  Q 420.01 277.82 501.52 278.66
  Q 502.07 278.67 502.06 278.12
  Q 502.05 277.93 502.02 277.67
  C 504.23 279.49 503.59 282.96 503.42 285.46
  A 0.74 0.73 1.2 0 1 502.69 286.15
  Q 490.82 286.35 479.00 286.13
  Q 478.40 286.11 478.09 286.71
  Q 477.50 286.09 476.96 286.18
  Q 476.57 286.24 476.52 286.24
  Q 435.01 286.21 393.10 286.17
  A 1.05 1.04 -89.7 0 0 392.06 287.21
  L 391.07 446.36
  L 370.12 412.34
  A 2.59 2.57 -60.9 0 1 369.74 410.99
  L 369.74 286.75
  A 0.52 0.52 0.0 0 0 369.22 286.23
  Q 280.25 286.26 191.25 286.24
  Q 189.15 286.24 186.50 285.48
  Q 186.22 285.40 185.84 285.98
  L 184.11 275.60
  Z"
/>
<path fill="#cfcfcf" d="
  M 100.71 275.59
  Q 100.59 276.17 101.37 276.22
  C 102.21 276.28 102.88 275.55 104.00 275.58
  Q 125.62 276.00 147.25 275.78
  Q 148.87 275.76 151.75 276.83
  L 163.22 320.85
  Q 163.35 321.35 163.17 321.82
  Q 160.71 328.33 160.23 333.26
  Q 159.90 336.68 163.71 336.57
  L 164.04 337.19
  C 164.42 339.23 166.53 338.59 166.63 341.87
  Q 166.88 350.75 167.00 359.64
  Q 167.03 361.32 166.52 369.84
  C 166.22 374.75 166.96 380.16 166.95 384.39
  Q 166.93 395.52 166.99 406.41
  Q 167.00 408.11 166.11 409.55
  L 145.74 442.56
  L 144.50 287.66
  A 1.55 1.55 0.0 0 0 142.95 286.12
  Q 121.23 286.19 99.24 286.25
  C 96.60 286.26 94.85 287.11 92.50 285.11
  L 100.71 275.59
  Z"
/>
<path fill="#e6e6e6" d="
  M 92.50 285.11
  C 94.85 287.11 96.60 286.26 99.24 286.25
  Q 121.23 286.19 142.95 286.12
  A 1.55 1.55 0.0 0 1 144.50 287.66
  L 145.74 442.56
  Q 144.97 443.99 143.75 445.12
  Q 143.38 445.47 142.87 445.47
  Q 108.05 445.55 73.25 445.49
  Q 68.53 445.48 65.63 444.41
  L 61.83 419.27
  Q 65.83 418.68 67.98 417.46
  C 72.51 414.88 68.18 411.01 66.24 408.74
  A 1.56 1.55 40.4 0 1 66.09 406.94
  C 66.95 405.51 67.68 403.97 67.95 402.25
  C 71.04 383.06 72.48 363.72 74.12 344.36
  Q 74.66 337.96 76.18 331.76
  Q 80.65 313.54 85.14 295.34
  C 86.13 291.33 89.79 288.04 92.50 285.11
  Z
  M 112.63 316.73
  A 0.31 0.31 0.0 0 0 112.80 316.68
  L 121.23 311.34
  A 0.31 0.31 0.0 0 0 121.06 310.77
  L 84.81 310.78
  A 0.31 0.31 0.0 0 0 84.63 311.34
  L 92.21 316.67
  A 0.31 0.31 0.0 0 0 92.39 316.73
  L 112.63 316.73
  Z
  M 84.90 335.43
  A 0.32 0.32 0.0 0 0 84.72 336.01
  L 92.19 341.25
  A 0.32 0.32 0.0 0 0 92.37 341.31
  L 112.58 341.33
  A 0.32 0.32 0.0 0 0 112.75 341.28
  L 121.04 336.02
  A 0.32 0.32 0.0 0 0 120.87 335.43
  L 84.90 335.43
  Z
  M 85.02 370.22
  A 0.34 0.34 0.0 0 0 84.82 370.84
  L 92.21 376.03
  A 0.34 0.34 0.0 0 0 92.41 376.09
  L 112.59 376.09
  A 0.34 0.34 0.0 0 0 112.77 376.04
  L 120.98 370.84
  A 0.34 0.34 0.0 0 0 120.80 370.21
  L 85.02 370.22
  Z
  M 112.66 410.81
  A 0.34 0.34 0.0 0 0 112.84 410.76
  L 121.20 405.45
  A 0.34 0.34 0.0 0 0 121.02 404.82
  L 84.88 404.88
  A 0.34 0.34 0.0 0 0 84.68 405.50
  L 92.10 410.73
  A 0.34 0.34 0.0 0 0 92.30 410.79
  L 112.66 410.81
  Z"
/>
<path fill="#e6e6e6" d="
  M 478.09 286.71
  L 476.45 447.62
  A 1.15 1.14 -89.5 0 1 475.31 448.75
  Q 439.49 448.95 404.19 448.87
  Q 404.13 448.87 399.31 449.03
  Q 392.59 449.25 391.07 446.36
  L 392.06 287.21
  A 1.05 1.04 -89.7 0 1 393.10 286.17
  Q 435.01 286.21 476.52 286.24
  Q 476.57 286.24 476.96 286.18
  Q 477.50 286.09 478.09 286.71
  Z
  M 444.16 320.18
  A 0.35 0.35 0.0 0 0 444.36 320.12
  L 451.84 314.88
  A 0.35 0.35 0.0 0 0 451.64 314.24
  L 415.86 314.24
  A 0.35 0.35 0.0 0 0 415.67 314.89
  L 423.89 320.12
  A 0.35 0.35 0.0 0 0 424.08 320.17
  L 444.16 320.18
  Z
  M 415.61 338.75
  A 0.31 0.31 0.0 0 0 415.45 339.32
  L 423.84 344.67
  A 0.31 0.31 0.0 0 0 424.01 344.72
  L 444.25 344.71
  A 0.31 0.31 0.0 0 0 444.43 344.65
  L 452.02 339.32
  A 0.31 0.31 0.0 0 0 451.84 338.76
  L 415.61 338.75
  Z
  M 415.62 373.55
  A 0.31 0.31 0.0 0 0 415.45 374.12
  L 423.93 379.43
  A 0.31 0.31 0.0 0 0 424.10 379.48
  L 444.22 379.49
  A 0.31 0.31 0.0 0 0 444.40 379.43
  L 451.97 374.10
  A 0.31 0.31 0.0 0 0 451.79 373.54
  L 415.62 373.55
  Z
  M 444.23 414.25
  A 0.33 0.33 0.0 0 0 444.42 414.19
  L 451.89 408.91
  A 0.33 0.33 0.0 0 0 451.70 408.31
  L 415.69 408.27
  A 0.33 0.33 0.0 0 0 415.52 408.88
  L 423.87 414.21
  A 0.33 0.33 0.0 0 0 424.05 414.26
  L 444.23 414.25
  Z"
/>
<path fill="#001c54" d="
  M 112.63 316.73
  L 92.39 316.73
  A 0.31 0.31 0.0 0 1 92.21 316.67
  L 84.63 311.34
  A 0.31 0.31 0.0 0 1 84.81 310.78
  L 121.06 310.77
  A 0.31 0.31 0.0 0 1 121.23 311.34
  L 112.80 316.68
  A 0.31 0.31 0.0 0 1 112.63 316.73
  Z"
/>
<path fill="#001c54" d="
  M 444.16 320.18
  L 424.08 320.17
  A 0.35 0.35 0.0 0 1 423.89 320.12
  L 415.67 314.89
  A 0.35 0.35 0.0 0 1 415.86 314.24
  L 451.64 314.24
  A 0.35 0.35 0.0 0 1 451.84 314.88
  L 444.36 320.12
  A 0.35 0.35 0.0 0 1 444.16 320.18
  Z"
/>
<path fill="#feb9b8" d="
  M 182.97 334.91
  L 187.77 353.87
  Q 176.18 353.04 171.23 363.33
  Q 169.10 349.84 169.96 337.05
  Q 177.31 336.88 182.97 334.91
  Z"
/>
<path fill="#001c54" d="
  M 84.90 335.43
  L 120.87 335.43
  A 0.32 0.32 0.0 0 1 121.04 336.02
  L 112.75 341.28
  A 0.32 0.32 0.0 0 1 112.58 341.33
  L 92.37 341.31
  A 0.32 0.32 0.0 0 1 92.19 341.25
  L 84.72 336.01
  A 0.32 0.32 0.0 0 1 84.90 335.43
  Z"
/>
<path fill="#0e6ba8" d="
  M 163.71 336.57
  Q 165.29 336.44 166.00 336.97
  Q 164.81 336.82 164.04 337.19
  L 163.71 336.57
  Z"
/>
<path fill="#001c54" d="
  M 415.61 338.75
  L 451.84 338.76
  A 0.31 0.31 0.0 0 1 452.02 339.32
  L 444.43 344.65
  A 0.31 0.31 0.0 0 1 444.25 344.71
  L 424.01 344.72
  A 0.31 0.31 0.0 0 1 423.84 344.67
  L 415.45 339.32
  A 0.31 0.31 0.0 0 1 415.61 338.75
  Z"
/>
<path fill="#00072c" d="
  M 187.77 353.87
  Q 189.75 355.34 194.21 360.78
  Q 197.43 364.71 203.54 366.93
  C 207.80 368.47 207.20 375.03 204.08 377.40
  C 200.75 379.92 194.89 378.04 190.91 380.17
  Q 188.69 381.35 187.32 381.45
  C 181.87 381.86 174.73 379.47 169.49 377.77
  A 2.00 1.99 11.4 0 1 168.12 375.71
  Q 168.67 369.37 171.23 363.33
  Q 176.18 353.04 187.77 353.87
  Z"
/>
<path fill="#001c54" d="
  M 85.02 370.22
  L 120.80 370.21
  A 0.34 0.34 0.0 0 1 120.98 370.84
  L 112.77 376.04
  A 0.34 0.34 0.0 0 1 112.59 376.09
  L 92.41 376.09
  A 0.34 0.34 0.0 0 1 92.21 376.03
  L 84.82 370.84
  A 0.34 0.34 0.0 0 1 85.02 370.22
  Z"
/>
<path fill="#001c54" d="
  M 415.62 373.55
  L 451.79 373.54
  A 0.31 0.31 0.0 0 1 451.97 374.10
  L 444.40 379.43
  A 0.31 0.31 0.0 0 1 444.22 379.49
  L 424.10 379.48
  A 0.31 0.31 0.0 0 1 423.93 379.43
  L 415.45 374.12
  A 0.31 0.31 0.0 0 1 415.62 373.55
  Z"
/>
<path fill="#001c54" d="
  M 112.66 410.81
  L 92.30 410.79
  A 0.34 0.34 0.0 0 1 92.10 410.73
  L 84.68 405.50
  A 0.34 0.34 0.0 0 1 84.88 404.88
  L 121.02 404.82
  A 0.34 0.34 0.0 0 1 121.20 405.45
  L 112.84 410.76
  A 0.34 0.34 0.0 0 1 112.66 410.81
  Z"
/>
<path fill="#001c54" d="
  M 444.23 414.25
  L 424.05 414.26
  A 0.33 0.33 0.0 0 1 423.87 414.21
  L 415.52 408.88
  A 0.33 0.33 0.0 0 1 415.69 408.27
  L 451.70 408.31
  A 0.33 0.33 0.0 0 1 451.89 408.91
  L 444.42 414.19
  A 0.33 0.33 0.0 0 1 444.23 414.25
  Z"
/>
<path fill="#feb9b8" d="
  M 61.83 419.27
  L 65.63 444.41
  L 65.48 451.52
  Q 60.01 450.99 54.50 450.31
  Q 52.12 450.02 49.77 450.55
  L 47.64 420.53
  L 61.83 419.27
  Z"
/>
<path fill="#00072c" d="
  M 65.48 451.52
  Q 67.37 456.02 69.28 460.18
  C 75.20 473.06 63.29 468.91 60.78 476.54
  C 59.27 481.12 55.90 483.10 51.05 483.39
  C 44.35 483.78 31.84 482.29 35.83 472.12
  C 37.53 467.78 39.80 466.23 42.83 463.57
  C 47.21 459.73 45.30 454.28 49.77 450.55
  Q 52.12 450.02 54.50 450.31
  Q 60.01 450.99 65.48 451.52
  Z"
/>
</svg>
