<?xml version="1.0" encoding="UTF-8" standalone="no"?>
<!DOCTYPE svg PUBLIC "-//W3C//DTD SVG 1.1//EN" "http://www.w3.org/Graphics/SVG/1.1/DTD/svg11.dtd">
<svg xmlns="http://www.w3.org/2000/svg" version="1.1" viewBox="0.00 0.00 500.00 500.00">
<g stroke-width="2.00" fill="none" stroke-linecap="butt">
<path stroke="#8e6248" vector-effect="non-scaling-stroke" d="
  M 302.10 150.54
  L 298.51 149.88"
/>
<path stroke="#6c3f26" vector-effect="non-scaling-stroke" d="
  M 298.51 149.88
  Q 298.74 148.94 297.92 147.80"
/>
<path stroke="#28353d" vector-effect="non-scaling-stroke" d="
  M 297.92 147.80
  Q 298.25 147.96 298.66 147.94
  C 301.22 147.76 301.66 140.94 301.91 139.27
  C 302.58 134.63 304.94 132.06 308.76 129.75
  Q 310.31 128.81 309.03 127.53
  L 308.57 127.07
  A 1.18 1.18 0.0 0 0 307.03 126.96
  L 304.53 128.83
  A 0.97 0.97 0.0 0 1 302.98 128.04
  Q 303.31 110.52 288.78 101.25
  Q 281.39 96.53 278.00 95.47
  Q 261.54 90.31 245.34 94.55
  C 231.90 98.07 223.56 106.82 220.30 120.33
  C 219.20 124.91 220.38 128.70 222.01 132.90
  C 223.14 135.79 222.60 138.77 225.89 140.92
  Q 226.18 141.12 226.38 140.82
  Q 226.45 140.72 226.40 140.51
  A 0.02 0.01 -59.9 0 0 226.37 140.52
  L 226.53 141.79"
/>
<path stroke="#6c3f26" vector-effect="non-scaling-stroke" d="
  M 226.53 141.79
  L 224.91 152.52"
/>
<path stroke="#71442b" vector-effect="non-scaling-stroke" d="
  M 297.92 147.80
  C 295.99 141.73 293.36 137.45 289.32 131.15
  Q 288.43 129.78 286.94 130.23"
/>
<path stroke="#93674d" vector-effect="non-scaling-stroke" d="
  M 286.94 130.23
  Q 286.27 128.17 283.87 126.66
  Q 269.69 117.71 254.67 125.02
  A 1.95 1.95 0.0 0 1 253.05 125.06
  C 241.83 120.34 230.26 127.91 227.87 139.50"
/>
<path stroke="#71442b" vector-effect="non-scaling-stroke" d="
  M 227.87 139.50
  Q 227.47 140.71 226.53 141.79"
/>
<path stroke="#d67136" vector-effect="non-scaling-stroke" d="
  M 286.94 130.23
  Q 287.89 135.05 289.37 139.78
  Q 290.18 142.37 290.17 144.31
  C 290.16 147.49 289.14 150.66 289.51 153.56
  Q 289.81 155.93 290.59 158.07
  A 0.54 0.54 0.0 0 0 291.58 158.12
  Q 294.10 152.75 298.51 149.88"
/>
<path stroke="#f57343" vector-effect="non-scaling-stroke" d="
  M 290.52 183.63
  Q 290.13 183.02 289.61 182.83
  A 0.56 0.56 0.0 0 0 288.90 183.15
  C 284.90 193.43 276.19 198.09 266.62 202.85
  Q 256.98 207.65 248.24 202.04
  Q 243.84 199.22 238.81 196.57"
/>
<path stroke="#d67136" vector-effect="non-scaling-stroke" d="
  M 224.84 153.10
  Q 225.16 152.56 225.61 152.91
  Q 228.59 155.26 229.25 157.74
  A 0.50 0.50 0.0 0 0 230.24 157.59
  C 229.98 151.36 228.84 145.68 227.87 139.50"
/>
<path stroke="#f57343" vector-effect="non-scaling-stroke" d="
  M 290.03 185.97
  Q 289.42 185.73 289.15 186.26
  C 287.21 189.98 285.54 194.02 283.06 197.15
  C 273.12 209.65 258.47 213.89 242.73 213.34
  Q 242.22 213.32 241.85 212.98
  Q 241.30 212.49 240.85 212.45"
/>
<path stroke="#fcc19f" vector-effect="non-scaling-stroke" d="
  M 288.51 203.67
  Q 281.00 207.31 273.36 210.86
  C 266.46 214.06 260.12 219.62 254.02 224.24
  C 248.85 228.16 243.20 226.40 240.82 234.24
  Q 240.73 234.55 240.42 234.43
  Q 240.29 234.38 240.20 234.25
  Q 240.08 234.07 240.11 233.73
  Q 240.97 224.13 240.66 214.35"
/>
<path stroke="#f9a08a" vector-effect="non-scaling-stroke" d="
  M 297.28 217.75
  Q 288.85 225.50 279.07 235.83
  Q 277.27 237.74 274.42 239.50
  Q 273.99 239.77 273.64 239.41
  L 267.35 232.92
  A 0.88 0.88 0.0 0 0 266.17 232.85
  C 260.55 237.38 241.11 252.46 234.04 250.84
  C 229.69 249.85 228.69 242.96 228.84 239.45
  A 0.48 0.48 0.0 0 0 227.95 239.17
  C 225.42 243.14 222.27 248.43 217.01 249.19
  A 0.59 0.59 0.0 0 1 216.39 248.37
  C 218.02 244.73 219.72 241.84 220.56 237.88"
/>
<path stroke="#904638" vector-effect="non-scaling-stroke" d="
  M 326.92 228.99
  C 323.70 229.96 319.94 230.55 317.23 231.23
  Q 307.90 233.58 298.54 235.84
  Q 293.63 237.03 290.17 240.67
  Q 283.02 248.19 276.74 256.44
  Q 272.13 262.49 271.89 269.86
  A 2.07 2.06 69.0 0 1 271.25 271.31
  Q 262.98 279.14 255.21 287.69
  C 246.39 297.39 240.90 310.29 237.59 323.10"
/>
<path stroke="#f57343" vector-effect="non-scaling-stroke" d="
  M 237.59 323.10
  Q 235.78 324.66 233.38 325.38
  Q 229.70 326.47 225.81 326.36"
/>
<path stroke="#8b4133" vector-effect="non-scaling-stroke" d="
  M 225.81 326.36
  Q 218.78 326.72 211.85 329.65"
/>
<path stroke="#904638" vector-effect="non-scaling-stroke" d="
  M 211.85 329.65
  C 199.01 315.01 192.69 298.18 187.55 279.48
  Q 185.61 272.43 178.62 259.43"
/>
<path stroke="#28353d" vector-effect="non-scaling-stroke" d="
  M 211.85 329.65
  Q 200.70 332.07 189.50 334.21
  C 180.15 336.00 173.11 338.99 170.18 348.50
  Q 165.00 365.30 163.24 382.88"
/>
<path stroke="#253137" vector-effect="non-scaling-stroke" d="
  M 163.24 382.88
  Q 161.50 395.05 163.61 407.43"
/>
<path stroke="#202c32" vector-effect="non-scaling-stroke" d="
  M 224.83 386.56
  C 214.96 388.20 208.58 384.69 200.65 380.53
  Q 198.19 379.25 196.85 377.42
  A 1.86 1.86 0.0 0 0 194.46 376.89
  C 191.10 378.72 187.70 378.33 184.53 380.20
  Q 184.01 380.51 183.58 380.08
  L 182.79 379.28
  Q 182.51 379.01 182.16 378.83
  Q 182.02 378.75 181.88 378.64
  A 0.27 0.27 0.0 0 0 181.49 378.99
  Q 182.19 380.15 182.36 381.51
  A 0.69 0.69 0.0 0 1 181.46 382.25
  C 180.37 381.89 179.67 381.52 178.50 381.73
  Q 171.03 383.04 163.24 382.88"
/>
<path stroke="#253137" vector-effect="non-scaling-stroke" d="
  M 337.86 354.22
  Q 335.80 358.02 334.36 361.91
  C 333.06 365.42 330.77 370.07 328.74 372.00
  Q 317.94 382.34 308.56 388.58
  Q 299.97 394.29 275.77 408.72
  C 269.25 412.60 262.85 415.81 256.19 419.09
  C 251.61 421.34 245.53 423.65 242.57 418.67
  C 238.68 412.13 234.76 404.24 230.21 396.80
  C 228.19 393.51 227.35 390.10 224.83 386.56"
/>
<path stroke="#28353d" vector-effect="non-scaling-stroke" d="
  M 224.83 386.56
  Q 220.79 377.57 216.85 368.68
  Q 216.07 366.94 216.01 365.46
  A 1.16 1.15 -12.0 0 1 216.75 364.33
  C 219.84 363.12 225.66 359.96 227.29 356.98
  C 227.66 356.30 228.35 355.69 228.35 354.94
  Q 228.36 354.13 227.56 353.90"
/>
<path stroke="#93674d" vector-effect="non-scaling-stroke" d="
  M 227.56 353.90
  C 229.31 352.38 230.85 351.98 233.03 353.26
  C 237.78 356.06 241.27 356.34 247.26 355.68
  Q 254.05 354.94 262.99 355.44
  Q 267.30 355.68 269.02 351.49
  C 269.24 350.96 269.20 350.13 269.49 349.54
  A 0.89 0.88 -79.5 0 1 270.22 349.03
  Q 276.23 348.55 275.41 342.47
  Q 275.33 341.86 275.89 341.60
  C 277.80 340.72 279.47 339.49 280.29 337.43
  C 281.27 334.99 280.26 333.82 282.13 331.08
  Q 285.47 326.18 281.75 319.98"
/>
<path stroke="#969494" vector-effect="non-scaling-stroke" d="
  M 281.75 319.98
  L 284.32 317.14"
/>
<path stroke="#93674d" vector-effect="non-scaling-stroke" d="
  M 284.32 317.14
  Q 290.96 316.36 289.03 311.53"
/>
<path stroke="#969494" vector-effect="non-scaling-stroke" d="
  M 289.03 311.53
  L 315.81 280.48"
/>
<path stroke="#904638" vector-effect="non-scaling-stroke" d="
  M 315.81 280.48
  Q 315.35 284.51 318.35 286.66
  Q 324.10 290.79 329.25 292.89
  Q 329.78 293.11 330.08 292.62
  Q 332.63 288.52 333.84 283.86
  A 0.86 0.86 0.0 0 0 333.30 282.83
  L 330.54 281.82
  Q 329.18 281.32 329.95 280.09
  Q 332.71 275.64 332.48 270.35
  Q 332.41 268.75 330.86 269.14
  L 324.09 270.85"
/>
<path stroke="#969494" vector-effect="non-scaling-stroke" d="
  M 324.09 270.85
  L 346.57 244.91
  A 1.04 1.03 -48.8 0 0 346.48 243.47
  L 337.69 235.59
  A 0.33 0.33 0.0 0 0 337.23 235.62
  L 317.86 258.24"
/>
<path stroke="#904638" vector-effect="non-scaling-stroke" d="
  M 317.86 258.24
  Q 316.94 257.96 316.78 256.77
  A 1.91 1.91 0.0 0 0 313.74 255.49
  C 310.36 258.01 310.24 264.20 309.61 268.05"
/>
<path stroke="#93674d" vector-effect="non-scaling-stroke" d="
  M 309.61 268.05
  Q 308.48 269.03 307.89 270.35"
/>
<path stroke="#904638" vector-effect="non-scaling-stroke" d="
  M 307.89 270.35
  Q 303.42 272.69 298.66 275.02
  C 294.73 276.94 291.44 274.30 288.42 272.23
  A 0.98 0.97 -58.3 0 0 287.02 272.56
  Q 286.85 272.86 287.18 273.53
  C 289.66 278.51 294.17 280.13 299.18 277.59
  Q 300.78 276.78 301.66 277.36"
/>
<path stroke="#969494" vector-effect="non-scaling-stroke" d="
  M 301.66 277.36
  L 272.99 310.91"
/>
<path stroke="#93674d" vector-effect="non-scaling-stroke" d="
  M 272.99 310.91
  Q 262.60 312.27 253.00 314.29
  Q 250.09 314.91 248.86 315.84
  Q 243.64 319.78 237.59 323.10"
/>
<path stroke="#8e6248" vector-effect="non-scaling-stroke" d="
  M 227.56 353.90
  C 224.01 356.10 220.16 358.87 216.12 359.97
  A 0.69 0.69 0.0 0 1 215.25 359.39
  C 214.44 352.95 213.62 346.31 215.88 340.28
  C 217.85 335.01 220.85 329.39 225.81 326.36"
/>
<path stroke="#253137" vector-effect="non-scaling-stroke" d="
  M 340.91 409.03
  Q 338.42 408.99 336.36 411.12
  Q 329.12 418.57 321.41 425.60
  A 1.52 1.52 0.0 0 0 321.27 427.70
  L 322.22 428.85
  Q 323.03 429.81 323.99 429.00
  Q 332.27 422.07 336.63 414.91
  Q 337.53 413.42 340.97 412.15"
/>
<path stroke="#253137" vector-effect="non-scaling-stroke" d="
  M 251.19 439.63
  C 254.47 436.41 257.45 434.02 259.27 429.27
  Q 259.83 427.80 262.48 427.61
  A 1.15 1.14 15.3 0 0 263.33 427.13
  Q 264.61 425.35 266.40 424.12
  Q 266.65 423.95 266.40 423.78
  L 263.51 421.77
  Q 263.32 421.64 263.15 421.80
  Q 258.37 426.05 253.36 430.36
  Q 249.53 433.65 246.19 439.45"
/>
<path stroke="#fcc19f" vector-effect="non-scaling-stroke" d="
  M 289.03 311.53
  L 284.32 317.14"
/>
<path stroke="#fcc19f" vector-effect="non-scaling-stroke" d="
  M 281.75 319.98
  Q 276.53 316.44 269.69 316.18
  A 0.59 0.59 0.0 0 1 269.27 315.21
  L 272.99 310.91"
/>
<path stroke="#f9a08a" vector-effect="non-scaling-stroke" d="
  M 315.81 280.48
  Q 315.76 274.09 305.25 275.34
  Q 302.94 275.62 301.66 277.36"
/>
<path stroke="#f57343" vector-effect="non-scaling-stroke" d="
  M 307.89 270.35
  Q 310.17 270.66 309.61 268.05"
/>
<path stroke="#f9a08a" vector-effect="non-scaling-stroke" d="
  M 324.09 270.85
  Q 322.47 271.62 320.23 271.85
  Q 319.67 271.91 319.34 271.45
  Q 318.14 269.74 316.01 269.79
  Q 314.96 269.82 314.97 268.76
  L 315.00 267.23
  A 0.80 0.79 89.6 0 1 315.77 266.44
  L 317.76 266.37
  A 0.97 0.97 0.0 0 0 318.59 264.94
  Q 316.18 260.44 317.86 258.24"
/>
<path stroke="#d67136" vector-effect="non-scaling-stroke" d="
  M 233.39 146.33
  C 239.53 143.24 244.87 144.16 251.48 144.28
  A 1.57 1.57 0.0 0 0 253.08 142.57
  L 253.03 142.09
  A 2.87 2.87 0.0 0 0 250.48 139.49
  C 243.90 138.78 235.78 139.09 232.24 145.10
  Q 230.74 147.65 233.39 146.33"
/>
<path stroke="#d67136" vector-effect="non-scaling-stroke" d="
  M 281.19 145.58
  Q 282.73 146.49 283.85 146.86
  Q 285.19 147.30 284.50 146.07
  C 280.66 139.16 272.08 138.26 265.13 139.77
  Q 262.93 140.24 262.99 142.48
  L 263.00 142.87
  A 1.58 1.57 -2.6 0 0 264.68 144.40
  C 271.24 143.95 277.71 143.52 281.19 145.58"
/>
<path stroke="#8b5e42" vector-effect="non-scaling-stroke" d="
  M 275.36 148.82
  L 278.10 150.39
  A 0.27 0.27 0.0 0 0 278.47 150.01
  C 276.02 145.94 270.03 146.67 267.23 149.79
  Q 267.01 150.04 267.26 150.26
  L 267.45 150.43
  Q 267.64 150.61 267.79 150.39
  Q 268.90 148.75 270.62 148.79
  Q 271.30 148.80 271.02 149.43
  C 269.41 153.06 274.45 153.96 274.92 151.08
  Q 274.99 150.70 274.91 150.33
  L 274.71 149.29
  Q 274.52 148.33 275.36 148.82"
/>
<path stroke="#8b5e42" vector-effect="non-scaling-stroke" d="
  M 242.22 149.58
  C 241.37 152.08 243.62 153.99 245.47 152.58
  Q 246.57 151.74 246.33 149.22
  A 0.30 0.30 0.0 0 1 246.79 148.93
  L 249.40 150.58
  Q 250.12 151.03 249.72 150.29
  C 247.26 145.68 240.66 147.38 237.76 150.57
  Q 237.59 150.76 237.76 150.94
  L 237.99 151.20
  Q 238.16 151.39 238.31 151.18
  Q 239.66 149.36 241.77 149.04
  Q 242.44 148.94 242.22 149.58"
/>
<path stroke="#fcc19f" vector-effect="non-scaling-stroke" d="
  M 251.25 174.39
  C 249.13 174.38 245.85 174.93 244.08 176.20
  A 0.79 0.79 0.0 0 0 243.98 177.40
  C 250.58 184.03 265.31 182.77 271.96 176.85
  A 0.80 0.80 0.0 0 0 271.56 175.47
  C 264.72 174.36 258.17 174.43 251.25 174.39"
/>
<path stroke="#28353d" vector-effect="non-scaling-stroke" d="
  M 336.16 313.92
  C 346.80 306.41 351.00 293.40 354.49 281.39
  Q 354.69 280.68 354.06 281.04
  Q 353.49 281.36 353.09 282.33
  Q 349.89 290.01 346.20 297.47
  C 342.93 304.10 340.56 307.21 334.23 311.83
  C 329.31 315.43 324.52 319.59 319.82 322.96
  Q 314.72 326.63 309.70 330.39
  Q 309.49 330.55 309.65 330.75
  L 309.81 330.96
  A 0.53 0.52 53.5 0 0 310.53 331.07
  Q 318.91 325.21 327.64 319.78
  Q 329.55 318.58 336.16 313.92"
/>
<path stroke="#28353d" vector-effect="non-scaling-stroke" d="
  M 349.99 313.27
  L 349.79 313.07
  Q 349.42 312.69 349.13 313.13
  Q 340.57 325.80 330.39 335.90
  C 324.42 341.83 317.87 346.95 311.76 352.68
  A 0.66 0.66 0.0 0 0 311.67 353.54
  L 311.85 353.79
  A 0.27 0.27 0.0 0 0 312.24 353.85
  C 322.28 345.77 334.00 339.08 341.63 328.04
  Q 346.02 321.68 350.10 314.08
  Q 350.34 313.64 349.99 313.27"
/>
</g>
<path fill="#233038" d="
  M 302.10 150.54
  L 298.51 149.88
  Q 298.74 148.94 297.92 147.80
  Q 298.25 147.96 298.66 147.94
  C 301.22 147.76 301.66 140.94 301.91 139.27
  C 302.58 134.63 304.94 132.06 308.76 129.75
  Q 310.31 128.81 309.03 127.53
  L 308.57 127.07
  A 1.18 1.18 0.0 0 0 307.03 126.96
  L 304.53 128.83
  A 0.97 0.97 0.0 0 1 302.98 128.04
  Q 303.31 110.52 288.78 101.25
  Q 281.39 96.53 278.00 95.47
  Q 261.54 90.31 245.34 94.55
  C 231.90 98.07 223.56 106.82 220.30 120.33
  C 219.20 124.91 220.38 128.70 222.01 132.90
  C 223.14 135.79 222.60 138.77 225.89 140.92
  Q 226.18 141.12 226.38 140.82
  Q 226.45 140.72 226.40 140.51
  A 0.02 0.01 -59.9 0 0 226.37 140.52
  L 226.53 141.79
  L 224.91 152.52
  L 185.50 131.74
  Q 185.18 131.57 185.34 131.24
  Q 185.74 130.45 186.40 129.62
  Q 195.45 118.25 205.33 107.58
  Q 233.71 76.96 250.81 60.55
  C 252.02 59.39 253.77 60.81 254.92 61.49
  Q 297.78 86.58 340.39 113.13
  Q 341.29 113.69 340.51 114.42
  L 302.10 150.54
  Z"
/>
<path fill="#2d3a42" d="
  M 297.92 147.80
  C 295.99 141.73 293.36 137.45 289.32 131.15
  Q 288.43 129.78 286.94 130.23
  Q 286.27 128.17 283.87 126.66
  Q 269.69 117.71 254.67 125.02
  A 1.95 1.95 0.0 0 1 253.05 125.06
  C 241.83 120.34 230.26 127.91 227.87 139.50
  Q 227.47 140.71 226.53 141.79
  L 226.37 140.52
  A 0.02 0.01 -59.9 0 1 226.40 140.51
  Q 226.45 140.72 226.38 140.82
  Q 226.18 141.12 225.89 140.92
  C 222.60 138.77 223.14 135.79 222.01 132.90
  C 220.38 128.70 219.20 124.91 220.30 120.33
  C 223.56 106.82 231.90 98.07 245.34 94.55
  Q 261.54 90.31 278.00 95.47
  Q 281.39 96.53 288.78 101.25
  Q 303.31 110.52 302.98 128.04
  A 0.97 0.97 0.0 0 0 304.53 128.83
  L 307.03 126.96
  A 1.18 1.18 0.0 0 1 308.57 127.07
  L 309.03 127.53
  Q 310.31 128.81 308.76 129.75
  C 304.94 132.06 302.58 134.63 301.91 139.27
  C 301.66 140.94 301.22 147.76 298.66 147.94
  Q 298.25 147.96 297.92 147.80
  Z"
/>
<path fill="#f89458" d="
  M 286.94 130.23
  Q 287.89 135.05 289.37 139.78
  Q 290.18 142.37 290.17 144.31
  C 290.16 147.49 289.14 150.66 289.51 153.56
  Q 289.81 155.93 290.59 158.07
  A 0.54 0.54 0.0 0 0 291.58 158.12
  Q 294.10 152.75 298.51 149.88
  L 302.10 150.54
  Q 304.96 155.49 303.97 160.25
  C 302.94 165.25 300.16 172.17 295.70 174.56
  C 293.54 175.72 290.90 175.14 291.02 178.97
  Q 291.11 181.64 290.52 183.63
  Q 290.13 183.02 289.61 182.83
  A 0.56 0.56 0.0 0 0 288.90 183.15
  C 284.90 193.43 276.19 198.09 266.62 202.85
  Q 256.98 207.65 248.24 202.04
  Q 243.84 199.22 238.81 196.57
  Q 237.75 195.14 236.09 192.90
  C 233.14 188.93 232.59 183.33 230.93 178.67
  Q 230.76 178.19 230.26 178.09
  Q 226.37 177.23 225.06 174.23
  C 223.06 169.64 219.42 160.10 221.78 155.38
  C 222.41 154.13 223.68 153.76 224.84 153.10
  Q 225.16 152.56 225.61 152.91
  Q 228.59 155.26 229.25 157.74
  A 0.50 0.50 0.0 0 0 230.24 157.59
  C 229.98 151.36 228.84 145.68 227.87 139.50
  C 230.26 127.91 241.83 120.34 253.05 125.06
  A 1.95 1.95 0.0 0 0 254.67 125.02
  Q 269.69 117.71 283.87 126.66
  Q 286.27 128.17 286.94 130.23
  Z
  M 233.39 146.33
  C 239.53 143.24 244.87 144.16 251.48 144.28
  A 1.57 1.57 0.0 0 0 253.08 142.57
  L 253.03 142.09
  A 2.87 2.87 0.0 0 0 250.48 139.49
  C 243.90 138.78 235.78 139.09 232.24 145.10
  Q 230.74 147.65 233.39 146.33
  Z
  M 281.19 145.58
  Q 282.73 146.49 283.85 146.86
  Q 285.19 147.30 284.50 146.07
  C 280.66 139.16 272.08 138.26 265.13 139.77
  Q 262.93 140.24 262.99 142.48
  L 263.00 142.87
  A 1.58 1.57 -2.6 0 0 264.68 144.40
  C 271.24 143.95 277.71 143.52 281.19 145.58
  Z
  M 275.36 148.82
  L 278.10 150.39
  A 0.27 0.27 0.0 0 0 278.47 150.01
  C 276.02 145.94 270.03 146.67 267.23 149.79
  Q 267.01 150.04 267.26 150.26
  L 267.45 150.43
  Q 267.64 150.61 267.79 150.39
  Q 268.90 148.75 270.62 148.79
  Q 271.30 148.80 271.02 149.43
  C 269.41 153.06 274.45 153.96 274.92 151.08
  Q 274.99 150.70 274.91 150.33
  L 274.71 149.29
  Q 274.52 148.33 275.36 148.82
  Z
  M 242.22 149.58
  C 241.37 152.08 243.62 153.99 245.47 152.58
  Q 246.57 151.74 246.33 149.22
  A 0.30 0.30 0.0 0 1 246.79 148.93
  L 249.40 150.58
  Q 250.12 151.03 249.72 150.29
  C 247.26 145.68 240.66 147.38 237.76 150.57
  Q 237.59 150.76 237.76 150.94
  L 237.99 151.20
  Q 238.16 151.39 238.31 151.18
  Q 239.66 149.36 241.77 149.04
  Q 242.44 148.94 242.22 149.58
  Z
  M 251.25 174.39
  C 249.13 174.38 245.85 174.93 244.08 176.20
  A 0.79 0.79 0.0 0 0 243.98 177.40
  C 250.58 184.03 265.31 182.77 271.96 176.85
  A 0.80 0.80 0.0 0 0 271.56 175.47
  C 264.72 174.36 258.17 174.43 251.25 174.39
  Z"
/>
<path fill="#b44d13" d="
  M 286.94 130.23
  Q 288.43 129.78 289.32 131.15
  C 293.36 137.45 295.99 141.73 297.92 147.80
  Q 298.74 148.94 298.51 149.88
  Q 294.10 152.75 291.58 158.12
  A 0.54 0.54 0.0 0 1 290.59 158.07
  Q 289.81 155.93 289.51 153.56
  C 289.14 150.66 290.16 147.49 290.17 144.31
  Q 290.18 142.37 289.37 139.78
  Q 287.89 135.05 286.94 130.23
  Z"
/>
<path fill="#b44d13" d="
  M 251.48 144.28
  C 244.87 144.16 239.53 143.24 233.39 146.33
  Q 230.74 147.65 232.24 145.10
  C 235.78 139.09 243.90 138.78 250.48 139.49
  A 2.87 2.87 0.0 0 1 253.03 142.09
  L 253.08 142.57
  A 1.57 1.57 0.0 0 1 251.48 144.28
  Z"
/>
<path fill="#b44d13" d="
  M 281.19 145.58
  C 277.71 143.52 271.24 143.95 264.68 144.40
  A 1.58 1.57 -2.6 0 1 263.00 142.87
  L 262.99 142.48
  Q 262.93 140.24 265.13 139.77
  C 272.08 138.26 280.66 139.16 284.50 146.07
  Q 285.19 147.30 283.85 146.86
  Q 282.73 146.49 281.19 145.58
  Z"
/>
<path fill="#b44d13" d="
  M 227.87 139.50
  C 228.84 145.68 229.98 151.36 230.24 157.59
  A 0.50 0.50 0.0 0 1 229.25 157.74
  Q 228.59 155.26 225.61 152.91
  Q 225.16 152.56 224.84 153.10
  Q 224.61 151.80 224.91 152.52
  L 226.53 141.79
  Q 227.47 140.71 227.87 139.50
  Z"
/>
<path fill="#1d282c" d="
  M 274.71 149.29
  L 274.91 150.33
  Q 274.99 150.70 274.92 151.08
  C 274.45 153.96 269.41 153.06 271.02 149.43
  Q 271.30 148.80 270.62 148.79
  Q 268.90 148.75 267.79 150.39
  Q 267.64 150.61 267.45 150.43
  L 267.26 150.26
  Q 267.01 150.04 267.23 149.79
  C 270.03 146.67 276.02 145.94 278.47 150.01
  A 0.27 0.27 0.0 0 1 278.10 150.39
  L 275.36 148.82
  Q 274.52 148.33 274.71 149.29
  Z"
/>
<path fill="#1d282c" d="
  M 241.77 149.04
  Q 239.66 149.36 238.31 151.18
  Q 238.16 151.39 237.99 151.20
  L 237.76 150.94
  Q 237.59 150.76 237.76 150.57
  C 240.66 147.38 247.26 145.68 249.72 150.29
  Q 250.12 151.03 249.40 150.58
  L 246.79 148.93
  A 0.30 0.30 0.0 0 0 246.33 149.22
  Q 246.57 151.74 245.47 152.58
  C 243.62 153.99 241.37 152.08 242.22 149.58
  Q 242.44 148.94 241.77 149.04
  Z"
/>
<path fill="#ffeee5" d="
  M 244.08 176.20
  C 245.85 174.93 249.13 174.38 251.25 174.39
  C 258.17 174.43 264.72 174.36 271.56 175.47
  A 0.80 0.80 0.0 0 1 271.96 176.85
  C 265.31 182.77 250.58 184.03 243.98 177.40
  A 0.79 0.79 0.0 0 1 244.08 176.20
  Z"
/>
<path fill="#f2522e" d="
  M 290.52 183.63
  L 290.03 185.97
  Q 289.42 185.73 289.15 186.26
  C 287.21 189.98 285.54 194.02 283.06 197.15
  C 273.12 209.65 258.47 213.89 242.73 213.34
  Q 242.22 213.32 241.85 212.98
  Q 241.30 212.49 240.85 212.45
  L 238.81 196.57
  Q 243.84 199.22 248.24 202.04
  Q 256.98 207.65 266.62 202.85
  C 276.19 198.09 284.90 193.43 288.90 183.15
  A 0.56 0.56 0.0 0 1 289.61 182.83
  Q 290.13 183.02 290.52 183.63
  Z"
/>
<path fill="#f89458" d="
  M 290.03 185.97
  C 289.98 189.55 289.25 192.81 288.97 196.59
  C 288.81 198.74 287.77 201.57 288.51 203.67
  Q 281.00 207.31 273.36 210.86
  C 266.46 214.06 260.12 219.62 254.02 224.24
  C 248.85 228.16 243.20 226.40 240.82 234.24
  Q 240.73 234.55 240.42 234.43
  Q 240.29 234.38 240.20 234.25
  Q 240.08 234.07 240.11 233.73
  Q 240.97 224.13 240.66 214.35
  L 240.85 212.45
  Q 241.30 212.49 241.85 212.98
  Q 242.22 213.32 242.73 213.34
  C 258.47 213.89 273.12 209.65 283.06 197.15
  C 285.54 194.02 287.21 189.98 289.15 186.26
  Q 289.42 185.73 290.03 185.97
  Z"
/>
<path fill="#ffeee5" d="
  M 297.28 217.75
  Q 288.85 225.50 279.07 235.83
  Q 277.27 237.74 274.42 239.50
  Q 273.99 239.77 273.64 239.41
  L 267.35 232.92
  A 0.88 0.88 0.0 0 0 266.17 232.85
  C 260.55 237.38 241.11 252.46 234.04 250.84
  C 229.69 249.85 228.69 242.96 228.84 239.45
  A 0.48 0.48 0.0 0 0 227.95 239.17
  C 225.42 243.14 222.27 248.43 217.01 249.19
  A 0.59 0.59 0.0 0 1 216.39 248.37
  C 218.02 244.73 219.72 241.84 220.56 237.88
  C 223.13 228.38 229.48 223.73 237.35 216.35
  Q 238.96 214.84 240.66 214.35
  Q 240.97 224.13 240.11 233.73
  Q 240.08 234.07 240.20 234.25
  Q 240.29 234.38 240.42 234.43
  Q 240.73 234.55 240.82 234.24
  C 243.20 226.40 248.85 228.16 254.02 224.24
  C 260.12 219.62 266.46 214.06 273.36 210.86
  Q 281.00 207.31 288.51 203.67
  C 290.85 203.11 292.88 202.82 293.84 205.62
  Q 295.90 211.56 297.28 217.75
  Z"
/>
<path fill="#f2522e" d="
  M 297.28 217.75
  L 326.92 228.99
  C 323.70 229.96 319.94 230.55 317.23 231.23
  Q 307.90 233.58 298.54 235.84
  Q 293.63 237.03 290.17 240.67
  Q 283.02 248.19 276.74 256.44
  Q 272.13 262.49 271.89 269.86
  A 2.07 2.06 69.0 0 1 271.25 271.31
  Q 262.98 279.14 255.21 287.69
  C 246.39 297.39 240.90 310.29 237.59 323.10
  Q 235.78 324.66 233.38 325.38
  Q 229.70 326.47 225.81 326.36
  Q 218.78 326.72 211.85 329.65
  C 199.01 315.01 192.69 298.18 187.55 279.48
  Q 185.61 272.43 178.62 259.43
  C 177.84 257.04 175.60 252.16 176.60 249.95
  C 177.65 247.63 180.65 248.13 182.38 247.81
  C 195.31 245.42 207.94 241.69 220.56 237.88
  C 219.72 241.84 218.02 244.73 216.39 248.37
  A 0.59 0.59 0.0 0 0 217.01 249.19
  C 222.27 248.43 225.42 243.14 227.95 239.17
  A 0.48 0.48 0.0 0 1 228.84 239.45
  C 228.69 242.96 229.69 249.85 234.04 250.84
  C 241.11 252.46 260.55 237.38 266.17 232.85
  A 0.88 0.88 0.0 0 1 267.35 232.92
  L 273.64 239.41
  Q 273.99 239.77 274.42 239.50
  Q 277.27 237.74 279.07 235.83
  Q 288.85 225.50 297.28 217.75
  Z"
/>
<path fill="#2d3a42" d="
  M 326.92 228.99
  Q 335.30 231.37 338.21 233.04
  C 346.25 237.65 350.30 246.40 351.95 254.50
  C 352.76 258.49 353.21 261.28 354.97 264.88
  C 358.79 272.75 361.80 278.81 360.99 286.72
  Q 360.65 290.12 358.07 297.60
  Q 352.54 313.69 347.58 329.96
  C 345.57 336.57 343.64 343.26 339.81 349.10
  Q 338.99 350.34 338.63 351.56
  Q 338.19 353.01 337.86 354.22
  Q 335.80 358.02 334.36 361.91
  C 333.06 365.42 330.77 370.07 328.74 372.00
  Q 317.94 382.34 308.56 388.58
  Q 299.97 394.29 275.77 408.72
  C 269.25 412.60 262.85 415.81 256.19 419.09
  C 251.61 421.34 245.53 423.65 242.57 418.67
  C 238.68 412.13 234.76 404.24 230.21 396.80
  C 228.19 393.51 227.35 390.10 224.83 386.56
  Q 220.79 377.57 216.85 368.68
  Q 216.07 366.94 216.01 365.46
  A 1.16 1.15 -12.0 0 1 216.75 364.33
  C 219.84 363.12 225.66 359.96 227.29 356.98
  C 227.66 356.30 228.35 355.69 228.35 354.94
  Q 228.36 354.13 227.56 353.90
  C 229.31 352.38 230.85 351.98 233.03 353.26
  C 237.78 356.06 241.27 356.34 247.26 355.68
  Q 254.05 354.94 262.99 355.44
  Q 267.30 355.68 269.02 351.49
  C 269.24 350.96 269.20 350.13 269.49 349.54
  A 0.89 0.88 -79.5 0 1 270.22 349.03
  Q 276.23 348.55 275.41 342.47
  Q 275.33 341.86 275.89 341.60
  C 277.80 340.72 279.47 339.49 280.29 337.43
  C 281.27 334.99 280.26 333.82 282.13 331.08
  Q 285.47 326.18 281.75 319.98
  L 284.32 317.14
  Q 290.96 316.36 289.03 311.53
  L 315.81 280.48
  Q 315.35 284.51 318.35 286.66
  Q 324.10 290.79 329.25 292.89
  Q 329.78 293.11 330.08 292.62
  Q 332.63 288.52 333.84 283.86
  A 0.86 0.86 0.0 0 0 333.30 282.83
  L 330.54 281.82
  Q 329.18 281.32 329.95 280.09
  Q 332.71 275.64 332.48 270.35
  Q 332.41 268.75 330.86 269.14
  L 324.09 270.85
  L 346.57 244.91
  A 1.04 1.03 -48.8 0 0 346.48 243.47
  L 337.69 235.59
  A 0.33 0.33 0.0 0 0 337.23 235.62
  L 317.86 258.24
  Q 316.94 257.96 316.78 256.77
  A 1.91 1.91 0.0 0 0 313.74 255.49
  C 310.36 258.01 310.24 264.20 309.61 268.05
  Q 308.48 269.03 307.89 270.35
  Q 303.42 272.69 298.66 275.02
  C 294.73 276.94 291.44 274.30 288.42 272.23
  A 0.98 0.97 -58.3 0 0 287.02 272.56
  Q 286.85 272.86 287.18 273.53
  C 289.66 278.51 294.17 280.13 299.18 277.59
  Q 300.78 276.78 301.66 277.36
  L 272.99 310.91
  Q 262.60 312.27 253.00 314.29
  Q 250.09 314.91 248.86 315.84
  Q 243.64 319.78 237.59 323.10
  C 240.90 310.29 246.39 297.39 255.21 287.69
  Q 262.98 279.14 271.25 271.31
  A 2.07 2.06 69.0 0 0 271.89 269.86
  Q 272.13 262.49 276.74 256.44
  Q 283.02 248.19 290.17 240.67
  Q 293.63 237.03 298.54 235.84
  Q 307.90 233.58 317.23 231.23
  C 319.94 230.55 323.70 229.96 326.92 228.99
  Z
  M 336.16 313.92
  C 346.80 306.41 351.00 293.40 354.49 281.39
  Q 354.69 280.68 354.06 281.04
  Q 353.49 281.36 353.09 282.33
  Q 349.89 290.01 346.20 297.47
  C 342.93 304.10 340.56 307.21 334.23 311.83
  C 329.31 315.43 324.52 319.59 319.82 322.96
  Q 314.72 326.63 309.70 330.39
  Q 309.49 330.55 309.65 330.75
  L 309.81 330.96
  A 0.53 0.52 53.5 0 0 310.53 331.07
  Q 318.91 325.21 327.64 319.78
  Q 329.55 318.58 336.16 313.92
  Z
  M 349.99 313.27
  L 349.79 313.07
  Q 349.42 312.69 349.13 313.13
  Q 340.57 325.80 330.39 335.90
  C 324.42 341.83 317.87 346.95 311.76 352.68
  A 0.66 0.66 0.0 0 0 311.67 353.54
  L 311.85 353.79
  A 0.27 0.27 0.0 0 0 312.24 353.85
  C 322.28 345.77 334.00 339.08 341.63 328.04
  Q 346.02 321.68 350.10 314.08
  Q 350.34 313.64 349.99 313.27
  Z"
/>
<path fill="#ffeee5" d="
  M 324.09 270.85
  Q 322.47 271.62 320.23 271.85
  Q 319.67 271.91 319.34 271.45
  Q 318.14 269.74 316.01 269.79
  Q 314.96 269.82 314.97 268.76
  L 315.00 267.23
  A 0.80 0.79 89.6 0 1 315.77 266.44
  L 317.76 266.37
  A 0.97 0.97 0.0 0 0 318.59 264.94
  Q 316.18 260.44 317.86 258.24
  L 337.23 235.62
  A 0.33 0.33 0.0 0 1 337.69 235.59
  L 346.48 243.47
  A 1.04 1.03 -48.8 0 1 346.57 244.91
  L 324.09 270.85
  Z"
/>
<path fill="#f2522e" d="
  M 317.86 258.24
  Q 316.18 260.44 318.59 264.94
  A 0.97 0.97 0.0 0 1 317.76 266.37
  L 315.77 266.44
  A 0.80 0.79 89.6 0 0 315.00 267.23
  L 314.97 268.76
  Q 314.96 269.82 316.01 269.79
  Q 318.14 269.74 319.34 271.45
  Q 319.67 271.91 320.23 271.85
  Q 322.47 271.62 324.09 270.85
  L 330.86 269.14
  Q 332.41 268.75 332.48 270.35
  Q 332.71 275.64 329.95 280.09
  Q 329.18 281.32 330.54 281.82
  L 333.30 282.83
  A 0.86 0.86 0.0 0 1 333.84 283.86
  Q 332.63 288.52 330.08 292.62
  Q 329.78 293.11 329.25 292.89
  Q 324.10 290.79 318.35 286.66
  Q 315.35 284.51 315.81 280.48
  Q 315.76 274.09 305.25 275.34
  Q 302.94 275.62 301.66 277.36
  Q 300.78 276.78 299.18 277.59
  C 294.17 280.13 289.66 278.51 287.18 273.53
  Q 286.85 272.86 287.02 272.56
  A 0.98 0.97 -58.3 0 1 288.42 272.23
  C 291.44 274.30 294.73 276.94 298.66 275.02
  Q 303.42 272.69 307.89 270.35
  Q 310.17 270.66 309.61 268.05
  C 310.24 264.20 310.36 258.01 313.74 255.49
  A 1.91 1.91 0.0 0 1 316.78 256.77
  Q 316.94 257.96 317.86 258.24
  Z"
/>
<path fill="#2d3a42" d="
  M 178.62 259.43
  Q 185.61 272.43 187.55 279.48
  C 192.69 298.18 199.01 315.01 211.85 329.65
  Q 200.70 332.07 189.50 334.21
  C 180.15 336.00 173.11 338.99 170.18 348.50
  Q 165.00 365.30 163.24 382.88
  Q 161.50 395.05 163.61 407.43
  Q 153.80 397.81 148.89 385.89
  Q 146.81 380.84 144.55 368.89
  Q 142.17 356.26 139.24 343.76
  Q 138.78 341.76 138.95 337.40
  C 139.19 331.34 143.20 328.61 145.87 323.77
  C 150.95 314.53 154.44 306.62 162.95 298.71
  C 166.51 295.39 168.83 286.73 170.33 279.79
  Q 171.20 275.76 176.36 265.13
  C 177.18 263.44 177.58 261.31 178.62 259.43
  Z"
/>
<path fill="#f89458" d="
  M 309.61 268.05
  Q 310.17 270.66 307.89 270.35
  Q 308.48 269.03 309.61 268.05
  Z"
/>
<path fill="#ffeee5" d="
  M 315.81 280.48
  L 289.03 311.53
  L 284.32 317.14
  L 281.75 319.98
  Q 276.53 316.44 269.69 316.18
  A 0.59 0.59 0.0 0 1 269.27 315.21
  L 272.99 310.91
  L 301.66 277.36
  Q 302.94 275.62 305.25 275.34
  Q 315.76 274.09 315.81 280.48
  Z"
/>
<path fill="#233038" d="
  M 354.49 281.39
  C 351.00 293.40 346.80 306.41 336.16 313.92
  Q 329.55 318.58 327.64 319.78
  Q 318.91 325.21 310.53 331.07
  A 0.53 0.52 53.5 0 1 309.81 330.96
  L 309.65 330.75
  Q 309.49 330.55 309.70 330.39
  Q 314.72 326.63 319.82 322.96
  C 324.52 319.59 329.31 315.43 334.23 311.83
  C 340.56 307.21 342.93 304.10 346.20 297.47
  Q 349.89 290.01 353.09 282.33
  Q 353.49 281.36 354.06 281.04
  Q 354.69 280.68 354.49 281.39
  Z"
/>
<path fill="#f89458" d="
  M 272.99 310.91
  L 269.27 315.21
  A 0.59 0.59 0.0 0 0 269.69 316.18
  Q 276.53 316.44 281.75 319.98
  Q 285.47 326.18 282.13 331.08
  C 280.26 333.82 281.27 334.99 280.29 337.43
  C 279.47 339.49 277.80 340.72 275.89 341.60
  Q 275.33 341.86 275.41 342.47
  Q 276.23 348.55 270.22 349.03
  A 0.89 0.88 -79.5 0 0 269.49 349.54
  C 269.20 350.13 269.24 350.96 269.02 351.49
  Q 267.30 355.68 262.99 355.44
  Q 254.05 354.94 247.26 355.68
  C 241.27 356.34 237.78 356.06 233.03 353.26
  C 230.85 351.98 229.31 352.38 227.56 353.90
  C 224.01 356.10 220.16 358.87 216.12 359.97
  A 0.69 0.69 0.0 0 1 215.25 359.39
  C 214.44 352.95 213.62 346.31 215.88 340.28
  C 217.85 335.01 220.85 329.39 225.81 326.36
  Q 229.70 326.47 233.38 325.38
  Q 235.78 324.66 237.59 323.10
  Q 243.64 319.78 248.86 315.84
  Q 250.09 314.91 253.00 314.29
  Q 262.60 312.27 272.99 310.91
  Z"
/>
<path fill="#f89458" d="
  M 289.03 311.53
  Q 290.96 316.36 284.32 317.14
  L 289.03 311.53
  Z"
/>
<path fill="#233038" d="
  M 349.99 313.27
  Q 350.34 313.64 350.10 314.08
  Q 346.02 321.68 341.63 328.04
  C 334.00 339.08 322.28 345.77 312.24 353.85
  A 0.27 0.27 0.0 0 1 311.85 353.79
  L 311.67 353.54
  A 0.66 0.66 0.0 0 1 311.76 352.68
  C 317.87 346.95 324.42 341.83 330.39 335.90
  Q 340.57 325.80 349.13 313.13
  Q 349.42 312.69 349.79 313.07
  L 349.99 313.27
  Z"
/>
<path fill="#233038" d="
  M 225.81 326.36
  C 220.85 329.39 217.85 335.01 215.88 340.28
  C 213.62 346.31 214.44 352.95 215.25 359.39
  A 0.69 0.69 0.0 0 0 216.12 359.97
  C 220.16 358.87 224.01 356.10 227.56 353.90
  Q 228.36 354.13 228.35 354.94
  C 228.35 355.69 227.66 356.30 227.29 356.98
  C 225.66 359.96 219.84 363.12 216.75 364.33
  A 1.16 1.15 -12.0 0 0 216.01 365.46
  Q 216.07 366.94 216.85 368.68
  Q 220.79 377.57 224.83 386.56
  C 214.96 388.20 208.58 384.69 200.65 380.53
  Q 198.19 379.25 196.85 377.42
  A 1.86 1.86 0.0 0 0 194.46 376.89
  C 191.10 378.72 187.70 378.33 184.53 380.20
  Q 184.01 380.51 183.58 380.08
  L 182.79 379.28
  Q 182.51 379.01 182.16 378.83
  Q 182.02 378.75 181.88 378.64
  A 0.27 0.27 0.0 0 0 181.49 378.99
  Q 182.19 380.15 182.36 381.51
  A 0.69 0.69 0.0 0 1 181.46 382.25
  C 180.37 381.89 179.67 381.52 178.50 381.73
  Q 171.03 383.04 163.24 382.88
  Q 165.00 365.30 170.18 348.50
  C 173.11 338.99 180.15 336.00 189.50 334.21
  Q 200.70 332.07 211.85 329.65
  Q 218.78 326.72 225.81 326.36
  Z"
/>
<path fill="#1d282c" d="
  M 337.86 354.22
  Q 337.57 365.02 338.01 368.75
  Q 340.38 388.83 340.91 409.03
  Q 338.42 408.99 336.36 411.12
  Q 329.12 418.57 321.41 425.60
  A 1.52 1.52 0.0 0 0 321.27 427.70
  L 322.22 428.85
  Q 323.03 429.81 323.99 429.00
  Q 332.27 422.07 336.63 414.91
  Q 337.53 413.42 340.97 412.15
  L 340.99 433.86
  A 0.87 0.87 0.0 0 1 340.26 434.72
  C 310.74 439.45 281.06 440.77 251.19 439.63
  C 254.47 436.41 257.45 434.02 259.27 429.27
  Q 259.83 427.80 262.48 427.61
  A 1.15 1.14 15.3 0 0 263.33 427.13
  Q 264.61 425.35 266.40 424.12
  Q 266.65 423.95 266.40 423.78
  L 263.51 421.77
  Q 263.32 421.64 263.15 421.80
  Q 258.37 426.05 253.36 430.36
  Q 249.53 433.65 246.19 439.45
  Q 230.84 438.94 214.26 437.42
  Q 197.85 435.91 181.49 433.88
  Q 179.88 433.68 178.52 433.05
  A 0.64 0.64 0.0 0 1 178.15 432.34
  L 182.28 411.36
  A 0.38 0.38 0.0 0 0 181.82 410.92
  C 177.92 411.83 173.67 413.36 170.15 411.98
  Q 166.10 410.40 163.61 407.43
  Q 161.50 395.05 163.24 382.88
  Q 171.03 383.04 178.50 381.73
  C 179.67 381.52 180.37 381.89 181.46 382.25
  A 0.69 0.69 0.0 0 0 182.36 381.51
  Q 182.19 380.15 181.49 378.99
  A 0.27 0.27 0.0 0 1 181.88 378.64
  Q 182.02 378.75 182.16 378.83
  Q 182.51 379.01 182.79 379.28
  L 183.58 380.08
  Q 184.01 380.51 184.53 380.20
  C 187.70 378.33 191.10 378.72 194.46 376.89
  A 1.86 1.86 0.0 0 1 196.85 377.42
  Q 198.19 379.25 200.65 380.53
  C 208.58 384.69 214.96 388.20 224.83 386.56
  C 227.35 390.10 228.19 393.51 230.21 396.80
  C 234.76 404.24 238.68 412.13 242.57 418.67
  C 245.53 423.65 251.61 421.34 256.19 419.09
  C 262.85 415.81 269.25 412.60 275.77 408.72
  Q 299.97 394.29 308.56 388.58
  Q 317.94 382.34 328.74 372.00
  C 330.77 370.07 333.06 365.42 334.36 361.91
  Q 335.80 358.02 337.86 354.22
  Z"
/>
<path fill="#2d3a42" d="
  M 340.91 409.03
  L 340.97 412.15
  Q 337.53 413.42 336.63 414.91
  Q 332.27 422.07 323.99 429.00
  Q 323.03 429.81 322.22 428.85
  L 321.27 427.70
  A 1.52 1.52 0.0 0 1 321.41 425.60
  Q 329.12 418.57 336.36 411.12
  Q 338.42 408.99 340.91 409.03
  Z"
/>
<path fill="#2d3a42" d="
  M 251.19 439.63
  L 246.19 439.45
  Q 249.53 433.65 253.36 430.36
  Q 258.37 426.05 263.15 421.80
  Q 263.32 421.64 263.51 421.77
  L 266.40 423.78
  Q 266.65 423.95 266.40 424.12
  Q 264.61 425.35 263.33 427.13
  A 1.15 1.14 15.3 0 1 262.48 427.61
  Q 259.83 427.80 259.27 429.27
  C 257.45 434.02 254.47 436.41 251.19 439.63
  Z"
/>
</svg>
