<?xml version="1.0" encoding="UTF-8" standalone="no"?>
<!DOCTYPE svg PUBLIC "-//W3C//DTD SVG 1.1//EN" "http://www.w3.org/Graphics/SVG/1.1/DTD/svg11.dtd">
<svg xmlns="http://www.w3.org/2000/svg" version="1.1" viewBox="0.00 0.00 500.00 500.00">
<g stroke-width="2.00" fill="none" stroke-linecap="butt">
<path stroke="#8eacfa" vector-effect="non-scaling-stroke" d="
  M 349.26 81.50
  L 349.32 92.50"
/>
<path stroke="#656f7f" vector-effect="non-scaling-stroke" d="
  M 349.32 92.50
  L 343.79 96.46"
/>
<path stroke="#e4effe" vector-effect="non-scaling-stroke" d="
  M 343.79 96.46
  L 230.50 96.97"
/>
<path stroke="#656f7f" vector-effect="non-scaling-stroke" d="
  M 230.50 96.97
  L 218.00 95.96"
/>
<path stroke="#808080" vector-effect="non-scaling-stroke" d="
  M 394.14 100.33
  Q 398.47 106.66 402.83 112.88
  C 405.10 116.11 402.09 119.85 399.05 120.67"
/>
<path stroke="#293d7b" vector-effect="non-scaling-stroke" d="
  M 399.05 120.67
  Q 390.55 120.26 382.25 119.89
  Q 379.51 119.77 378.43 122.70"
/>
<path stroke="#656f7f" vector-effect="non-scaling-stroke" d="
  M 378.43 122.70
  Q 374.03 128.65 369.63 134.88
  Q 368.85 135.99 366.20 136.71"
/>
<path stroke="#293d7b" vector-effect="non-scaling-stroke" d="
  M 366.20 136.71
  C 361.00 136.46 360.82 133.35 359.36 128.48
  Q 357.55 122.42 355.84 116.47
  A 1.37 1.37 0.0 0 0 354.97 115.56
  Q 346.43 112.63 338.04 109.93
  C 335.08 108.98 335.17 106.60 334.88 103.62"
/>
<path stroke="#808080" vector-effect="non-scaling-stroke" d="
  M 334.88 103.62
  Q 337.96 99.58 343.79 96.46"
/>
<path stroke="#293d7b" vector-effect="non-scaling-stroke" d="
  M 349.32 92.50
  Q 352.14 91.73 352.13 88.50
  Q 352.11 80.20 352.02 71.65"
/>
<path stroke="#808080" vector-effect="non-scaling-stroke" d="
  M 230.50 96.97
  Q 215.71 98.07 200.78 97.54"
/>
<path stroke="#a9bdfb" vector-effect="non-scaling-stroke" d="
  M 334.88 103.62
  C 331.25 106.08 331.59 111.46 336.00 112.83
  Q 343.98 115.32 351.96 117.81
  A 1.75 1.74 1.6 0 1 353.13 119.04
  Q 354.98 126.25 357.25 133.55
  C 358.56 137.75 360.91 140.61 365.47 137.93"
/>
<path stroke="#e4effe" vector-effect="non-scaling-stroke" d="
  M 365.47 137.93
  Q 366.05 137.74 366.35 137.87
  Q 366.62 137.97 366.64 138.52
  Q 367.05 147.58 366.48 156.87"
/>
<path stroke="#a9bdfb" vector-effect="non-scaling-stroke" d="
  M 366.48 156.87
  Q 363.28 153.19 361.94 149.17
  A 1.80 1.80 0.0 0 0 359.61 148.04
  Q 358.97 148.27 358.38 149.34
  Q 356.58 152.61 354.87 155.84
  A 1.30 1.27 -79.6 0 1 353.92 156.51
  L 346.90 157.57"
/>
<path stroke="#cbdcff" vector-effect="non-scaling-stroke" d="
  M 346.90 157.57
  L 346.96 135.03
  A 0.63 0.62 0.4 0 0 346.33 134.40
  L 202.07 134.34"
/>
<path stroke="#808080" vector-effect="non-scaling-stroke" d="
  M 202.07 134.34
  Q 199.82 130.76 196.50 130.75
  Q 178.98 130.73 161.56 130.76
  Q 160.96 130.76 161.03 131.36
  L 161.07 131.67
  Q 161.12 132.01 161.45 132.01
  Q 178.73 131.99 196.00 132.09
  C 200.18 132.11 201.05 134.62 201.09 138.43
  Q 201.27 155.85 201.15 173.28
  C 201.12 176.99 200.50 180.03 196.25 180.06
  Q 160.20 180.29 90.50 179.87
  C 86.07 179.84 85.64 175.77 85.64 172.49
  Q 85.64 156.22 85.67 139.91
  C 85.69 134.82 85.97 132.07 91.77 132.06
  Q 101.96 132.05 112.26 131.87"
/>
<path stroke="#8eacfa" vector-effect="non-scaling-stroke" d="
  M 398.52 121.97
  C 397.16 122.20 396.13 122.95 394.77 122.93
  C 389.24 122.85 383.96 122.27 378.43 122.70"
/>
<path stroke="#b0ccfe" vector-effect="non-scaling-stroke" d="
  M 321.36 366.24
  Q 320.43 362.07 319.80 358.27
  C 318.45 350.20 315.86 342.59 312.96 334.90
  A 0.94 0.94 0.0 0 0 311.37 334.62
  Q 305.82 340.95 302.11 348.53
  A 1.14 1.13 50.2 0 0 302.04 349.34
  L 303.52 354.33
  Q 304.07 356.19 302.20 355.67
  L 299.38 354.90
  Q 298.79 354.73 298.53 355.29
  C 289.36 375.18 286.33 401.07 294.93 421.79"
/>
<path stroke="#656f7f" vector-effect="non-scaling-stroke" d="
  M 267.41 429.28
  L 264.58 419.83
  Q 264.43 419.33 264.89 419.08
  Q 273.63 414.23 274.86 404.09
  Q 275.83 396.10 275.20 391.56
  Q 271.36 363.82 268.25 335.23
  Q 268.13 334.12 269.24 334.14
  Q 290.18 334.47 310.08 327.92
  C 328.22 321.95 340.54 312.77 346.71 294.24
  Q 347.32 292.41 348.03 290.48
  Q 348.21 290.00 348.72 290.00
  Q 369.99 290.02 391.25 289.89
  C 397.37 289.85 397.64 284.88 397.65 280.25
  Q 397.72 257.94 397.60 246.30
  C 397.56 242.61 396.16 239.67 392.25 239.53
  Q 385.33 239.29 366.50 239.46"
/>
<path stroke="#e4effe" vector-effect="non-scaling-stroke" d="
  M 366.50 239.46
  Q 367.06 238.60 366.91 236.80
  Q 366.72 234.49 366.72 234.18
  Q 366.48 216.03 366.76 198.20"
/>
<path stroke="#656f7f" vector-effect="non-scaling-stroke" d="
  M 366.76 198.20
  Q 368.28 197.73 368.27 196.69
  Q 368.26 196.22 367.75 195.61
  Q 367.21 194.98 366.98 194.64"
/>
<path stroke="#e4effe" vector-effect="non-scaling-stroke" d="
  M 366.98 194.64
  L 366.96 176.73"
/>
<path stroke="#8eacfa" vector-effect="non-scaling-stroke" d="
  M 366.96 176.73
  Q 369.10 177.35 370.05 175.87
  A 1.13 1.10 -33.4 0 0 370.21 175.14
  L 369.10 167.67
  Q 368.94 166.61 369.71 165.86
  L 374.72 160.98
  A 0.54 0.36 90.0 0 0 374.82 160.83
  Q 376.15 158.07 372.95 157.54
  Q 369.12 156.91 366.48 156.87"
/>
<path stroke="#e4effe" vector-effect="non-scaling-stroke" d="
  M 411.34 143.60
  Q 405.71 133.06 399.00 123.91
  C 398.49 123.22 398.51 122.79 398.52 121.97"
/>
<path stroke="#a9bdfb" vector-effect="non-scaling-stroke" d="
  M 398.52 121.97
  Q 398.40 121.65 399.05 120.67"
/>
<path stroke="#8eacfa" vector-effect="non-scaling-stroke" d="
  M 366.20 136.71
  Q 365.46 137.44 365.47 137.93"
/>
<path stroke="#808080" vector-effect="non-scaling-stroke" d="
  M 192.09 97.44
  Q 169.64 97.74 147.25 97.49
  Q 137.71 97.38 134.23 104.99
  Q 132.82 108.07 132.74 114.46
  Q 132.64 122.55 132.49 130.62
  Q 132.48 130.98 132.24 131.24
  L 131.99 131.53"
/>
<path stroke="#a9bdfb" vector-effect="non-scaling-stroke" d="
  M 366.96 176.73
  L 360.75 173.34
  Q 360.12 173.00 359.49 173.34
  Q 356.28 175.05 352.72 176.70
  Q 351.02 177.50 350.21 175.77
  A 1.49 1.40 38.7 0 1 350.09 174.93
  L 351.26 167.38
  A 1.40 1.39 -64.4 0 0 350.83 166.15
  L 346.96 162.51"
/>
<path stroke="#4c5d80" vector-effect="non-scaling-stroke" d="
  M 202.07 134.34
  Q 202.27 153.97 202.23 173.72
  C 202.22 180.23 199.53 181.26 193.50 181.24
  Q 173.32 181.18 152.01 181.22"
/>
<path stroke="#808080" vector-effect="non-scaling-stroke" d="
  M 152.01 181.22
  L 133.10 181.26
  A 0.47 0.47 0.0 0 0 132.64 181.73
  L 132.64 217.74"
/>
<path stroke="#656f7f" vector-effect="non-scaling-stroke" d="
  M 132.64 217.74
  C 130.97 216.86 131.36 213.78 130.92 212.39"
/>
<path stroke="#759afb" vector-effect="non-scaling-stroke" d="
  M 346.90 157.57
  Q 344.47 158.26 345.65 160.40
  Q 346.46 161.85 346.96 162.51"
/>
<path stroke="#cbdcff" vector-effect="non-scaling-stroke" d="
  M 346.96 162.51
  L 346.99 192.31"
/>
<path stroke="#4c5d80" vector-effect="non-scaling-stroke" d="
  M 346.99 192.31
  L 328.86 196.88
  A 0.63 0.63 0.0 0 1 328.09 196.12
  C 328.93 192.84 330.30 188.88 329.04 185.51
  A 1.72 1.72 0.0 0 0 326.14 184.97
  C 321.47 190.19 313.94 198.92 315.33 206.51
  Q 316.75 214.23 318.26 222.03
  Q 318.36 222.54 317.88 222.71
  Q 313.42 224.35 314.66 229.26
  Q 315.87 234.02 316.96 239.46"
/>
<path stroke="#cbdcff" vector-effect="non-scaling-stroke" d="
  M 316.96 239.46
  L 307.73 239.90"
/>
<path stroke="#4c5d80" vector-effect="non-scaling-stroke" d="
  M 307.73 239.90
  Q 292.54 238.65 285.50 239.42
  C 279.46 240.07 279.82 244.99 279.60 249.62"
/>
<path stroke="#cbdcff" vector-effect="non-scaling-stroke" d="
  M 279.60 249.62
  Q 254.84 249.98 213.75 249.92
  Q 209.25 249.92 206.14 249.40"
/>
<path stroke="#4c5d80" vector-effect="non-scaling-stroke" d="
  M 206.14 249.40
  Q 206.03 248.44 206.17 247.77
  Q 206.28 247.27 206.79 247.28
  Q 215.51 247.54 215.78 238.97
  Q 215.92 234.26 217.78 231.17
  Q 218.04 230.74 217.84 230.28
  C 216.18 226.59 214.36 224.37 214.07 220.08
  A 1.04 1.04 0.0 0 1 214.65 219.07
  C 217.62 217.59 222.87 214.44 223.24 210.76
  C 224.26 200.67 218.17 195.66 208.93 195.89
  C 203.76 196.02 200.81 199.10 197.23 200.69
  C 190.66 203.60 187.34 196.38 180.76 199.29
  C 175.95 201.42 169.18 209.48 172.17 214.77
  C 173.38 216.91 177.31 222.63 174.60 224.60
  C 172.09 226.43 168.55 228.06 168.60 231.75
  Q 168.65 234.95 170.53 237.45
  Q 178.47 247.99 189.87 241.29
  A 0.34 0.34 0.0 0 1 190.37 241.66
  L 188.43 249.86"
/>
<path stroke="#cbdcff" vector-effect="non-scaling-stroke" d="
  M 188.43 249.86
  L 152.79 250.03
  A 0.91 0.91 0.0 0 1 151.88 249.12
  L 151.82 236.71
  A 0.87 0.86 1.8 0 1 152.75 235.84
  Q 157.54 236.22 162.53 235.69
  C 166.85 235.23 168.22 229.92 165.67 227.14
  C 163.04 224.27 156.00 224.89 152.38 225.23
  A 0.48 0.48 0.0 0 1 151.85 224.75
  L 152.01 181.22"
/>
<path stroke="#808080" vector-effect="non-scaling-stroke" d="
  M 366.98 194.64
  Q 363.53 193.17 360.33 193.47
  A 1.38 1.36 -30.3 0 1 359.42 193.24
  C 355.18 190.42 351.82 191.19 346.99 192.31"
/>
<path stroke="#656f7f" vector-effect="non-scaling-stroke" d="
  M 411.54 145.86
  L 406.79 151.88
  A 0.43 0.43 0.0 0 1 406.17 151.94
  L 405.91 151.70
  A 0.28 0.27 38.7 0 1 405.86 151.33
  L 411.34 143.60"
/>
<path stroke="#808080" vector-effect="non-scaling-stroke" d="
  M 411.34 143.60
  C 419.65 128.69 414.78 111.56 402.93 100.42"
/>
<path stroke="#808080" vector-effect="non-scaling-stroke" d="
  M 366.76 198.20
  L 361.35 200.27
  A 0.51 0.50 -32.1 0 0 361.16 201.09
  L 362.64 202.67
  A 0.87 0.87 0.0 0 1 362.32 204.08
  L 346.62 210.02"
/>
<path stroke="#4c5d80" vector-effect="non-scaling-stroke" d="
  M 346.62 210.02
  L 335.55 213.82
  A 0.59 0.58 -18.3 0 0 335.18 214.54
  L 337.27 221.75
  A 0.91 0.88 -2.4 0 0 337.98 222.38
  C 340.78 222.87 343.60 223.20 344.47 226.24
  Q 345.15 228.62 346.31 231.49"
/>
<path stroke="#808080" vector-effect="non-scaling-stroke" d="
  M 346.31 231.49
  Q 347.74 239.51 349.18 248.27
  Q 352.49 268.30 348.63 288.25
  Q 348.54 288.76 349.05 288.76
  Q 369.60 288.96 390.14 288.76
  C 393.60 288.73 396.38 287.83 396.45 284.00
  Q 396.62 274.61 396.36 245.75
  Q 396.32 240.66 391.25 240.58
  Q 383.48 240.47 357.05 240.54
  A 0.53 0.52 -0.6 0 1 356.52 240.03
  L 356.51 239.75
  A 0.26 0.25 -1.1 0 1 356.77 239.49
  L 366.50 239.46"
/>
<path stroke="#293d7b" vector-effect="non-scaling-stroke" d="
  M 163.72 419.85
  Q 164.54 412.95 165.03 406.27
  Q 165.27 402.98 167.56 401.56
  Q 204.87 378.42 247.75 388.72
  C 250.91 389.48 253.62 390.10 254.80 392.73
  Q 258.94 401.99 263.73 417.51
  Q 263.90 418.07 264.44 417.83
  C 274.64 413.21 275.23 399.67 273.97 390.25
  Q 270.41 363.78 267.38 337.24
  Q 267.12 334.97 267.03 333.76
  Q 266.97 333.04 267.68 333.05
  Q 295.70 333.38 318.50 323.56
  C 336.70 315.73 346.95 299.44 348.88 280.00
  Q 351.16 256.99 345.48 233.47
  C 344.76 230.47 343.51 223.67 339.50 223.68
  Q 330.40 223.69 321.28 223.71
  C 317.85 223.72 314.54 224.29 315.57 228.65
  C 318.88 242.61 321.21 252.21 317.01 264.97
  C 310.30 285.32 285.72 290.90 267.80 283.75
  Q 267.75 283.74 261.65 280.75
  Q 257.59 278.77 252.24 277.06
  Q 234.06 271.25 219.50 268.30
  Q 215.91 267.57 210.81 267.67
  Q 210.09 267.68 210.44 268.30
  L 210.89 269.09
  A 1.74 1.73 70.5 0 1 209.67 271.66
  C 204.21 272.58 188.44 273.67 184.69 269.12
  Q 184.35 268.71 183.83 268.78
  C 153.61 272.71 126.93 287.72 111.75 314.75
  Q 111.66 314.92 111.54 314.96
  Q 111.42 315.00 111.28 314.96
  A 0.50 0.50 0.0 0 1 110.90 314.42
  Q 113.04 293.51 114.22 283.75
  C 115.38 274.21 106.01 279.27 101.77 279.72
  Q 95.92 280.34 90.73 277.45
  Q 90.28 277.20 89.80 277.37
  Q 87.47 278.20 86.66 280.65
  C 81.05 297.64 77.24 314.47 77.87 332.49
  C 78.29 344.30 82.68 358.14 95.79 361.63
  C 112.77 366.16 128.73 362.86 142.06 351.61
  A 0.44 0.44 0.0 0 1 142.79 351.92
  C 143.04 355.40 142.71 359.48 142.75 362.36
  C 142.93 377.39 142.62 407.16 158.14 416.75
  Q 159.47 417.57 160.79 418.49"
/>
<path stroke="#656f7f" vector-effect="non-scaling-stroke" d="
  M 153.50 414.56
  C 140.41 399.17 141.09 372.72 141.77 354.22
  A 0.37 0.37 0.0 0 0 141.17 353.92
  C 128.49 364.09 112.09 366.83 96.51 362.97
  C 71.72 356.83 75.53 321.46 79.31 303.51
  Q 81.27 294.15 85.41 281.11
  Q 86.37 278.10 88.64 276.58
  Q 89.11 276.28 88.73 275.87
  C 84.31 271.07 85.62 263.37 85.67 255.54
  C 85.69 252.98 86.12 250.52 89.38 251.39
  Q 89.90 251.54 90.21 251.09
  Q 91.71 248.91 94.26 249.67
  Q 94.79 249.82 95.16 249.41
  Q 97.63 246.67 101.11 248.39
  Q 101.73 248.70 101.73 248.01
  L 101.78 236.50"
/>
<path stroke="#293d7b" vector-effect="non-scaling-stroke" d="
  M 101.78 236.50
  Q 102.42 236.51 102.78 237.06"
/>
<path stroke="#808080" vector-effect="non-scaling-stroke" d="
  M 102.78 237.06
  L 102.80 253.53
  A 0.98 0.97 -72.3 0 0 103.20 254.32
  L 110.34 259.50
  A 0.45 0.45 0.0 0 1 110.37 260.21
  L 110.12 260.42
  A 0.35 0.34 41.1 0 1 109.69 260.44
  L 103.06 255.69
  Q 102.45 255.25 102.62 255.98
  Q 103.14 258.31 101.55 260.06
  Q 101.15 260.49 101.57 260.91
  L 103.36 262.67
  Q 103.92 263.22 103.20 263.53
  C 100.64 264.64 98.21 267.14 98.29 270.11
  Q 98.33 271.84 97.41 271.58
  A 0.41 0.40 -83.3 0 1 97.12 271.20
  Q 97.02 265.89 101.43 263.20
  Q 101.86 262.94 101.58 262.53
  Q 99.88 259.95 96.71 260.42
  Q 96.19 260.49 95.80 260.85
  Q 94.16 262.35 91.90 261.70
  A 0.78 0.78 0.0 0 0 91.00 262.08
  Q 89.84 264.19 87.46 263.49
  Q 86.86 263.32 86.76 263.94
  C 84.02 281.64 109.25 283.51 111.48 270.50
  Q 112.20 266.28 112.31 261.99
  C 112.39 258.75 110.20 256.58 108.30 254.23
  Q 107.98 253.84 107.98 253.33
  L 107.99 237.16"
/>
<path stroke="#293d7b" vector-effect="non-scaling-stroke" d="
  M 107.99 237.16
  Q 107.49 236.78 109.03 236.67"
/>
<path stroke="#656f7f" vector-effect="non-scaling-stroke" d="
  M 109.03 236.67
  L 109.04 252.83
  Q 109.04 253.33 109.35 253.73
  C 111.54 256.50 113.51 258.37 113.41 262.24
  C 113.30 266.73 113.10 272.75 109.92 276.19
  Q 109.32 276.83 110.20 276.87
  C 116.28 277.14 115.47 282.01 115.01 286.25
  Q 113.73 298.26 112.30 310.90
  Q 112.23 311.47 112.57 311.01
  C 114.37 308.58 116.04 305.69 117.72 303.54
  C 134.16 282.47 157.35 271.65 183.41 267.70
  Q 183.92 267.63 184.14 267.16
  Q 184.85 265.60 185.06 263.26"
/>
<path stroke="#808080" vector-effect="non-scaling-stroke" d="
  M 206.14 249.40
  Q 205.84 256.75 207.91 263.07"
/>
<path stroke="#656f7f" vector-effect="non-scaling-stroke" d="
  M 207.91 263.07
  Q 208.22 265.13 209.09 266.15
  Q 209.43 266.54 209.95 266.55
  C 223.84 266.96 236.21 270.67 250.54 275.16
  C 261.46 278.59 268.44 284.26 279.39 285.58
  A 0.53 0.53 0.0 0 0 279.98 285.04
  L 279.66 263.14"
/>
<path stroke="#808080" vector-effect="non-scaling-stroke" d="
  M 279.66 263.14
  L 279.60 249.62"
/>
<path stroke="#808080" vector-effect="non-scaling-stroke" d="
  M 307.73 239.90
  Q 297.97 240.86 288.29 240.62
  C 284.67 240.53 281.00 241.04 280.93 245.25
  Q 280.61 264.44 280.83 284.46
  Q 280.84 285.43 281.81 285.51
  C 304.05 287.42 319.42 270.30 317.92 248.50
  Q 317.48 242.00 316.96 239.46"
/>
<path stroke="#cbdcff" vector-effect="non-scaling-stroke" d="
  M 346.31 231.49
  Q 347.78 220.59 346.62 210.02"
/>
<path stroke="#808080" vector-effect="non-scaling-stroke" d="
  M 188.43 249.86
  L 185.06 263.26"
/>
<path stroke="#e4effe" vector-effect="non-scaling-stroke" d="
  M 185.06 263.26
  Q 168.89 262.80 153.00 262.91
  C 148.30 262.94 142.53 263.12 138.63 260.70
  C 130.61 255.69 131.95 244.89 132.12 236.60
  A 0.87 0.87 0.0 0 1 132.97 235.75
  L 144.29 235.60
  A 0.28 0.28 0.0 0 0 144.56 235.32
  L 144.56 235.07
  Q 144.56 235.00 144.50 235.00
  L 132.97 234.71
  Q 132.24 234.69 132.22 233.97
  L 132.01 227.06
  A 0.43 0.43 0.0 0 1 132.44 226.61
  L 142.43 226.42
  A 0.40 0.39 3.5 0 0 142.81 226.09
  L 142.87 225.70
  Q 142.90 225.45 142.65 225.45
  L 132.64 225.26
  Q 132.13 225.25 132.17 224.74
  L 132.64 217.74"
/>
<path stroke="#8eacfa" vector-effect="non-scaling-stroke" d="
  M 109.03 236.67
  L 110.43 235.27"
/>
<path stroke="#e4effe" vector-effect="non-scaling-stroke" d="
  M 110.43 235.27
  Q 110.22 236.05 111.00 236.04
  Q 119.45 235.96 127.66 235.79
  Q 127.97 235.78 127.96 235.47
  L 127.96 235.19
  A 0.68 0.67 89.1 0 0 127.29 234.53
  L 111.41 234.31"
/>
<path stroke="#8eacfa" vector-effect="non-scaling-stroke" d="
  M 111.41 234.31
  Q 113.00 231.01 111.71 227.27"
/>
<path stroke="#e4effe" vector-effect="non-scaling-stroke" d="
  M 111.71 227.27
  Q 117.74 226.40 123.74 226.89
  Q 124.95 226.99 125.17 226.29
  A 0.74 0.74 0.0 0 0 124.49 225.34
  C 120.29 225.22 114.72 226.10 110.93 225.20
  Q 110.65 225.13 110.59 225.41
  Q 110.55 225.56 110.49 225.72"
/>
<path stroke="#8eacfa" vector-effect="non-scaling-stroke" d="
  M 110.49 225.72
  Q 109.74 225.25 109.82 224.71"
/>
<path stroke="#e4effe" vector-effect="non-scaling-stroke" d="
  M 279.66 263.14
  L 207.91 263.07"
/>
<path stroke="#a9bdfb" vector-effect="non-scaling-stroke" d="
  M 110.49 225.72
  L 111.71 227.27"
/>
<path stroke="#a9bdfb" vector-effect="non-scaling-stroke" d="
  M 111.41 234.31
  L 110.43 235.27"
/>
<path stroke="#a9bdfb" vector-effect="non-scaling-stroke" d="
  M 107.99 237.16
  L 102.78 237.06"
/>
<path stroke="#8eacfa" vector-effect="non-scaling-stroke" d="
  M 101.78 236.50
  Q 100.84 235.22 99.47 234.49"
/>
<path stroke="#759afb" vector-effect="non-scaling-stroke" d="
  M 99.47 234.49
  Q 97.79 229.68 99.84 226.11"
/>
<path stroke="#b0ccfe" vector-effect="non-scaling-stroke" d="
  M 99.47 234.49
  L 95.05 235.18"
/>
<path stroke="#293d7b" vector-effect="non-scaling-stroke" d="
  M 353.52 70.46
  Q 352.64 80.27 353.17 89.00
  Q 353.30 91.17 351.95 92.20
  Q 347.65 95.45 338.50 101.56
  Q 334.21 104.43 337.41 108.24
  A 3.33 3.28 -10.9 0 0 338.96 109.27
  L 355.60 114.58
  A 1.81 1.79 0.7 0 1 356.78 115.78
  Q 359.20 124.02 361.76 132.59
  C 362.82 136.11 366.86 136.41 369.06 133.58
  Q 374.40 126.72 379.04 120.02
  A 2.55 2.54 -72.0 0 1 381.19 118.92
  L 399.57 119.41"
/>
<path stroke="#808080" vector-effect="non-scaling-stroke" d="
  M 399.57 119.41
  Q 404.08 116.83 401.44 112.77
  Q 398.27 107.89 391.14 98.58
  Q 390.80 98.15 390.89 96.81"
/>
<path stroke="#808080" vector-effect="non-scaling-stroke" d="
  M 392.01 94.00
  Q 394.58 88.03 396.68 81.82
  C 398.45 76.62 395.47 74.23 390.56 75.79
  Q 382.67 78.29 374.77 80.75
  A 1.09 1.06 -34.5 0 1 373.79 80.58
  Q 366.78 75.18 359.54 69.75
  Q 356.84 67.72 353.52 70.46"
/>
<path stroke="#a9bdfb" vector-effect="non-scaling-stroke" d="
  M 399.57 119.41
  Q 400.26 117.10 399.46 116.01
  Q 394.24 108.88 388.93 101.48
  Q 388.42 100.76 388.69 99.93
  Q 391.26 91.94 394.29 83.93
  C 395.74 80.08 392.83 76.67 388.80 77.61
  C 385.39 78.41 379.30 80.23 373.20 82.78
  Q 371.61 83.45 370.74 82.72
  Q 362.61 75.92 353.52 70.46"
/>
<path stroke="#cbdcff" vector-effect="non-scaling-stroke" d="
  M 164.66 110.88
  A 3.34 3.34 0.0 0 0 161.32 107.54
  A 3.34 3.34 0.0 0 0 157.98 110.88
  A 3.34 3.34 0.0 0 0 161.32 114.22
  A 3.34 3.34 0.0 0 0 164.66 110.88"
/>
<path stroke="#cbdcff" vector-effect="non-scaling-stroke" d="
  M 177.95 110.86
  A 3.33 3.33 0.0 0 0 174.62 107.53
  A 3.33 3.33 0.0 0 0 171.29 110.86
  A 3.33 3.33 0.0 0 0 174.62 114.19
  A 3.33 3.33 0.0 0 0 177.95 110.86"
/>
<path stroke="#cbdcff" vector-effect="non-scaling-stroke" d="
  M 191.21 110.85
  A 3.32 3.32 0.0 0 0 187.89 107.53
  A 3.32 3.32 0.0 0 0 184.57 110.85
  A 3.32 3.32 0.0 0 0 187.89 114.17
  A 3.32 3.32 0.0 0 0 191.21 110.85"
/>
<path stroke="#808080" vector-effect="non-scaling-stroke" d="
  M 186.94 149.59
  A 0.54 0.54 0.0 0 0 186.40 149.05
  L 102.48 149.05
  A 0.54 0.54 0.0 0 0 101.94 149.59
  L 101.94 149.63
  A 0.54 0.54 0.0 0 0 102.48 150.17
  L 186.40 150.17
  A 0.54 0.54 0.0 0 0 186.94 149.63
  L 186.94 149.59"
/>
<path stroke="#808080" vector-effect="non-scaling-stroke" d="
  M 144.08 160.61
  A 0.48 0.48 0.0 0 0 143.60 160.13
  L 102.40 160.13
  A 0.48 0.48 0.0 0 0 101.92 160.61
  L 101.92 160.81
  A 0.48 0.48 0.0 0 0 102.40 161.29
  L 143.60 161.29
  A 0.48 0.48 0.0 0 0 144.08 160.81
  L 144.08 160.61"
/>
<path stroke="#808080" vector-effect="non-scaling-stroke" d="
  M 186.95 160.65
  A 0.48 0.48 0.0 0 0 186.47 160.17
  L 168.73 160.17
  A 0.48 0.48 0.0 0 0 168.25 160.65
  L 168.25 160.79
  A 0.48 0.48 0.0 0 0 168.73 161.27
  L 186.47 161.27
  A 0.48 0.48 0.0 0 0 186.95 160.79
  L 186.95 160.65"
/>
<path stroke="#656f7f" vector-effect="non-scaling-stroke" d="
  M 381.69 126.66
  C 387.94 134.64 389.72 144.54 385.97 154.02
  Q 385.86 154.32 386.17 154.39
  L 386.46 154.46
  Q 386.88 154.56 387.04 154.16
  C 391.01 144.54 388.95 134.28 382.71 126.15
  Q 382.42 125.77 382.01 126.02
  L 381.79 126.16
  Q 381.46 126.36 381.69 126.66"
/>
<path stroke="#b0ccfe" vector-effect="non-scaling-stroke" d="
  M 387.83 167.78
  L 386.27 174.89
  A 1.60 1.60 0.0 0 0 388.17 176.79
  Q 392.11 175.94 395.43 173.53
  A 1.76 1.75 -49.2 0 1 397.27 173.39
  L 403.37 176.63
  A 0.85 0.59 55.3 0 0 403.53 176.69
  Q 407.30 177.52 406.69 174.50
  Q 406.02 171.24 405.35 167.73
  A 1.90 1.88 -26.5 0 1 405.94 165.99
  C 407.59 164.51 412.80 161.00 411.46 158.45
  A 1.68 1.66 78.8 0 0 410.15 157.56
  L 403.99 156.96
  A 3.32 3.32 0.0 0 1 401.33 155.08
  C 400.48 153.29 398.36 146.85 395.48 148.42
  A 1.16 1.10 -89.3 0 0 395.03 148.88
  L 391.39 155.64
  A 2.45 2.44 -78.1 0 1 389.45 156.91
  C 387.68 157.06 384.65 157.06 383.02 157.76
  A 2.24 1.95 -33.3 0 0 382.08 161.14
  L 387.30 166.07
  A 1.82 1.80 -62.5 0 1 387.83 167.78"
/>
<path stroke="#656f7f" vector-effect="non-scaling-stroke" d="
  M 418.04 209.31
  A 5.26 5.26 0.0 0 0 412.78 204.05
  A 5.26 5.26 0.0 0 0 407.52 209.31
  A 5.26 5.26 0.0 0 0 412.78 214.57
  A 5.26 5.26 0.0 0 0 418.04 209.31"
/>
<path stroke="#656f7f" vector-effect="non-scaling-stroke" d="
  M 407.51 231.07
  L 406.73 231.07
  A 0.20 0.20 0.0 0 0 406.54 231.28
  L 406.58 234.93
  A 0.95 0.45 89.4 0 0 407.04 235.87
  L 407.32 235.87
  A 0.95 0.45 89.4 0 0 407.76 234.91
  L 407.72 231.26
  A 0.20 0.20 0.0 0 0 407.51 231.07"
/>
<path stroke="#656f7f" vector-effect="non-scaling-stroke" d="
  M 405.4999 237.4683
  A 2.49 0.54 -0.5 0 0 403.0053 236.9500
  A 2.49 0.54 -0.5 0 0 400.5201 237.5117
  A 2.49 0.54 -0.5 0 0 403.0147 238.0300
  A 2.49 0.54 -0.5 0 0 405.4999 237.4683"
/>
<path stroke="#656f7f" vector-effect="non-scaling-stroke" d="
  M 413.3999 237.5145
  A 2.34 0.55 0.6 0 0 411.0658 236.9400
  A 2.34 0.55 0.6 0 0 408.7201 237.4655
  A 2.34 0.55 0.6 0 0 411.0542 238.0400
  A 2.34 0.55 0.6 0 0 413.3999 237.5145"
/>
<path stroke="#656f7f" vector-effect="non-scaling-stroke" d="
  M 407.6666 239.5407
  A 0.53 0.53 0.0 0 0 407.1274 239.0200
  L 407.0874 239.0207
  A 0.53 0.53 0.0 0 0 406.5667 239.5599
  L 406.6334 243.3793
  A 0.53 0.53 0.0 0 0 407.1726 243.9000
  L 407.2126 243.8993
  A 0.53 0.53 0.0 0 0 407.7333 243.3601
  L 407.6666 239.5407"
/>
<path stroke="#759afb" vector-effect="non-scaling-stroke" d="
  M 251.13 173.23
  C 254.07 174.34 255.87 176.06 259.26 176.68
  A 0.97 0.97 0.0 0 0 260.41 175.64
  L 259.71 167.21
  A 1.93 1.92 -23.5 0 1 260.34 165.62
  C 261.79 164.32 267.28 160.49 265.19 158.22
  A 1.63 1.62 73.1 0 0 264.26 157.72
  L 257.24 156.63
  A 2.21 2.19 -8.3 0 1 255.60 155.42
  L 252.47 149.08
  A 1.80 1.80 0.0 0 0 249.73 148.47
  C 247.96 149.88 247.01 153.11 246.05 155.15
  A 2.79 2.79 0.0 0 1 243.91 156.73
  C 242.02 157.01 235.86 157.02 235.50 159.56
  A 1.16 1.14 30.5 0 0 235.74 160.46
  Q 237.91 163.19 240.67 165.37
  C 242.89 167.11 240.92 172.25 240.51 174.65
  A 2.06 2.06 0.0 0 0 243.51 176.81
  L 250.07 173.30
  Q 250.58 173.03 251.13 173.23"
/>
<path stroke="#759afb" vector-effect="non-scaling-stroke" d="
  M 296.61 165.94
  Q 298.72 163.79 301.29 161.56
  Q 303.25 159.85 301.65 158.20
  A 2.33 2.32 71.2 0 0 300.21 157.49
  L 293.76 156.79
  A 1.89 1.88 -10.2 0 1 292.28 155.77
  L 288.97 149.25
  A 2.04 2.04 0.0 0 0 285.34 149.25
  C 284.05 151.79 282.82 156.68 279.60 156.91
  Q 276.54 157.14 273.25 157.85
  A 1.45 1.45 0.0 0 0 272.37 160.11
  C 273.90 162.26 275.88 164.03 277.62 165.73
  A 2.33 2.32 27.1 0 1 278.28 167.77
  L 277.07 174.81
  A 1.93 1.93 0.0 0 0 279.87 176.85
  L 286.54 173.36
  A 1.69 1.68 -40.9 0 1 288.30 173.48
  Q 290.97 175.42 294.25 176.66
  C 296.10 177.36 297.55 176.70 297.21 174.50
  Q 296.69 171.08 296.05 167.82
  A 2.09 2.09 0.0 0 1 296.61 165.94"
/>
<path stroke="#759afb" vector-effect="non-scaling-stroke" d="
  M 328.75 155.89
  L 325.42 149.03
  A 1.92 1.92 0.0 0 0 321.96 149.02
  L 318.67 155.74
  A 1.69 1.67 -79.8 0 1 317.35 156.67
  C 315.31 156.89 309.66 156.91 308.76 159.08
  A 1.82 1.81 -56.5 0 0 309.16 161.08
  L 313.90 165.71
  A 2.73 2.73 0.0 0 1 314.70 168.06
  L 313.64 175.21
  A 1.71 1.71 0.0 0 0 316.13 176.98
  L 322.98 173.38
  A 1.58 1.57 45.2 0 1 324.46 173.39
  L 330.88 176.87
  A 1.98 1.97 -80.6 0 0 333.77 174.80
  L 332.50 167.43
  A 1.91 1.90 -26.6 0 1 333.07 165.73
  L 338.25 160.82
  A 1.58 1.58 0.0 0 0 338.21 158.50
  C 336.50 156.97 331.95 157.09 329.58 156.56
  A 1.25 1.21 83.0 0 1 328.75 155.89"
/>
<path stroke="#cbdcff" vector-effect="non-scaling-stroke" d="
  M 151.68 227.35
  L 151.70 233.83
  A 0.76 0.76 0.0 0 0 152.46 234.59
  L 161.08 234.56
  A 4.42 3.84 -0.2 0 0 165.49 230.71
  L 165.49 230.39
  A 4.42 3.84 -0.2 0 0 161.06 226.56
  L 152.44 226.59
  A 0.76 0.76 0.0 0 0 151.68 227.35"
/>
<path stroke="#808080" vector-effect="non-scaling-stroke" d="
  M 359.25 200.04
  L 366.68 197.15
  A 0.56 0.56 0.0 0 0 366.88 196.24
  C 365.01 194.26 362.05 194.85 359.57 194.67
  A 1.64 1.61 64.6 0 1 358.70 194.35
  Q 355.04 191.59 351.25 192.56
  Q 340.27 195.37 329.25 197.95
  Q 327.71 198.31 327.08 197.05
  A 1.70 1.65 -52.2 0 1 326.95 195.89
  C 327.49 193.68 329.32 187.80 327.86 185.94
  A 0.75 0.75 0.0 0 0 326.70 185.91
  C 322.73 190.53 315.44 199.01 316.32 205.25
  Q 317.53 213.78 319.74 222.09
  A 0.56 0.55 -7.4 0 0 320.28 222.50
  L 335.70 222.49
  Q 336.33 222.49 336.16 221.87
  L 334.38 215.67
  Q 333.71 213.33 336.00 212.52
  L 361.22 203.51
  A 0.35 0.35 0.0 0 0 361.34 202.93
  L 359.10 200.87
  Q 358.52 200.33 359.25 200.04"
/>
<path stroke="#808080" vector-effect="non-scaling-stroke" d="
  M 191.46 229.04
  Q 188.86 228.43 186.75 229.95
  A 1.13 1.13 0.0 0 0 186.29 230.68
  C 185.70 233.92 189.66 235.64 192.27 236.22
  Q 192.82 236.34 192.69 236.89
  Q 189.15 251.83 185.71 266.79
  Q 185.12 269.34 187.21 269.87
  Q 197.38 272.45 209.08 270.76
  A 0.93 0.93 0.0 0 0 209.71 269.30
  C 205.16 262.93 204.80 255.51 204.82 247.84
  Q 204.82 247.25 204.30 246.98
  L 198.22 243.81
  A 0.57 0.57 0.0 0 1 198.01 243.00
  L 198.17 242.74
  A 0.58 0.58 0.0 0 1 199.03 242.62
  C 202.50 245.66 209.30 248.22 212.84 243.99
  Q 214.75 241.72 214.64 238.58
  Q 214.49 234.13 216.64 231.11
  A 0.81 0.80 -44.7 0 0 216.65 230.21
  C 213.45 225.45 212.84 220.77 211.95 215.58
  A 0.40 0.40 0.0 0 0 211.35 215.31
  Q 204.90 219.29 197.75 216.65
  Q 197.23 216.46 196.81 216.82
  Q 191.50 221.48 191.99 228.59
  Q 192.03 229.17 191.46 229.04"
/>
<path stroke="#808080" vector-effect="non-scaling-stroke" d="
  M 101.5028 250.5393
  A 1.53 1.53 0.0 0 0 99.9782 249.0040
  L 97.7182 248.9961
  A 1.53 1.53 0.0 0 0 96.1829 250.5207
  L 96.1572 257.8807
  A 1.53 1.53 0.0 0 0 97.6818 259.4160
  L 99.9418 259.4239
  A 1.53 1.53 0.0 0 0 101.4771 257.8993
  L 101.5028 250.5393"
/>
<path stroke="#808080" vector-effect="non-scaling-stroke" d="
  M 95.03 251.76
  A 1.06 1.06 0.0 0 0 93.97 250.70
  L 92.31 250.70
  A 1.06 1.06 0.0 0 0 91.25 251.76
  L 91.25 259.64
  A 1.06 1.06 0.0 0 0 92.31 260.70
  L 93.97 260.70
  A 1.06 1.06 0.0 0 0 95.03 259.64
  L 95.03 251.76"
/>
<path stroke="#808080" vector-effect="non-scaling-stroke" d="
  M 90.0995 253.7489
  A 1.36 1.36 0.0 0 0 88.7466 252.3818
  L 88.0866 252.3783
  A 1.36 1.36 0.0 0 0 86.7195 253.7312
  L 86.6805 261.1711
  A 1.36 1.36 0.0 0 0 88.0334 262.5382
  L 88.6934 262.5417
  A 1.36 1.36 0.0 0 0 90.0605 261.1888
  L 90.0995 253.7489"
/>
<path stroke="#808080" vector-effect="non-scaling-stroke" d="
  M 354.2538 195.8525
  A 0.56 0.56 0.0 0 0 353.5764 195.4423
  L 335.3774 199.9124
  A 0.56 0.56 0.0 0 0 334.9671 200.5898
  L 334.9862 200.6675
  A 0.56 0.56 0.0 0 0 335.6636 201.0777
  L 353.8626 196.6076
  A 0.56 0.56 0.0 0 0 354.2729 195.9302
  L 354.2538 195.8525"
/>
<path stroke="#808080" vector-effect="non-scaling-stroke" d="
  M 356.1932 201.0594
  A 0.45 0.45 0.0 0 0 355.6483 200.7307
  L 337.0882 205.3239
  A 0.45 0.45 0.0 0 0 336.7595 205.8688
  L 336.8268 206.1406
  A 0.45 0.45 0.0 0 0 337.3717 206.4693
  L 355.9318 201.8761
  A 0.45 0.45 0.0 0 0 356.2605 201.3312
  L 356.1932 201.0594"
/>
<path stroke="#656f7f" vector-effect="non-scaling-stroke" d="
  M 416.91 209.34
  A 4.14 4.14 0.0 0 0 412.77 205.20
  A 4.14 4.14 0.0 0 0 408.63 209.34
  A 4.14 4.14 0.0 0 0 412.77 213.48
  A 4.14 4.14 0.0 0 0 416.91 209.34"
/>
<path stroke="#293d7b" vector-effect="non-scaling-stroke" d="
  M 105.74 235.17
  L 105.80 234.87
  A 0.28 0.27 -80.2 0 0 105.57 234.54
  Q 100.23 233.73 101.92 229.24
  C 103.43 225.25 108.73 226.22 109.41 230.65
  Q 109.45 230.95 109.75 230.97
  L 110.13 231.01
  Q 110.26 231.02 110.26 230.89
  Q 110.23 226.79 107.03 225.88
  C 100.10 223.91 97.53 234.78 105.38 235.43
  Q 105.67 235.46 105.74 235.17"
/>
</g>
<path fill="#c9defd" d="
  M 349.26 81.50
  L 349.32 92.50
  L 343.79 96.46
  L 230.50 96.97
  L 218.00 95.96
  C 234.04 76.57 256.32 68.64 280.76 67.12
  C 290.23 66.53 299.23 67.47 309.23 69.13
  Q 327.31 72.15 344.26 79.15
  Q 346.17 79.94 347.69 81.31
  Q 348.08 81.66 348.42 81.65
  Q 348.76 81.63 349.26 81.50
  Z"
/>
<path fill="#000000" d="
  M 394.14 100.33
  Q 398.47 106.66 402.83 112.88
  C 405.10 116.11 402.09 119.85 399.05 120.67
  Q 390.55 120.26 382.25 119.89
  Q 379.51 119.77 378.43 122.70
  Q 374.03 128.65 369.63 134.88
  Q 368.85 135.99 366.20 136.71
  C 361.00 136.46 360.82 133.35 359.36 128.48
  Q 357.55 122.42 355.84 116.47
  A 1.37 1.37 0.0 0 0 354.97 115.56
  Q 346.43 112.63 338.04 109.93
  C 335.08 108.98 335.17 106.60 334.88 103.62
  Q 337.96 99.58 343.79 96.46
  L 349.32 92.50
  Q 352.14 91.73 352.13 88.50
  Q 352.11 80.20 352.02 71.65
  Q 353.51 68.02 356.74 67.92
  Q 358.75 67.86 361.56 69.94
  Q 366.91 73.91 372.18 78.00
  C 375.22 80.35 376.42 79.06 379.46 78.12
  Q 385.62 76.23 391.75 74.18
  C 396.38 72.64 399.01 77.42 397.87 81.39
  Q 396.42 86.46 392.14 97.24
  A 0.88 0.88 0.0 0 0 392.29 98.13
  L 394.14 100.33
  Z
  M 353.52 70.46
  Q 352.64 80.27 353.17 89.00
  Q 353.30 91.17 351.95 92.20
  Q 347.65 95.45 338.50 101.56
  Q 334.21 104.43 337.41 108.24
  A 3.33 3.28 -10.9 0 0 338.96 109.27
  L 355.60 114.58
  A 1.81 1.79 0.7 0 1 356.78 115.78
  Q 359.20 124.02 361.76 132.59
  C 362.82 136.11 366.86 136.41 369.06 133.58
  Q 374.40 126.72 379.04 120.02
  A 2.55 2.54 -72.0 0 1 381.19 118.92
  L 399.57 119.41
  Q 404.08 116.83 401.44 112.77
  Q 398.27 107.89 391.14 98.58
  Q 390.80 98.15 390.89 96.81
  Q 391.79 95.38 392.01 94.00
  Q 394.58 88.03 396.68 81.82
  C 398.45 76.62 395.47 74.23 390.56 75.79
  Q 382.67 78.29 374.77 80.75
  A 1.09 1.06 -34.5 0 1 373.79 80.58
  Q 366.78 75.18 359.54 69.75
  Q 356.84 67.72 353.52 70.46
  Z"
/>
<path fill="#ffffff" d="
  M 392.01 94.00
  Q 390.34 94.72 390.89 96.81
  Q 390.80 98.15 391.14 98.58
  Q 398.27 107.89 401.44 112.77
  Q 404.08 116.83 399.57 119.41
  Q 400.26 117.10 399.46 116.01
  Q 394.24 108.88 388.93 101.48
  Q 388.42 100.76 388.69 99.93
  Q 391.26 91.94 394.29 83.93
  C 395.74 80.08 392.83 76.67 388.80 77.61
  C 385.39 78.41 379.30 80.23 373.20 82.78
  Q 371.61 83.45 370.74 82.72
  Q 362.61 75.92 353.52 70.46
  Q 356.84 67.72 359.54 69.75
  Q 366.78 75.18 373.79 80.58
  A 1.09 1.06 -34.5 0 0 374.77 80.75
  Q 382.67 78.29 390.56 75.79
  C 395.47 74.23 398.45 76.62 396.68 81.82
  Q 394.58 88.03 392.01 94.00
  Z"
/>
<path fill="#527af6" d="
  M 353.52 70.46
  Q 362.61 75.92 370.74 82.72
  Q 371.61 83.45 373.20 82.78
  C 379.30 80.23 385.39 78.41 388.80 77.61
  C 392.83 76.67 395.74 80.08 394.29 83.93
  Q 391.26 91.94 388.69 99.93
  Q 388.42 100.76 388.93 101.48
  Q 394.24 108.88 399.46 116.01
  Q 400.26 117.10 399.57 119.41
  L 381.19 118.92
  A 2.55 2.54 -72.0 0 0 379.04 120.02
  Q 374.40 126.72 369.06 133.58
  C 366.86 136.41 362.82 136.11 361.76 132.59
  Q 359.20 124.02 356.78 115.78
  A 1.81 1.79 0.7 0 0 355.60 114.58
  L 338.96 109.27
  A 3.33 3.28 -10.9 0 1 337.41 108.24
  Q 334.21 104.43 338.50 101.56
  Q 347.65 95.45 351.95 92.20
  Q 353.30 91.17 353.17 89.00
  Q 352.64 80.27 353.52 70.46
  Z"
/>
<path fill="#527af6" d="
  M 352.02 71.65
  Q 352.11 80.20 352.13 88.50
  Q 352.14 91.73 349.32 92.50
  L 349.26 81.50
  Q 347.99 74.93 352.02 71.65
  Z"
/>
<path fill="#000000" d="
  M 218.00 95.96
  L 230.50 96.97
  Q 215.71 98.07 200.78 97.54
  Q 201.04 96.14 201.87 96.11
  Q 205.62 95.99 218.00 95.96
  Z"
/>
<path fill="#000000" d="
  M 192.09 97.44
  Q 169.64 97.74 147.25 97.49
  Q 137.71 97.38 134.23 104.99
  Q 132.82 108.07 132.74 114.46
  Q 132.64 122.55 132.49 130.62
  Q 132.48 130.98 132.24 131.24
  L 131.99 131.53
  Q 131.47 131.17 131.45 130.75
  Q 130.90 120.93 131.62 111.14
  Q 132.00 106.07 133.75 103.23
  C 137.59 96.97 143.05 96.12 150.57 96.08
  Q 164.00 96.02 190.25 96.07
  Q 192.02 96.08 192.09 97.44
  Z"
/>
<path fill="#ffffff" d="
  M 343.79 96.46
  Q 337.96 99.58 334.88 103.62
  C 331.25 106.08 331.59 111.46 336.00 112.83
  Q 343.98 115.32 351.96 117.81
  A 1.75 1.74 1.6 0 1 353.13 119.04
  Q 354.98 126.25 357.25 133.55
  C 358.56 137.75 360.91 140.61 365.47 137.93
  Q 366.05 137.74 366.35 137.87
  Q 366.62 137.97 366.64 138.52
  Q 367.05 147.58 366.48 156.87
  Q 363.28 153.19 361.94 149.17
  A 1.80 1.80 0.0 0 0 359.61 148.04
  Q 358.97 148.27 358.38 149.34
  Q 356.58 152.61 354.87 155.84
  A 1.30 1.27 -79.6 0 1 353.92 156.51
  L 346.90 157.57
  L 346.96 135.03
  A 0.63 0.62 0.4 0 0 346.33 134.40
  L 202.07 134.34
  Q 199.82 130.76 196.50 130.75
  Q 178.98 130.73 161.56 130.76
  Q 160.96 130.76 161.03 131.36
  L 161.07 131.67
  Q 161.12 132.01 161.45 132.01
  Q 178.73 131.99 196.00 132.09
  C 200.18 132.11 201.05 134.62 201.09 138.43
  Q 201.27 155.85 201.15 173.28
  C 201.12 176.99 200.50 180.03 196.25 180.06
  Q 160.20 180.29 90.50 179.87
  C 86.07 179.84 85.64 175.77 85.64 172.49
  Q 85.64 156.22 85.67 139.91
  C 85.69 134.82 85.97 132.07 91.77 132.06
  Q 101.96 132.05 112.26 131.87
  Q 122.79 133.54 130.62 133.12
  Q 132.33 133.03 131.99 131.53
  L 132.24 131.24
  Q 132.48 130.98 132.49 130.62
  Q 132.64 122.55 132.74 114.46
  Q 132.82 108.07 134.23 104.99
  Q 137.71 97.38 147.25 97.49
  Q 169.64 97.74 192.09 97.44
  L 200.78 97.54
  Q 215.71 98.07 230.50 96.97
  L 343.79 96.46
  Z
  M 164.66 110.88
  A 3.34 3.34 0.0 0 0 161.32 107.54
  A 3.34 3.34 0.0 0 0 157.98 110.88
  A 3.34 3.34 0.0 0 0 161.32 114.22
  A 3.34 3.34 0.0 0 0 164.66 110.88
  Z
  M 177.95 110.86
  A 3.33 3.33 0.0 0 0 174.62 107.53
  A 3.33 3.33 0.0 0 0 171.29 110.86
  A 3.33 3.33 0.0 0 0 174.62 114.19
  A 3.33 3.33 0.0 0 0 177.95 110.86
  Z
  M 191.21 110.85
  A 3.32 3.32 0.0 0 0 187.89 107.53
  A 3.32 3.32 0.0 0 0 184.57 110.85
  A 3.32 3.32 0.0 0 0 187.89 114.17
  A 3.32 3.32 0.0 0 0 191.21 110.85
  Z
  M 186.94 149.59
  A 0.54 0.54 0.0 0 0 186.40 149.05
  L 102.48 149.05
  A 0.54 0.54 0.0 0 0 101.94 149.59
  L 101.94 149.63
  A 0.54 0.54 0.0 0 0 102.48 150.17
  L 186.40 150.17
  A 0.54 0.54 0.0 0 0 186.94 149.63
  L 186.94 149.59
  Z
  M 144.08 160.61
  A 0.48 0.48 0.0 0 0 143.60 160.13
  L 102.40 160.13
  A 0.48 0.48 0.0 0 0 101.92 160.61
  L 101.92 160.81
  A 0.48 0.48 0.0 0 0 102.40 161.29
  L 143.60 161.29
  A 0.48 0.48 0.0 0 0 144.08 160.81
  L 144.08 160.61
  Z
  M 186.95 160.65
  A 0.48 0.48 0.0 0 0 186.47 160.17
  L 168.73 160.17
  A 0.48 0.48 0.0 0 0 168.25 160.65
  L 168.25 160.79
  A 0.48 0.48 0.0 0 0 168.73 161.27
  L 186.47 161.27
  A 0.48 0.48 0.0 0 0 186.95 160.79
  L 186.95 160.65
  Z"
/>
<path fill="#000000" d="
  M 411.54 145.86
  L 406.79 151.88
  A 0.43 0.43 0.0 0 1 406.17 151.94
  L 405.91 151.70
  A 0.28 0.27 38.7 0 1 405.86 151.33
  L 411.34 143.60
  C 419.65 128.69 414.78 111.56 402.93 100.42
  L 399.18 96.53
  A 0.27 0.26 44.2 0 1 399.17 96.17
  L 399.45 95.84
  Q 399.62 95.66 399.81 95.82
  C 411.01 104.91 420.02 120.85 415.78 135.55
  Q 414.11 141.35 411.54 145.86
  Z"
/>
<path fill="#ffffff" d="
  M 402.93 100.42
  C 414.78 111.56 419.65 128.69 411.34 143.60
  Q 405.71 133.06 399.00 123.91
  C 398.49 123.22 398.51 122.79 398.52 121.97
  Q 398.40 121.65 399.05 120.67
  C 402.09 119.85 405.10 116.11 402.83 112.88
  Q 398.47 106.66 394.14 100.33
  Q 397.29 99.45 401.24 100.81
  Q 402.07 101.09 402.93 100.42
  Z"
/>
<path fill="#527af6" d="
  M 334.88 103.62
  C 335.17 106.60 335.08 108.98 338.04 109.93
  Q 346.43 112.63 354.97 115.56
  A 1.37 1.37 0.0 0 1 355.84 116.47
  Q 357.55 122.42 359.36 128.48
  C 360.82 133.35 361.00 136.46 366.20 136.71
  Q 365.46 137.44 365.47 137.93
  C 360.91 140.61 358.56 137.75 357.25 133.55
  Q 354.98 126.25 353.13 119.04
  A 1.75 1.74 1.6 0 0 351.96 117.81
  Q 343.98 115.32 336.00 112.83
  C 331.59 111.46 331.25 106.08 334.88 103.62
  Z"
/>
<circle fill="#97b9ff" cx="161.32" cy="110.88" r="3.34"/>
<circle fill="#97b9ff" cx="174.62" cy="110.86" r="3.33"/>
<circle fill="#97b9ff" cx="187.89" cy="110.85" r="3.32"/>
<path fill="#527af6" d="
  M 399.05 120.67
  Q 398.40 121.65 398.52 121.97
  C 397.16 122.20 396.13 122.95 394.77 122.93
  C 389.24 122.85 383.96 122.27 378.43 122.70
  Q 379.51 119.77 382.25 119.89
  Q 390.55 120.26 399.05 120.67
  Z"
/>
<path fill="#c9defd" d="
  M 398.52 121.97
  C 398.51 122.79 398.49 123.22 399.00 123.91
  Q 405.71 133.06 411.34 143.60
  L 405.86 151.33
  A 0.28 0.27 38.7 0 0 405.91 151.70
  L 406.17 151.94
  A 0.43 0.43 0.0 0 0 406.79 151.88
  L 411.54 145.86
  Q 420.47 161.28 425.75 181.01
  Q 431.12 201.04 431.97 210.26
  C 432.70 218.06 433.96 225.72 433.75 233.37
  C 432.42 281.82 413.42 330.15 381.19 365.95
  Q 379.84 367.46 378.88 368.20
  Q 377.55 369.24 378.15 367.66
  Q 380.60 361.19 382.94 354.48
  C 384.23 350.77 386.58 345.22 383.80 343.21
  Q 381.76 341.74 379.76 340.56
  A 1.95 1.95 0.0 0 1 379.70 337.24
  Q 383.45 334.82 387.25 332.09
  C 391.68 328.90 390.41 326.67 391.35 322.16
  C 392.04 318.86 391.98 315.37 392.41 312.29
  Q 393.31 305.87 392.93 299.75
  A 1.23 1.23 0.0 0 0 391.14 298.73
  Q 352.29 318.56 328.41 354.15
  Q 325.44 358.57 321.36 366.24
  Q 320.43 362.07 319.80 358.27
  C 318.45 350.20 315.86 342.59 312.96 334.90
  A 0.94 0.94 0.0 0 0 311.37 334.62
  Q 305.82 340.95 302.11 348.53
  A 1.14 1.13 50.2 0 0 302.04 349.34
  L 303.52 354.33
  Q 304.07 356.19 302.20 355.67
  L 299.38 354.90
  Q 298.79 354.73 298.53 355.29
  C 289.36 375.18 286.33 401.07 294.93 421.79
  C 285.73 424.64 278.61 426.97 267.41 429.28
  L 264.58 419.83
  Q 264.43 419.33 264.89 419.08
  Q 273.63 414.23 274.86 404.09
  Q 275.83 396.10 275.20 391.56
  Q 271.36 363.82 268.25 335.23
  Q 268.13 334.12 269.24 334.14
  Q 290.18 334.47 310.08 327.92
  C 328.22 321.95 340.54 312.77 346.71 294.24
  Q 347.32 292.41 348.03 290.48
  Q 348.21 290.00 348.72 290.00
  Q 369.99 290.02 391.25 289.89
  C 397.37 289.85 397.64 284.88 397.65 280.25
  Q 397.72 257.94 397.60 246.30
  C 397.56 242.61 396.16 239.67 392.25 239.53
  Q 385.33 239.29 366.50 239.46
  Q 367.06 238.60 366.91 236.80
  Q 366.72 234.49 366.72 234.18
  Q 366.48 216.03 366.76 198.20
  Q 368.28 197.73 368.27 196.69
  Q 368.26 196.22 367.75 195.61
  Q 367.21 194.98 366.98 194.64
  L 366.96 176.73
  Q 369.10 177.35 370.05 175.87
  A 1.13 1.10 -33.4 0 0 370.21 175.14
  L 369.10 167.67
  Q 368.94 166.61 369.71 165.86
  L 374.72 160.98
  A 0.54 0.36 90.0 0 0 374.82 160.83
  Q 376.15 158.07 372.95 157.54
  Q 369.12 156.91 366.48 156.87
  Q 367.05 147.58 366.64 138.52
  Q 366.62 137.97 366.35 137.87
  Q 366.05 137.74 365.47 137.93
  Q 365.46 137.44 366.20 136.71
  Q 368.85 135.99 369.63 134.88
  Q 374.03 128.65 378.43 122.70
  C 383.96 122.27 389.24 122.85 394.77 122.93
  C 396.13 122.95 397.16 122.20 398.52 121.97
  Z
  M 381.69 126.66
  C 387.94 134.64 389.72 144.54 385.97 154.02
  Q 385.86 154.32 386.17 154.39
  L 386.46 154.46
  Q 386.88 154.56 387.04 154.16
  C 391.01 144.54 388.95 134.28 382.71 126.15
  Q 382.42 125.77 382.01 126.02
  L 381.79 126.16
  Q 381.46 126.36 381.69 126.66
  Z
  M 387.83 167.78
  L 386.27 174.89
  A 1.60 1.60 0.0 0 0 388.17 176.79
  Q 392.11 175.94 395.43 173.53
  A 1.76 1.75 -49.2 0 1 397.27 173.39
  L 403.37 176.63
  A 0.85 0.59 55.3 0 0 403.53 176.69
  Q 407.30 177.52 406.69 174.50
  Q 406.02 171.24 405.35 167.73
  A 1.90 1.88 -26.5 0 1 405.94 165.99
  C 407.59 164.51 412.80 161.00 411.46 158.45
  A 1.68 1.66 78.8 0 0 410.15 157.56
  L 403.99 156.96
  A 3.32 3.32 0.0 0 1 401.33 155.08
  C 400.48 153.29 398.36 146.85 395.48 148.42
  A 1.16 1.10 -89.3 0 0 395.03 148.88
  L 391.39 155.64
  A 2.45 2.44 -78.1 0 1 389.45 156.91
  C 387.68 157.06 384.65 157.06 383.02 157.76
  A 2.24 1.95 -33.3 0 0 382.08 161.14
  L 387.30 166.07
  A 1.82 1.80 -62.5 0 1 387.83 167.78
  Z
  M 418.04 209.31
  A 5.26 5.26 0.0 0 0 412.78 204.05
  A 5.26 5.26 0.0 0 0 407.52 209.31
  A 5.26 5.26 0.0 0 0 412.78 214.57
  A 5.26 5.26 0.0 0 0 418.04 209.31
  Z
  M 407.51 231.07
  L 406.73 231.07
  A 0.20 0.20 0.0 0 0 406.54 231.28
  L 406.58 234.93
  A 0.95 0.45 89.4 0 0 407.04 235.87
  L 407.32 235.87
  A 0.95 0.45 89.4 0 0 407.76 234.91
  L 407.72 231.26
  A 0.20 0.20 0.0 0 0 407.51 231.07
  Z
  M 405.4999 237.4683
  A 2.49 0.54 -0.5 0 0 403.0053 236.9500
  A 2.49 0.54 -0.5 0 0 400.5201 237.5117
  A 2.49 0.54 -0.5 0 0 403.0147 238.0300
  A 2.49 0.54 -0.5 0 0 405.4999 237.4683
  Z
  M 413.3999 237.5145
  A 2.34 0.55 0.6 0 0 411.0658 236.9400
  A 2.34 0.55 0.6 0 0 408.7201 237.4655
  A 2.34 0.55 0.6 0 0 411.0542 238.0400
  A 2.34 0.55 0.6 0 0 413.3999 237.5145
  Z
  M 407.6666 239.5407
  A 0.53 0.53 0.0 0 0 407.1274 239.0200
  L 407.0874 239.0207
  A 0.53 0.53 0.0 0 0 406.5667 239.5599
  L 406.6334 243.3793
  A 0.53 0.53 0.0 0 0 407.1726 243.9000
  L 407.2126 243.8993
  A 0.53 0.53 0.0 0 0 407.7333 243.3601
  L 407.6666 239.5407
  Z"
/>
<path fill="#000000" d="
  M 385.97 154.02
  C 389.72 144.54 387.94 134.64 381.69 126.66
  Q 381.46 126.36 381.79 126.16
  L 382.01 126.02
  Q 382.42 125.77 382.71 126.15
  C 388.95 134.28 391.01 144.54 387.04 154.16
  Q 386.88 154.56 386.46 154.46
  L 386.17 154.39
  Q 385.86 154.32 385.97 154.02
  Z"
/>
<path fill="#000000" d="
  M 112.26 131.87
  Q 101.96 132.05 91.77 132.06
  C 85.97 132.07 85.69 134.82 85.67 139.91
  Q 85.64 156.22 85.64 172.49
  C 85.64 175.77 86.07 179.84 90.50 179.87
  Q 160.20 180.29 196.25 180.06
  C 200.50 180.03 201.12 176.99 201.15 173.28
  Q 201.27 155.85 201.09 138.43
  C 201.05 134.62 200.18 132.11 196.00 132.09
  Q 178.73 131.99 161.45 132.01
  Q 161.12 132.01 161.07 131.67
  L 161.03 131.36
  Q 160.96 130.76 161.56 130.76
  Q 178.98 130.73 196.50 130.75
  Q 199.82 130.76 202.07 134.34
  Q 202.27 153.97 202.23 173.72
  C 202.22 180.23 199.53 181.26 193.50 181.24
  Q 173.32 181.18 152.01 181.22
  L 133.10 181.26
  A 0.47 0.47 0.0 0 0 132.64 181.73
  L 132.64 217.74
  C 130.97 216.86 131.36 213.78 130.92 212.39
  L 131.15 182.14
  A 1.10 1.09 89.5 0 0 130.03 181.03
  Q 109.51 181.44 89.00 180.93
  Q 86.93 180.87 85.30 177.99
  C 84.65 176.84 84.32 173.43 84.30 171.63
  Q 84.11 155.06 84.27 138.50
  C 84.31 134.87 85.93 131.13 90.38 130.96
  Q 100.75 130.58 111.12 130.87
  Q 111.62 130.88 111.89 131.30
  L 112.26 131.87
  Z"
/>
<path fill="#97b9ff" d="
  M 202.07 134.34
  L 346.33 134.40
  A 0.63 0.62 0.4 0 1 346.96 135.03
  L 346.90 157.57
  Q 344.47 158.26 345.65 160.40
  Q 346.46 161.85 346.96 162.51
  L 346.99 192.31
  L 328.86 196.88
  A 0.63 0.63 0.0 0 1 328.09 196.12
  C 328.93 192.84 330.30 188.88 329.04 185.51
  A 1.72 1.72 0.0 0 0 326.14 184.97
  C 321.47 190.19 313.94 198.92 315.33 206.51
  Q 316.75 214.23 318.26 222.03
  Q 318.36 222.54 317.88 222.71
  Q 313.42 224.35 314.66 229.26
  Q 315.87 234.02 316.96 239.46
  L 307.73 239.90
  Q 292.54 238.65 285.50 239.42
  C 279.46 240.07 279.82 244.99 279.60 249.62
  Q 254.84 249.98 213.75 249.92
  Q 209.25 249.92 206.14 249.40
  Q 206.03 248.44 206.17 247.77
  Q 206.28 247.27 206.79 247.28
  Q 215.51 247.54 215.78 238.97
  Q 215.92 234.26 217.78 231.17
  Q 218.04 230.74 217.84 230.28
  C 216.18 226.59 214.36 224.37 214.07 220.08
  A 1.04 1.04 0.0 0 1 214.65 219.07
  C 217.62 217.59 222.87 214.44 223.24 210.76
  C 224.26 200.67 218.17 195.66 208.93 195.89
  C 203.76 196.02 200.81 199.10 197.23 200.69
  C 190.66 203.60 187.34 196.38 180.76 199.29
  C 175.95 201.42 169.18 209.48 172.17 214.77
  C 173.38 216.91 177.31 222.63 174.60 224.60
  C 172.09 226.43 168.55 228.06 168.60 231.75
  Q 168.65 234.95 170.53 237.45
  Q 178.47 247.99 189.87 241.29
  A 0.34 0.34 0.0 0 1 190.37 241.66
  L 188.43 249.86
  L 152.79 250.03
  A 0.91 0.91 0.0 0 1 151.88 249.12
  L 151.82 236.71
  A 0.87 0.86 1.8 0 1 152.75 235.84
  Q 157.54 236.22 162.53 235.69
  C 166.85 235.23 168.22 229.92 165.67 227.14
  C 163.04 224.27 156.00 224.89 152.38 225.23
  A 0.48 0.48 0.0 0 1 151.85 224.75
  L 152.01 181.22
  Q 173.32 181.18 193.50 181.24
  C 199.53 181.26 202.22 180.23 202.23 173.72
  Q 202.27 153.97 202.07 134.34
  Z
  M 251.13 173.23
  C 254.07 174.34 255.87 176.06 259.26 176.68
  A 0.97 0.97 0.0 0 0 260.41 175.64
  L 259.71 167.21
  A 1.93 1.92 -23.5 0 1 260.34 165.62
  C 261.79 164.32 267.28 160.49 265.19 158.22
  A 1.63 1.62 73.1 0 0 264.26 157.72
  L 257.24 156.63
  A 2.21 2.19 -8.3 0 1 255.60 155.42
  L 252.47 149.08
  A 1.80 1.80 0.0 0 0 249.73 148.47
  C 247.96 149.88 247.01 153.11 246.05 155.15
  A 2.79 2.79 0.0 0 1 243.91 156.73
  C 242.02 157.01 235.86 157.02 235.50 159.56
  A 1.16 1.14 30.5 0 0 235.74 160.46
  Q 237.91 163.19 240.67 165.37
  C 242.89 167.11 240.92 172.25 240.51 174.65
  A 2.06 2.06 0.0 0 0 243.51 176.81
  L 250.07 173.30
  Q 250.58 173.03 251.13 173.23
  Z
  M 296.61 165.94
  Q 298.72 163.79 301.29 161.56
  Q 303.25 159.85 301.65 158.20
  A 2.33 2.32 71.2 0 0 300.21 157.49
  L 293.76 156.79
  A 1.89 1.88 -10.2 0 1 292.28 155.77
  L 288.97 149.25
  A 2.04 2.04 0.0 0 0 285.34 149.25
  C 284.05 151.79 282.82 156.68 279.60 156.91
  Q 276.54 157.14 273.25 157.85
  A 1.45 1.45 0.0 0 0 272.37 160.11
  C 273.90 162.26 275.88 164.03 277.62 165.73
  A 2.33 2.32 27.1 0 1 278.28 167.77
  L 277.07 174.81
  A 1.93 1.93 0.0 0 0 279.87 176.85
  L 286.54 173.36
  A 1.69 1.68 -40.9 0 1 288.30 173.48
  Q 290.97 175.42 294.25 176.66
  C 296.10 177.36 297.55 176.70 297.21 174.50
  Q 296.69 171.08 296.05 167.82
  A 2.09 2.09 0.0 0 1 296.61 165.94
  Z
  M 328.75 155.89
  L 325.42 149.03
  A 1.92 1.92 0.0 0 0 321.96 149.02
  L 318.67 155.74
  A 1.69 1.67 -79.8 0 1 317.35 156.67
  C 315.31 156.89 309.66 156.91 308.76 159.08
  A 1.82 1.81 -56.5 0 0 309.16 161.08
  L 313.90 165.71
  A 2.73 2.73 0.0 0 1 314.70 168.06
  L 313.64 175.21
  A 1.71 1.71 0.0 0 0 316.13 176.98
  L 322.98 173.38
  A 1.58 1.57 45.2 0 1 324.46 173.39
  L 330.88 176.87
  A 1.98 1.97 -80.6 0 0 333.77 174.80
  L 332.50 167.43
  A 1.91 1.90 -26.6 0 1 333.07 165.73
  L 338.25 160.82
  A 1.58 1.58 0.0 0 0 338.21 158.50
  C 336.50 156.97 331.95 157.09 329.58 156.56
  A 1.25 1.21 83.0 0 1 328.75 155.89
  Z"
/>
<path fill="#527af6" d="
  M 366.48 156.87
  Q 369.12 156.91 372.95 157.54
  Q 376.15 158.07 374.82 160.83
  A 0.54 0.36 90.0 0 1 374.72 160.98
  L 369.71 165.86
  Q 368.94 166.61 369.10 167.67
  L 370.21 175.14
  A 1.13 1.10 -33.4 0 1 370.05 175.87
  Q 369.10 177.35 366.96 176.73
  L 360.75 173.34
  Q 360.12 173.00 359.49 173.34
  Q 356.28 175.05 352.72 176.70
  Q 351.02 177.50 350.21 175.77
  A 1.49 1.40 38.7 0 1 350.09 174.93
  L 351.26 167.38
  A 1.40 1.39 -64.4 0 0 350.83 166.15
  L 346.96 162.51
  Q 346.46 161.85 345.65 160.40
  Q 344.47 158.26 346.90 157.57
  L 353.92 156.51
  A 1.30 1.27 -79.6 0 0 354.87 155.84
  Q 356.58 152.61 358.38 149.34
  Q 358.97 148.27 359.61 148.04
  A 1.80 1.80 0.0 0 1 361.94 149.17
  Q 363.28 153.19 366.48 156.87
  Z"
/>
<path fill="#527af6" d="
  M 250.07 173.30
  L 243.51 176.81
  A 2.06 2.06 0.0 0 1 240.51 174.65
  C 240.92 172.25 242.89 167.11 240.67 165.37
  Q 237.91 163.19 235.74 160.46
  A 1.16 1.14 30.5 0 1 235.50 159.56
  C 235.86 157.02 242.02 157.01 243.91 156.73
  A 2.79 2.79 0.0 0 0 246.05 155.15
  C 247.01 153.11 247.96 149.88 249.73 148.47
  A 1.80 1.80 0.0 0 1 252.47 149.08
  L 255.60 155.42
  A 2.21 2.19 -8.3 0 0 257.24 156.63
  L 264.26 157.72
  A 1.63 1.62 73.1 0 1 265.19 158.22
  C 267.28 160.49 261.79 164.32 260.34 165.62
  A 1.93 1.92 -23.5 0 0 259.71 167.21
  L 260.41 175.64
  A 0.97 0.97 0.0 0 1 259.26 176.68
  C 255.87 176.06 254.07 174.34 251.13 173.23
  Q 250.58 173.03 250.07 173.30
  Z"
/>
<path fill="#527af6" d="
  M 296.61 165.94
  A 2.09 2.09 0.0 0 0 296.05 167.82
  Q 296.69 171.08 297.21 174.50
  C 297.55 176.70 296.10 177.36 294.25 176.66
  Q 290.97 175.42 288.30 173.48
  A 1.69 1.68 -40.9 0 0 286.54 173.36
  L 279.87 176.85
  A 1.93 1.93 0.0 0 1 277.07 174.81
  L 278.28 167.77
  A 2.33 2.32 27.1 0 0 277.62 165.73
  C 275.88 164.03 273.90 162.26 272.37 160.11
  A 1.45 1.45 0.0 0 1 273.25 157.85
  Q 276.54 157.14 279.60 156.91
  C 282.82 156.68 284.05 151.79 285.34 149.25
  A 2.04 2.04 0.0 0 1 288.97 149.25
  L 292.28 155.77
  A 1.89 1.88 -10.2 0 0 293.76 156.79
  L 300.21 157.49
  A 2.33 2.32 71.2 0 1 301.65 158.20
  Q 303.25 159.85 301.29 161.56
  Q 298.72 163.79 296.61 165.94
  Z"
/>
<path fill="#527af6" d="
  M 329.58 156.56
  C 331.95 157.09 336.50 156.97 338.21 158.50
  A 1.58 1.58 0.0 0 1 338.25 160.82
  L 333.07 165.73
  A 1.91 1.90 -26.6 0 0 332.50 167.43
  L 333.77 174.80
  A 1.98 1.97 -80.6 0 1 330.88 176.87
  L 324.46 173.39
  A 1.58 1.57 45.2 0 0 322.98 173.38
  L 316.13 176.98
  A 1.71 1.71 0.0 0 1 313.64 175.21
  L 314.70 168.06
  A 2.73 2.73 0.0 0 0 313.90 165.71
  L 309.16 161.08
  A 1.82 1.81 -56.5 0 1 308.76 159.08
  C 309.66 156.91 315.31 156.89 317.35 156.67
  A 1.69 1.67 -79.8 0 0 318.67 155.74
  L 321.96 149.02
  A 1.92 1.92 0.0 0 1 325.42 149.03
  L 328.75 155.89
  A 1.25 1.21 83.0 0 0 329.58 156.56
  Z"
/>
<path fill="#97b9ff" d="
  M 387.83 167.78
  A 1.82 1.80 -62.5 0 0 387.30 166.07
  L 382.08 161.14
  A 2.24 1.95 -33.3 0 1 383.02 157.76
  C 384.65 157.06 387.68 157.06 389.45 156.91
  A 2.45 2.44 -78.1 0 0 391.39 155.64
  L 395.03 148.88
  A 1.16 1.10 -89.3 0 1 395.48 148.42
  C 398.36 146.85 400.48 153.29 401.33 155.08
  A 3.32 3.32 0.0 0 0 403.99 156.96
  L 410.15 157.56
  A 1.68 1.66 78.8 0 1 411.46 158.45
  C 412.80 161.00 407.59 164.51 405.94 165.99
  A 1.90 1.88 -26.5 0 0 405.35 167.73
  Q 406.02 171.24 406.69 174.50
  Q 407.30 177.52 403.53 176.69
  A 0.85 0.59 55.3 0 1 403.37 176.63
  L 397.27 173.39
  A 1.76 1.75 -49.2 0 0 395.43 173.53
  Q 392.11 175.94 388.17 176.79
  A 1.60 1.60 0.0 0 1 386.27 174.89
  L 387.83 167.78
  Z"
/>
<rect fill="#000000" x="101.94" y="149.05" width="85.00" height="1.12" rx="0.54"/>
<rect fill="#000000" x="101.92" y="160.13" width="42.16" height="1.16" rx="0.48"/>
<rect fill="#000000" x="168.25" y="160.17" width="18.70" height="1.10" rx="0.48"/>
<path fill="#ffffff" d="
  M 346.96 162.51
  L 350.83 166.15
  A 1.40 1.39 -64.4 0 1 351.26 167.38
  L 350.09 174.93
  A 1.49 1.40 38.7 0 0 350.21 175.77
  Q 351.02 177.50 352.72 176.70
  Q 356.28 175.05 359.49 173.34
  Q 360.12 173.00 360.75 173.34
  L 366.96 176.73
  L 366.98 194.64
  Q 363.53 193.17 360.33 193.47
  A 1.38 1.36 -30.3 0 1 359.42 193.24
  C 355.18 190.42 351.82 191.19 346.99 192.31
  L 346.96 162.51
  Z"
/>
<path fill="#ffffff" d="
  M 152.01 181.22
  L 151.85 224.75
  A 0.48 0.48 0.0 0 0 152.38 225.23
  C 156.00 224.89 163.04 224.27 165.67 227.14
  C 168.22 229.92 166.85 235.23 162.53 235.69
  Q 157.54 236.22 152.75 235.84
  A 0.87 0.86 1.8 0 0 151.82 236.71
  L 151.88 249.12
  A 0.91 0.91 0.0 0 0 152.79 250.03
  L 188.43 249.86
  L 185.06 263.26
  Q 168.89 262.80 153.00 262.91
  C 148.30 262.94 142.53 263.12 138.63 260.70
  C 130.61 255.69 131.95 244.89 132.12 236.60
  A 0.87 0.87 0.0 0 1 132.97 235.75
  L 144.29 235.60
  A 0.28 0.28 0.0 0 0 144.56 235.32
  L 144.56 235.07
  Q 144.56 235.00 144.50 235.00
  L 132.97 234.71
  Q 132.24 234.69 132.22 233.97
  L 132.01 227.06
  A 0.43 0.43 0.0 0 1 132.44 226.61
  L 142.43 226.42
  A 0.40 0.39 3.5 0 0 142.81 226.09
  L 142.87 225.70
  Q 142.90 225.45 142.65 225.45
  L 132.64 225.26
  Q 132.13 225.25 132.17 224.74
  L 132.64 217.74
  L 132.64 181.73
  A 0.47 0.47 0.0 0 1 133.10 181.26
  L 152.01 181.22
  Z
  M 151.68 227.35
  L 151.70 233.83
  A 0.76 0.76 0.0 0 0 152.46 234.59
  L 161.08 234.56
  A 4.42 3.84 -0.2 0 0 165.49 230.71
  L 165.49 230.39
  A 4.42 3.84 -0.2 0 0 161.06 226.56
  L 152.44 226.59
  A 0.76 0.76 0.0 0 0 151.68 227.35
  Z"
/>
<path fill="#000000" d="
  M 346.99 192.31
  C 351.82 191.19 355.18 190.42 359.42 193.24
  A 1.38 1.36 -30.3 0 0 360.33 193.47
  Q 363.53 193.17 366.98 194.64
  Q 367.21 194.98 367.75 195.61
  Q 368.26 196.22 368.27 196.69
  Q 368.28 197.73 366.76 198.20
  L 361.35 200.27
  A 0.51 0.50 -32.1 0 0 361.16 201.09
  L 362.64 202.67
  A 0.87 0.87 0.0 0 1 362.32 204.08
  L 346.62 210.02
  L 335.55 213.82
  A 0.59 0.58 -18.3 0 0 335.18 214.54
  L 337.27 221.75
  A 0.91 0.88 -2.4 0 0 337.98 222.38
  C 340.78 222.87 343.60 223.20 344.47 226.24
  Q 345.15 228.62 346.31 231.49
  Q 347.74 239.51 349.18 248.27
  Q 352.49 268.30 348.63 288.25
  Q 348.54 288.76 349.05 288.76
  Q 369.60 288.96 390.14 288.76
  C 393.60 288.73 396.38 287.83 396.45 284.00
  Q 396.62 274.61 396.36 245.75
  Q 396.32 240.66 391.25 240.58
  Q 383.48 240.47 357.05 240.54
  A 0.53 0.52 -0.6 0 1 356.52 240.03
  L 356.51 239.75
  A 0.26 0.25 -1.1 0 1 356.77 239.49
  L 366.50 239.46
  Q 385.33 239.29 392.25 239.53
  C 396.16 239.67 397.56 242.61 397.60 246.30
  Q 397.72 257.94 397.65 280.25
  C 397.64 284.88 397.37 289.85 391.25 289.89
  Q 369.99 290.02 348.72 290.00
  Q 348.21 290.00 348.03 290.48
  Q 347.32 292.41 346.71 294.24
  C 340.54 312.77 328.22 321.95 310.08 327.92
  Q 290.18 334.47 269.24 334.14
  Q 268.13 334.12 268.25 335.23
  Q 271.36 363.82 275.20 391.56
  Q 275.83 396.10 274.86 404.09
  Q 273.63 414.23 264.89 419.08
  Q 264.43 419.33 264.58 419.83
  L 267.41 429.28
  C 261.02 430.56 254.74 431.64 248.25 432.18
  C 245.33 432.42 242.43 432.98 239.57 432.99
  C 231.81 433.03 223.74 433.42 216.03 432.55
  C 210.19 431.89 206.01 431.44 198.49 430.04
  Q 180.21 426.62 163.72 419.85
  Q 164.54 412.95 165.03 406.27
  Q 165.27 402.98 167.56 401.56
  Q 204.87 378.42 247.75 388.72
  C 250.91 389.48 253.62 390.10 254.80 392.73
  Q 258.94 401.99 263.73 417.51
  Q 263.90 418.07 264.44 417.83
  C 274.64 413.21 275.23 399.67 273.97 390.25
  Q 270.41 363.78 267.38 337.24
  Q 267.12 334.97 267.03 333.76
  Q 266.97 333.04 267.68 333.05
  Q 295.70 333.38 318.50 323.56
  C 336.70 315.73 346.95 299.44 348.88 280.00
  Q 351.16 256.99 345.48 233.47
  C 344.76 230.47 343.51 223.67 339.50 223.68
  Q 330.40 223.69 321.28 223.71
  C 317.85 223.72 314.54 224.29 315.57 228.65
  C 318.88 242.61 321.21 252.21 317.01 264.97
  C 310.30 285.32 285.72 290.90 267.80 283.75
  Q 267.75 283.74 261.65 280.75
  Q 257.59 278.77 252.24 277.06
  Q 234.06 271.25 219.50 268.30
  Q 215.91 267.57 210.81 267.67
  Q 210.09 267.68 210.44 268.30
  L 210.89 269.09
  A 1.74 1.73 70.5 0 1 209.67 271.66
  C 204.21 272.58 188.44 273.67 184.69 269.12
  Q 184.35 268.71 183.83 268.78
  C 153.61 272.71 126.93 287.72 111.75 314.75
  Q 111.66 314.92 111.54 314.96
  Q 111.42 315.00 111.28 314.96
  A 0.50 0.50 0.0 0 1 110.90 314.42
  Q 113.04 293.51 114.22 283.75
  C 115.38 274.21 106.01 279.27 101.77 279.72
  Q 95.92 280.34 90.73 277.45
  Q 90.28 277.20 89.80 277.37
  Q 87.47 278.20 86.66 280.65
  C 81.05 297.64 77.24 314.47 77.87 332.49
  C 78.29 344.30 82.68 358.14 95.79 361.63
  C 112.77 366.16 128.73 362.86 142.06 351.61
  A 0.44 0.44 0.0 0 1 142.79 351.92
  C 143.04 355.40 142.71 359.48 142.75 362.36
  C 142.93 377.39 142.62 407.16 158.14 416.75
  Q 159.47 417.57 160.79 418.49
  Q 155.97 417.18 153.50 414.56
  C 140.41 399.17 141.09 372.72 141.77 354.22
  A 0.37 0.37 0.0 0 0 141.17 353.92
  C 128.49 364.09 112.09 366.83 96.51 362.97
  C 71.72 356.83 75.53 321.46 79.31 303.51
  Q 81.27 294.15 85.41 281.11
  Q 86.37 278.10 88.64 276.58
  Q 89.11 276.28 88.73 275.87
  C 84.31 271.07 85.62 263.37 85.67 255.54
  C 85.69 252.98 86.12 250.52 89.38 251.39
  Q 89.90 251.54 90.21 251.09
  Q 91.71 248.91 94.26 249.67
  Q 94.79 249.82 95.16 249.41
  Q 97.63 246.67 101.11 248.39
  Q 101.73 248.70 101.73 248.01
  L 101.78 236.50
  Q 102.42 236.51 102.78 237.06
  L 102.80 253.53
  A 0.98 0.97 -72.3 0 0 103.20 254.32
  L 110.34 259.50
  A 0.45 0.45 0.0 0 1 110.37 260.21
  L 110.12 260.42
  A 0.35 0.34 41.1 0 1 109.69 260.44
  L 103.06 255.69
  Q 102.45 255.25 102.62 255.98
  Q 103.14 258.31 101.55 260.06
  Q 101.15 260.49 101.57 260.91
  L 103.36 262.67
  Q 103.92 263.22 103.20 263.53
  C 100.64 264.64 98.21 267.14 98.29 270.11
  Q 98.33 271.84 97.41 271.58
  A 0.41 0.40 -83.3 0 1 97.12 271.20
  Q 97.02 265.89 101.43 263.20
  Q 101.86 262.94 101.58 262.53
  Q 99.88 259.95 96.71 260.42
  Q 96.19 260.49 95.80 260.85
  Q 94.16 262.35 91.90 261.70
  A 0.78 0.78 0.0 0 0 91.00 262.08
  Q 89.84 264.19 87.46 263.49
  Q 86.86 263.32 86.76 263.94
  C 84.02 281.64 109.25 283.51 111.48 270.50
  Q 112.20 266.28 112.31 261.99
  C 112.39 258.75 110.20 256.58 108.30 254.23
  Q 107.98 253.84 107.98 253.33
  L 107.99 237.16
  Q 107.49 236.78 109.03 236.67
  L 109.04 252.83
  Q 109.04 253.33 109.35 253.73
  C 111.54 256.50 113.51 258.37 113.41 262.24
  C 113.30 266.73 113.10 272.75 109.92 276.19
  Q 109.32 276.83 110.20 276.87
  C 116.28 277.14 115.47 282.01 115.01 286.25
  Q 113.73 298.26 112.30 310.90
  Q 112.23 311.47 112.57 311.01
  C 114.37 308.58 116.04 305.69 117.72 303.54
  C 134.16 282.47 157.35 271.65 183.41 267.70
  Q 183.92 267.63 184.14 267.16
  Q 184.85 265.60 185.06 263.26
  L 188.43 249.86
  L 190.37 241.66
  A 0.34 0.34 0.0 0 0 189.87 241.29
  Q 178.47 247.99 170.53 237.45
  Q 168.65 234.95 168.60 231.75
  C 168.55 228.06 172.09 226.43 174.60 224.60
  C 177.31 222.63 173.38 216.91 172.17 214.77
  C 169.18 209.48 175.95 201.42 180.76 199.29
  C 187.34 196.38 190.66 203.60 197.23 200.69
  C 200.81 199.10 203.76 196.02 208.93 195.89
  C 218.17 195.66 224.26 200.67 223.24 210.76
  C 222.87 214.44 217.62 217.59 214.65 219.07
  A 1.04 1.04 0.0 0 0 214.07 220.08
  C 214.36 224.37 216.18 226.59 217.84 230.28
  Q 218.04 230.74 217.78 231.17
  Q 215.92 234.26 215.78 238.97
  Q 215.51 247.54 206.79 247.28
  Q 206.28 247.27 206.17 247.77
  Q 206.03 248.44 206.14 249.40
  Q 205.84 256.75 207.91 263.07
  Q 208.22 265.13 209.09 266.15
  Q 209.43 266.54 209.95 266.55
  C 223.84 266.96 236.21 270.67 250.54 275.16
  C 261.46 278.59 268.44 284.26 279.39 285.58
  A 0.53 0.53 0.0 0 0 279.98 285.04
  L 279.66 263.14
  L 279.60 249.62
  C 279.82 244.99 279.46 240.07 285.50 239.42
  Q 292.54 238.65 307.73 239.90
  Q 297.97 240.86 288.29 240.62
  C 284.67 240.53 281.00 241.04 280.93 245.25
  Q 280.61 264.44 280.83 284.46
  Q 280.84 285.43 281.81 285.51
  C 304.05 287.42 319.42 270.30 317.92 248.50
  Q 317.48 242.00 316.96 239.46
  Q 315.87 234.02 314.66 229.26
  Q 313.42 224.35 317.88 222.71
  Q 318.36 222.54 318.26 222.03
  Q 316.75 214.23 315.33 206.51
  C 313.94 198.92 321.47 190.19 326.14 184.97
  A 1.72 1.72 0.0 0 1 329.04 185.51
  C 330.30 188.88 328.93 192.84 328.09 196.12
  A 0.63 0.63 0.0 0 0 328.86 196.88
  L 346.99 192.31
  Z
  M 359.25 200.04
  L 366.68 197.15
  A 0.56 0.56 0.0 0 0 366.88 196.24
  C 365.01 194.26 362.05 194.85 359.57 194.67
  A 1.64 1.61 64.6 0 1 358.70 194.35
  Q 355.04 191.59 351.25 192.56
  Q 340.27 195.37 329.25 197.95
  Q 327.71 198.31 327.08 197.05
  A 1.70 1.65 -52.2 0 1 326.95 195.89
  C 327.49 193.68 329.32 187.80 327.86 185.94
  A 0.75 0.75 0.0 0 0 326.70 185.91
  C 322.73 190.53 315.44 199.01 316.32 205.25
  Q 317.53 213.78 319.74 222.09
  A 0.56 0.55 -7.4 0 0 320.28 222.50
  L 335.70 222.49
  Q 336.33 222.49 336.16 221.87
  L 334.38 215.67
  Q 333.71 213.33 336.00 212.52
  L 361.22 203.51
  A 0.35 0.35 0.0 0 0 361.34 202.93
  L 359.10 200.87
  Q 358.52 200.33 359.25 200.04
  Z
  M 191.46 229.04
  Q 188.86 228.43 186.75 229.95
  A 1.13 1.13 0.0 0 0 186.29 230.68
  C 185.70 233.92 189.66 235.64 192.27 236.22
  Q 192.82 236.34 192.69 236.89
  Q 189.15 251.83 185.71 266.79
  Q 185.12 269.34 187.21 269.87
  Q 197.38 272.45 209.08 270.76
  A 0.93 0.93 0.0 0 0 209.71 269.30
  C 205.16 262.93 204.80 255.51 204.82 247.84
  Q 204.82 247.25 204.30 246.98
  L 198.22 243.81
  A 0.57 0.57 0.0 0 1 198.01 243.00
  L 198.17 242.74
  A 0.58 0.58 0.0 0 1 199.03 242.62
  C 202.50 245.66 209.30 248.22 212.84 243.99
  Q 214.75 241.72 214.64 238.58
  Q 214.49 234.13 216.64 231.11
  A 0.81 0.80 -44.7 0 0 216.65 230.21
  C 213.45 225.45 212.84 220.77 211.95 215.58
  A 0.40 0.40 0.0 0 0 211.35 215.31
  Q 204.90 219.29 197.75 216.65
  Q 197.23 216.46 196.81 216.82
  Q 191.50 221.48 191.99 228.59
  Q 192.03 229.17 191.46 229.04
  Z
  M 101.5028 250.5393
  A 1.53 1.53 0.0 0 0 99.9782 249.0040
  L 97.7182 248.9961
  A 1.53 1.53 0.0 0 0 96.1829 250.5207
  L 96.1572 257.8807
  A 1.53 1.53 0.0 0 0 97.6818 259.4160
  L 99.9418 259.4239
  A 1.53 1.53 0.0 0 0 101.4771 257.8993
  L 101.5028 250.5393
  Z
  M 95.03 251.76
  A 1.06 1.06 0.0 0 0 93.97 250.70
  L 92.31 250.70
  A 1.06 1.06 0.0 0 0 91.25 251.76
  L 91.25 259.64
  A 1.06 1.06 0.0 0 0 92.31 260.70
  L 93.97 260.70
  A 1.06 1.06 0.0 0 0 95.03 259.64
  L 95.03 251.76
  Z
  M 90.0995 253.7489
  A 1.36 1.36 0.0 0 0 88.7466 252.3818
  L 88.0866 252.3783
  A 1.36 1.36 0.0 0 0 86.7195 253.7312
  L 86.6805 261.1711
  A 1.36 1.36 0.0 0 0 88.0334 262.5382
  L 88.6934 262.5417
  A 1.36 1.36 0.0 0 0 90.0605 261.1888
  L 90.0995 253.7489
  Z"
/>
<path fill="#ffffff" d="
  M 359.10 200.87
  L 361.34 202.93
  A 0.35 0.35 0.0 0 1 361.22 203.51
  L 336.00 212.52
  Q 333.71 213.33 334.38 215.67
  L 336.16 221.87
  Q 336.33 222.49 335.70 222.49
  L 320.28 222.50
  A 0.56 0.55 -7.4 0 1 319.74 222.09
  Q 317.53 213.78 316.32 205.25
  C 315.44 199.01 322.73 190.53 326.70 185.91
  A 0.75 0.75 0.0 0 1 327.86 185.94
  C 329.32 187.80 327.49 193.68 326.95 195.89
  A 1.70 1.65 -52.2 0 0 327.08 197.05
  Q 327.71 198.31 329.25 197.95
  Q 340.27 195.37 351.25 192.56
  Q 355.04 191.59 358.70 194.35
  A 1.64 1.61 64.6 0 0 359.57 194.67
  C 362.05 194.85 365.01 194.26 366.88 196.24
  A 0.56 0.56 0.0 0 1 366.68 197.15
  L 359.25 200.04
  Q 358.52 200.33 359.10 200.87
  Z
  M 354.2538 195.8525
  A 0.56 0.56 0.0 0 0 353.5764 195.4423
  L 335.3774 199.9124
  A 0.56 0.56 0.0 0 0 334.9671 200.5898
  L 334.9862 200.6675
  A 0.56 0.56 0.0 0 0 335.6636 201.0777
  L 353.8626 196.6076
  A 0.56 0.56 0.0 0 0 354.2729 195.9302
  L 354.2538 195.8525
  Z
  M 356.1932 201.0594
  A 0.45 0.45 0.0 0 0 355.6483 200.7307
  L 337.0882 205.3239
  A 0.45 0.45 0.0 0 0 336.7595 205.8688
  L 336.8268 206.1406
  A 0.45 0.45 0.0 0 0 337.3717 206.4693
  L 355.9318 201.8761
  A 0.45 0.45 0.0 0 0 356.2605 201.3312
  L 356.1932 201.0594
  Z"
/>
<rect fill="#000000" x="-9.93" y="-0.60" transform="translate(344.62,198.26) rotate(-13.8)" width="19.86" height="1.20" rx="0.56"/>
<path fill="#ffffff" d="
  M 366.76 198.20
  Q 366.48 216.03 366.72 234.18
  Q 366.72 234.49 366.91 236.80
  Q 367.06 238.60 366.50 239.46
  L 356.77 239.49
  A 0.26 0.25 -1.1 0 0 356.51 239.75
  L 356.52 240.03
  A 0.53 0.52 -0.6 0 0 357.05 240.54
  Q 383.48 240.47 391.25 240.58
  Q 396.32 240.66 396.36 245.75
  Q 396.62 274.61 396.45 284.00
  C 396.38 287.83 393.60 288.73 390.14 288.76
  Q 369.60 288.96 349.05 288.76
  Q 348.54 288.76 348.63 288.25
  Q 352.49 268.30 349.18 248.27
  Q 347.74 239.51 346.31 231.49
  Q 347.78 220.59 346.62 210.02
  L 362.32 204.08
  A 0.87 0.87 0.0 0 0 362.64 202.67
  L 361.16 201.09
  A 0.51 0.50 -32.1 0 1 361.35 200.27
  L 366.76 198.20
  Z"
/>
<rect fill="#000000" x="-10.01" y="-0.59" transform="translate(346.51,203.60) rotate(-13.9)" width="20.02" height="1.18" rx="0.45"/>
<path fill="#000000" d="
  M 91.00 201.33
  Q 91.01 201.06 91.27 201.05
  L 91.75 201.03
  Q 91.98 201.02 91.98 201.26
  L 91.97 204.96
  A 0.44 0.42 83.2 0 1 91.65 205.38
  Q 91.38 205.45 91.25 205.28
  Q 91.07 205.03 91.06 204.92
  Q 90.97 203.20 91.00 201.33
  Z"
/>
<path fill="#000000" d="
  M 418.04 209.31
  A 5.26 5.26 0.0 0 1 412.78 214.57
  A 5.26 5.26 0.0 0 1 407.52 209.31
  A 5.26 5.26 0.0 0 1 412.78 204.05
  A 5.26 5.26 0.0 0 1 418.04 209.31
  Z
  M 416.91 209.34
  A 4.14 4.14 0.0 0 0 412.77 205.20
  A 4.14 4.14 0.0 0 0 408.63 209.34
  A 4.14 4.14 0.0 0 0 412.77 213.48
  A 4.14 4.14 0.0 0 0 416.91 209.34
  Z"
/>
<circle fill="#c9defd" cx="412.77" cy="209.34" r="4.14"/>
<ellipse fill="#000000" cx="0.00" cy="0.00" transform="translate(87.72,207.20) rotate(-3.2)" rx="2.21" ry="0.70"/>
<rect fill="#000000" x="-2.27" y="-0.71" transform="translate(95.53,207.18) rotate(-1.7)" width="4.54" height="1.42" rx="0.68"/>
<path fill="#000000" d="
  M 91.04 209.16
  Q 91.07 208.93 91.31 208.93
  L 91.70 208.93
  A 0.28 0.27 0.0 0 1 91.98 209.20
  L 91.97 212.00
  Q 91.96 215.41 90.99 212.17
  Q 90.76 211.42 91.04 209.16
  Z"
/>
<path fill="#97b9ff" d="
  M 346.62 210.02
  Q 347.78 220.59 346.31 231.49
  Q 345.15 228.62 344.47 226.24
  C 343.60 223.20 340.78 222.87 337.98 222.38
  A 0.91 0.88 -2.4 0 1 337.27 221.75
  L 335.18 214.54
  A 0.59 0.58 -18.3 0 1 335.55 213.82
  L 346.62 210.02
  Z"
/>
<path fill="#c9defd" d="
  M 130.92 212.39
  C 131.36 213.78 130.97 216.86 132.64 217.74
  L 132.17 224.74
  Q 132.13 225.25 132.64 225.26
  L 142.65 225.45
  Q 142.90 225.45 142.87 225.70
  L 142.81 226.09
  A 0.40 0.39 3.5 0 1 142.43 226.42
  L 132.44 226.61
  A 0.43 0.43 0.0 0 0 132.01 227.06
  L 132.22 233.97
  Q 132.24 234.69 132.97 234.71
  L 144.50 235.00
  Q 144.56 235.00 144.56 235.07
  L 144.56 235.32
  A 0.28 0.28 0.0 0 1 144.29 235.60
  L 132.97 235.75
  A 0.87 0.87 0.0 0 0 132.12 236.60
  C 131.95 244.89 130.61 255.69 138.63 260.70
  C 142.53 263.12 148.30 262.94 153.00 262.91
  Q 168.89 262.80 185.06 263.26
  Q 184.85 265.60 184.14 267.16
  Q 183.92 267.63 183.41 267.70
  C 157.35 271.65 134.16 282.47 117.72 303.54
  C 116.04 305.69 114.37 308.58 112.57 311.01
  Q 112.23 311.47 112.30 310.90
  Q 113.73 298.26 115.01 286.25
  C 115.47 282.01 116.28 277.14 110.20 276.87
  Q 109.32 276.83 109.92 276.19
  C 113.10 272.75 113.30 266.73 113.41 262.24
  C 113.51 258.37 111.54 256.50 109.35 253.73
  Q 109.04 253.33 109.04 252.83
  L 109.03 236.67
  L 110.43 235.27
  Q 110.22 236.05 111.00 236.04
  Q 119.45 235.96 127.66 235.79
  Q 127.97 235.78 127.96 235.47
  L 127.96 235.19
  A 0.68 0.67 89.1 0 0 127.29 234.53
  L 111.41 234.31
  Q 113.00 231.01 111.71 227.27
  Q 117.74 226.40 123.74 226.89
  Q 124.95 226.99 125.17 226.29
  A 0.74 0.74 0.0 0 0 124.49 225.34
  C 120.29 225.22 114.72 226.10 110.93 225.20
  Q 110.65 225.13 110.59 225.41
  Q 110.55 225.56 110.49 225.72
  Q 109.74 225.25 109.82 224.71
  Q 119.58 217.70 130.92 212.39
  Z"
/>
<path fill="#ffffff" d="
  M 191.99 228.59
  Q 191.50 221.48 196.81 216.82
  Q 197.23 216.46 197.75 216.65
  Q 204.90 219.29 211.35 215.31
  A 0.40 0.40 0.0 0 1 211.95 215.58
  C 212.84 220.77 213.45 225.45 216.65 230.21
  A 0.81 0.80 -44.7 0 1 216.64 231.11
  Q 214.49 234.13 214.64 238.58
  Q 214.75 241.72 212.84 243.99
  C 209.30 248.22 202.50 245.66 199.03 242.62
  A 0.58 0.58 0.0 0 0 198.17 242.74
  L 198.01 243.00
  A 0.57 0.57 0.0 0 0 198.22 243.81
  L 204.30 246.98
  Q 204.82 247.25 204.82 247.84
  C 204.80 255.51 205.16 262.93 209.71 269.30
  A 0.93 0.93 0.0 0 1 209.08 270.76
  Q 197.38 272.45 187.21 269.87
  Q 185.12 269.34 185.71 266.79
  Q 189.15 251.83 192.69 236.89
  Q 192.82 236.34 192.27 236.22
  C 189.66 235.64 185.70 233.92 186.29 230.68
  A 1.13 1.13 0.0 0 1 186.75 229.95
  Q 188.86 228.43 191.46 229.04
  Q 192.03 229.17 191.99 228.59
  Z"
/>
<path fill="#527af6" d="
  M 163.72 419.85
  L 160.79 418.49
  Q 159.47 417.57 158.14 416.75
  C 142.62 407.16 142.93 377.39 142.75 362.36
  C 142.71 359.48 143.04 355.40 142.79 351.92
  A 0.44 0.44 0.0 0 0 142.06 351.61
  C 128.73 362.86 112.77 366.16 95.79 361.63
  C 82.68 358.14 78.29 344.30 77.87 332.49
  C 77.24 314.47 81.05 297.64 86.66 280.65
  Q 87.47 278.20 89.80 277.37
  Q 90.28 277.20 90.73 277.45
  Q 95.92 280.34 101.77 279.72
  C 106.01 279.27 115.38 274.21 114.22 283.75
  Q 113.04 293.51 110.90 314.42
  A 0.50 0.50 0.0 0 0 111.28 314.96
  Q 111.42 315.00 111.54 314.96
  Q 111.66 314.92 111.75 314.75
  C 126.93 287.72 153.61 272.71 183.83 268.78
  Q 184.35 268.71 184.69 269.12
  C 188.44 273.67 204.21 272.58 209.67 271.66
  A 1.74 1.73 70.5 0 0 210.89 269.09
  L 210.44 268.30
  Q 210.09 267.68 210.81 267.67
  Q 215.91 267.57 219.50 268.30
  Q 234.06 271.25 252.24 277.06
  Q 257.59 278.77 261.65 280.75
  Q 267.75 283.74 267.80 283.75
  C 285.72 290.90 310.30 285.32 317.01 264.97
  C 321.21 252.21 318.88 242.61 315.57 228.65
  C 314.54 224.29 317.85 223.72 321.28 223.71
  Q 330.40 223.69 339.50 223.68
  C 343.51 223.67 344.76 230.47 345.48 233.47
  Q 351.16 256.99 348.88 280.00
  C 346.95 299.44 336.70 315.73 318.50 323.56
  Q 295.70 333.38 267.68 333.05
  Q 266.97 333.04 267.03 333.76
  Q 267.12 334.97 267.38 337.24
  Q 270.41 363.78 273.97 390.25
  C 275.23 399.67 274.64 413.21 264.44 417.83
  Q 263.90 418.07 263.73 417.51
  Q 258.94 401.99 254.80 392.73
  C 253.62 390.10 250.91 389.48 247.75 388.72
  Q 204.87 378.42 167.56 401.56
  Q 165.27 402.98 165.03 406.27
  Q 164.54 412.95 163.72 419.85
  Z"
/>
<path fill="#527af6" d="
  M 109.82 224.71
  Q 109.74 225.25 110.49 225.72
  L 111.71 227.27
  Q 113.00 231.01 111.41 234.31
  L 110.43 235.27
  L 109.03 236.67
  Q 107.49 236.78 107.99 237.16
  L 102.78 237.06
  Q 102.42 236.51 101.78 236.50
  Q 100.84 235.22 99.47 234.49
  Q 97.79 229.68 99.84 226.11
  Q 104.18 222.39 109.82 224.71
  Z
  M 105.74 235.17
  L 105.80 234.87
  A 0.28 0.27 -80.2 0 0 105.57 234.54
  Q 100.23 233.73 101.92 229.24
  C 103.43 225.25 108.73 226.22 109.41 230.65
  Q 109.45 230.95 109.75 230.97
  L 110.13 231.01
  Q 110.26 231.02 110.26 230.89
  Q 110.23 226.79 107.03 225.88
  C 100.10 223.91 97.53 234.78 105.38 235.43
  Q 105.67 235.46 105.74 235.17
  Z"
/>
<path fill="#ffffff" d="
  M 111.71 227.27
  L 110.49 225.72
  Q 110.55 225.56 110.59 225.41
  Q 110.65 225.13 110.93 225.20
  C 114.72 226.10 120.29 225.22 124.49 225.34
  A 0.74 0.74 0.0 0 1 125.17 226.29
  Q 124.95 226.99 123.74 226.89
  Q 117.74 226.40 111.71 227.27
  Z"
/>
<path fill="#000000" d="
  M 105.38 235.43
  C 97.53 234.78 100.10 223.91 107.03 225.88
  Q 110.23 226.79 110.26 230.89
  Q 110.26 231.02 110.13 231.01
  L 109.75 230.97
  Q 109.45 230.95 109.41 230.65
  C 108.73 226.22 103.43 225.25 101.92 229.24
  Q 100.23 233.73 105.57 234.54
  A 0.28 0.27 -80.2 0 1 105.80 234.87
  L 105.74 235.17
  Q 105.67 235.46 105.38 235.43
  Z"
/>
<path fill="#97b9ff" d="
  M 99.84 226.11
  Q 97.79 229.68 99.47 234.49
  L 95.05 235.18
  L 78.97 234.93
  A 3.36 3.36 0.0 0 1 75.67 231.43
  L 75.72 230.34
  Q 75.90 226.05 80.18 226.06
  L 99.84 226.11
  Z"
/>
<path fill="#97b9ff" d="
  M 151.68 227.35
  A 0.76 0.76 0.0 0 1 152.44 226.59
  L 161.06 226.56
  A 4.42 3.84 -0.2 0 1 165.49 230.39
  L 165.49 230.71
  A 4.42 3.84 -0.2 0 1 161.08 234.56
  L 152.46 234.59
  A 0.76 0.76 0.0 0 1 151.70 233.83
  L 151.68 227.35
  Z"
/>
<path fill="#000000" d="
  M 407.51 231.07
  A 0.20 0.20 0.0 0 1 407.72 231.26
  L 407.76 234.91
  A 0.95 0.45 89.4 0 1 407.32 235.87
  L 407.04 235.87
  A 0.95 0.45 89.4 0 1 406.58 234.93
  L 406.54 231.28
  A 0.20 0.20 0.0 0 1 406.73 231.07
  L 407.51 231.07
  Z"
/>
<path fill="#ffffff" d="
  M 111.41 234.31
  L 127.29 234.53
  A 0.68 0.67 89.1 0 1 127.96 235.19
  L 127.96 235.47
  Q 127.97 235.78 127.66 235.79
  Q 119.45 235.96 111.00 236.04
  Q 110.22 236.05 110.43 235.27
  L 111.41 234.31
  Z"
/>
<path fill="#c9defd" d="
  M 99.47 234.49
  Q 100.84 235.22 101.78 236.50
  L 101.73 248.01
  Q 101.73 248.70 101.11 248.39
  Q 97.63 246.67 95.16 249.41
  Q 94.79 249.82 94.26 249.67
  Q 91.71 248.91 90.21 251.09
  Q 89.90 251.54 89.38 251.39
  C 86.12 250.52 85.69 252.98 85.67 255.54
  C 85.62 263.37 84.31 271.07 88.73 275.87
  Q 89.11 276.28 88.64 276.58
  Q 86.37 278.10 85.41 281.11
  Q 81.27 294.15 79.31 303.51
  C 75.53 321.46 71.72 356.83 96.51 362.97
  C 112.09 366.83 128.49 364.09 141.17 353.92
  A 0.37 0.37 0.0 0 1 141.77 354.22
  C 141.09 372.72 140.41 399.17 153.50 414.56
  C 151.39 413.75 149.20 413.13 147.30 412.24
  C 125.16 401.82 103.09 386.16 89.01 365.79
  Q 80.91 354.07 75.45 340.92
  C 72.18 333.07 70.18 324.33 69.08 315.36
  C 68.79 313.06 68.15 311.18 68.06 309.09
  C 67.69 299.81 67.43 290.60 69.22 281.44
  C 72.45 264.95 81.38 248.04 94.52 237.31
  Q 95.78 236.28 95.05 235.18
  L 99.47 234.49
  Z"
/>
<path fill="#ffffff" d="
  M 102.78 237.06
  L 107.99 237.16
  L 107.98 253.33
  Q 107.98 253.84 108.30 254.23
  C 110.20 256.58 112.39 258.75 112.31 261.99
  Q 112.20 266.28 111.48 270.50
  C 109.25 283.51 84.02 281.64 86.76 263.94
  Q 86.86 263.32 87.46 263.49
  Q 89.84 264.19 91.00 262.08
  A 0.78 0.78 0.0 0 1 91.90 261.70
  Q 94.16 262.35 95.80 260.85
  Q 96.19 260.49 96.71 260.42
  Q 99.88 259.95 101.58 262.53
  Q 101.86 262.94 101.43 263.20
  Q 97.02 265.89 97.12 271.20
  A 0.41 0.40 -83.3 0 0 97.41 271.58
  Q 98.33 271.84 98.29 270.11
  C 98.21 267.14 100.64 264.64 103.20 263.53
  Q 103.92 263.22 103.36 262.67
  L 101.57 260.91
  Q 101.15 260.49 101.55 260.06
  Q 103.14 258.31 102.62 255.98
  Q 102.45 255.25 103.06 255.69
  L 109.69 260.44
  A 0.35 0.34 41.1 0 0 110.12 260.42
  L 110.37 260.21
  A 0.45 0.45 0.0 0 0 110.34 259.50
  L 103.20 254.32
  A 0.98 0.97 -72.3 0 1 102.80 253.53
  L 102.78 237.06
  Z"
/>
<ellipse fill="#000000" cx="0.00" cy="0.00" transform="translate(403.01,237.49) rotate(-0.5)" rx="2.49" ry="0.54"/>
<ellipse fill="#000000" cx="0.00" cy="0.00" transform="translate(411.06,237.49) rotate(0.6)" rx="2.34" ry="0.55"/>
<rect fill="#000000" x="-0.55" y="-2.44" transform="translate(407.15,241.46) rotate(-1.0)" width="1.10" height="4.88" rx="0.53"/>
<path fill="#ffffff" d="
  M 316.96 239.46
  Q 317.48 242.00 317.92 248.50
  C 319.42 270.30 304.05 287.42 281.81 285.51
  Q 280.84 285.43 280.83 284.46
  Q 280.61 264.44 280.93 245.25
  C 281.00 241.04 284.67 240.53 288.29 240.62
  Q 297.97 240.86 307.73 239.90
  L 316.96 239.46
  Z"
/>
<rect fill="#ffffff" x="-2.66" y="-5.21" transform="translate(98.83,254.21) rotate(0.2)" width="5.32" height="10.42" rx="1.53"/>
<path fill="#ffffff" d="
  M 279.60 249.62
  L 279.66 263.14
  L 207.91 263.07
  Q 205.84 256.75 206.14 249.40
  Q 209.25 249.92 213.75 249.92
  Q 254.84 249.98 279.60 249.62
  Z"
/>
<rect fill="#ffffff" x="91.25" y="250.70" width="3.78" height="10.00" rx="1.06"/>
<rect fill="#ffffff" x="-1.69" y="-5.08" transform="translate(88.39,257.46) rotate(0.3)" width="3.38" height="10.16" rx="1.36"/>
<path fill="#c9defd" d="
  M 279.66 263.14
  L 279.98 285.04
  A 0.53 0.53 0.0 0 1 279.39 285.58
  C 268.44 284.26 261.46 278.59 250.54 275.16
  C 236.21 270.67 223.84 266.96 209.95 266.55
  Q 209.43 266.54 209.09 266.15
  Q 208.22 265.13 207.91 263.07
  L 279.66 263.14
  Z"
/>
<path fill="#c9defd" d="
  M 362.01 341.01
  Q 367.10 332.10 374.49 325.00
  Q 374.64 324.86 374.79 325.00
  L 374.79 325.01
  Q 374.94 325.15 374.80 325.30
  Q 367.97 332.35 362.51 340.53
  Q 362.31 340.81 362.01 341.01
  Z"
/>
<path fill="#000000" d="
  M 419.38 328.46
  C 411.67 350.23 398.44 370.25 382.22 386.64
  Q 382.05 386.81 381.86 386.64
  L 381.66 386.45
  Q 381.51 386.31 381.64 386.16
  Q 386.00 381.20 390.23 376.25
  Q 406.85 356.81 416.67 333.21
  Q 417.27 331.75 418.31 328.34
  A 0.30 0.29 -79.5 0 1 418.60 328.13
  L 419.18 328.16
  Q 419.48 328.18 419.38 328.46
  Z"
/>
<path fill="#97b9ff" d="
  M 321.36 366.24
  Q 312.60 383.62 308.40 403.04
  Q 306.85 410.21 305.81 416.48
  Q 305.56 417.96 304.14 418.47
  L 294.93 421.79
  C 286.33 401.07 289.36 375.18 298.53 355.29
  Q 298.79 354.73 299.38 354.90
  L 302.20 355.67
  Q 304.07 356.19 303.52 354.33
  L 302.04 349.34
  A 1.14 1.13 50.2 0 1 302.11 348.53
  Q 305.82 340.95 311.37 334.62
  A 0.94 0.94 0.0 0 1 312.96 334.90
  C 315.86 342.59 318.45 350.20 319.80 358.27
  Q 320.43 362.07 321.36 366.24
  Z"
/>
<path fill="#c9defd" d="
  M 362.01 341.01
  L 345.72 369.16
  Q 345.63 369.31 345.48 369.23
  L 345.47 369.23
  Q 345.32 369.15 345.39 368.99
  Q 352.39 354.70 361.40 341.56
  Q 361.23 341.32 362.01 341.01
  Z"
/>
<path fill="#000000" d="
  M 370.56 410.65
  C 387.48 398.62 400.50 383.07 409.94 363.96
  A 0.41 0.41 0.0 0 1 410.46 363.76
  L 410.73 363.86
  A 0.36 0.36 0.0 0 1 410.92 364.35
  C 400.55 385.33 384.00 404.84 363.33 416.00
  Q 363.17 416.09 363.05 415.95
  L 362.87 415.73
  Q 362.72 415.55 362.91 415.41
  C 365.33 413.55 368.40 412.19 370.56 410.65
  Z"
/>
<path fill="#000000" d="
  M 101.0052 398.7697
  A 5.23 5.06 90.6 0 1 96.0003 393.4870
  A 5.23 5.06 90.6 0 1 101.1148 388.3103
  A 5.23 5.06 90.6 0 1 106.1197 393.5930
  A 5.23 5.06 90.6 0 1 101.0052 398.7697
  Z
  M 105.14 393.65
  A 4.09 4.09 0.0 0 0 101.05 389.56
  A 4.09 4.09 0.0 0 0 96.96 393.65
  A 4.09 4.09 0.0 0 0 101.05 397.74
  A 4.09 4.09 0.0 0 0 105.14 393.65
  Z"
/>
<path fill="#000000" d="
  M 377.15 393.55
  A 3.55 3.55 0.0 0 1 373.60 397.10
  A 3.55 3.55 0.0 0 1 370.05 393.55
  A 3.55 3.55 0.0 0 1 373.60 390.00
  A 3.55 3.55 0.0 0 1 377.15 393.55
  Z
  M 376.19 393.56
  A 2.62 2.62 0.0 0 0 373.57 390.94
  A 2.62 2.62 0.0 0 0 370.95 393.56
  A 2.62 2.62 0.0 0 0 373.57 396.18
  A 2.62 2.62 0.0 0 0 376.19 393.56
  Z"
/>
<ellipse fill="#000000" cx="0.00" cy="0.00" transform="translate(331.89,394.61) rotate(120.1)" rx="1.55" ry="0.19"/>
<ellipse fill="#000000" cx="0.00" cy="0.00" transform="translate(328.03,401.26) rotate(119.3)" rx="1.85" ry="0.17"/>
<path fill="#000000" d="
  M 363.46 402.51
  C 358.49 406.35 353.01 409.80 347.45 412.62
  Q 337.33 417.77 326.67 422.25
  Q 326.36 422.38 326.23 422.07
  L 326.00 421.56
  Q 325.89 421.30 326.16 421.20
  Q 345.88 413.93 362.97 401.74
  A 0.26 0.26 0.0 0 1 363.34 401.79
  L 363.52 402.04
  Q 363.72 402.31 363.46 402.51
  Z"
/>
<rect fill="#000000" x="-4.30" y="-0.51" transform="translate(352.90,420.25) rotate(-20.4)" width="8.60" height="1.02" rx="0.30"/>
</svg>
