<?xml version="1.0" encoding="UTF-8" standalone="no"?>
<!DOCTYPE svg PUBLIC "-//W3C//DTD SVG 1.1//EN" "http://www.w3.org/Graphics/SVG/1.1/DTD/svg11.dtd">
<svg xmlns="http://www.w3.org/2000/svg" version="1.1" viewBox="0.00 0.00 500.00 500.00">
<g stroke-width="2.00" fill="none" stroke-linecap="butt">
<path stroke="#8c7a7c" vector-effect="non-scaling-stroke" d="
  M 160.97 125.36
  L 158.78 128.94
  Q 158.56 129.30 158.14 129.23
  L 156.24 128.94
  Q 155.70 128.85 155.27 129.18
  C 152.99 130.91 154.87 134.37 156.41 135.87
  Q 157.26 136.70 156.58 137.67
  Q 152.73 143.14 146.79 144.03"
/>
<path stroke="#8c7a7c" vector-effect="non-scaling-stroke" d="
  M 155.47 152.35
  L 145.75 152.83"
/>
<path stroke="#31629a" vector-effect="non-scaling-stroke" d="
  M 160.74 156.27
  L 141.07 156.50"
/>
<path stroke="#a2aee1" vector-effect="non-scaling-stroke" d="
  M 185.24 178.84
  L 178.21 187.37"
/>
<path stroke="#2788f8" vector-effect="non-scaling-stroke" d="
  M 175.32 188.61
  Q 171.69 186.83 168.71 183.71
  Q 168.62 183.62 168.50 183.62
  L 168.13 183.62
  A 0.23 0.23 0.0 0 0 167.93 183.96
  Q 170.74 188.94 174.99 192.63"
/>
<path stroke="#31629a" vector-effect="non-scaling-stroke" d="
  M 171.53 221.80
  L 133.22 221.77"
/>
<path stroke="#a2aee1" vector-effect="non-scaling-stroke" d="
  M 133.44 210.94
  L 133.63 203.79"
/>
<path stroke="#a2aee1" vector-effect="non-scaling-stroke" d="
  M 129.69 186.22
  Q 125.43 182.64 120.90 179.26
  Q 120.65 179.07 120.38 179.01
  Q 120.08 178.93 119.79 178.90"
/>
<path stroke="#829fda" vector-effect="non-scaling-stroke" d="
  M 219.88 171.32
  Q 217.98 174.46 216.85 178.02
  C 216.24 179.93 212.95 182.53 211.60 184.50
  Q 207.78 190.10 202.71 194.45"
/>
<path stroke="#8888a3" vector-effect="non-scaling-stroke" d="
  M 201.48 184.25
  L 205.98 180.71"
/>
<path stroke="#115493" vector-effect="non-scaling-stroke" d="
  M 163.90 393.73
  L 151.21 394.22"
/>
<path stroke="#115493" vector-effect="non-scaling-stroke" d="
  M 114.98 393.51
  L 101.85 391.14"
/>
<path stroke="#0e62bb" vector-effect="non-scaling-stroke" d="
  M 394.72 135.12
  Q 393.41 148.11 393.24 153.00
  Q 392.77 166.34 392.03 173.00
  C 391.84 174.62 392.20 176.78 392.01 178.67
  C 391.22 186.50 391.32 194.44 390.47 202.20
  C 389.81 208.17 390.06 214.10 389.63 220.07
  C 388.55 235.04 388.23 250.01 387.07 264.98
  Q 387.07 265.03 387.15 268.03
  Q 387.23 270.99 385.02 274.29"
/>
<path stroke="#115493" vector-effect="non-scaling-stroke" d="
  M 302.70 274.37
  Q 299.82 275.00 296.45 274.60"
/>
<path stroke="#115493" vector-effect="non-scaling-stroke" d="
  M 277.11 274.53
  L 270.84 274.43"
/>
<path stroke="#115493" vector-effect="non-scaling-stroke" d="
  M 172.62 274.42
  L 172.80 271.83"
/>
<path stroke="#066bd3" vector-effect="non-scaling-stroke" d="
  M 172.80 271.83
  Q 173.67 270.76 176.00 270.56
  Q 179.43 270.27 189.25 270.30
  Q 282.87 270.53 376.50 270.40
  C 378.98 270.40 382.98 270.76 383.18 267.25
  Q 386.50 209.89 389.37 152.50
  Q 389.65 146.87 390.30 141.09
  A 2.91 2.90 3.3 0 0 387.41 137.86
  Q 323.23 137.84 258.51 137.76
  C 231.67 137.72 204.85 138.05 178.00 137.73
  Q 173.74 137.68 173.70 141.74
  Q 173.61 150.90 172.57 158.33"
/>
<path stroke="#2788f8" vector-effect="non-scaling-stroke" d="
  M 172.57 158.33
  L 169.02 157.76"
/>
<path stroke="#104675" vector-effect="non-scaling-stroke" d="
  M 172.80 271.83
  Q 172.71 237.53 172.43 222.75
  Q 172.41 222.08 171.53 221.80"
/>
<path stroke="#267ada" vector-effect="non-scaling-stroke" d="
  M 171.53 221.80
  Q 172.25 221.70 172.48 219.99
  Q 174.68 204.18 174.99 192.63"
/>
<path stroke="#066bd3" vector-effect="non-scaling-stroke" d="
  M 174.99 192.63
  Q 174.43 189.96 175.32 188.61"
/>
<path stroke="#267ada" vector-effect="non-scaling-stroke" d="
  M 175.32 188.61
  Q 176.76 188.96 178.21 187.37"
/>
<path stroke="#8191bb" vector-effect="non-scaling-stroke" d="
  M 178.21 187.37
  C 182.99 192.37 190.20 200.00 197.47 197.44
  Q 199.80 196.62 202.71 194.45"
/>
<path stroke="#066bd3" vector-effect="non-scaling-stroke" d="
  M 202.71 194.45
  L 202.57 195.41
  Q 202.55 195.59 202.74 195.60
  Q 202.92 195.60 203.11 195.62
  Q 203.35 195.65 203.18 195.82
  Q 203.06 195.94 202.90 196.06
  A 0.41 0.41 0.0 0 0 203.10 196.79
  L 215.04 198.12"
/>
<path stroke="#0d549c" vector-effect="non-scaling-stroke" d="
  M 215.04 198.12
  L 214.59 206.91
  A 1.80 1.80 0.0 0 0 216.29 208.80
  Q 226.75 209.37 236.76 209.35
  Q 238.66 209.35 240.39 208.50
  Q 240.73 208.33 240.75 207.94
  L 242.01 183.98
  Q 242.04 183.44 241.50 183.36
  Q 236.26 182.61 231.31 183.77"
/>
<path stroke="#066bd3" vector-effect="non-scaling-stroke" d="
  M 231.31 183.77
  L 232.84 174.71
  Q 233.01 173.72 232.01 173.55
  L 223.03 172.08"
/>
<path stroke="#0d549c" vector-effect="non-scaling-stroke" d="
  M 223.03 172.08
  L 233.58 170.57
  A 1.83 1.82 86.2 0 0 235.15 168.77
  L 235.15 167.06
  A 1.50 1.50 0.0 0 0 233.63 165.55
  Q 210.96 165.81 196.00 165.61
  C 194.02 165.58 191.22 166.87 192.01 169.27
  Q 192.46 170.64 194.26 170.64
  Q 202.50 170.65 211.19 170.70"
/>
<path stroke="#8191bb" vector-effect="non-scaling-stroke" d="
  M 211.19 170.70
  C 209.22 174.06 209.32 178.40 205.98 180.71"
/>
<path stroke="#0d549c" vector-effect="non-scaling-stroke" d="
  M 205.98 180.71
  Q 205.35 179.99 205.71 179.15
  Q 205.89 178.74 205.67 178.35
  Q 204.86 176.90 203.01 176.88
  Q 198.51 176.83 193.99 176.87
  Q 192.20 176.89 191.48 179.09
  Q 191.33 179.53 191.57 179.94
  C 193.00 182.41 196.62 182.33 199.08 181.85
  A 1.60 1.59 -17.2 0 1 200.83 182.77
  L 201.48 184.25"
/>
<path stroke="#8191bb" vector-effect="non-scaling-stroke" d="
  M 201.48 184.25
  L 196.00 187.68
  A 1.74 1.74 0.0 0 1 193.84 187.43
  L 185.24 178.84"
/>
<path stroke="#267ada" vector-effect="non-scaling-stroke" d="
  M 185.24 178.84
  Q 185.77 177.36 187.28 176.54
  A 1.26 1.25 -32.9 0 0 187.68 174.69
  Q 184.44 170.39 181.39 166.60
  Q 177.28 161.51 172.57 158.33"
/>
<path stroke="#0e62bb" vector-effect="non-scaling-stroke" d="
  M 223.03 172.08
  L 219.88 171.32"
/>
<path stroke="#8888a3" vector-effect="non-scaling-stroke" d="
  M 219.88 171.32
  Q 214.20 167.99 211.19 170.70"
/>
<path stroke="#0e62bb" vector-effect="non-scaling-stroke" d="
  M 231.31 183.77
  L 228.44 198.97
  A 0.81 0.81 0.0 0 1 227.55 199.63
  L 215.04 198.12"
/>
<path stroke="#829fda" vector-effect="non-scaling-stroke" d="
  M 111.45 398.44
  L 100.33 395.75"
/>
<path stroke="#829fda" vector-effect="non-scaling-stroke" d="
  M 159.72 399.71
  Q 156.57 398.97 155.36 399.71"
/>
<path stroke="#115493" vector-effect="non-scaling-stroke" d="
  M 304.51 133.75
  L 262.52 133.65"
/>
<path stroke="#8c7a7c" vector-effect="non-scaling-stroke" d="
  M 106.71 405.81
  Q 103.42 405.84 99.66 404.10"
/>
<path stroke="#8c7a7c" vector-effect="non-scaling-stroke" d="
  M 162.73 407.80
  L 153.72 407.41"
/>
<path stroke="#8c7a7c" vector-effect="non-scaling-stroke" d="
  M 107.54 405.84
  Q 108.21 406.43 108.99 406.73"
/>
<path stroke="#066bd3" vector-effect="non-scaling-stroke" d="
  M 373.99 196.38
  A 2.49 2.49 0.0 0 0 376.47 194.05
  L 379.16 153.24
  A 2.49 2.49 0.0 0 0 376.67 150.59
  L 328.84 150.73
  A 2.49 2.49 0.0 0 0 326.36 153.07
  L 323.91 193.76
  A 2.49 2.49 0.0 0 0 326.40 196.40
  L 373.99 196.38"
/>
<path stroke="#82aeda" vector-effect="non-scaling-stroke" d="
  M 278.38 152.83
  A 0.31 0.31 0.0 0 0 278.08 152.48
  L 253.11 151.24
  A 0.31 0.31 0.0 0 0 252.79 151.52
  L 250.20 177.21
  A 0.31 0.31 0.0 0 0 250.50 177.55
  L 275.31 178.82
  A 0.31 0.31 0.0 0 0 275.63 178.54
  L 278.38 152.83"
/>
<path stroke="#0d549c" vector-effect="non-scaling-stroke" d="
  M 185.7339 159.4302
  A 2.82 2.56 104.5 0 0 188.9185 157.3410
  A 2.82 2.56 104.5 0 0 187.1461 153.9698
  A 2.82 2.56 104.5 0 0 183.9615 156.0590
  A 2.82 2.56 104.5 0 0 185.7339 159.4302"
/>
<path stroke="#0d549c" vector-effect="non-scaling-stroke" d="
  M 230.20 156.59
  A 2.60 2.60 0.0 0 0 227.60 153.99
  L 195.34 153.99
  A 2.60 2.60 0.0 0 0 192.74 156.59
  L 192.74 156.73
  A 2.60 2.60 0.0 0 0 195.34 159.33
  L 227.60 159.33
  A 2.60 2.60 0.0 0 0 230.20 156.73
  L 230.20 156.59"
/>
<path stroke="#066bd3" vector-effect="non-scaling-stroke" d="
  M 308.84 170.23
  A 0.55 0.55 0.0 0 0 308.27 169.66
  L 283.69 170.29
  A 0.55 0.55 0.0 0 0 283.16 170.82
  L 282.49 195.76
  A 0.55 0.55 0.0 0 0 283.05 196.33
  L 307.30 195.71
  A 0.55 0.55 0.0 0 0 307.84 195.19
  L 308.84 170.23"
/>
<path stroke="#82aeda" vector-effect="non-scaling-stroke" d="
  M 228.91 252.61
  Q 229.31 251.54 229.57 250.25
  Q 232.96 233.78 234.58 216.62
  A 0.62 0.61 -85.0 0 0 234.02 215.94
  L 187.76 212.25
  A 0.33 0.33 0.0 0 0 187.40 212.56
  Q 185.84 230.98 182.09 249.28"
/>
<path stroke="#82aeda" vector-effect="non-scaling-stroke" d="
  M 366.96 230.27
  C 370.14 238.29 364.50 246.50 357.24 249.73
  C 346.34 254.57 327.87 253.70 328.20 237.21
  Q 328.54 220.54 345.04 217.20
  C 351.94 215.80 364.33 217.25 367.81 224.85
  Q 368.16 225.62 368.85 225.13
  L 369.08 224.96
  A 0.52 0.51 65.8 0 0 369.28 224.42
  C 367.36 216.74 354.19 214.43 347.74 215.08
  Q 338.37 216.02 332.79 221.29
  C 325.63 228.04 323.79 242.43 331.40 249.61
  C 338.48 256.28 351.70 254.58 359.77 250.24
  C 366.87 246.42 371.39 238.39 368.86 230.42
  Q 367.49 226.08 363.10 224.75
  A 0.75 0.74 19.2 0 0 362.19 225.18
  L 362.05 225.53
  A 0.56 0.56 0.0 0 0 362.42 226.28
  Q 365.78 227.26 366.96 230.27"
/>
<path stroke="#066bd3" vector-effect="non-scaling-stroke" d="
  M 301.76 218.82
  Q 298.38 216.67 292.86 217.74
  A 1.24 1.24 0.0 0 0 291.87 218.79
  Q 290.96 225.52 292.06 232.33"
/>
<path stroke="#82aeda" vector-effect="non-scaling-stroke" d="
  M 292.06 232.33
  L 284.52 236.90"
/>
<path stroke="#066bd3" vector-effect="non-scaling-stroke" d="
  M 284.52 236.90
  Q 283.61 233.96 281.73 234.21
  Q 277.24 234.81 272.95 234.24
  A 1.20 1.19 -82.6 0 0 271.61 235.28
  Q 271.19 238.66 272.05 241.84"
/>
<path stroke="#82aeda" vector-effect="non-scaling-stroke" d="
  M 272.05 241.84
  L 264.53 243.42"
/>
<path stroke="#066bd3" vector-effect="non-scaling-stroke" d="
  M 264.53 243.42
  L 263.41 243.18
  Q 263.08 243.12 263.11 242.79
  Q 263.14 242.39 263.49 242.37
  Q 264.07 242.33 264.13 241.74
  L 265.29 229.28
  Q 265.42 227.88 264.02 227.88
  L 254.66 227.88
  A 2.23 2.23 0.0 0 0 252.43 230.07
  L 252.18 243.94"
/>
<path stroke="#82aeda" vector-effect="non-scaling-stroke" d="
  M 252.18 243.94
  Q 248.87 244.28 244.68 242.67
  Q 244.24 242.51 243.87 242.78
  Q 243.52 243.04 243.53 243.48
  Q 243.55 243.96 243.98 244.19
  C 247.08 245.79 251.30 245.73 254.75 245.94"
/>
<path stroke="#066bd3" vector-effect="non-scaling-stroke" d="
  M 254.75 245.94
  L 252.19 247.02
  Q 251.63 247.26 251.58 247.87
  L 250.72 258.71
  A 0.75 0.75 0.0 0 0 251.46 259.52
  L 262.50 259.63
  A 1.00 0.99 3.6 0 0 263.49 258.76
  Q 264.30 252.06 263.48 245.42"
/>
<path stroke="#82aeda" vector-effect="non-scaling-stroke" d="
  M 263.48 245.42
  L 271.04 244.03"
/>
<path stroke="#066bd3" vector-effect="non-scaling-stroke" d="
  M 271.04 244.03
  L 270.26 259.12
  A 0.44 0.44 0.0 0 0 270.70 259.58
  L 282.34 259.63
  Q 282.84 259.64 282.85 259.14
  L 283.60 239.56"
/>
<path stroke="#82aeda" vector-effect="non-scaling-stroke" d="
  M 283.60 239.56
  L 290.38 235.64"
/>
<path stroke="#066bd3" vector-effect="non-scaling-stroke" d="
  M 290.38 235.64
  Q 291.13 247.22 289.48 258.41
  A 1.00 1.00 0.0 0 0 290.48 259.56
  L 301.99 259.50
  Q 302.49 259.50 302.51 259.00
  Q 302.96 242.82 304.29 226.75
  Q 304.38 225.62 303.11 225.23"
/>
<path stroke="#82aeda" vector-effect="non-scaling-stroke" d="
  M 303.11 225.23
  L 305.60 221.78
  A 0.59 0.59 0.0 0 0 305.02 220.85
  Q 304.05 221.01 303.22 222.34"
/>
<path stroke="#066bd3" vector-effect="non-scaling-stroke" d="
  M 303.22 222.34
  Q 302.42 221.67 301.90 220.80"
/>
<path stroke="#82aeda" vector-effect="non-scaling-stroke" d="
  M 301.90 220.80
  L 306.72 217.89
  A 0.50 0.50 0.0 0 1 307.47 218.25
  Q 308.13 222.57 306.47 226.62
  A 0.48 0.48 0.0 0 0 306.64 227.19
  L 306.86 227.35
  Q 307.66 227.91 308.04 227.01
  Q 310.28 221.72 308.69 216.20
  A 1.03 1.03 0.0 0 0 307.18 215.60
  L 301.76 218.82"
/>
<path stroke="#83bcf8" vector-effect="non-scaling-stroke" d="
  M 301.90 220.80
  L 296.96 222.95
  A 0.58 0.57 72.3 0 1 296.18 222.54
  L 296.10 222.20
  Q 295.99 221.69 296.46 221.46
  L 301.76 218.82"
/>
<path stroke="#83bcf8" vector-effect="non-scaling-stroke" d="
  M 303.22 222.34
  Q 299.09 227.89 292.06 232.33"
/>
<path stroke="#83bcf8" vector-effect="non-scaling-stroke" d="
  M 303.11 225.23
  Q 297.02 231.79 290.38 235.64"
/>
<path stroke="#83bcf8" vector-effect="non-scaling-stroke" d="
  M 283.60 239.56
  L 271.04 244.03"
/>
<path stroke="#83bcf8" vector-effect="non-scaling-stroke" d="
  M 263.48 245.42
  L 254.75 245.94"
/>
<path stroke="#83bcf8" vector-effect="non-scaling-stroke" d="
  M 252.18 243.94
  L 264.53 243.42"
/>
<path stroke="#83bcf8" vector-effect="non-scaling-stroke" d="
  M 272.05 241.84
  L 284.52 236.90"
/>
<path stroke="#066bd3" vector-effect="non-scaling-stroke" d="
  M 375.74 161.39
  Q 375.73 161.59 375.71 161.78
  Q 375.70 161.90 375.59 161.90
  L 339.78 162.15
  Q 338.72 162.16 338.67 163.22
  L 337.26 193.67
  Q 337.24 194.06 337.08 194.42
  L 336.91 194.80
  A 0.44 0.44 0.0 0 0 337.31 195.42
  L 373.70 195.59
  A 2.29 2.29 0.0 0 0 376.00 193.44
  Q 376.87 178.82 377.45 165.23
  C 377.52 163.61 376.64 161.98 377.69 160.17
  A 1.55 1.47 57.9 0 0 377.88 159.23
  C 377.64 157.30 377.60 155.81 377.80 153.86
  Q 378.00 151.86 375.75 151.84
  Q 352.17 151.58 328.17 151.72
  A 0.92 0.92 0.0 0 0 327.25 152.59
  L 326.76 160.52
  Q 326.73 161.07 327.28 161.07
  L 375.51 161.14
  A 0.23 0.23 0.0 0 1 375.74 161.39"
/>
<path stroke="#066bd3" vector-effect="non-scaling-stroke" d="
  M 337.82 163.47
  Q 337.91 163.28 337.95 163.13
  A 0.71 0.70 -81.2 0 0 337.28 162.21
  L 327.06 162.22
  A 0.74 0.74 0.0 0 0 326.32 162.93
  L 325.06 193.89
  A 1.54 1.53 -89.8 0 0 326.64 195.49
  L 335.70 195.18
  Q 336.27 195.16 336.22 194.59
  C 335.73 188.48 336.70 181.71 337.01 175.55
  C 337.15 172.72 338.03 168.21 337.68 164.37
  Q 337.63 163.90 337.82 163.47"
/>
<path stroke="#fee2e1" vector-effect="non-scaling-stroke" d="
  M 194.44 222.68
  Q 195.27 223.07 195.78 223.03"
/>
<path stroke="#fee2e1" vector-effect="non-scaling-stroke" d="
  M 201.33 222.12
  C 198.26 221.06 196.06 221.42 194.48 217.73"
/>
</g>
<path fill="#1b2e35" d="
  M 160.97 125.36
  L 158.78 128.94
  Q 158.56 129.30 158.14 129.23
  L 156.24 128.94
  Q 155.70 128.85 155.27 129.18
  C 152.99 130.91 154.87 134.37 156.41 135.87
  Q 157.26 136.70 156.58 137.67
  Q 152.73 143.14 146.79 144.03
  C 142.11 141.39 130.88 133.98 135.23 127.12
  Q 135.51 126.68 135.50 126.17
  Q 135.44 121.01 140.75 119.22
  Q 145.50 117.63 148.47 117.11
  A 1.20 1.17 -74.5 0 0 149.21 116.68
  Q 153.05 111.96 158.57 114.81
  A 0.52 0.52 0.0 0 0 159.28 114.54
  L 159.41 114.22
  Q 159.62 113.69 159.95 114.16
  C 162.96 118.36 160.19 121.26 160.97 125.36
  Z"
/>
<path fill="#fcc5c2" d="
  M 160.97 125.36
  Q 162.12 127.43 162.79 129.42
  C 163.48 131.47 164.41 132.75 165.61 134.39
  Q 165.96 134.87 165.59 135.33
  L 164.86 136.23
  Q 164.54 136.64 164.54 137.16
  C 164.56 142.23 160.28 146.93 155.46 147.66
  Q 154.91 147.75 154.82 148.30
  Q 154.64 149.34 154.83 150.40
  Q 154.89 150.71 154.81 151.02
  Q 154.58 151.91 155.47 152.35
  L 145.75 152.83
  L 146.79 144.03
  Q 152.73 143.14 156.58 137.67
  Q 157.26 136.70 156.41 135.87
  C 154.87 134.37 152.99 130.91 155.27 129.18
  Q 155.70 128.85 156.24 128.94
  L 158.14 129.23
  Q 158.56 129.30 158.78 128.94
  L 160.97 125.36
  Z"
/>
<path fill="#1b2e35" d="
  M 304.51 133.75
  L 262.52 133.65
  C 265.34 129.24 268.68 127.83 274.13 127.66
  Q 290.97 127.12 296.26 127.78
  Q 301.08 128.39 304.51 133.75
  Z"
/>
<path fill="#0779f1" d="
  M 262.52 133.65
  L 304.51 133.75
  Q 365.82 134.07 389.25 133.89
  Q 392.40 133.86 394.72 135.12
  Q 393.41 148.11 393.24 153.00
  Q 392.77 166.34 392.03 173.00
  C 391.84 174.62 392.20 176.78 392.01 178.67
  C 391.22 186.50 391.32 194.44 390.47 202.20
  C 389.81 208.17 390.06 214.10 389.63 220.07
  C 388.55 235.04 388.23 250.01 387.07 264.98
  Q 387.07 265.03 387.15 268.03
  Q 387.23 270.99 385.02 274.29
  L 302.70 274.37
  Q 299.82 275.00 296.45 274.60
  L 277.11 274.53
  L 270.84 274.43
  L 172.62 274.42
  L 172.80 271.83
  Q 173.67 270.76 176.00 270.56
  Q 179.43 270.27 189.25 270.30
  Q 282.87 270.53 376.50 270.40
  C 378.98 270.40 382.98 270.76 383.18 267.25
  Q 386.50 209.89 389.37 152.50
  Q 389.65 146.87 390.30 141.09
  A 2.91 2.90 3.3 0 0 387.41 137.86
  Q 323.23 137.84 258.51 137.76
  C 231.67 137.72 204.85 138.05 178.00 137.73
  Q 173.74 137.68 173.70 141.74
  Q 173.61 150.90 172.57 158.33
  L 169.02 157.76
  L 170.08 137.74
  A 4.06 4.06 0.0 0 1 174.12 133.90
  L 262.52 133.65
  Z"
/>
<path fill="#144b84" d="
  M 394.72 135.12
  Q 395.05 147.76 394.23 160.29
  C 392.56 185.99 391.14 211.78 389.93 237.51
  Q 388.97 258.07 388.21 269.24
  Q 388.02 272.02 385.02 274.29
  Q 387.23 270.99 387.15 268.03
  Q 387.07 265.03 387.07 264.98
  C 388.23 250.01 388.55 235.04 389.63 220.07
  C 390.06 214.10 389.81 208.17 390.47 202.20
  C 391.32 194.44 391.22 186.50 392.01 178.67
  C 392.20 176.78 391.84 174.62 392.03 173.00
  Q 392.77 166.34 393.24 153.00
  Q 393.41 148.11 394.72 135.12
  Z"
/>
<path fill="#055db4" d="
  M 172.80 271.83
  Q 172.71 237.53 172.43 222.75
  Q 172.41 222.08 171.53 221.80
  Q 172.25 221.70 172.48 219.99
  Q 174.68 204.18 174.99 192.63
  Q 174.43 189.96 175.32 188.61
  Q 176.76 188.96 178.21 187.37
  C 182.99 192.37 190.20 200.00 197.47 197.44
  Q 199.80 196.62 202.71 194.45
  L 202.57 195.41
  Q 202.55 195.59 202.74 195.60
  Q 202.92 195.60 203.11 195.62
  Q 203.35 195.65 203.18 195.82
  Q 203.06 195.94 202.90 196.06
  A 0.41 0.41 0.0 0 0 203.10 196.79
  L 215.04 198.12
  L 214.59 206.91
  A 1.80 1.80 0.0 0 0 216.29 208.80
  Q 226.75 209.37 236.76 209.35
  Q 238.66 209.35 240.39 208.50
  Q 240.73 208.33 240.75 207.94
  L 242.01 183.98
  Q 242.04 183.44 241.50 183.36
  Q 236.26 182.61 231.31 183.77
  L 232.84 174.71
  Q 233.01 173.72 232.01 173.55
  L 223.03 172.08
  L 233.58 170.57
  A 1.83 1.82 86.2 0 0 235.15 168.77
  L 235.15 167.06
  A 1.50 1.50 0.0 0 0 233.63 165.55
  Q 210.96 165.81 196.00 165.61
  C 194.02 165.58 191.22 166.87 192.01 169.27
  Q 192.46 170.64 194.26 170.64
  Q 202.50 170.65 211.19 170.70
  C 209.22 174.06 209.32 178.40 205.98 180.71
  Q 205.35 179.99 205.71 179.15
  Q 205.89 178.74 205.67 178.35
  Q 204.86 176.90 203.01 176.88
  Q 198.51 176.83 193.99 176.87
  Q 192.20 176.89 191.48 179.09
  Q 191.33 179.53 191.57 179.94
  C 193.00 182.41 196.62 182.33 199.08 181.85
  A 1.60 1.59 -17.2 0 1 200.83 182.77
  L 201.48 184.25
  L 196.00 187.68
  A 1.74 1.74 0.0 0 1 193.84 187.43
  L 185.24 178.84
  Q 185.77 177.36 187.28 176.54
  A 1.26 1.25 -32.9 0 0 187.68 174.69
  Q 184.44 170.39 181.39 166.60
  Q 177.28 161.51 172.57 158.33
  Q 173.61 150.90 173.70 141.74
  Q 173.74 137.68 178.00 137.73
  C 204.85 138.05 231.67 137.72 258.51 137.76
  Q 323.23 137.84 387.41 137.86
  A 2.91 2.90 3.3 0 1 390.30 141.09
  Q 389.65 146.87 389.37 152.50
  Q 386.50 209.89 383.18 267.25
  C 382.98 270.76 378.98 270.40 376.50 270.40
  Q 282.87 270.53 189.25 270.30
  Q 179.43 270.27 176.00 270.56
  Q 173.67 270.76 172.80 271.83
  Z
  M 373.99 196.38
  A 2.49 2.49 0.0 0 0 376.47 194.05
  L 379.16 153.24
  A 2.49 2.49 0.0 0 0 376.67 150.59
  L 328.84 150.73
  A 2.49 2.49 0.0 0 0 326.36 153.07
  L 323.91 193.76
  A 2.49 2.49 0.0 0 0 326.40 196.40
  L 373.99 196.38
  Z
  M 278.38 152.83
  A 0.31 0.31 0.0 0 0 278.08 152.48
  L 253.11 151.24
  A 0.31 0.31 0.0 0 0 252.79 151.52
  L 250.20 177.21
  A 0.31 0.31 0.0 0 0 250.50 177.55
  L 275.31 178.82
  A 0.31 0.31 0.0 0 0 275.63 178.54
  L 278.38 152.83
  Z
  M 185.7339 159.4302
  A 2.82 2.56 104.5 0 0 188.9185 157.3410
  A 2.82 2.56 104.5 0 0 187.1461 153.9698
  A 2.82 2.56 104.5 0 0 183.9615 156.0590
  A 2.82 2.56 104.5 0 0 185.7339 159.4302
  Z
  M 230.20 156.59
  A 2.60 2.60 0.0 0 0 227.60 153.99
  L 195.34 153.99
  A 2.60 2.60 0.0 0 0 192.74 156.59
  L 192.74 156.73
  A 2.60 2.60 0.0 0 0 195.34 159.33
  L 227.60 159.33
  A 2.60 2.60 0.0 0 0 230.20 156.73
  L 230.20 156.59
  Z
  M 308.84 170.23
  A 0.55 0.55 0.0 0 0 308.27 169.66
  L 283.69 170.29
  A 0.55 0.55 0.0 0 0 283.16 170.82
  L 282.49 195.76
  A 0.55 0.55 0.0 0 0 283.05 196.33
  L 307.30 195.71
  A 0.55 0.55 0.0 0 0 307.84 195.19
  L 308.84 170.23
  Z
  M 182.09 249.28
  L 181.02 253.63
  A 1.00 0.99 9.0 0 0 181.92 254.86
  L 226.58 258.32
  A 1.29 1.28 -75.0 0 0 227.84 257.59
  Q 228.93 255.24 228.91 252.61
  Q 229.31 251.54 229.57 250.25
  Q 232.96 233.78 234.58 216.62
  A 0.62 0.61 -85.0 0 0 234.02 215.94
  L 187.76 212.25
  A 0.33 0.33 0.0 0 0 187.40 212.56
  Q 185.84 230.98 182.09 249.28
  Z
  M 366.96 230.27
  C 370.14 238.29 364.50 246.50 357.24 249.73
  C 346.34 254.57 327.87 253.70 328.20 237.21
  Q 328.54 220.54 345.04 217.20
  C 351.94 215.80 364.33 217.25 367.81 224.85
  Q 368.16 225.62 368.85 225.13
  L 369.08 224.96
  A 0.52 0.51 65.8 0 0 369.28 224.42
  C 367.36 216.74 354.19 214.43 347.74 215.08
  Q 338.37 216.02 332.79 221.29
  C 325.63 228.04 323.79 242.43 331.40 249.61
  C 338.48 256.28 351.70 254.58 359.77 250.24
  C 366.87 246.42 371.39 238.39 368.86 230.42
  Q 367.49 226.08 363.10 224.75
  A 0.75 0.74 19.2 0 0 362.19 225.18
  L 362.05 225.53
  A 0.56 0.56 0.0 0 0 362.42 226.28
  Q 365.78 227.26 366.96 230.27
  Z
  M 301.76 218.82
  Q 298.38 216.67 292.86 217.74
  A 1.24 1.24 0.0 0 0 291.87 218.79
  Q 290.96 225.52 292.06 232.33
  L 284.52 236.90
  Q 283.61 233.96 281.73 234.21
  Q 277.24 234.81 272.95 234.24
  A 1.20 1.19 -82.6 0 0 271.61 235.28
  Q 271.19 238.66 272.05 241.84
  L 264.53 243.42
  L 263.41 243.18
  Q 263.08 243.12 263.11 242.79
  Q 263.14 242.39 263.49 242.37
  Q 264.07 242.33 264.13 241.74
  L 265.29 229.28
  Q 265.42 227.88 264.02 227.88
  L 254.66 227.88
  A 2.23 2.23 0.0 0 0 252.43 230.07
  L 252.18 243.94
  Q 248.87 244.28 244.68 242.67
  Q 244.24 242.51 243.87 242.78
  Q 243.52 243.04 243.53 243.48
  Q 243.55 243.96 243.98 244.19
  C 247.08 245.79 251.30 245.73 254.75 245.94
  L 252.19 247.02
  Q 251.63 247.26 251.58 247.87
  L 250.72 258.71
  A 0.75 0.75 0.0 0 0 251.46 259.52
  L 262.50 259.63
  A 1.00 0.99 3.6 0 0 263.49 258.76
  Q 264.30 252.06 263.48 245.42
  L 271.04 244.03
  L 270.26 259.12
  A 0.44 0.44 0.0 0 0 270.70 259.58
  L 282.34 259.63
  Q 282.84 259.64 282.85 259.14
  L 283.60 239.56
  L 290.38 235.64
  Q 291.13 247.22 289.48 258.41
  A 1.00 1.00 0.0 0 0 290.48 259.56
  L 301.99 259.50
  Q 302.49 259.50 302.51 259.00
  Q 302.96 242.82 304.29 226.75
  Q 304.38 225.62 303.11 225.23
  L 305.60 221.78
  A 0.59 0.59 0.0 0 0 305.02 220.85
  Q 304.05 221.01 303.22 222.34
  Q 302.42 221.67 301.90 220.80
  L 306.72 217.89
  A 0.50 0.50 0.0 0 1 307.47 218.25
  Q 308.13 222.57 306.47 226.62
  A 0.48 0.48 0.0 0 0 306.64 227.19
  L 306.86 227.35
  Q 307.66 227.91 308.04 227.01
  Q 310.28 221.72 308.69 216.20
  A 1.03 1.03 0.0 0 0 307.18 215.60
  L 301.76 218.82
  Z"
/>
<path fill="#0779f1" d="
  M 373.99 196.38
  L 326.40 196.40
  A 2.49 2.49 0.0 0 1 323.91 193.76
  L 326.36 153.07
  A 2.49 2.49 0.0 0 1 328.84 150.73
  L 376.67 150.59
  A 2.49 2.49 0.0 0 1 379.16 153.24
  L 376.47 194.05
  A 2.49 2.49 0.0 0 1 373.99 196.38
  Z
  M 375.74 161.39
  Q 375.73 161.59 375.71 161.78
  Q 375.70 161.90 375.59 161.90
  L 339.78 162.15
  Q 338.72 162.16 338.67 163.22
  L 337.26 193.67
  Q 337.24 194.06 337.08 194.42
  L 336.91 194.80
  A 0.44 0.44 0.0 0 0 337.31 195.42
  L 373.70 195.59
  A 2.29 2.29 0.0 0 0 376.00 193.44
  Q 376.87 178.82 377.45 165.23
  C 377.52 163.61 376.64 161.98 377.69 160.17
  A 1.55 1.47 57.9 0 0 377.88 159.23
  C 377.64 157.30 377.60 155.81 377.80 153.86
  Q 378.00 151.86 375.75 151.84
  Q 352.17 151.58 328.17 151.72
  A 0.92 0.92 0.0 0 0 327.25 152.59
  L 326.76 160.52
  Q 326.73 161.07 327.28 161.07
  L 375.51 161.14
  A 0.23 0.23 0.0 0 1 375.74 161.39
  Z
  M 337.82 163.47
  Q 337.91 163.28 337.95 163.13
  A 0.71 0.70 -81.2 0 0 337.28 162.21
  L 327.06 162.22
  A 0.74 0.74 0.0 0 0 326.32 162.93
  L 325.06 193.89
  A 1.54 1.53 -89.8 0 0 326.64 195.49
  L 335.70 195.18
  Q 336.27 195.16 336.22 194.59
  C 335.73 188.48 336.70 181.71 337.01 175.55
  C 337.15 172.72 338.03 168.21 337.68 164.37
  Q 337.63 163.90 337.82 163.47
  Z"
/>
<path fill="#ffffff" d="
  M 278.38 152.83
  L 275.63 178.54
  A 0.31 0.31 0.0 0 1 275.31 178.82
  L 250.50 177.55
  A 0.31 0.31 0.0 0 1 250.20 177.21
  L 252.79 151.52
  A 0.31 0.31 0.0 0 1 253.11 151.24
  L 278.08 152.48
  A 0.31 0.31 0.0 0 1 278.38 152.83
  Z"
/>
<path fill="#055db4" d="
  M 375.51 161.14
  L 327.28 161.07
  Q 326.73 161.07 326.76 160.52
  L 327.25 152.59
  A 0.92 0.92 0.0 0 1 328.17 151.72
  Q 352.17 151.58 375.75 151.84
  Q 378.00 151.86 377.80 153.86
  C 377.60 155.81 377.64 157.30 377.88 159.23
  A 1.55 1.47 57.9 0 1 377.69 160.17
  C 376.64 161.98 377.52 163.61 377.45 165.23
  Q 376.87 178.82 376.00 193.44
  A 2.29 2.29 0.0 0 1 373.70 195.59
  L 337.31 195.42
  A 0.44 0.44 0.0 0 1 336.91 194.80
  L 337.08 194.42
  Q 337.24 194.06 337.26 193.67
  L 338.67 163.22
  Q 338.72 162.16 339.78 162.15
  L 375.59 161.90
  Q 375.70 161.90 375.71 161.78
  Q 375.73 161.59 375.74 161.39
  A 0.23 0.23 0.0 0 0 375.51 161.14
  Z"
/>
<path fill="#1b2e35" d="
  M 155.47 152.35
  L 159.34 152.88
  A 0.82 0.82 0.0 0 1 159.98 154.03
  Q 159.53 155.03 160.74 156.27
  L 141.07 156.50
  C 140.03 153.30 143.71 153.13 145.75 152.83
  L 155.47 152.35
  Z"
/>
<ellipse fill="#144b84" cx="0.00" cy="0.00" transform="translate(186.44,156.70) rotate(104.5)" rx="2.82" ry="2.56"/>
<rect fill="#144b84" x="192.74" y="153.99" width="37.46" height="5.34" rx="2.60"/>
<path fill="#4796ff" d="
  M 160.74 156.27
  L 169.02 157.76
  L 172.57 158.33
  Q 177.28 161.51 181.39 166.60
  Q 184.44 170.39 187.68 174.69
  A 1.26 1.25 -32.9 0 1 187.28 176.54
  Q 185.77 177.36 185.24 178.84
  L 178.21 187.37
  Q 176.76 188.96 175.32 188.61
  Q 171.69 186.83 168.71 183.71
  Q 168.62 183.62 168.50 183.62
  L 168.13 183.62
  A 0.23 0.23 0.0 0 0 167.93 183.96
  Q 170.74 188.94 174.99 192.63
  Q 174.68 204.18 172.48 219.99
  Q 172.25 221.70 171.53 221.80
  L 133.22 221.77
  L 133.44 210.94
  L 133.63 203.79
  Q 134.42 195.75 134.12 187.50
  Q 134.08 186.56 133.51 185.98
  Q 133.16 185.63 132.95 186.09
  Q 132.69 186.65 132.21 187.01
  A 0.84 0.84 0.0 0 1 131.32 187.09
  L 129.69 186.22
  Q 125.43 182.64 120.90 179.26
  Q 120.65 179.07 120.38 179.01
  Q 120.08 178.93 119.79 178.90
  L 118.74 177.43
  A 1.04 1.04 0.0 0 1 118.59 176.54
  C 120.14 171.11 123.71 162.85 128.41 159.47
  C 131.44 157.30 137.32 157.00 141.07 156.50
  L 160.74 156.27
  Z"
/>
<path fill="#055db4" d="
  M 337.68 164.37
  C 338.03 168.21 337.15 172.72 337.01 175.55
  C 336.70 181.71 335.73 188.48 336.22 194.59
  Q 336.27 195.16 335.70 195.18
  L 326.64 195.49
  A 1.54 1.53 -89.8 0 1 325.06 193.89
  L 326.32 162.93
  A 0.74 0.74 0.0 0 1 327.06 162.22
  L 337.28 162.21
  A 0.71 0.70 -81.2 0 1 337.95 163.13
  Q 337.91 163.28 337.82 163.47
  Q 337.63 163.90 337.68 164.37
  Z"
/>
<path fill="#144b84" d="
  M 223.03 172.08
  L 219.88 171.32
  Q 214.20 167.99 211.19 170.70
  Q 202.50 170.65 194.26 170.64
  Q 192.46 170.64 192.01 169.27
  C 191.22 166.87 194.02 165.58 196.00 165.61
  Q 210.96 165.81 233.63 165.55
  A 1.50 1.50 0.0 0 1 235.15 167.06
  L 235.15 168.77
  A 1.83 1.82 86.2 0 1 233.58 170.57
  L 223.03 172.08
  Z"
/>
<path fill="#fcc5c2" d="
  M 219.88 171.32
  Q 217.98 174.46 216.85 178.02
  C 216.24 179.93 212.95 182.53 211.60 184.50
  Q 207.78 190.10 202.71 194.45
  Q 199.80 196.62 197.47 197.44
  C 190.20 200.00 182.99 192.37 178.21 187.37
  L 185.24 178.84
  L 193.84 187.43
  A 1.74 1.74 0.0 0 0 196.00 187.68
  L 201.48 184.25
  L 205.98 180.71
  C 209.32 178.40 209.22 174.06 211.19 170.70
  Q 214.20 167.99 219.88 171.32
  Z"
/>
<path fill="#0779f1" d="
  M 308.84 170.23
  L 307.84 195.19
  A 0.55 0.55 0.0 0 1 307.30 195.71
  L 283.05 196.33
  A 0.55 0.55 0.0 0 1 282.49 195.76
  L 283.16 170.82
  A 0.55 0.55 0.0 0 1 283.69 170.29
  L 308.27 169.66
  A 0.55 0.55 0.0 0 1 308.84 170.23
  Z"
/>
<path fill="#0779f1" d="
  M 219.88 171.32
  L 223.03 172.08
  L 232.01 173.55
  Q 233.01 173.72 232.84 174.71
  L 231.31 183.77
  L 228.44 198.97
  A 0.81 0.81 0.0 0 1 227.55 199.63
  L 215.04 198.12
  L 203.10 196.79
  A 0.41 0.41 0.0 0 1 202.90 196.06
  Q 203.06 195.94 203.18 195.82
  Q 203.35 195.65 203.11 195.62
  Q 202.92 195.60 202.74 195.60
  Q 202.55 195.59 202.57 195.41
  L 202.71 194.45
  Q 207.78 190.10 211.60 184.50
  C 212.95 182.53 216.24 179.93 216.85 178.02
  Q 217.98 174.46 219.88 171.32
  Z"
/>
<path fill="#144b84" d="
  M 205.98 180.71
  L 201.48 184.25
  L 200.83 182.77
  A 1.60 1.59 -17.2 0 0 199.08 181.85
  C 196.62 182.33 193.00 182.41 191.57 179.94
  Q 191.33 179.53 191.48 179.09
  Q 192.20 176.89 193.99 176.87
  Q 198.51 176.83 203.01 176.88
  Q 204.86 176.90 205.67 178.35
  Q 205.89 178.74 205.71 179.15
  Q 205.35 179.99 205.98 180.71
  Z"
/>
<path fill="#fcc5c2" d="
  M 119.79 178.90
  Q 120.08 178.93 120.38 179.01
  Q 120.65 179.07 120.90 179.26
  Q 125.43 182.64 129.69 186.22
  Q 125.96 190.31 124.00 194.76
  C 122.73 197.65 125.99 200.94 128.04 202.85
  A 1.80 1.79 -35.9 0 0 130.02 203.16
  Q 132.46 202.04 133.63 203.79
  L 133.44 210.94
  Q 124.87 209.55 119.23 204.99
  C 110.30 197.76 115.40 186.84 119.79 178.90
  Z"
/>
<path fill="#144b84" d="
  M 215.04 198.12
  L 227.55 199.63
  A 0.81 0.81 0.0 0 0 228.44 198.97
  L 231.31 183.77
  Q 236.26 182.61 241.50 183.36
  Q 242.04 183.44 242.01 183.98
  L 240.75 207.94
  Q 240.73 208.33 240.39 208.50
  Q 238.66 209.35 236.76 209.35
  Q 226.75 209.37 216.29 208.80
  A 1.80 1.80 0.0 0 1 214.59 206.91
  L 215.04 198.12
  Z"
/>
<path fill="#0779f1" d="
  M 175.32 188.61
  Q 174.43 189.96 174.99 192.63
  Q 170.74 188.94 167.93 183.96
  A 0.23 0.23 0.0 0 1 168.13 183.62
  L 168.50 183.62
  Q 168.62 183.62 168.71 183.71
  Q 171.69 186.83 175.32 188.61
  Z"
/>
<path fill="#ffffff" d="
  M 228.91 252.61
  C 227.13 252.61 226.69 251.03 226.07 249.87
  A 1.68 1.68 0.0 0 0 224.49 248.97
  C 213.19 249.57 204.02 250.21 191.81 247.98
  C 189.66 247.58 188.48 249.60 186.57 249.82
  Q 184.64 250.04 182.09 249.28
  Q 185.84 230.98 187.40 212.56
  A 0.33 0.33 0.0 0 1 187.76 212.25
  L 234.02 215.94
  A 0.62 0.61 -85.0 0 1 234.58 216.62
  Q 232.96 233.78 229.57 250.25
  Q 229.31 251.54 228.91 252.61
  Z
  M 194.44 222.68
  Q 195.27 223.07 195.78 223.03
  C 199.71 222.30 204.12 223.10 207.95 223.17
  Q 207.97 223.17 207.98 223.12
  Q 207.98 223.10 207.98 223.06
  A 0.10 0.09 6.0 0 0 207.89 222.96
  L 201.33 222.12
  C 198.26 221.06 196.06 221.42 194.48 217.73
  L 192.76 222.25
  Q 192.60 222.65 192.82 223.03
  Q 192.93 223.21 193.11 223.35
  Q 193.50 223.68 193.89 223.36
  Q 194.24 223.08 194.44 222.68
  Z"
/>
<path fill="#ffffff" d="
  M 357.24 249.73
  C 364.50 246.50 370.14 238.29 366.96 230.27
  Q 365.78 227.26 362.42 226.28
  A 0.56 0.56 0.0 0 1 362.05 225.53
  L 362.19 225.18
  A 0.75 0.74 19.2 0 1 363.10 224.75
  Q 367.49 226.08 368.86 230.42
  C 371.39 238.39 366.87 246.42 359.77 250.24
  C 351.70 254.58 338.48 256.28 331.40 249.61
  C 323.79 242.43 325.63 228.04 332.79 221.29
  Q 338.37 216.02 347.74 215.08
  C 354.19 214.43 367.36 216.74 369.28 224.42
  A 0.52 0.51 65.8 0 1 369.08 224.96
  L 368.85 225.13
  Q 368.16 225.62 367.81 224.85
  C 364.33 217.25 351.94 215.80 345.04 217.20
  Q 328.54 220.54 328.20 237.21
  C 327.87 253.70 346.34 254.57 357.24 249.73
  Z"
/>
<path fill="#ffffff" d="
  M 301.90 220.80
  L 296.96 222.95
  A 0.58 0.57 72.3 0 1 296.18 222.54
  L 296.10 222.20
  Q 295.99 221.69 296.46 221.46
  L 301.76 218.82
  L 307.18 215.60
  A 1.03 1.03 0.0 0 1 308.69 216.20
  Q 310.28 221.72 308.04 227.01
  Q 307.66 227.91 306.86 227.35
  L 306.64 227.19
  A 0.48 0.48 0.0 0 1 306.47 226.62
  Q 308.13 222.57 307.47 218.25
  A 0.50 0.50 0.0 0 0 306.72 217.89
  L 301.90 220.80
  Z"
/>
<path fill="#0779f1" d="
  M 301.76 218.82
  L 296.46 221.46
  Q 295.99 221.69 296.10 222.20
  L 296.18 222.54
  A 0.58 0.57 72.3 0 0 296.96 222.95
  L 301.90 220.80
  Q 302.42 221.67 303.22 222.34
  Q 299.09 227.89 292.06 232.33
  Q 290.96 225.52 291.87 218.79
  A 1.24 1.24 0.0 0 1 292.86 217.74
  Q 298.38 216.67 301.76 218.82
  Z"
/>
<path fill="#fcc5c2" d="
  M 194.48 217.73
  C 196.06 221.42 198.26 221.06 201.33 222.12
  L 199.58 221.83
  Q 199.01 221.74 198.55 222.09
  Q 197.33 223.02 195.73 222.53
  A 0.08 0.07 79.3 0 0 195.65 222.65
  Q 195.82 222.87 195.78 223.03
  Q 195.27 223.07 194.44 222.68
  Q 194.46 222.23 195.01 221.81
  Q 195.36 221.54 195.26 221.11
  L 194.48 217.73
  Z"
/>
<path fill="#ffffff" d="
  M 303.11 225.23
  Q 297.02 231.79 290.38 235.64
  L 283.60 239.56
  L 271.04 244.03
  L 263.48 245.42
  L 254.75 245.94
  C 251.30 245.73 247.08 245.79 243.98 244.19
  Q 243.55 243.96 243.53 243.48
  Q 243.52 243.04 243.87 242.78
  Q 244.24 242.51 244.68 242.67
  Q 248.87 244.28 252.18 243.94
  L 264.53 243.42
  L 272.05 241.84
  L 284.52 236.90
  L 292.06 232.33
  Q 299.09 227.89 303.22 222.34
  Q 304.05 221.01 305.02 220.85
  A 0.59 0.59 0.0 0 1 305.60 221.78
  L 303.11 225.23
  Z"
/>
<path fill="#1b2e35" d="
  M 133.22 221.77
  L 171.53 221.80
  Q 172.41 222.08 172.43 222.75
  Q 172.71 237.53 172.80 271.83
  L 172.62 274.42
  Q 172.56 281.96 172.44 289.64
  C 172.11 308.96 170.20 328.52 168.34 347.75
  Q 166.13 370.70 163.90 393.73
  L 151.21 394.22
  Q 151.16 337.79 149.88 281.25
  Q 149.87 280.70 149.38 279.96
  Q 149.12 279.55 148.91 279.98
  Q 148.34 281.13 148.21 282.00
  C 145.15 302.57 139.48 320.22 132.67 341.25
  Q 128.54 353.98 114.98 393.51
  L 101.85 391.14
  Q 108.57 368.97 116.01 338.99
  Q 122.06 314.62 124.78 292.76
  Q 129.21 257.25 133.22 221.77
  Z"
/>
<path fill="#0779f1" d="
  M 303.11 225.23
  Q 304.38 225.62 304.29 226.75
  Q 302.96 242.82 302.51 259.00
  Q 302.49 259.50 301.99 259.50
  L 290.48 259.56
  A 1.00 1.00 0.0 0 1 289.48 258.41
  Q 291.13 247.22 290.38 235.64
  Q 297.02 231.79 303.11 225.23
  Z"
/>
<path fill="#0779f1" d="
  M 264.53 243.42
  L 252.18 243.94
  L 252.43 230.07
  A 2.23 2.23 0.0 0 1 254.66 227.88
  L 264.02 227.88
  Q 265.42 227.88 265.29 229.28
  L 264.13 241.74
  Q 264.07 242.33 263.49 242.37
  Q 263.14 242.39 263.11 242.79
  Q 263.08 243.12 263.41 243.18
  L 264.53 243.42
  Z"
/>
<path fill="#0779f1" d="
  M 284.52 236.90
  L 272.05 241.84
  Q 271.19 238.66 271.61 235.28
  A 1.20 1.19 -82.6 0 1 272.95 234.24
  Q 277.24 234.81 281.73 234.21
  Q 283.61 233.96 284.52 236.90
  Z"
/>
<path fill="#0779f1" d="
  M 283.60 239.56
  L 282.85 259.14
  Q 282.84 259.64 282.34 259.63
  L 270.70 259.58
  A 0.44 0.44 0.0 0 1 270.26 259.12
  L 271.04 244.03
  L 283.60 239.56
  Z"
/>
<path fill="#0779f1" d="
  M 263.48 245.42
  Q 264.30 252.06 263.49 258.76
  A 1.00 0.99 3.6 0 1 262.50 259.63
  L 251.46 259.52
  A 0.75 0.75 0.0 0 1 250.72 258.71
  L 251.58 247.87
  Q 251.63 247.26 252.19 247.02
  L 254.75 245.94
  L 263.48 245.42
  Z"
/>
<path fill="#1b2e35" d="
  M 277.11 274.53
  L 268.23 411.08
  A 0.74 0.73 2.1 0 1 267.49 411.76
  L 262.53 411.77
  Q 261.89 411.77 261.93 411.13
  L 270.84 274.43
  L 277.11 274.53
  Z"
/>
<path fill="#1b2e35" d="
  M 302.70 274.37
  L 311.63 411.06
  A 0.67 0.67 0.0 0 1 310.97 411.77
  L 306.02 411.81
  Q 305.38 411.82 305.34 411.18
  L 296.45 274.60
  Q 299.82 275.00 302.70 274.37
  Z"
/>
<path fill="#0779f1" d="
  M 101.85 391.14
  L 114.98 393.51
  Q 115.65 393.67 115.95 394.15
  Q 116.24 394.60 115.99 395.07
  L 114.48 397.96
  Q 114.26 398.38 113.79 398.46
  Q 112.34 398.71 111.45 398.44
  L 100.33 395.75
  Q 99.43 392.10 101.85 391.14
  Z"
/>
<path fill="#0779f1" d="
  M 163.90 393.73
  L 165.24 394.22
  Q 165.72 394.39 165.64 394.90
  L 165.19 397.83
  A 1.33 1.32 -84.8 0 1 163.85 398.96
  Q 161.08 398.88 159.72 399.71
  Q 156.57 398.97 155.36 399.71
  L 151.07 398.76
  Q 150.60 398.66 150.41 398.22
  Q 149.23 395.46 151.21 394.22
  L 163.90 393.73
  Z"
/>
<path fill="#fcc5c2" d="
  M 100.33 395.75
  L 111.45 398.44
  Q 107.72 400.38 107.42 403.89
  A 2.00 1.99 63.9 0 1 107.11 404.81
  Q 106.83 405.25 106.71 405.81
  Q 103.42 405.84 99.66 404.10
  Q 100.73 402.13 101.17 399.55
  Q 101.25 399.09 101.13 398.63
  L 100.33 395.75
  Z"
/>
<path fill="#fcc5c2" d="
  M 159.72 399.71
  L 160.06 406.48
  Q 160.09 407.04 160.64 406.99
  Q 164.83 406.65 162.73 407.80
  L 153.72 407.41
  L 154.65 403.39
  Q 154.77 402.89 154.60 402.41
  Q 153.94 400.49 155.36 399.71
  Q 156.57 398.97 159.72 399.71
  Z"
/>
<path fill="#1b2e35" d="
  M 99.66 404.10
  Q 103.42 405.84 106.71 405.81
  L 107.54 405.84
  Q 108.21 406.43 108.99 406.73
  C 109.13 409.58 113.19 411.82 115.77 412.97
  Q 116.74 413.41 116.98 413.91
  Q 117.32 414.62 116.67 415.31
  Q 116.36 415.65 115.90 415.72
  Q 114.06 415.99 113.24 415.77
  Q 105.25 413.62 96.66 412.16
  A 0.95 0.94 11.1 0 1 95.89 411.03
  Q 96.88 406.45 99.66 404.10
  Z"
/>
<path fill="#fcc5c2" d="
  M 108.99 406.73
  Q 108.21 406.43 107.54 405.84
  Q 108.34 405.35 108.17 405.08
  Q 108.08 404.93 108.25 404.87
  L 108.71 404.72
  Q 109.02 404.62 109.16 404.92
  Q 109.77 406.31 108.99 406.73
  Z"
/>
<path fill="#1b2e35" d="
  M 153.72 407.41
  L 162.73 407.80
  C 165.47 411.87 173.09 412.36 177.09 412.97
  A 0.91 0.90 17.2 0 1 177.77 414.25
  L 177.54 414.73
  Q 176.99 415.87 175.73 415.87
  L 151.65 415.78
  Q 150.75 415.78 150.75 414.88
  Q 150.74 409.18 153.72 407.41
  Z"
/>
</svg>
