<?xml version="1.0" encoding="UTF-8" standalone="no"?>
<!DOCTYPE svg PUBLIC "-//W3C//DTD SVG 1.1//EN" "http://www.w3.org/Graphics/SVG/1.1/DTD/svg11.dtd">
<svg xmlns="http://www.w3.org/2000/svg" version="1.1" viewBox="0.00 0.00 499.00 499.00">
<g stroke-width="2.00" fill="none" stroke-linecap="butt">
<path stroke="#8793b2" vector-effect="non-scaling-stroke" d="
  M 403.95 276.20
  L 293.00 276.24"
/>
<path stroke="#5b76a4" vector-effect="non-scaling-stroke" d="
  M 293.00 276.24
  L 293.69 267.53"
/>
<path stroke="#21387c" vector-effect="non-scaling-stroke" d="
  M 293.69 267.53
  C 307.92 267.77 323.21 267.39 336.24 267.48
  C 356.91 267.63 377.58 267.45 398.25 267.84
  C 408.53 268.04 418.79 267.56 429.06 268.22
  Q 431.39 268.37 431.41 266.04
  C 431.84 218.38 431.83 170.69 431.43 123.04
  A 1.49 1.49 0.0 0 0 429.99 121.56
  C 424.52 121.39 418.31 121.92 413.50 121.91
  Q 354.74 121.80 295.99 121.82
  C 282.26 121.83 264.58 121.23 251.50 121.78
  Q 227.71 122.78 203.90 121.50
  A 1.73 1.73 0.0 0 0 202.08 123.22
  L 201.97 219.80"
/>
<path stroke="#1e2556" vector-effect="non-scaling-stroke" d="
  M 201.97 219.80
  Q 201.02 219.28 200.70 218.34
  Q 200.54 217.86 200.15 217.53
  Q 199.11 216.69 198.64 217.59"
/>
<path stroke="#8793b2" vector-effect="non-scaling-stroke" d="
  M 198.64 217.59
  L 198.50 143.44"
/>
<path stroke="#8589a4" vector-effect="non-scaling-stroke" d="
  M 198.64 217.59
  Q 193.55 213.95 188.59 210.56
  Q 184.98 208.09 183.08 207.60
  C 177.89 206.27 172.23 210.38 169.44 214.35
  Q 168.24 216.06 168.30 213.97
  Q 168.32 213.21 168.29 213.07
  Q 167.79 210.06 167.32 213.00
  L 167.00 214.99
  A 0.64 0.64 0.0 0 1 166.03 215.44
  L 163.64 213.96
  A 0.39 0.39 0.0 0 0 163.13 214.54
  L 164.84 216.66
  Q 165.17 217.06 164.75 217.37
  C 155.54 224.20 165.21 240.10 171.27 247.15"
/>
<path stroke="#f7eadd" vector-effect="non-scaling-stroke" d="
  M 171.27 247.15
  Q 171.77 248.99 169.88 251.63
  Q 169.35 252.39 168.26 252.03"
/>
<path stroke="#a0a0cd" vector-effect="non-scaling-stroke" d="
  M 168.26 252.03
  C 163.64 245.78 152.34 247.52 145.23 248.25"
/>
<path stroke="#9093bc" vector-effect="non-scaling-stroke" d="
  M 145.23 248.25
  C 142.16 248.44 137.19 249.47 136.35 252.87
  C 134.92 258.57 134.10 268.73 136.35 274.99
  Q 136.87 276.42 139.32 279.62
  C 142.33 283.54 147.88 295.15 143.50 299.76
  C 137.24 306.35 138.41 309.43 139.75 317.70
  A 0.25 0.24 86.0 0 1 139.51 317.99
  L 119.75 317.96"
/>
<path stroke="#c2daf2" vector-effect="non-scaling-stroke" d="
  M 119.75 317.96
  Q 122.18 315.68 122.20 314.47
  Q 122.32 307.60 122.24 300.88
  A 0.59 0.58 89.0 0 0 121.65 300.30
  L 108.28 300.35"
/>
<path stroke="#8ec4e0" vector-effect="non-scaling-stroke" d="
  M 108.28 300.35
  Q 107.61 300.43 107.74 303.14
  A 0.65 0.65 0.0 0 1 107.12 303.82
  C 102.69 304.04 100.73 308.48 103.29 311.90
  C 104.17 313.06 105.66 313.48 107.01 313.97
  Q 107.50 314.15 107.72 314.63
  Q 108.72 316.79 110.85 317.46"
/>
<path stroke="#c2daf2" vector-effect="non-scaling-stroke" d="
  M 110.85 317.46
  Q 111.00 318.07 110.21 318.09"
/>
<path stroke="#9093bc" vector-effect="non-scaling-stroke" d="
  M 110.21 318.09
  Q 97.11 317.92 84.00 317.98
  C 81.99 317.99 79.56 317.88 77.93 319.11
  Q 74.68 321.57 75.87 325.95"
/>
<path stroke="#8589a4" vector-effect="non-scaling-stroke" d="
  M 75.87 325.95
  Q 76.75 330.04 80.75 330.12
  Q 87.96 330.28 96.21 330.29"
/>
<path stroke="#cad0ea" vector-effect="non-scaling-stroke" d="
  M 96.21 330.29
  L 75.03 447.13"
/>
<path stroke="#d3e9f9" vector-effect="non-scaling-stroke" d="
  M 75.03 447.13
  L 69.49 446.87"
/>
<path stroke="#c2daf2" vector-effect="non-scaling-stroke" d="
  M 293.00 276.24
  L 291.42 313.67"
/>
<path stroke="#6185c1" vector-effect="non-scaling-stroke" d="
  M 291.42 313.67
  L 224.36 313.63
  Q 223.93 313.63 223.84 313.21
  Q 223.81 313.06 223.85 312.88"
/>
<path stroke="#5b76a4" vector-effect="non-scaling-stroke" d="
  M 223.85 312.88
  L 225.81 272.72"
/>
<path stroke="#5c7fbc" vector-effect="non-scaling-stroke" d="
  M 293.69 267.53
  L 294.05 257.51
  A 0.99 0.99 0.0 0 0 293.06 256.48
  L 249.42 256.50"
/>
<path stroke="#274799" vector-effect="non-scaling-stroke" d="
  M 249.42 256.50
  Q 249.72 255.57 250.39 254.78
  Q 250.76 254.34 250.76 253.77
  L 250.81 129.96
  A 3.83 3.82 89.2 0 0 246.88 126.13
  C 239.66 126.33 232.41 126.35 225.14 126.18
  Q 218.47 126.02 211.82 126.90
  A 2.24 2.24 0.0 0 0 209.87 129.14
  L 210.38 186.85
  A 1.38 1.36 -32.1 0 1 210.22 187.53
  C 209.19 189.55 209.98 196.97 210.11 198.92
  C 210.30 201.79 210.10 204.45 210.09 207.25
  Q 210.08 207.51 209.79 207.64
  Q 209.45 207.81 209.43 208.18
  C 209.11 212.99 209.93 216.43 209.56 220.54
  C 209.30 223.45 210.26 226.09 210.09 229.10
  Q 209.27 243.54 209.34 258.00
  Q 209.35 261.65 212.75 261.48
  Q 220.42 261.09 226.35 262.25"
/>
<path stroke="#5c7fbc" vector-effect="non-scaling-stroke" d="
  M 226.35 262.25
  L 225.81 272.72"
/>
<path stroke="#21387c" vector-effect="non-scaling-stroke" d="
  M 225.81 272.72
  Q 223.61 271.67 224.21 269.71
  A 1.36 1.35 -81.9 0 0 222.89 267.95
  L 205.17 268.29"
/>
<path stroke="#843193" vector-effect="non-scaling-stroke" d="
  M 205.17 268.29
  L 201.31 264.82"
/>
<path stroke="#1e2e6e" vector-effect="non-scaling-stroke" d="
  M 201.31 264.82
  C 201.23 263.20 200.38 262.36 200.32 260.68
  Q 200.06 252.74 200.20 244.80
  C 200.28 240.67 201.26 236.78 202.12 232.76
  A 2.28 2.26 84.1 0 1 203.42 231.15
  Q 206.70 229.67 209.27 227.17
  A 0.92 0.92 0.0 0 0 208.90 225.63
  Q 207.13 225.09 205.13 224.12
  Q 204.07 223.60 204.42 222.26
  Q 204.56 221.73 204.05 221.54
  Q 202.21 220.82 201.97 219.80"
/>
<path stroke="#d3e9f9" vector-effect="non-scaling-stroke" d="
  M 402.30 447.25
  L 368.31 446.46"
/>
<path stroke="#cad0ea" vector-effect="non-scaling-stroke" d="
  M 368.31 446.46
  L 346.97 330.24"
/>
<path stroke="#8589a4" vector-effect="non-scaling-stroke" d="
  M 346.97 330.24
  Q 355.63 330.18 363.75 330.03
  C 366.74 329.97 367.97 328.41 368.58 325.73"
/>
<path stroke="#8da2cf" vector-effect="non-scaling-stroke" d="
  M 292.22 318.14
  C 291.93 316.52 292.75 315.22 291.42 313.67"
/>
<path stroke="#811d6d" vector-effect="non-scaling-stroke" d="
  M 201.31 264.82
  Q 198.99 264.02 198.52 262.74"
/>
<path stroke="#8589a4" vector-effect="non-scaling-stroke" d="
  M 198.52 262.74
  L 198.26 243.15"
/>
<path stroke="#8d7c81" vector-effect="non-scaling-stroke" d="
  M 198.26 243.15
  L 200.82 232.32
  Q 200.94 231.83 200.43 231.86
  C 191.76 232.49 183.82 230.94 175.85 228.05
  Q 175.27 227.84 175.26 228.46
  Q 175.25 234.35 173.75 240.06
  Q 173.25 241.96 172.32 240.23
  C 171.42 238.55 171.14 235.80 169.08 234.75
  A 1.29 1.29 0.0 0 0 167.21 235.93
  C 167.27 239.56 170.28 243.38 171.27 247.15"
/>
<path stroke="#62a7d2" vector-effect="non-scaling-stroke" d="
  M 110.85 317.46
  Q 111.18 317.46 111.41 317.39
  Q 111.95 317.20 111.68 316.70
  C 111.21 315.81 110.74 315.17 110.82 314.09
  Q 111.26 307.79 110.53 301.48
  Q 110.37 300.04 108.28 300.35"
/>
<path stroke="#f7eadd" vector-effect="non-scaling-stroke" d="
  M 198.26 243.15
  Q 196.21 247.56 194.03 251.39
  Q 193.19 252.88 191.40 254.08
  Q 188.59 255.97 187.86 257.81"
/>
<path stroke="#f37fa6" vector-effect="non-scaling-stroke" d="
  M 187.86 257.81
  Q 188.38 261.80 183.59 262.65
  C 176.11 263.99 172.13 259.28 168.96 253.37"
/>
<path stroke="#a893aa" vector-effect="non-scaling-stroke" d="
  M 168.96 253.37
  L 168.26 252.03"
/>
<path stroke="#9c3496" vector-effect="non-scaling-stroke" d="
  M 168.96 253.37
  Q 166.29 253.88 163.78 254.50
  C 160.71 255.25 158.46 256.85 155.63 258.32
  C 153.50 259.43 149.89 261.81 149.11 263.36
  Q 147.34 266.88 144.48 268.24"
/>
<path stroke="#423b8a" vector-effect="non-scaling-stroke" d="
  M 144.48 268.24
  C 142.88 262.21 144.33 253.40 145.23 248.25"
/>
<path stroke="#d3e9f9" vector-effect="non-scaling-stroke" d="
  M 106.69 330.18
  L 85.49 445.80
  A 0.72 0.72 0.0 0 0 86.21 446.65
  L 136.33 446.06"
/>
<path stroke="#697a9e" vector-effect="non-scaling-stroke" d="
  M 136.33 446.06
  C 139.30 451.41 147.81 451.31 149.32 444.99"
/>
<path stroke="#d3e9f9" vector-effect="non-scaling-stroke" d="
  M 149.32 444.99
  Q 152.82 446.37 156.39 445.89
  A 0.86 0.86 0.0 0 0 157.12 444.88
  L 154.86 432.51"
/>
<path stroke="#697a9e" vector-effect="non-scaling-stroke" d="
  M 154.86 432.51
  Q 154.84 430.77 154.06 430.63"
/>
<path stroke="#d3e9f9" vector-effect="non-scaling-stroke" d="
  M 154.06 430.63
  L 151.60 412.82
  Q 151.55 412.46 151.28 412.21
  Q 151.10 412.04 151.06 411.76
  C 150.14 405.31 148.26 398.39 147.33 392.72
  Q 146.19 385.85 145.07 378.97
  Q 144.89 377.88 144.69 376.79
  Q 144.00 373.16 143.34 369.52
  C 142.80 366.51 142.67 362.65 141.88 359.22
  A 0.43 0.42 14.8 0 0 141.75 359.00
  Q 141.64 358.89 141.55 358.79
  Q 141.41 358.62 141.37 358.40
  Q 138.46 344.58 136.77 330.50"
/>
<path stroke="#afc2e4" vector-effect="non-scaling-stroke" d="
  M 136.77 330.50
  C 137.64 330.69 138.39 331.46 138.57 332.41
  Q 141.83 350.07 145.07 367.75
  C 146.05 373.08 147.72 380.00 148.72 386.22
  C 151.68 404.56 155.11 422.80 158.53 441.06
  C 158.98 443.46 159.22 446.36 159.75 448.84
  Q 160.00 450.01 161.21 450.01
  L 167.21 450.00
  Q 168.30 450.00 168.08 448.94
  L 167.45 445.88"
/>
<path stroke="#d3e9f9" vector-effect="non-scaling-stroke" d="
  M 167.45 445.88
  L 188.53 445.84"
/>
<path stroke="#697a9e" vector-effect="non-scaling-stroke" d="
  M 188.53 445.84
  Q 191.09 450.71 196.50 449.69
  Q 199.82 449.07 201.43 445.71"
/>
<path stroke="#d3e9f9" vector-effect="non-scaling-stroke" d="
  M 201.43 445.71
  L 241.47 445.62"
/>
<path stroke="#6a8092" vector-effect="non-scaling-stroke" d="
  M 241.47 445.62
  C 243.71 450.40 250.42 451.72 253.56 446.90
  A 0.46 0.46 0.0 0 1 254.41 447.17
  Q 254.35 448.18 254.70 449.08
  A 0.23 0.23 0.0 0 0 254.91 449.22
  L 293.51 449.25
  Q 294.01 449.25 293.99 448.75
  L 293.88 445.96"
/>
<path stroke="#d3e9f9" vector-effect="non-scaling-stroke" d="
  M 293.88 445.96
  L 357.15 446.29
  A 0.99 0.99 0.0 0 0 358.11 445.08
  Q 354.77 430.71 353.12 416.12
  Q 353.03 415.32 352.40 414.52
  Q 352.11 414.14 352.05 413.66
  Q 351.12 405.53 349.32 397.56
  C 349.01 396.17 349.16 394.77 349.13 393.35
  Q 349.12 393.00 348.86 392.77
  Q 348.68 392.63 348.61 392.25
  Q 347.00 384.41 345.53 376.54
  Q 343.95 368.12 342.34 359.71
  C 341.11 353.25 339.53 347.90 338.82 340.29
  C 338.58 337.82 337.38 335.75 337.38 333.33
  Q 337.39 331.83 337.31 330.23"
/>
<path stroke="#afc2e4" vector-effect="non-scaling-stroke" d="
  M 338.66 330.26
  Q 340.36 335.42 341.24 340.63
  C 343.15 351.94 345.51 363.25 346.66 370.25
  C 348.70 382.74 350.94 393.80 352.78 404.86
  Q 354.00 412.22 355.41 419.55
  Q 358.24 434.33 360.73 448.76
  A 1.20 1.18 84.1 0 0 361.93 449.75
  L 367.73 449.59
  A 0.92 0.91 85.2 0 0 368.60 448.55
  L 368.31 446.46"
/>
<path stroke="#afc2e4" vector-effect="non-scaling-stroke" d="
  M 75.03 447.13
  L 74.70 448.50
  A 1.01 1.01 0.0 0 0 75.69 449.76
  L 82.14 449.70
  A 0.63 0.63 0.0 0 0 82.75 449.18
  L 104.30 330.29"
/>
<path stroke="#61628e" vector-effect="non-scaling-stroke" d="
  M 346.97 330.24
  L 338.66 330.26"
/>
<path stroke="#697a9e" vector-effect="non-scaling-stroke" d="
  M 338.66 330.26
  L 337.31 330.23"
/>
<path stroke="#8589a4" vector-effect="non-scaling-stroke" d="
  M 337.31 330.23
  L 300.29 330.24"
/>
<path stroke="#61628e" vector-effect="non-scaling-stroke" d="
  M 300.29 330.24
  L 292.12 330.21"
/>
<path stroke="#8589a4" vector-effect="non-scaling-stroke" d="
  M 292.12 330.21
  L 214.21 330.34"
/>
<path stroke="#811d6d" vector-effect="non-scaling-stroke" d="
  M 214.21 330.34
  L 159.05 330.28"
/>
<path stroke="#363171" vector-effect="non-scaling-stroke" d="
  M 159.05 330.28
  L 151.77 330.22"
/>
<path stroke="#272461" vector-effect="non-scaling-stroke" d="
  M 151.77 330.22
  L 146.41 330.47"
/>
<path stroke="#61628e" vector-effect="non-scaling-stroke" d="
  M 146.41 330.47
  L 136.28 330.25"
/>
<path stroke="#8589a4" vector-effect="non-scaling-stroke" d="
  M 136.28 330.25
  L 106.69 330.18"
/>
<path stroke="#697a9e" vector-effect="non-scaling-stroke" d="
  M 106.69 330.18
  Q 106.01 329.97 104.30 330.29"
/>
<path stroke="#61628e" vector-effect="non-scaling-stroke" d="
  M 104.30 330.29
  L 96.21 330.29"
/>
<path stroke="#8c2785" vector-effect="non-scaling-stroke" d="
  M 144.48 268.24
  Q 144.89 270.91 144.91 273.82
  C 144.97 281.56 146.77 289.70 148.39 297.25
  Q 148.46 297.57 148.19 298.01"
/>
<path stroke="#423b8a" vector-effect="non-scaling-stroke" d="
  M 148.19 298.01
  C 146.16 303.94 148.30 311.08 149.25 317.08
  A 1.19 1.19 0.0 0 0 150.50 318.08
  L 154.81 317.82"
/>
<path stroke="#8c2785" vector-effect="non-scaling-stroke" d="
  M 154.81 317.82
  L 166.23 317.89"
/>
<path stroke="#99869a" vector-effect="non-scaling-stroke" d="
  M 166.23 317.89
  L 198.36 318.06"
/>
<path stroke="#2f3e8c" vector-effect="non-scaling-stroke" d="
  M 198.36 318.06
  Q 200.11 318.17 201.95 318.35
  Q 203.87 318.54 205.56 318.52
  Q 242.16 318.17 278.75 318.46
  Q 283.27 318.50 292.22 318.14"
/>
<path stroke="#9093bc" vector-effect="non-scaling-stroke" d="
  M 292.22 318.14
  Q 327.79 317.96 363.25 317.92
  C 367.26 317.91 369.35 322.36 368.58 325.73"
/>
<path stroke="#272461" vector-effect="non-scaling-stroke" d="
  M 368.58 325.73
  L 368.37 325.24
  Q 368.23 324.91 368.11 325.25
  Q 368.05 325.43 367.92 325.59
  Q 367.77 325.78 367.49 325.83
  Q 366.15 326.08 362.25 326.04
  C 317.25 325.62 249.87 325.94 184.39 325.97
  Q 130.16 326.00 75.87 325.95"
/>
<path stroke="#6476af" vector-effect="non-scaling-stroke" d="
  M 110.21 318.09
  L 119.75 317.96"
/>
<path stroke="#6185c1" vector-effect="non-scaling-stroke" d="
  M 249.42 256.50
  L 227.96 256.67
  Q 226.86 256.67 226.76 257.77
  L 226.35 262.25"
/>
<path stroke="#263e81" vector-effect="non-scaling-stroke" d="
  M 223.85 312.88
  Q 223.16 312.89 222.61 312.50"
/>
<path stroke="#90868f" vector-effect="non-scaling-stroke" d="
  M 222.61 312.50
  L 222.93 302.93"
/>
<path stroke="#8793b2" vector-effect="non-scaling-stroke" d="
  M 222.93 302.93
  L 224.27 276.73
  Q 224.30 276.20 223.77 276.20
  L 209.30 276.05"
/>
<path stroke="#8793b2" vector-effect="non-scaling-stroke" d="
  M 208.93 272.65
  Q 209.14 270.62 207.17 270.48"
/>
<path stroke="#83287b" vector-effect="non-scaling-stroke" d="
  M 205.17 268.29
  L 207.17 270.48"
/>
<path stroke="#ea8cc8" vector-effect="non-scaling-stroke" d="
  M 207.17 270.48
  Q 207.39 273.58 208.93 272.65"
/>
<path stroke="#83287b" vector-effect="non-scaling-stroke" d="
  M 208.93 272.65
  L 209.30 276.05"
/>
<path stroke="#ea8cc8" vector-effect="non-scaling-stroke" d="
  M 209.30 276.05
  Q 213.35 285.32 214.13 294.25"
/>
<path stroke="#f37fa6" vector-effect="non-scaling-stroke" d="
  M 214.13 294.25
  L 204.49 299.94
  Q 204.07 300.19 204.17 300.67
  L 205.08 305.18
  A 0.84 0.83 85.6 0 1 204.23 306.18
  L 176.49 305.00
  A 1.28 1.27 81.9 0 1 175.34 304.13
  L 173.95 299.88
  A 0.92 0.92 0.0 0 0 172.81 299.28
  L 156.81 304.08
  A 0.43 0.42 -18.2 0 0 156.53 304.63
  Q 159.23 312.23 166.23 317.89"
/>
<path stroke="#9c3496" vector-effect="non-scaling-stroke" d="
  M 154.81 317.82
  C 153.76 315.65 152.66 313.70 152.18 311.26
  C 151.38 307.15 150.20 299.82 148.19 298.01"
/>
<path stroke="#ea8cc8" vector-effect="non-scaling-stroke" d="
  M 198.52 262.74
  L 187.86 257.81"
/>
<path stroke="#cad0ea" vector-effect="non-scaling-stroke" d="
  M 136.28 330.25
  Q 136.47 330.48 136.77 330.50"
/>
<path stroke="#8589a4" vector-effect="non-scaling-stroke" d="
  M 154.06 430.63
  L 142.25 432.81
  A 0.68 0.68 0.0 0 0 141.69 433.49
  L 141.72 435.79
  Q 141.73 436.45 141.11 436.69
  C 136.79 438.37 134.81 441.19 136.33 446.06"
/>
<path stroke="#8589a4" vector-effect="non-scaling-stroke" d="
  M 154.86 432.51
  L 143.97 434.05
  Q 143.38 434.14 143.42 434.73
  L 143.50 436.01
  Q 143.54 436.61 144.12 436.77
  Q 150.31 438.46 149.32 444.99"
/>
<path stroke="#868e98" vector-effect="non-scaling-stroke" d="
  M 241.47 445.62
  Q 240.01 438.36 246.94 436.42
  Q 247.48 436.27 247.33 435.53"
/>
<path stroke="#626783" vector-effect="non-scaling-stroke" d="
  M 272.94 434.19
  Q 276.32 437.69 281.00 439.84
  Q 282.53 440.54 281.73 439.06
  C 280.51 436.80 278.49 433.80 280.84 431.35
  Q 283.20 428.89 285.97 427.10"
/>
<path stroke="#6c6ca7" vector-effect="non-scaling-stroke" d="
  M 146.41 330.47
  L 150.74 354.86
  Q 150.81 355.22 151.15 355.36
  L 151.48 355.49"
/>
<path stroke="#cad0ea" vector-effect="non-scaling-stroke" d="
  M 151.48 355.49
  Q 150.90 356.00 150.99 356.51
  C 151.87 361.04 152.89 365.60 153.44 370.19
  C 153.77 373.00 154.81 376.63 155.13 378.50
  Q 159.44 403.00 164.08 427.44
  C 164.17 427.92 164.44 428.19 164.79 428.47"
/>
<path stroke="#61628e" vector-effect="non-scaling-stroke" d="
  M 164.79 428.47
  Q 164.17 429.54 164.71 430.56
  Q 164.85 430.84 165.49 430.96"
/>
<path stroke="#cad0ea" vector-effect="non-scaling-stroke" d="
  M 165.49 430.96
  Q 165.04 430.80 164.84 431.00
  Q 164.70 431.14 164.77 431.52
  Q 166.19 438.60 167.45 445.88"
/>
<path stroke="#1c203d" vector-effect="non-scaling-stroke" d="
  M 248.92 436.31
  L 247.33 435.53"
/>
<path stroke="#8589a4" vector-effect="non-scaling-stroke" d="
  M 247.33 435.53
  L 247.32 433.04
  Q 247.32 432.50 246.78 432.44
  L 198.43 427.19
  A 0.65 0.65 0.0 0 0 197.71 427.84
  L 197.72 436.49
  A 0.92 0.91 14.1 0 0 198.21 437.30
  Q 202.97 439.96 201.43 445.71"
/>
<path stroke="#8589a4" vector-effect="non-scaling-stroke" d="
  M 188.53 445.84
  Q 186.74 440.04 191.86 437.17
  Q 192.27 436.94 192.27 436.47
  L 192.28 427.77
  Q 192.28 427.22 191.73 427.29
  L 165.49 430.96"
/>
<path stroke="#868e98" vector-effect="non-scaling-stroke" d="
  M 293.88 445.96
  Q 293.47 445.08 293.43 444.17
  Q 293.41 443.63 293.87 443.35
  L 319.41 427.46
  Q 321.57 426.11 319.85 424.24
  L 318.07 422.29
  Q 316.25 420.31 313.99 421.75
  Q 306.11 426.78 294.75 424.42
  Q 290.48 423.53 285.97 427.10"
/>
<path stroke="#cad0ea" vector-effect="non-scaling-stroke" d="
  M 285.97 427.10
  Q 285.47 427.23 285.41 426.72"
/>
<path stroke="#8999a0" vector-effect="non-scaling-stroke" d="
  M 285.41 426.72
  L 292.91 421.23
  A 1.20 1.19 60.4 0 0 293.30 419.79
  L 286.68 404.54"
/>
<path stroke="#cad0ea" vector-effect="non-scaling-stroke" d="
  M 300.29 330.24
  L 286.68 404.54"
/>
<path stroke="#65728a" vector-effect="non-scaling-stroke" d="
  M 286.68 404.54
  L 280.99 391.24"
/>
<path stroke="#ea8cc8" vector-effect="non-scaling-stroke" d="
  M 214.21 330.34
  Q 214.39 330.55 214.35 330.76"
/>
<path stroke="#852d69" vector-effect="non-scaling-stroke" d="
  M 214.35 330.76
  Q 213.72 331.35 213.63 332.33
  Q 213.59 332.85 213.20 333.18
  Q 208.01 337.62 201.33 341.33
  Q 185.31 350.22 169.85 356.30"
/>
<path stroke="#cad0ea" vector-effect="non-scaling-stroke" d="
  M 292.12 330.21
  L 280.99 391.24"
/>
<path stroke="#8999a0" vector-effect="non-scaling-stroke" d="
  M 280.99 391.24
  C 278.21 385.45 274.13 378.05 273.54 372.03"
/>
<path stroke="#808b90" vector-effect="non-scaling-stroke" d="
  M 273.54 372.03
  Q 273.68 357.46 270.51 347.96
  Q 268.69 342.49 262.42 340.56
  Q 242.63 334.46 223.76 334.50"
/>
<path stroke="#8999a0" vector-effect="non-scaling-stroke" d="
  M 223.76 334.50
  Q 217.66 334.64 214.35 330.76"
/>
<path stroke="#423b8a" vector-effect="non-scaling-stroke" d="
  M 151.77 330.22
  C 152.02 333.77 153.07 344.01 156.09 346.65
  A 1.48 1.46 -23.2 0 0 157.00 347.01
  L 164.97 347.31"
/>
<path stroke="#8c2785" vector-effect="non-scaling-stroke" d="
  M 164.97 347.31
  L 169.85 356.30"
/>
<path stroke="#2b345d" vector-effect="non-scaling-stroke" d="
  M 169.85 356.30
  Q 169.79 356.13 169.73 355.96"
/>
<path stroke="#272461" vector-effect="non-scaling-stroke" d="
  M 169.73 355.96
  L 161.61 355.40"
/>
<path stroke="#9093bc" vector-effect="non-scaling-stroke" d="
  M 161.61 355.40
  L 151.48 355.49"
/>
<path stroke="#9c3496" vector-effect="non-scaling-stroke" d="
  M 159.05 330.28
  C 159.58 332.41 159.67 334.52 160.45 336.51
  Q 162.55 341.84 164.97 347.31"
/>
<path stroke="#9695ac" vector-effect="non-scaling-stroke" d="
  M 222.61 312.50
  Q 222.60 313.54 221.99 313.53
  Q 213.35 313.41 198.84 313.64
  Q 198.28 313.64 198.29 314.20
  L 198.36 318.06"
/>
<path stroke="#f7eadd" vector-effect="non-scaling-stroke" d="
  M 222.93 302.93
  Q 219.79 300.83 217.78 301.36
  A 1.19 1.18 -12.0 0 1 216.31 300.41
  Q 215.79 297.23 214.13 294.25"
/>
<path stroke="#808b90" vector-effect="non-scaling-stroke" d="
  M 253.19 391.08
  L 254.43 428.65
  Q 254.44 429.06 254.85 429.12
  Q 263.16 430.21 271.53 429.55
  Q 272.06 429.51 272.09 428.97
  L 272.34 423.60"
/>
<path stroke="#cad0ea" vector-effect="non-scaling-stroke" d="
  M 274.89 426.81
  L 272.94 434.19"
/>
<path stroke="#868e98" vector-effect="non-scaling-stroke" d="
  M 272.94 434.19
  Q 265.76 429.10 257.02 432.08
  C 253.41 433.31 253.72 435.26 254.00 438.61
  A 0.35 0.34 17.8 0 1 253.43 438.90
  Q 251.48 437.25 248.92 436.31"
/>
<path stroke="#8589a4" vector-effect="non-scaling-stroke" d="
  M 248.92 436.31
  L 248.92 431.80
  Q 248.91 431.20 248.32 431.11
  L 198.78 423.25
  Q 197.75 423.08 197.75 422.03
  L 197.76 417.30
  Q 197.76 416.34 198.69 416.57
  Q 200.78 417.08 200.79 416.25
  Q 200.98 399.50 201.04 382.71
  Q 201.05 382.22 201.54 382.22
  L 205.36 382.24
  A 0.87 0.86 0.3 0 0 206.23 381.39
  L 206.29 377.79
  A 0.72 0.72 0.0 0 1 207.00 377.08
  L 227.53 376.91"
/>
<path stroke="#a0a0cd" vector-effect="non-scaling-stroke" d="
  M 165.16 364.03
  Q 162.46 363.88 159.95 363.97
  C 151.97 364.26 152.69 377.20 159.75 377.22
  Q 171.56 377.26 183.38 377.25
  C 183.94 377.25 184.35 377.57 184.59 378.03"
/>
<path stroke="#8589a4" vector-effect="non-scaling-stroke" d="
  M 184.59 378.03
  L 184.58 381.38
  A 0.85 0.85 0.0 0 0 185.44 382.23
  L 189.22 382.21
  A 0.51 0.51 0.0 0 1 189.74 382.72
  L 189.72 416.25
  A 0.51 0.49 87.9 0 0 190.25 416.76
  L 191.68 416.66
  A 0.53 0.53 0.0 0 1 192.25 417.19
  L 192.26 422.51
  A 0.77 0.76 -5.5 0 1 191.64 423.26
  L 164.79 428.47"
/>
<path stroke="#1a2d30" vector-effect="non-scaling-stroke" d="
  M 223.76 334.50
  L 221.27 334.60
  Q 220.87 334.61 220.88 335.01
  Q 220.88 335.16 220.88 335.31
  Q 220.87 335.86 221.36 336.10
  Q 228.59 339.68 232.64 340.65
  Q 244.87 343.57 256.12 349.11
  C 265.30 353.64 266.99 360.00 271.32 368.67
  C 271.80 369.63 271.79 370.79 272.14 371.60
  Q 272.50 372.41 273.54 372.03"
/>
<path stroke="#65728a" vector-effect="non-scaling-stroke" d="
  M 285.41 426.72
  L 278.06 430.57
  A 0.85 0.84 60.8 0 1 276.95 430.25
  L 274.89 426.81"
/>
<path stroke="#8999a0" vector-effect="non-scaling-stroke" d="
  M 274.89 426.81
  Q 274.03 423.94 272.34 423.60"
/>
<path stroke="#1a2d30" vector-effect="non-scaling-stroke" d="
  M 272.34 423.60
  Q 272.02 421.61 270.79 419.47
  Q 264.67 408.76 258.87 397.87
  C 257.63 395.54 256.08 393.34 254.74 390.99
  Q 254.49 390.54 254.03 390.78
  Q 253.57 391.02 253.19 391.08"
/>
<path stroke="#8999a0" vector-effect="non-scaling-stroke" d="
  M 253.19 391.08
  Q 253.30 387.56 252.12 385.39
  Q 248.47 378.65 244.70 371.98
  C 243.20 369.33 234.52 367.81 231.54 367.33
  Q 231.00 367.24 231.11 367.77
  C 231.93 371.80 231.72 374.90 227.53 376.91"
/>
<path stroke="#1f2a44" vector-effect="non-scaling-stroke" d="
  M 227.53 376.91
  Q 227.71 375.71 223.98 376.04"
/>
<path stroke="#3a416d" vector-effect="non-scaling-stroke" d="
  M 223.98 376.04
  Q 227.95 376.23 229.57 374.64
  Q 230.61 373.62 230.28 372.35
  C 229.80 370.56 229.69 369.97 230.13 368.39
  Q 230.50 367.07 229.15 366.84
  C 214.84 364.37 201.02 365.81 186.63 366.05
  Q 179.63 366.17 173.72 363.91"
/>
<path stroke="#1f2a44" vector-effect="non-scaling-stroke" d="
  M 173.72 363.91
  Q 170.69 360.13 169.73 355.96"
/>
<path stroke="#363171" vector-effect="non-scaling-stroke" d="
  M 223.98 376.04
  Q 216.30 375.96 208.50 376.04
  C 206.67 376.05 204.85 377.00 202.62 377.10
  Q 191.90 377.59 185.70 377.42
  Q 185.33 377.41 185.09 377.58
  Q 184.81 377.76 184.59 378.03"
/>
<path stroke="#363171" vector-effect="non-scaling-stroke" d="
  M 173.72 363.91
  L 165.16 364.03"
/>
<path stroke="#8589a4" vector-effect="non-scaling-stroke" d="
  M 165.16 364.03
  L 161.61 355.40"
/>
<path stroke="#889cca" vector-effect="non-scaling-stroke" d="
  M 291.2205 136.6364
  A 1.20 1.20 0.0 0 0 290.0226 135.4343
  L 262.1227 135.3857
  A 1.20 1.20 0.0 0 0 260.9206 136.5836
  L 260.9195 137.2036
  A 1.20 1.20 0.0 0 0 262.1174 138.4057
  L 290.0173 138.4543
  A 1.20 1.20 0.0 0 0 291.2194 137.2564
  L 291.2205 136.6364"
/>
<path stroke="#806da3" vector-effect="non-scaling-stroke" d="
  M 345.67 142.44
  A 1.50 1.50 0.0 0 0 344.17 140.94
  L 288.63 140.94
  A 1.50 1.50 0.0 0 0 287.13 142.44
  L 287.13 142.48
  A 1.50 1.50 0.0 0 0 288.63 143.98
  L 344.17 143.98
  A 1.50 1.50 0.0 0 0 345.67 142.48
  L 345.67 142.44"
/>
<path stroke="#889cca" vector-effect="non-scaling-stroke" d="
  M 280.2206 142.3347
  A 1.31 1.31 0.0 0 0 278.9152 141.0202
  L 261.6353 140.9598
  A 1.31 1.31 0.0 0 0 260.3207 142.2653
  L 260.3194 142.6453
  A 1.31 1.31 0.0 0 0 261.6248 143.9598
  L 278.9047 144.0202
  A 1.31 1.31 0.0 0 0 280.2193 142.7147
  L 280.2206 142.3347"
/>
<path stroke="#889cca" vector-effect="non-scaling-stroke" d="
  M 369.8995 142.1733
  A 1.21 1.21 0.0 0 0 368.6874 140.9654
  L 351.9674 140.9946
  A 1.21 1.21 0.0 0 0 350.7595 142.2067
  L 350.7605 142.7867
  A 1.21 1.21 0.0 0 0 351.9726 143.9946
  L 368.6926 143.9654
  A 1.21 1.21 0.0 0 0 369.9005 142.7533
  L 369.8995 142.1733"
/>
<path stroke="#2869aa" vector-effect="non-scaling-stroke" d="
  M 391.4483 142.0947
  A 0.94 0.94 0.0 0 0 390.5033 141.1596
  L 382.7035 141.2004
  A 0.94 0.94 0.0 0 0 381.7684 142.1453
  L 381.7717 142.7853
  A 0.94 0.94 0.0 0 0 382.7167 143.7204
  L 390.5165 143.6796
  A 0.94 0.94 0.0 0 0 391.4516 142.7347
  L 391.4483 142.0947"
/>
<path stroke="#889cca" vector-effect="non-scaling-stroke" d="
  M 288.9993 148.4228
  A 1.17 1.17 0.0 0 0 287.8273 147.2548
  L 270.4073 147.2852
  A 1.17 1.17 0.0 0 0 269.2394 148.4572
  L 269.2407 149.1972
  A 1.17 1.17 0.0 0 0 270.4127 150.3652
  L 287.8327 150.3348
  A 1.17 1.17 0.0 0 0 289.0006 149.1628
  L 288.9993 148.4228"
/>
<path stroke="#806da3" vector-effect="non-scaling-stroke" d="
  M 326.0310 154.1061
  A 1.00 1.00 0.0 0 0 325.0327 153.1044
  L 308.5528 153.0756
  A 1.00 1.00 0.0 0 0 307.5510 154.0739
  L 307.5490 155.2339
  A 1.00 1.00 0.0 0 0 308.5473 156.2356
  L 325.0272 156.2644
  A 1.00 1.00 0.0 0 0 326.0290 155.2661
  L 326.0310 154.1061"
/>
<path stroke="#889cca" vector-effect="non-scaling-stroke" d="
  M 303.84 154.38
  A 1.15 1.15 0.0 0 0 302.69 153.23
  L 279.39 153.23
  A 1.15 1.15 0.0 0 0 278.24 154.38
  L 278.24 155.06
  A 1.15 1.15 0.0 0 0 279.39 156.21
  L 302.69 156.21
  A 1.15 1.15 0.0 0 0 303.84 155.06
  L 303.84 154.38"
/>
<path stroke="#806da3" vector-effect="non-scaling-stroke" d="
  M 353.6899 160.4564
  A 1.64 1.64 0.0 0 0 352.0470 158.8192
  L 305.3471 158.9008
  A 1.64 1.64 0.0 0 0 303.7100 160.5436
  L 303.7101 160.6036
  A 1.64 1.64 0.0 0 0 305.3530 162.2408
  L 352.0529 162.1592
  A 1.64 1.64 0.0 0 0 353.6900 160.5164
  L 353.6899 160.4564"
/>
<path stroke="#889cca" vector-effect="non-scaling-stroke" d="
  M 298.50 160.01
  A 1.01 1.01 0.0 0 0 297.49 159.00
  L 278.85 159.00
  A 1.01 1.01 0.0 0 0 277.84 160.01
  L 277.84 161.03
  A 1.01 1.01 0.0 0 0 278.85 162.04
  L 297.49 162.04
  A 1.01 1.01 0.0 0 0 298.50 161.03
  L 298.50 160.01"
/>
<path stroke="#908fa7" vector-effect="non-scaling-stroke" d="
  M 367.2480 159.8326
  A 0.88 0.88 0.0 0 0 366.3649 158.9557
  L 358.1650 158.9843
  A 0.88 0.88 0.0 0 0 357.2880 159.8674
  L 357.2920 161.0074
  A 0.88 0.88 0.0 0 0 358.1751 161.8843
  L 366.3750 161.8557
  A 0.88 0.88 0.0 0 0 367.2520 160.9726
  L 367.2480 159.8326"
/>
<path stroke="#806da3" vector-effect="non-scaling-stroke" d="
  M 392.2022 160.1221
  A 1.09 1.09 0.0 0 0 391.1180 159.0264
  L 369.5983 158.9137
  A 1.09 1.09 0.0 0 0 368.5026 159.9980
  L 368.4978 160.9179
  A 1.09 1.09 0.0 0 0 369.5820 162.0136
  L 391.1017 162.1263
  A 1.09 1.09 0.0 0 0 392.1974 161.0420
  L 392.2022 160.1221"
/>
<path stroke="#889cca" vector-effect="non-scaling-stroke" d="
  M 330.79 166.31
  A 1.57 1.57 0.0 0 0 329.22 164.74
  L 279.66 164.74
  A 1.57 1.57 0.0 0 0 278.09 166.31
  L 278.09 166.37
  A 1.57 1.57 0.0 0 0 279.66 167.94
  L 329.22 167.94
  A 1.57 1.57 0.0 0 0 330.79 166.37
  L 330.79 166.31"
/>
<path stroke="#889cca" vector-effect="non-scaling-stroke" d="
  M 283.7120 172.1560
  A 0.91 0.91 0.0 0 0 282.8052 171.2428
  L 269.7452 171.1972
  A 0.91 0.91 0.0 0 0 268.8321 172.1040
  L 268.8280 173.2640
  A 0.91 0.91 0.0 0 0 269.7348 174.1772
  L 282.7948 174.2228
  A 0.91 0.91 0.0 0 0 283.7079 173.3160
  L 283.7120 172.1560"
/>
<path stroke="#889cca" vector-effect="non-scaling-stroke" d="
  M 291.13 177.73
  A 0.94 0.94 0.0 0 0 290.19 176.79
  L 269.85 176.79
  A 0.94 0.94 0.0 0 0 268.91 177.73
  L 268.91 178.85
  A 0.94 0.94 0.0 0 0 269.85 179.79
  L 290.19 179.79
  A 0.94 0.94 0.0 0 0 291.13 178.85
  L 291.13 177.73"
/>
<path stroke="#889cca" vector-effect="non-scaling-stroke" d="
  M 347.21 178.02
  A 1.23 1.23 0.0 0 0 345.98 176.79
  L 297.96 176.79
  A 1.23 1.23 0.0 0 0 296.73 178.02
  L 296.73 178.76
  A 1.23 1.23 0.0 0 0 297.96 179.99
  L 345.98 179.99
  A 1.23 1.23 0.0 0 0 347.21 178.76
  L 347.21 178.02"
/>
<path stroke="#2869aa" vector-effect="non-scaling-stroke" d="
  M 326.4495 183.9612
  A 1.41 1.41 0.0 0 0 325.0370 182.5536
  L 317.7170 182.5664
  A 1.41 1.41 0.0 0 0 316.3095 183.9788
  L 316.3105 184.5988
  A 1.41 1.41 0.0 0 0 317.7230 186.0064
  L 325.0430 185.9936
  A 1.41 1.41 0.0 0 0 326.4505 184.5812
  L 326.4495 183.9612"
/>
<path stroke="#889cca" vector-effect="non-scaling-stroke" d="
  M 312.2889 183.9902
  A 1.26 1.26 0.0 0 0 311.0245 182.7346
  L 279.2847 182.8454
  A 1.26 1.26 0.0 0 0 278.0291 184.1098
  L 278.0311 184.6898
  A 1.26 1.26 0.0 0 0 279.2955 185.9454
  L 311.0353 185.8346
  A 1.26 1.26 0.0 0 0 312.2909 184.5702
  L 312.2889 183.9902"
/>
<path stroke="#806da3" vector-effect="non-scaling-stroke" d="
  M 330.78 190.04
  A 1.24 1.24 0.0 0 0 329.54 188.80
  L 310.68 188.80
  A 1.24 1.24 0.0 0 0 309.44 190.04
  L 309.44 190.76
  A 1.24 1.24 0.0 0 0 310.68 192.00
  L 329.54 192.00
  A 1.24 1.24 0.0 0 0 330.78 190.76
  L 330.78 190.04"
/>
<path stroke="#889cca" vector-effect="non-scaling-stroke" d="
  M 305.7090 189.8938
  A 0.97 0.97 0.0 0 0 304.7373 188.9255
  L 288.1573 188.9545
  A 0.97 0.97 0.0 0 0 287.1890 189.9262
  L 287.1910 191.0462
  A 0.97 0.97 0.0 0 0 288.1627 192.0145
  L 304.7427 191.9855
  A 0.97 0.97 0.0 0 0 305.7110 191.0138
  L 305.7090 189.8938"
/>
<path stroke="#889cca" vector-effect="non-scaling-stroke" d="
  M 354.23 190.09
  A 1.13 1.13 0.0 0 0 353.10 188.96
  L 336.50 188.96
  A 1.13 1.13 0.0 0 0 335.37 190.09
  L 335.37 190.87
  A 1.13 1.13 0.0 0 0 336.50 192.00
  L 353.10 192.00
  A 1.13 1.13 0.0 0 0 354.23 190.87
  L 354.23 190.09"
/>
<path stroke="#2869aa" vector-effect="non-scaling-stroke" d="
  M 365.9295 190.1226
  A 1.16 1.16 0.0 0 0 364.7674 188.9646
  L 358.6274 188.9754
  A 1.16 1.16 0.0 0 0 357.4695 190.1374
  L 357.4705 190.7574
  A 1.16 1.16 0.0 0 0 358.6326 191.9154
  L 364.7726 191.9046
  A 1.16 1.16 0.0 0 0 365.9305 190.7426
  L 365.9295 190.1226"
/>
<path stroke="#6475b4" vector-effect="non-scaling-stroke" d="
  M 316.1621 195.9537
  A 1.09 1.09 0.0 0 0 315.0778 194.8580
  L 296.7381 194.7620
  A 1.09 1.09 0.0 0 0 295.6424 195.8463
  L 295.6379 196.7063
  A 1.09 1.09 0.0 0 0 296.7222 197.8020
  L 315.0619 197.8980
  A 1.09 1.09 0.0 0 0 316.1576 196.8137
  L 316.1621 195.9537"
/>
<path stroke="#806da3" vector-effect="non-scaling-stroke" d="
  M 348.7688 195.6542
  A 0.94 0.94 0.0 0 0 347.8272 194.7158
  L 320.1072 194.7642
  A 0.94 0.94 0.0 0 0 319.1689 195.7058
  L 319.1712 197.0258
  A 0.94 0.94 0.0 0 0 320.1128 197.9642
  L 347.8328 197.9158
  A 0.94 0.94 0.0 0 0 348.7711 196.9742
  L 348.7688 195.6542"
/>
<path stroke="#6475b4" vector-effect="non-scaling-stroke" d="
  M 370.6737 195.6937
  A 0.77 0.77 0.0 0 0 369.9077 194.9197
  L 350.9480 194.8204
  A 0.77 0.77 0.0 0 0 350.1740 195.5863
  L 350.1663 197.0463
  A 0.77 0.77 0.0 0 0 350.9323 197.8203
  L 369.8920 197.9196
  A 0.77 0.77 0.0 0 0 370.6660 197.1537
  L 370.6737 195.6937"
/>
<path stroke="#2869aa" vector-effect="non-scaling-stroke" d="
  M 382.1519 196.1939
  A 1.03 1.03 0.0 0 0 381.1363 195.1496
  L 375.4769 195.0706
  A 1.03 1.03 0.0 0 0 374.4326 196.0861
  L 374.4281 196.4061
  A 1.03 1.03 0.0 0 0 375.4437 197.4504
  L 381.1031 197.5294
  A 1.03 1.03 0.0 0 0 382.1474 196.5139
  L 382.1519 196.1939"
/>
<path stroke="#889cca" vector-effect="non-scaling-stroke" d="
  M 321.8507 202.0030
  A 1.04 1.04 0.0 0 0 320.8125 200.9612
  L 296.5325 200.9188
  A 1.04 1.04 0.0 0 0 295.4907 201.9570
  L 295.4893 202.7570
  A 1.04 1.04 0.0 0 0 296.5275 203.7988
  L 320.8075 203.8412
  A 1.04 1.04 0.0 0 0 321.8493 202.8030
  L 321.8507 202.0030"
/>
<path stroke="#889cca" vector-effect="non-scaling-stroke" d="
  M 333.5631 201.9407
  A 0.95 0.95 0.0 0 0 332.6198 200.9841
  L 325.7199 200.9359
  A 0.95 0.95 0.0 0 0 324.7633 201.8793
  L 324.7569 202.7993
  A 0.95 0.95 0.0 0 0 325.7002 203.7559
  L 332.6001 203.8041
  A 0.95 0.95 0.0 0 0 333.5567 202.8607
  L 333.5631 201.9407"
/>
<path stroke="#889cca" vector-effect="non-scaling-stroke" d="
  M 391.72 202.29
  A 1.31 1.31 0.0 0 0 390.41 200.98
  L 337.75 200.98
  A 1.31 1.31 0.0 0 0 336.44 202.29
  L 336.44 202.47
  A 1.31 1.31 0.0 0 0 337.75 203.78
  L 390.41 203.78
  A 1.31 1.31 0.0 0 0 391.72 202.47
  L 391.72 202.29"
/>
<path stroke="#889cca" vector-effect="non-scaling-stroke" d="
  M 307.4817 207.9060
  A 1.09 1.09 0.0 0 0 306.3955 206.8122
  L 287.9556 206.7478
  A 1.09 1.09 0.0 0 0 286.8618 207.8340
  L 286.8583 208.8540
  A 1.09 1.09 0.0 0 0 287.9445 209.9478
  L 306.3844 210.0122
  A 1.09 1.09 0.0 0 0 307.4782 208.9260
  L 307.4817 207.9060"
/>
<path stroke="#889cca" vector-effect="non-scaling-stroke" d="
  M 292.2308 214.0020
  A 1.02 1.02 0.0 0 0 291.2126 212.9802
  L 279.5126 212.9598
  A 1.02 1.02 0.0 0 0 278.4908 213.9780
  L 278.4892 214.9380
  A 1.02 1.02 0.0 0 0 279.5074 215.9598
  L 291.2074 215.9802
  A 1.02 1.02 0.0 0 0 292.2292 214.9620
  L 292.2308 214.0020"
/>
<path stroke="#806da3" vector-effect="non-scaling-stroke" d="
  M 330.0490 219.9990
  A 1.18 1.18 0.0 0 0 328.8669 218.8211
  L 307.1669 218.8589
  A 1.18 1.18 0.0 0 0 305.9890 220.0410
  L 305.9910 221.2210
  A 1.18 1.18 0.0 0 0 307.1731 222.3989
  L 328.8731 222.3611
  A 1.18 1.18 0.0 0 0 330.0510 221.1790
  L 330.0490 219.9990"
/>
<path stroke="#889cca" vector-effect="non-scaling-stroke" d="
  M 302.7508 220.1212
  A 1.10 1.10 0.0 0 0 301.6528 219.0193
  L 279.5928 218.9808
  A 1.10 1.10 0.0 0 0 278.4909 220.0788
  L 278.4892 221.0588
  A 1.10 1.10 0.0 0 0 279.5872 222.1607
  L 301.6472 222.1992
  A 1.10 1.10 0.0 0 0 302.7491 221.1012
  L 302.7508 220.1212"
/>
<path stroke="#6475b4" vector-effect="non-scaling-stroke" d="
  M 363.2597 220.4041
  A 1.38 1.38 0.0 0 0 361.8773 219.0265
  L 334.9173 219.0735
  A 1.38 1.38 0.0 0 0 333.5397 220.4559
  L 333.5403 220.7959
  A 1.38 1.38 0.0 0 0 334.9227 222.1735
  L 361.8827 222.1265
  A 1.38 1.38 0.0 0 0 363.2603 220.7441
  L 363.2597 220.4041"
/>
<path stroke="#889cca" vector-effect="non-scaling-stroke" d="
  M 302.81 225.50
  A 1.23 1.23 0.0 0 0 301.58 224.27
  L 288.08 224.27
  A 1.23 1.23 0.0 0 0 286.85 225.50
  L 286.85 226.08
  A 1.23 1.23 0.0 0 0 288.08 227.31
  L 301.58 227.31
  A 1.23 1.23 0.0 0 0 302.81 226.08
  L 302.81 225.50"
/>
<path stroke="#889cca" vector-effect="non-scaling-stroke" d="
  M 391.74 225.71
  A 1.46 1.46 0.0 0 0 390.28 224.25
  L 307.44 224.25
  A 1.46 1.46 0.0 0 0 305.98 225.71
  L 305.98 225.91
  A 1.46 1.46 0.0 0 0 307.44 227.37
  L 390.28 227.37
  A 1.46 1.46 0.0 0 0 391.74 225.91
  L 391.74 225.71"
/>
<path stroke="#889cca" vector-effect="non-scaling-stroke" d="
  M 293.6710 231.5667
  A 1.06 1.06 0.0 0 0 292.6147 230.5030
  L 279.4548 230.4570
  A 1.06 1.06 0.0 0 0 278.3911 231.5133
  L 278.3890 232.1333
  A 1.06 1.06 0.0 0 0 279.4453 233.1970
  L 292.6052 233.2430
  A 1.06 1.06 0.0 0 0 293.6689 232.1867
  L 293.6710 231.5667"
/>
<path stroke="#806da3" vector-effect="non-scaling-stroke" d="
  M 322.0303 237.7620
  A 1.47 1.47 0.0 0 0 320.5628 236.2894
  L 298.3029 236.2506
  A 1.47 1.47 0.0 0 0 296.8303 237.7180
  L 296.8297 238.0380
  A 1.47 1.47 0.0 0 0 298.2972 239.5106
  L 320.5571 239.5494
  A 1.47 1.47 0.0 0 0 322.0297 238.0820
  L 322.0303 237.7620"
/>
<path stroke="#2869aa" vector-effect="non-scaling-stroke" d="
  M 343.5906 237.7732
  A 1.44 1.44 0.0 0 0 342.1556 236.3282
  L 326.0157 236.2718
  A 1.44 1.44 0.0 0 0 324.5707 237.7068
  L 324.5694 238.0668
  A 1.44 1.44 0.0 0 0 326.0044 239.5118
  L 342.1443 239.5682
  A 1.44 1.44 0.0 0 0 343.5893 238.1332
  L 343.5906 237.7732"
/>
<path stroke="#889cca" vector-effect="non-scaling-stroke" d="
  M 292.9770 237.3407
  A 0.88 0.88 0.0 0 0 292.0924 236.4653
  L 278.8326 236.5347
  A 0.88 0.88 0.0 0 0 277.9572 237.4193
  L 277.9630 238.5193
  A 0.88 0.88 0.0 0 0 278.8476 239.3947
  L 292.1074 239.3253
  A 0.88 0.88 0.0 0 0 292.9828 238.4407
  L 292.9770 237.3407"
/>
<path stroke="#2869aa" vector-effect="non-scaling-stroke" d="
  M 357.7647 237.6770
  A 1.18 1.18 0.0 0 0 356.5971 236.4848
  L 349.9775 236.4154
  A 1.18 1.18 0.0 0 0 348.7852 237.5830
  L 348.7753 238.5230
  A 1.18 1.18 0.0 0 0 349.9429 239.7152
  L 356.5625 239.7846
  A 1.18 1.18 0.0 0 0 357.7548 238.6170
  L 357.7647 237.6770"
/>
<path stroke="#889cca" vector-effect="non-scaling-stroke" d="
  M 308.2297 243.6613
  A 1.37 1.37 0.0 0 0 306.8573 242.2937
  L 288.1573 242.3263
  A 1.37 1.37 0.0 0 0 286.7897 243.6987
  L 286.7903 244.0387
  A 1.37 1.37 0.0 0 0 288.1627 245.4063
  L 306.8627 245.3737
  A 1.37 1.37 0.0 0 0 308.2303 244.0013
  L 308.2297 243.6613"
/>
<path stroke="#806da3" vector-effect="non-scaling-stroke" d="
  M 340.1995 243.6557
  A 1.36 1.36 0.0 0 0 338.8372 242.2980
  L 313.6572 242.3420
  A 1.36 1.36 0.0 0 0 312.2996 243.7043
  L 312.3005 244.2243
  A 1.36 1.36 0.0 0 0 313.6628 245.5820
  L 338.8428 245.5380
  A 1.36 1.36 0.0 0 0 340.2004 244.1757
  L 340.1995 243.6557"
/>
<path stroke="#908fa7" vector-effect="non-scaling-stroke" d="
  M 359.5493 243.7289
  A 1.49 1.49 0.0 0 0 358.0463 242.2519
  L 344.7268 242.3682
  A 1.49 1.49 0.0 0 0 343.2499 243.8711
  L 343.2507 243.9711
  A 1.49 1.49 0.0 0 0 344.7537 245.4481
  L 358.0732 245.3318
  A 1.49 1.49 0.0 0 0 359.5501 243.8289
  L 359.5493 243.7289"
/>
<path stroke="#889cca" vector-effect="non-scaling-stroke" d="
  M 341.9702 249.5780
  A 1.44 1.44 0.0 0 0 340.5327 248.1355
  L 288.4328 248.0445
  A 1.44 1.44 0.0 0 0 286.9903 249.4820
  L 286.9898 249.7220
  A 1.44 1.44 0.0 0 0 288.4273 251.1645
  L 340.5272 251.2555
  A 1.44 1.44 0.0 0 0 341.9697 249.8180
  L 341.9702 249.5780"
/>
<path stroke="#889cca" vector-effect="non-scaling-stroke" d="
  M 391.78 249.70
  A 1.46 1.46 0.0 0 0 390.32 248.24
  L 354.64 248.24
  A 1.46 1.46 0.0 0 0 353.18 249.70
  L 353.18 249.74
  A 1.46 1.46 0.0 0 0 354.64 251.20
  L 390.32 251.20
  A 1.46 1.46 0.0 0 0 391.78 249.74
  L 391.78 249.70"
/>
<path stroke="#8da2cf" vector-effect="non-scaling-stroke" d="
  M 232.7304 136.7513
  A 1.26 1.26 0.0 0 0 231.4748 135.4870
  L 216.0349 135.4331
  A 1.26 1.26 0.0 0 0 214.7705 136.6887
  L 214.7696 136.9287
  A 1.26 1.26 0.0 0 0 216.0252 138.1930
  L 231.4651 138.2469
  A 1.26 1.26 0.0 0 0 232.7295 136.9913
  L 232.7304 136.7513"
/>
<path stroke="#8da2cf" vector-effect="non-scaling-stroke" d="
  M 241.4599 143.2667
  A 1.40 1.40 0.0 0 0 240.0575 141.8692
  L 216.1975 141.9108
  A 1.40 1.40 0.0 0 0 214.8000 143.3133
  L 214.8001 143.3733
  A 1.40 1.40 0.0 0 0 216.2025 144.7708
  L 240.0625 144.7292
  A 1.40 1.40 0.0 0 0 241.4600 143.3267
  L 241.4599 143.2667"
/>
<path stroke="#8da2cf" vector-effect="non-scaling-stroke" d="
  M 236.9801 149.9593
  A 1.44 1.44 0.0 0 0 235.5426 148.5168
  L 216.3026 148.4832
  A 1.44 1.44 0.0 0 0 214.8601 149.9207
  L 214.8599 150.0007
  A 1.44 1.44 0.0 0 0 216.2974 151.4432
  L 235.5374 151.4768
  A 1.44 1.44 0.0 0 0 236.9799 150.0393
  L 236.9801 149.9593"
/>
<path stroke="#8da2cf" vector-effect="non-scaling-stroke" d="
  M 226.08 156.45
  A 1.17 1.17 0.0 0 0 224.91 155.28
  L 215.91 155.28
  A 1.17 1.17 0.0 0 0 214.74 156.45
  L 214.74 156.69
  A 1.17 1.17 0.0 0 0 215.91 157.86
  L 224.91 157.86
  A 1.17 1.17 0.0 0 0 226.08 156.69
  L 226.08 156.45"
/>
<path stroke="#8da2cf" vector-effect="non-scaling-stroke" d="
  M 229.3159 162.8313
  A 1.06 1.06 0.0 0 0 228.2430 161.7844
  L 215.8440 161.9358
  A 1.06 1.06 0.0 0 0 214.7970 163.0087
  L 214.8041 163.5887
  A 1.06 1.06 0.0 0 0 215.8770 164.6356
  L 228.2760 164.4842
  A 1.06 1.06 0.0 0 0 229.3230 163.4113
  L 229.3159 162.8313"
/>
<path stroke="#8da2cf" vector-effect="non-scaling-stroke" d="
  M 235.6299 169.7218
  A 1.39 1.39 0.0 0 0 234.2375 168.3342
  L 216.1175 168.3658
  A 1.39 1.39 0.0 0 0 214.7299 169.7582
  L 214.7301 169.8382
  A 1.39 1.39 0.0 0 0 216.1225 171.2258
  L 234.2425 171.1942
  A 1.39 1.39 0.0 0 0 235.6301 169.8018
  L 235.6299 169.7218"
/>
<path stroke="#8da2cf" vector-effect="non-scaling-stroke" d="
  M 229.6295 176.1170
  A 1.04 1.04 0.0 0 0 228.5877 175.0788
  L 215.7477 175.1012
  A 1.04 1.04 0.0 0 0 214.7095 176.1430
  L 214.7105 176.7030
  A 1.04 1.04 0.0 0 0 215.7523 177.7412
  L 228.5923 177.7188
  A 1.04 1.04 0.0 0 0 229.6305 176.6770
  L 229.6295 176.1170"
/>
<path stroke="#8da2cf" vector-effect="non-scaling-stroke" d="
  M 242.2375 182.5381
  A 1.04 1.04 0.0 0 0 241.1921 181.5036
  L 215.8124 181.6365
  A 1.04 1.04 0.0 0 0 214.7779 182.6819
  L 214.7825 183.5619
  A 1.04 1.04 0.0 0 0 215.8279 184.5964
  L 241.2076 184.4635
  A 1.04 1.04 0.0 0 0 242.2421 183.4181
  L 242.2375 182.5381"
/>
<path stroke="#8da2cf" vector-effect="non-scaling-stroke" d="
  M 232.8401 189.6158
  A 1.37 1.37 0.0 0 0 231.4725 188.2435
  L 216.0525 188.2165
  A 1.37 1.37 0.0 0 0 214.6801 189.5842
  L 214.6799 189.7042
  A 1.37 1.37 0.0 0 0 216.0475 191.0765
  L 231.4675 191.1035
  A 1.37 1.37 0.0 0 0 232.8399 189.7358
  L 232.8401 189.6158"
/>
<path stroke="#8da2cf" vector-effect="non-scaling-stroke" d="
  M 243.01 195.81
  A 1.11 1.11 0.0 0 0 241.90 194.70
  L 215.86 194.70
  A 1.11 1.11 0.0 0 0 214.75 195.81
  L 214.75 196.39
  A 1.11 1.11 0.0 0 0 215.86 197.50
  L 241.90 197.50
  A 1.11 1.11 0.0 0 0 243.01 196.39
  L 243.01 195.81"
/>
<path stroke="#8da2cf" vector-effect="non-scaling-stroke" d="
  M 234.4406 202.3572
  A 1.13 1.13 0.0 0 0 233.3126 201.2253
  L 215.8126 201.1947
  A 1.13 1.13 0.0 0 0 214.6806 202.3228
  L 214.6794 203.0428
  A 1.13 1.13 0.0 0 0 215.8074 204.1747
  L 233.3074 204.2053
  A 1.13 1.13 0.0 0 0 234.4394 203.0772
  L 234.4406 202.3572"
/>
<path stroke="#8da2cf" vector-effect="non-scaling-stroke" d="
  M 226.4822 208.6905
  A 0.82 0.82 0.0 0 0 225.6651 207.8676
  L 215.5651 207.8324
  A 0.82 0.82 0.0 0 0 214.7423 208.6495
  L 214.7378 209.9295
  A 0.82 0.82 0.0 0 0 215.5549 210.7524
  L 225.6549 210.7876
  A 0.82 0.82 0.0 0 0 226.4777 209.9705
  L 226.4822 208.6905"
/>
<path stroke="#c2daf2" vector-effect="non-scaling-stroke" d="
  M 264.18 280.90
  A 1.93 1.93 0.0 0 0 260.53 280.42
  L 258.69 284.40
  A 1.93 1.93 0.0 0 0 258.65 285.93
  L 259.84 288.90
  A 1.93 1.93 0.0 0 0 262.26 290.00
  L 263.99 289.40
  A 1.93 1.93 0.0 0 0 265.27 287.26
  L 264.18 280.90"
/>
<path stroke="#8793b2" vector-effect="non-scaling-stroke" d="
  M 212.82 271.98
  A 1.31 1.31 0.0 0 0 211.51 270.67
  A 1.31 1.31 0.0 0 0 210.20 271.98
  A 1.31 1.31 0.0 0 0 211.51 273.29
  A 1.31 1.31 0.0 0 0 212.82 271.98"
/>
<path stroke="#8793b2" vector-effect="non-scaling-stroke" d="
  M 216.69 271.97
  A 1.30 1.30 0.0 0 0 215.39 270.67
  A 1.30 1.30 0.0 0 0 214.09 271.97
  A 1.30 1.30 0.0 0 0 215.39 273.27
  A 1.30 1.30 0.0 0 0 216.69 271.97"
/>
<path stroke="#a7ccec" vector-effect="non-scaling-stroke" d="
  M 121.1338 302.4860
  A 0.84 0.84 0.0 0 0 120.3176 301.6229
  L 120.2376 301.6207
  A 0.84 0.84 0.0 0 0 119.3745 302.4369
  L 119.1662 309.8940
  A 0.84 0.84 0.0 0 0 119.9824 310.7571
  L 120.0624 310.7593
  A 0.84 0.84 0.0 0 0 120.9255 309.9431
  L 121.1338 302.4860"
/>
<path stroke="#8ec4e0" vector-effect="non-scaling-stroke" d="
  M 107.79 311.87
  L 107.77 305.51
  A 0.52 0.52 0.0 0 0 107.25 304.99
  L 107.06 305.00
  A 3.57 3.54 -0.2 0 0 103.50 308.55
  L 103.50 308.87
  A 3.57 3.54 -0.2 0 0 107.08 312.39
  L 107.27 312.39
  A 0.52 0.52 0.0 0 0 107.79 311.87"
/>
</g>
<path fill="#202f64" d="
  M 403.95 276.20
  L 293.00 276.24
  L 293.69 267.53
  C 307.92 267.77 323.21 267.39 336.24 267.48
  C 356.91 267.63 377.58 267.45 398.25 267.84
  C 408.53 268.04 418.79 267.56 429.06 268.22
  Q 431.39 268.37 431.41 266.04
  C 431.84 218.38 431.83 170.69 431.43 123.04
  A 1.49 1.49 0.0 0 0 429.99 121.56
  C 424.52 121.39 418.31 121.92 413.50 121.91
  Q 354.74 121.80 295.99 121.82
  C 282.26 121.83 264.58 121.23 251.50 121.78
  Q 227.71 122.78 203.90 121.50
  A 1.73 1.73 0.0 0 0 202.08 123.22
  L 201.97 219.80
  Q 201.02 219.28 200.70 218.34
  Q 200.54 217.86 200.15 217.53
  Q 199.11 216.69 198.64 217.59
  L 198.50 143.44
  Q 198.44 133.41 198.76 124.01
  C 198.93 119.12 201.04 117.96 205.75 117.96
  Q 317.24 117.93 428.72 118.01
  C 432.67 118.01 435.12 119.32 435.13 123.50
  Q 435.34 196.00 435.15 268.50
  C 435.13 273.78 433.95 275.92 428.34 275.97
  Q 417.67 276.05 407.00 276.22
  Q 405.73 276.24 403.95 276.20
  Z"
/>
<path fill="#214194" d="
  M 293.69 267.53
  L 294.05 257.51
  A 0.99 0.99 0.0 0 0 293.06 256.48
  L 249.42 256.50
  Q 249.72 255.57 250.39 254.78
  Q 250.76 254.34 250.76 253.77
  L 250.81 129.96
  A 3.83 3.82 89.2 0 0 246.88 126.13
  C 239.66 126.33 232.41 126.35 225.14 126.18
  Q 218.47 126.02 211.82 126.90
  A 2.24 2.24 0.0 0 0 209.87 129.14
  L 210.38 186.85
  A 1.38 1.36 -32.1 0 1 210.22 187.53
  C 209.19 189.55 209.98 196.97 210.11 198.92
  C 210.30 201.79 210.10 204.45 210.09 207.25
  Q 210.08 207.51 209.79 207.64
  Q 209.45 207.81 209.43 208.18
  C 209.11 212.99 209.93 216.43 209.56 220.54
  C 209.30 223.45 210.26 226.09 210.09 229.10
  Q 209.27 243.54 209.34 258.00
  Q 209.35 261.65 212.75 261.48
  Q 220.42 261.09 226.35 262.25
  L 225.81 272.72
  Q 223.61 271.67 224.21 269.71
  A 1.36 1.35 -81.9 0 0 222.89 267.95
  L 205.17 268.29
  L 201.31 264.82
  C 201.23 263.20 200.38 262.36 200.32 260.68
  Q 200.06 252.74 200.20 244.80
  C 200.28 240.67 201.26 236.78 202.12 232.76
  A 2.28 2.26 84.1 0 1 203.42 231.15
  Q 206.70 229.67 209.27 227.17
  A 0.92 0.92 0.0 0 0 208.90 225.63
  Q 207.13 225.09 205.13 224.12
  Q 204.07 223.60 204.42 222.26
  Q 204.56 221.73 204.05 221.54
  Q 202.21 220.82 201.97 219.80
  L 202.08 123.22
  A 1.73 1.73 0.0 0 1 203.90 121.50
  Q 227.71 122.78 251.50 121.78
  C 264.58 121.23 282.26 121.83 295.99 121.82
  Q 354.74 121.80 413.50 121.91
  C 418.31 121.92 424.52 121.39 429.99 121.56
  A 1.49 1.49 0.0 0 1 431.43 123.04
  C 431.83 170.69 431.84 218.38 431.41 266.04
  Q 431.39 268.37 429.06 268.22
  C 418.79 267.56 408.53 268.04 398.25 267.84
  C 377.58 267.45 356.91 267.63 336.24 267.48
  C 323.21 267.39 307.92 267.77 293.69 267.53
  Z
  M 291.2205 136.6364
  A 1.20 1.20 0.0 0 0 290.0226 135.4343
  L 262.1227 135.3857
  A 1.20 1.20 0.0 0 0 260.9206 136.5836
  L 260.9195 137.2036
  A 1.20 1.20 0.0 0 0 262.1174 138.4057
  L 290.0173 138.4543
  A 1.20 1.20 0.0 0 0 291.2194 137.2564
  L 291.2205 136.6364
  Z
  M 345.67 142.44
  A 1.50 1.50 0.0 0 0 344.17 140.94
  L 288.63 140.94
  A 1.50 1.50 0.0 0 0 287.13 142.44
  L 287.13 142.48
  A 1.50 1.50 0.0 0 0 288.63 143.98
  L 344.17 143.98
  A 1.50 1.50 0.0 0 0 345.67 142.48
  L 345.67 142.44
  Z
  M 280.2206 142.3347
  A 1.31 1.31 0.0 0 0 278.9152 141.0202
  L 261.6353 140.9598
  A 1.31 1.31 0.0 0 0 260.3207 142.2653
  L 260.3194 142.6453
  A 1.31 1.31 0.0 0 0 261.6248 143.9598
  L 278.9047 144.0202
  A 1.31 1.31 0.0 0 0 280.2193 142.7147
  L 280.2206 142.3347
  Z
  M 369.8995 142.1733
  A 1.21 1.21 0.0 0 0 368.6874 140.9654
  L 351.9674 140.9946
  A 1.21 1.21 0.0 0 0 350.7595 142.2067
  L 350.7605 142.7867
  A 1.21 1.21 0.0 0 0 351.9726 143.9946
  L 368.6926 143.9654
  A 1.21 1.21 0.0 0 0 369.9005 142.7533
  L 369.8995 142.1733
  Z
  M 391.4483 142.0947
  A 0.94 0.94 0.0 0 0 390.5033 141.1596
  L 382.7035 141.2004
  A 0.94 0.94 0.0 0 0 381.7684 142.1453
  L 381.7717 142.7853
  A 0.94 0.94 0.0 0 0 382.7167 143.7204
  L 390.5165 143.6796
  A 0.94 0.94 0.0 0 0 391.4516 142.7347
  L 391.4483 142.0947
  Z
  M 288.9993 148.4228
  A 1.17 1.17 0.0 0 0 287.8273 147.2548
  L 270.4073 147.2852
  A 1.17 1.17 0.0 0 0 269.2394 148.4572
  L 269.2407 149.1972
  A 1.17 1.17 0.0 0 0 270.4127 150.3652
  L 287.8327 150.3348
  A 1.17 1.17 0.0 0 0 289.0006 149.1628
  L 288.9993 148.4228
  Z
  M 326.0310 154.1061
  A 1.00 1.00 0.0 0 0 325.0327 153.1044
  L 308.5528 153.0756
  A 1.00 1.00 0.0 0 0 307.5510 154.0739
  L 307.5490 155.2339
  A 1.00 1.00 0.0 0 0 308.5473 156.2356
  L 325.0272 156.2644
  A 1.00 1.00 0.0 0 0 326.0290 155.2661
  L 326.0310 154.1061
  Z
  M 303.84 154.38
  A 1.15 1.15 0.0 0 0 302.69 153.23
  L 279.39 153.23
  A 1.15 1.15 0.0 0 0 278.24 154.38
  L 278.24 155.06
  A 1.15 1.15 0.0 0 0 279.39 156.21
  L 302.69 156.21
  A 1.15 1.15 0.0 0 0 303.84 155.06
  L 303.84 154.38
  Z
  M 353.6899 160.4564
  A 1.64 1.64 0.0 0 0 352.0470 158.8192
  L 305.3471 158.9008
  A 1.64 1.64 0.0 0 0 303.7100 160.5436
  L 303.7101 160.6036
  A 1.64 1.64 0.0 0 0 305.3530 162.2408
  L 352.0529 162.1592
  A 1.64 1.64 0.0 0 0 353.6900 160.5164
  L 353.6899 160.4564
  Z
  M 298.50 160.01
  A 1.01 1.01 0.0 0 0 297.49 159.00
  L 278.85 159.00
  A 1.01 1.01 0.0 0 0 277.84 160.01
  L 277.84 161.03
  A 1.01 1.01 0.0 0 0 278.85 162.04
  L 297.49 162.04
  A 1.01 1.01 0.0 0 0 298.50 161.03
  L 298.50 160.01
  Z
  M 367.2480 159.8326
  A 0.88 0.88 0.0 0 0 366.3649 158.9557
  L 358.1650 158.9843
  A 0.88 0.88 0.0 0 0 357.2880 159.8674
  L 357.2920 161.0074
  A 0.88 0.88 0.0 0 0 358.1751 161.8843
  L 366.3750 161.8557
  A 0.88 0.88 0.0 0 0 367.2520 160.9726
  L 367.2480 159.8326
  Z
  M 392.2022 160.1221
  A 1.09 1.09 0.0 0 0 391.1180 159.0264
  L 369.5983 158.9137
  A 1.09 1.09 0.0 0 0 368.5026 159.9980
  L 368.4978 160.9179
  A 1.09 1.09 0.0 0 0 369.5820 162.0136
  L 391.1017 162.1263
  A 1.09 1.09 0.0 0 0 392.1974 161.0420
  L 392.2022 160.1221
  Z
  M 330.79 166.31
  A 1.57 1.57 0.0 0 0 329.22 164.74
  L 279.66 164.74
  A 1.57 1.57 0.0 0 0 278.09 166.31
  L 278.09 166.37
  A 1.57 1.57 0.0 0 0 279.66 167.94
  L 329.22 167.94
  A 1.57 1.57 0.0 0 0 330.79 166.37
  L 330.79 166.31
  Z
  M 283.7120 172.1560
  A 0.91 0.91 0.0 0 0 282.8052 171.2428
  L 269.7452 171.1972
  A 0.91 0.91 0.0 0 0 268.8321 172.1040
  L 268.8280 173.2640
  A 0.91 0.91 0.0 0 0 269.7348 174.1772
  L 282.7948 174.2228
  A 0.91 0.91 0.0 0 0 283.7079 173.3160
  L 283.7120 172.1560
  Z
  M 291.13 177.73
  A 0.94 0.94 0.0 0 0 290.19 176.79
  L 269.85 176.79
  A 0.94 0.94 0.0 0 0 268.91 177.73
  L 268.91 178.85
  A 0.94 0.94 0.0 0 0 269.85 179.79
  L 290.19 179.79
  A 0.94 0.94 0.0 0 0 291.13 178.85
  L 291.13 177.73
  Z
  M 347.21 178.02
  A 1.23 1.23 0.0 0 0 345.98 176.79
  L 297.96 176.79
  A 1.23 1.23 0.0 0 0 296.73 178.02
  L 296.73 178.76
  A 1.23 1.23 0.0 0 0 297.96 179.99
  L 345.98 179.99
  A 1.23 1.23 0.0 0 0 347.21 178.76
  L 347.21 178.02
  Z
  M 326.4495 183.9612
  A 1.41 1.41 0.0 0 0 325.0370 182.5536
  L 317.7170 182.5664
  A 1.41 1.41 0.0 0 0 316.3095 183.9788
  L 316.3105 184.5988
  A 1.41 1.41 0.0 0 0 317.7230 186.0064
  L 325.0430 185.9936
  A 1.41 1.41 0.0 0 0 326.4505 184.5812
  L 326.4495 183.9612
  Z
  M 312.2889 183.9902
  A 1.26 1.26 0.0 0 0 311.0245 182.7346
  L 279.2847 182.8454
  A 1.26 1.26 0.0 0 0 278.0291 184.1098
  L 278.0311 184.6898
  A 1.26 1.26 0.0 0 0 279.2955 185.9454
  L 311.0353 185.8346
  A 1.26 1.26 0.0 0 0 312.2909 184.5702
  L 312.2889 183.9902
  Z
  M 330.78 190.04
  A 1.24 1.24 0.0 0 0 329.54 188.80
  L 310.68 188.80
  A 1.24 1.24 0.0 0 0 309.44 190.04
  L 309.44 190.76
  A 1.24 1.24 0.0 0 0 310.68 192.00
  L 329.54 192.00
  A 1.24 1.24 0.0 0 0 330.78 190.76
  L 330.78 190.04
  Z
  M 305.7090 189.8938
  A 0.97 0.97 0.0 0 0 304.7373 188.9255
  L 288.1573 188.9545
  A 0.97 0.97 0.0 0 0 287.1890 189.9262
  L 287.1910 191.0462
  A 0.97 0.97 0.0 0 0 288.1627 192.0145
  L 304.7427 191.9855
  A 0.97 0.97 0.0 0 0 305.7110 191.0138
  L 305.7090 189.8938
  Z
  M 354.23 190.09
  A 1.13 1.13 0.0 0 0 353.10 188.96
  L 336.50 188.96
  A 1.13 1.13 0.0 0 0 335.37 190.09
  L 335.37 190.87
  A 1.13 1.13 0.0 0 0 336.50 192.00
  L 353.10 192.00
  A 1.13 1.13 0.0 0 0 354.23 190.87
  L 354.23 190.09
  Z
  M 365.9295 190.1226
  A 1.16 1.16 0.0 0 0 364.7674 188.9646
  L 358.6274 188.9754
  A 1.16 1.16 0.0 0 0 357.4695 190.1374
  L 357.4705 190.7574
  A 1.16 1.16 0.0 0 0 358.6326 191.9154
  L 364.7726 191.9046
  A 1.16 1.16 0.0 0 0 365.9305 190.7426
  L 365.9295 190.1226
  Z
  M 316.1621 195.9537
  A 1.09 1.09 0.0 0 0 315.0778 194.8580
  L 296.7381 194.7620
  A 1.09 1.09 0.0 0 0 295.6424 195.8463
  L 295.6379 196.7063
  A 1.09 1.09 0.0 0 0 296.7222 197.8020
  L 315.0619 197.8980
  A 1.09 1.09 0.0 0 0 316.1576 196.8137
  L 316.1621 195.9537
  Z
  M 348.7688 195.6542
  A 0.94 0.94 0.0 0 0 347.8272 194.7158
  L 320.1072 194.7642
  A 0.94 0.94 0.0 0 0 319.1689 195.7058
  L 319.1712 197.0258
  A 0.94 0.94 0.0 0 0 320.1128 197.9642
  L 347.8328 197.9158
  A 0.94 0.94 0.0 0 0 348.7711 196.9742
  L 348.7688 195.6542
  Z
  M 370.6737 195.6937
  A 0.77 0.77 0.0 0 0 369.9077 194.9197
  L 350.9480 194.8204
  A 0.77 0.77 0.0 0 0 350.1740 195.5863
  L 350.1663 197.0463
  A 0.77 0.77 0.0 0 0 350.9323 197.8203
  L 369.8920 197.9196
  A 0.77 0.77 0.0 0 0 370.6660 197.1537
  L 370.6737 195.6937
  Z
  M 382.1519 196.1939
  A 1.03 1.03 0.0 0 0 381.1363 195.1496
  L 375.4769 195.0706
  A 1.03 1.03 0.0 0 0 374.4326 196.0861
  L 374.4281 196.4061
  A 1.03 1.03 0.0 0 0 375.4437 197.4504
  L 381.1031 197.5294
  A 1.03 1.03 0.0 0 0 382.1474 196.5139
  L 382.1519 196.1939
  Z
  M 321.8507 202.0030
  A 1.04 1.04 0.0 0 0 320.8125 200.9612
  L 296.5325 200.9188
  A 1.04 1.04 0.0 0 0 295.4907 201.9570
  L 295.4893 202.7570
  A 1.04 1.04 0.0 0 0 296.5275 203.7988
  L 320.8075 203.8412
  A 1.04 1.04 0.0 0 0 321.8493 202.8030
  L 321.8507 202.0030
  Z
  M 333.5631 201.9407
  A 0.95 0.95 0.0 0 0 332.6198 200.9841
  L 325.7199 200.9359
  A 0.95 0.95 0.0 0 0 324.7633 201.8793
  L 324.7569 202.7993
  A 0.95 0.95 0.0 0 0 325.7002 203.7559
  L 332.6001 203.8041
  A 0.95 0.95 0.0 0 0 333.5567 202.8607
  L 333.5631 201.9407
  Z
  M 391.72 202.29
  A 1.31 1.31 0.0 0 0 390.41 200.98
  L 337.75 200.98
  A 1.31 1.31 0.0 0 0 336.44 202.29
  L 336.44 202.47
  A 1.31 1.31 0.0 0 0 337.75 203.78
  L 390.41 203.78
  A 1.31 1.31 0.0 0 0 391.72 202.47
  L 391.72 202.29
  Z
  M 307.4817 207.9060
  A 1.09 1.09 0.0 0 0 306.3955 206.8122
  L 287.9556 206.7478
  A 1.09 1.09 0.0 0 0 286.8618 207.8340
  L 286.8583 208.8540
  A 1.09 1.09 0.0 0 0 287.9445 209.9478
  L 306.3844 210.0122
  A 1.09 1.09 0.0 0 0 307.4782 208.9260
  L 307.4817 207.9060
  Z
  M 292.2308 214.0020
  A 1.02 1.02 0.0 0 0 291.2126 212.9802
  L 279.5126 212.9598
  A 1.02 1.02 0.0 0 0 278.4908 213.9780
  L 278.4892 214.9380
  A 1.02 1.02 0.0 0 0 279.5074 215.9598
  L 291.2074 215.9802
  A 1.02 1.02 0.0 0 0 292.2292 214.9620
  L 292.2308 214.0020
  Z
  M 330.0490 219.9990
  A 1.18 1.18 0.0 0 0 328.8669 218.8211
  L 307.1669 218.8589
  A 1.18 1.18 0.0 0 0 305.9890 220.0410
  L 305.9910 221.2210
  A 1.18 1.18 0.0 0 0 307.1731 222.3989
  L 328.8731 222.3611
  A 1.18 1.18 0.0 0 0 330.0510 221.1790
  L 330.0490 219.9990
  Z
  M 302.7508 220.1212
  A 1.10 1.10 0.0 0 0 301.6528 219.0193
  L 279.5928 218.9808
  A 1.10 1.10 0.0 0 0 278.4909 220.0788
  L 278.4892 221.0588
  A 1.10 1.10 0.0 0 0 279.5872 222.1607
  L 301.6472 222.1992
  A 1.10 1.10 0.0 0 0 302.7491 221.1012
  L 302.7508 220.1212
  Z
  M 363.2597 220.4041
  A 1.38 1.38 0.0 0 0 361.8773 219.0265
  L 334.9173 219.0735
  A 1.38 1.38 0.0 0 0 333.5397 220.4559
  L 333.5403 220.7959
  A 1.38 1.38 0.0 0 0 334.9227 222.1735
  L 361.8827 222.1265
  A 1.38 1.38 0.0 0 0 363.2603 220.7441
  L 363.2597 220.4041
  Z
  M 302.81 225.50
  A 1.23 1.23 0.0 0 0 301.58 224.27
  L 288.08 224.27
  A 1.23 1.23 0.0 0 0 286.85 225.50
  L 286.85 226.08
  A 1.23 1.23 0.0 0 0 288.08 227.31
  L 301.58 227.31
  A 1.23 1.23 0.0 0 0 302.81 226.08
  L 302.81 225.50
  Z
  M 391.74 225.71
  A 1.46 1.46 0.0 0 0 390.28 224.25
  L 307.44 224.25
  A 1.46 1.46 0.0 0 0 305.98 225.71
  L 305.98 225.91
  A 1.46 1.46 0.0 0 0 307.44 227.37
  L 390.28 227.37
  A 1.46 1.46 0.0 0 0 391.74 225.91
  L 391.74 225.71
  Z
  M 293.6710 231.5667
  A 1.06 1.06 0.0 0 0 292.6147 230.5030
  L 279.4548 230.4570
  A 1.06 1.06 0.0 0 0 278.3911 231.5133
  L 278.3890 232.1333
  A 1.06 1.06 0.0 0 0 279.4453 233.1970
  L 292.6052 233.2430
  A 1.06 1.06 0.0 0 0 293.6689 232.1867
  L 293.6710 231.5667
  Z
  M 322.0303 237.7620
  A 1.47 1.47 0.0 0 0 320.5628 236.2894
  L 298.3029 236.2506
  A 1.47 1.47 0.0 0 0 296.8303 237.7180
  L 296.8297 238.0380
  A 1.47 1.47 0.0 0 0 298.2972 239.5106
  L 320.5571 239.5494
  A 1.47 1.47 0.0 0 0 322.0297 238.0820
  L 322.0303 237.7620
  Z
  M 343.5906 237.7732
  A 1.44 1.44 0.0 0 0 342.1556 236.3282
  L 326.0157 236.2718
  A 1.44 1.44 0.0 0 0 324.5707 237.7068
  L 324.5694 238.0668
  A 1.44 1.44 0.0 0 0 326.0044 239.5118
  L 342.1443 239.5682
  A 1.44 1.44 0.0 0 0 343.5893 238.1332
  L 343.5906 237.7732
  Z
  M 292.9770 237.3407
  A 0.88 0.88 0.0 0 0 292.0924 236.4653
  L 278.8326 236.5347
  A 0.88 0.88 0.0 0 0 277.9572 237.4193
  L 277.9630 238.5193
  A 0.88 0.88 0.0 0 0 278.8476 239.3947
  L 292.1074 239.3253
  A 0.88 0.88 0.0 0 0 292.9828 238.4407
  L 292.9770 237.3407
  Z
  M 357.7647 237.6770
  A 1.18 1.18 0.0 0 0 356.5971 236.4848
  L 349.9775 236.4154
  A 1.18 1.18 0.0 0 0 348.7852 237.5830
  L 348.7753 238.5230
  A 1.18 1.18 0.0 0 0 349.9429 239.7152
  L 356.5625 239.7846
  A 1.18 1.18 0.0 0 0 357.7548 238.6170
  L 357.7647 237.6770
  Z
  M 308.2297 243.6613
  A 1.37 1.37 0.0 0 0 306.8573 242.2937
  L 288.1573 242.3263
  A 1.37 1.37 0.0 0 0 286.7897 243.6987
  L 286.7903 244.0387
  A 1.37 1.37 0.0 0 0 288.1627 245.4063
  L 306.8627 245.3737
  A 1.37 1.37 0.0 0 0 308.2303 244.0013
  L 308.2297 243.6613
  Z
  M 340.1995 243.6557
  A 1.36 1.36 0.0 0 0 338.8372 242.2980
  L 313.6572 242.3420
  A 1.36 1.36 0.0 0 0 312.2996 243.7043
  L 312.3005 244.2243
  A 1.36 1.36 0.0 0 0 313.6628 245.5820
  L 338.8428 245.5380
  A 1.36 1.36 0.0 0 0 340.2004 244.1757
  L 340.1995 243.6557
  Z
  M 359.5493 243.7289
  A 1.49 1.49 0.0 0 0 358.0463 242.2519
  L 344.7268 242.3682
  A 1.49 1.49 0.0 0 0 343.2499 243.8711
  L 343.2507 243.9711
  A 1.49 1.49 0.0 0 0 344.7537 245.4481
  L 358.0732 245.3318
  A 1.49 1.49 0.0 0 0 359.5501 243.8289
  L 359.5493 243.7289
  Z
  M 341.9702 249.5780
  A 1.44 1.44 0.0 0 0 340.5327 248.1355
  L 288.4328 248.0445
  A 1.44 1.44 0.0 0 0 286.9903 249.4820
  L 286.9898 249.7220
  A 1.44 1.44 0.0 0 0 288.4273 251.1645
  L 340.5272 251.2555
  A 1.44 1.44 0.0 0 0 341.9697 249.8180
  L 341.9702 249.5780
  Z
  M 391.78 249.70
  A 1.46 1.46 0.0 0 0 390.32 248.24
  L 354.64 248.24
  A 1.46 1.46 0.0 0 0 353.18 249.70
  L 353.18 249.74
  A 1.46 1.46 0.0 0 0 354.64 251.20
  L 390.32 251.20
  A 1.46 1.46 0.0 0 0 391.78 249.74
  L 391.78 249.70
  Z"
/>
<path fill="#2c4d9e" d="
  M 249.42 256.50
  L 227.96 256.67
  Q 226.86 256.67 226.76 257.77
  L 226.35 262.25
  Q 220.42 261.09 212.75 261.48
  Q 209.35 261.65 209.34 258.00
  Q 209.27 243.54 210.09 229.10
  C 210.26 226.09 209.30 223.45 209.56 220.54
  C 209.93 216.43 209.11 212.99 209.43 208.18
  Q 209.45 207.81 209.79 207.64
  Q 210.08 207.51 210.09 207.25
  C 210.10 204.45 210.30 201.79 210.11 198.92
  C 209.98 196.97 209.19 189.55 210.22 187.53
  A 1.38 1.36 -32.1 0 0 210.38 186.85
  L 209.87 129.14
  A 2.24 2.24 0.0 0 1 211.82 126.90
  Q 218.47 126.02 225.14 126.18
  C 232.41 126.35 239.66 126.33 246.88 126.13
  A 3.83 3.82 89.2 0 1 250.81 129.96
  L 250.76 253.77
  Q 250.76 254.34 250.39 254.78
  Q 249.72 255.57 249.42 256.50
  Z
  M 232.7304 136.7513
  A 1.26 1.26 0.0 0 0 231.4748 135.4870
  L 216.0349 135.4331
  A 1.26 1.26 0.0 0 0 214.7705 136.6887
  L 214.7696 136.9287
  A 1.26 1.26 0.0 0 0 216.0252 138.1930
  L 231.4651 138.2469
  A 1.26 1.26 0.0 0 0 232.7295 136.9913
  L 232.7304 136.7513
  Z
  M 241.4599 143.2667
  A 1.40 1.40 0.0 0 0 240.0575 141.8692
  L 216.1975 141.9108
  A 1.40 1.40 0.0 0 0 214.8000 143.3133
  L 214.8001 143.3733
  A 1.40 1.40 0.0 0 0 216.2025 144.7708
  L 240.0625 144.7292
  A 1.40 1.40 0.0 0 0 241.4600 143.3267
  L 241.4599 143.2667
  Z
  M 236.9801 149.9593
  A 1.44 1.44 0.0 0 0 235.5426 148.5168
  L 216.3026 148.4832
  A 1.44 1.44 0.0 0 0 214.8601 149.9207
  L 214.8599 150.0007
  A 1.44 1.44 0.0 0 0 216.2974 151.4432
  L 235.5374 151.4768
  A 1.44 1.44 0.0 0 0 236.9799 150.0393
  L 236.9801 149.9593
  Z
  M 226.08 156.45
  A 1.17 1.17 0.0 0 0 224.91 155.28
  L 215.91 155.28
  A 1.17 1.17 0.0 0 0 214.74 156.45
  L 214.74 156.69
  A 1.17 1.17 0.0 0 0 215.91 157.86
  L 224.91 157.86
  A 1.17 1.17 0.0 0 0 226.08 156.69
  L 226.08 156.45
  Z
  M 229.3159 162.8313
  A 1.06 1.06 0.0 0 0 228.2430 161.7844
  L 215.8440 161.9358
  A 1.06 1.06 0.0 0 0 214.7970 163.0087
  L 214.8041 163.5887
  A 1.06 1.06 0.0 0 0 215.8770 164.6356
  L 228.2760 164.4842
  A 1.06 1.06 0.0 0 0 229.3230 163.4113
  L 229.3159 162.8313
  Z
  M 235.6299 169.7218
  A 1.39 1.39 0.0 0 0 234.2375 168.3342
  L 216.1175 168.3658
  A 1.39 1.39 0.0 0 0 214.7299 169.7582
  L 214.7301 169.8382
  A 1.39 1.39 0.0 0 0 216.1225 171.2258
  L 234.2425 171.1942
  A 1.39 1.39 0.0 0 0 235.6301 169.8018
  L 235.6299 169.7218
  Z
  M 229.6295 176.1170
  A 1.04 1.04 0.0 0 0 228.5877 175.0788
  L 215.7477 175.1012
  A 1.04 1.04 0.0 0 0 214.7095 176.1430
  L 214.7105 176.7030
  A 1.04 1.04 0.0 0 0 215.7523 177.7412
  L 228.5923 177.7188
  A 1.04 1.04 0.0 0 0 229.6305 176.6770
  L 229.6295 176.1170
  Z
  M 242.2375 182.5381
  A 1.04 1.04 0.0 0 0 241.1921 181.5036
  L 215.8124 181.6365
  A 1.04 1.04 0.0 0 0 214.7779 182.6819
  L 214.7825 183.5619
  A 1.04 1.04 0.0 0 0 215.8279 184.5964
  L 241.2076 184.4635
  A 1.04 1.04 0.0 0 0 242.2421 183.4181
  L 242.2375 182.5381
  Z
  M 232.8401 189.6158
  A 1.37 1.37 0.0 0 0 231.4725 188.2435
  L 216.0525 188.2165
  A 1.37 1.37 0.0 0 0 214.6801 189.5842
  L 214.6799 189.7042
  A 1.37 1.37 0.0 0 0 216.0475 191.0765
  L 231.4675 191.1035
  A 1.37 1.37 0.0 0 0 232.8399 189.7358
  L 232.8401 189.6158
  Z
  M 243.01 195.81
  A 1.11 1.11 0.0 0 0 241.90 194.70
  L 215.86 194.70
  A 1.11 1.11 0.0 0 0 214.75 195.81
  L 214.75 196.39
  A 1.11 1.11 0.0 0 0 215.86 197.50
  L 241.90 197.50
  A 1.11 1.11 0.0 0 0 243.01 196.39
  L 243.01 195.81
  Z
  M 234.4406 202.3572
  A 1.13 1.13 0.0 0 0 233.3126 201.2253
  L 215.8126 201.1947
  A 1.13 1.13 0.0 0 0 214.6806 202.3228
  L 214.6794 203.0428
  A 1.13 1.13 0.0 0 0 215.8074 204.1747
  L 233.3074 204.2053
  A 1.13 1.13 0.0 0 0 234.4394 203.0772
  L 234.4406 202.3572
  Z
  M 226.4822 208.6905
  A 0.82 0.82 0.0 0 0 225.6651 207.8676
  L 215.5651 207.8324
  A 0.82 0.82 0.0 0 0 214.7423 208.6495
  L 214.7378 209.9295
  A 0.82 0.82 0.0 0 0 215.5549 210.7524
  L 225.6549 210.7876
  A 0.82 0.82 0.0 0 0 226.4777 209.9705
  L 226.4822 208.6905
  Z"
/>
<rect fill="#eef7ff" x="-8.98" y="-1.38" transform="translate(223.75,136.84) rotate(0.2)" width="17.96" height="2.76" rx="1.26"/>
<rect fill="#eef7ff" x="-15.15" y="-1.51" transform="translate(276.07,136.92) rotate(0.1)" width="30.30" height="3.02" rx="1.20"/>
<path fill="#eef7ff" d="
  M 198.50 143.44
  L 198.64 217.59
  Q 193.55 213.95 188.59 210.56
  Q 184.98 208.09 183.08 207.60
  C 177.89 206.27 172.23 210.38 169.44 214.35
  Q 168.24 216.06 168.30 213.97
  Q 168.32 213.21 168.29 213.07
  Q 167.79 210.06 167.32 213.00
  L 167.00 214.99
  A 0.64 0.64 0.0 0 1 166.03 215.44
  L 163.64 213.96
  A 0.39 0.39 0.0 0 0 163.13 214.54
  L 164.84 216.66
  Q 165.17 217.06 164.75 217.37
  C 155.54 224.20 165.21 240.10 171.27 247.15
  Q 171.77 248.99 169.88 251.63
  Q 169.35 252.39 168.26 252.03
  C 163.64 245.78 152.34 247.52 145.23 248.25
  C 142.16 248.44 137.19 249.47 136.35 252.87
  C 134.92 258.57 134.10 268.73 136.35 274.99
  Q 136.87 276.42 139.32 279.62
  C 142.33 283.54 147.88 295.15 143.50 299.76
  C 137.24 306.35 138.41 309.43 139.75 317.70
  A 0.25 0.24 86.0 0 1 139.51 317.99
  L 119.75 317.96
  Q 122.18 315.68 122.20 314.47
  Q 122.32 307.60 122.24 300.88
  A 0.59 0.58 89.0 0 0 121.65 300.30
  L 108.28 300.35
  Q 107.61 300.43 107.74 303.14
  A 0.65 0.65 0.0 0 1 107.12 303.82
  C 102.69 304.04 100.73 308.48 103.29 311.90
  C 104.17 313.06 105.66 313.48 107.01 313.97
  Q 107.50 314.15 107.72 314.63
  Q 108.72 316.79 110.85 317.46
  Q 111.00 318.07 110.21 318.09
  Q 97.11 317.92 84.00 317.98
  C 81.99 317.99 79.56 317.88 77.93 319.11
  Q 74.68 321.57 75.87 325.95
  Q 76.75 330.04 80.75 330.12
  Q 87.96 330.28 96.21 330.29
  L 75.03 447.13
  L 69.49 446.87
  C 61.58 436.71 56.80 428.90 51.61 417.98
  Q 47.33 408.99 45.53 402.16
  C 37.26 370.92 48.98 340.24 72.47 318.48
  Q 76.11 315.11 79.78 311.79
  Q 86.30 305.90 95.02 300.34
  C 97.37 298.85 96.71 297.00 95.12 295.20
  C 72.14 269.20 70.70 231.85 83.68 200.78
  Q 98.07 166.36 131.18 149.11
  C 144.68 142.08 158.96 139.87 174.13 140.10
  Q 180.96 140.20 198.50 143.44
  Z"
/>
<rect fill="#df98b2" x="287.13" y="140.94" width="58.54" height="3.04" rx="1.50"/>
<rect fill="#eef7ff" x="-9.95" y="-1.50" transform="translate(270.27,142.49) rotate(0.2)" width="19.90" height="3.00" rx="1.31"/>
<rect fill="#eef7ff" x="-9.57" y="-1.50" transform="translate(360.33,142.48) rotate(-0.1)" width="19.14" height="3.00" rx="1.21"/>
<rect fill="#2e90c0" x="-4.84" y="-1.26" transform="translate(386.61,142.44) rotate(-0.3)" width="9.68" height="2.52" rx="0.94"/>
<rect fill="#eef7ff" x="-13.33" y="-1.43" transform="translate(228.13,143.32) rotate(-0.1)" width="26.66" height="2.86" rx="1.40"/>
<rect fill="#eef7ff" x="-9.88" y="-1.54" transform="translate(279.12,148.81) rotate(-0.1)" width="19.76" height="3.08" rx="1.17"/>
<rect fill="#eef7ff" x="-11.06" y="-1.48" transform="translate(225.92,149.98) rotate(0.1)" width="22.12" height="2.96" rx="1.44"/>
<rect fill="#df98b2" x="-9.24" y="-1.58" transform="translate(316.79,154.67) rotate(0.1)" width="18.48" height="3.16" rx="1.00"/>
<rect fill="#eef7ff" x="278.24" y="153.23" width="25.60" height="2.98" rx="1.15"/>
<rect fill="#eef7ff" x="214.74" y="155.28" width="11.34" height="2.58" rx="1.17"/>
<rect fill="#df98b2" x="-24.99" y="-1.67" transform="translate(328.70,160.53) rotate(-0.1)" width="49.98" height="3.34" rx="1.64"/>
<rect fill="#eef7ff" x="277.84" y="159.00" width="20.66" height="3.04" rx="1.01"/>
<rect fill="#ffddba" x="-4.98" y="-1.45" transform="translate(362.27,160.42) rotate(-0.2)" width="9.96" height="2.90" rx="0.88"/>
<rect fill="#df98b2" x="-11.85" y="-1.55" transform="translate(380.35,160.52) rotate(0.3)" width="23.70" height="3.10" rx="1.09"/>
<rect fill="#eef7ff" x="-7.26" y="-1.35" transform="translate(222.06,163.21) rotate(-0.7)" width="14.52" height="2.70" rx="1.06"/>
<rect fill="#eef7ff" x="278.09" y="164.74" width="52.70" height="3.20" rx="1.57"/>
<rect fill="#eef7ff" x="-10.45" y="-1.43" transform="translate(225.18,169.78) rotate(-0.1)" width="20.90" height="2.86" rx="1.39"/>
<rect fill="#eef7ff" x="-7.44" y="-1.49" transform="translate(276.27,172.71) rotate(0.2)" width="14.88" height="2.98" rx="0.91"/>
<rect fill="#eef7ff" x="-7.46" y="-1.32" transform="translate(222.17,176.41) rotate(-0.1)" width="14.92" height="2.64" rx="1.04"/>
<rect fill="#eef7ff" x="268.91" y="176.79" width="22.22" height="3.00" rx="0.94"/>
<rect fill="#eef7ff" x="296.73" y="176.79" width="50.48" height="3.20" rx="1.23"/>
<rect fill="#eef7ff" x="-13.73" y="-1.48" transform="translate(228.51,183.05) rotate(-0.3)" width="27.46" height="2.96" rx="1.04"/>
<rect fill="#2e90c0" x="-5.07" y="-1.72" transform="translate(321.38,184.28) rotate(-0.1)" width="10.14" height="3.44" rx="1.41"/>
<rect fill="#eef7ff" x="-17.13" y="-1.55" transform="translate(295.16,184.34) rotate(-0.2)" width="34.26" height="3.10" rx="1.26"/>
<rect fill="#eef7ff" x="-9.08" y="-1.43" transform="translate(223.76,189.66) rotate(0.1)" width="18.16" height="2.86" rx="1.37"/>
<rect fill="#df98b2" x="309.44" y="188.80" width="21.34" height="3.20" rx="1.24"/>
<rect fill="#eef7ff" x="-9.26" y="-1.53" transform="translate(296.45,190.47) rotate(-0.1)" width="18.52" height="3.06" rx="0.97"/>
<rect fill="#eef7ff" x="335.37" y="188.96" width="18.86" height="3.04" rx="1.13"/>
<rect fill="#2e90c0" x="-4.23" y="-1.47" transform="translate(361.70,190.44) rotate(-0.1)" width="8.46" height="2.94" rx="1.16"/>
<rect fill="#eef7ff" x="214.75" y="194.70" width="28.26" height="2.80" rx="1.11"/>
<rect fill="#a6a9d4" x="-10.26" y="-1.52" transform="translate(305.90,196.33) rotate(0.3)" width="20.52" height="3.04" rx="1.09"/>
<rect fill="#df98b2" x="-14.80" y="-1.60" transform="translate(333.97,196.34) rotate(-0.1)" width="29.60" height="3.20" rx="0.94"/>
<rect fill="#a6a9d4" x="-10.25" y="-1.50" transform="translate(360.42,196.37) rotate(0.3)" width="20.50" height="3.00" rx="0.77"/>
<rect fill="#2e90c0" x="-3.86" y="-1.19" transform="translate(378.29,196.30) rotate(0.8)" width="7.72" height="2.38" rx="1.03"/>
<rect fill="#eef7ff" x="-13.18" y="-1.44" transform="translate(308.67,202.38) rotate(0.1)" width="26.36" height="2.88" rx="1.04"/>
<rect fill="#eef7ff" x="-4.40" y="-1.41" transform="translate(329.16,202.37) rotate(0.4)" width="8.80" height="2.82" rx="0.95"/>
<rect fill="#eef7ff" x="336.44" y="200.98" width="55.28" height="2.80" rx="1.31"/>
<rect fill="#eef7ff" x="-9.88" y="-1.49" transform="translate(224.56,202.70) rotate(0.1)" width="19.76" height="2.98" rx="1.13"/>
<rect fill="#eef7ff" x="-10.31" y="-1.60" transform="translate(297.17,208.38) rotate(0.2)" width="20.62" height="3.20" rx="1.09"/>
<path fill="#1b1a48" d="
  M 198.64 217.59
  Q 199.11 216.69 200.15 217.53
  Q 200.54 217.86 200.70 218.34
  Q 201.02 219.28 201.97 219.80
  Q 202.21 220.82 204.05 221.54
  Q 204.56 221.73 204.42 222.26
  Q 204.07 223.60 205.13 224.12
  Q 207.13 225.09 208.90 225.63
  A 0.92 0.92 0.0 0 1 209.27 227.17
  Q 206.70 229.67 203.42 231.15
  A 2.28 2.26 84.1 0 0 202.12 232.76
  C 201.26 236.78 200.28 240.67 200.20 244.80
  Q 200.06 252.74 200.32 260.68
  C 200.38 262.36 201.23 263.20 201.31 264.82
  Q 198.99 264.02 198.52 262.74
  L 198.26 243.15
  L 200.82 232.32
  Q 200.94 231.83 200.43 231.86
  C 191.76 232.49 183.82 230.94 175.85 228.05
  Q 175.27 227.84 175.26 228.46
  Q 175.25 234.35 173.75 240.06
  Q 173.25 241.96 172.32 240.23
  C 171.42 238.55 171.14 235.80 169.08 234.75
  A 1.29 1.29 0.0 0 0 167.21 235.93
  C 167.27 239.56 170.28 243.38 171.27 247.15
  C 165.21 240.10 155.54 224.20 164.75 217.37
  Q 165.17 217.06 164.84 216.66
  L 163.13 214.54
  A 0.39 0.39 0.0 0 1 163.64 213.96
  L 166.03 215.44
  A 0.64 0.64 0.0 0 0 167.00 214.99
  L 167.32 213.00
  Q 167.79 210.06 168.29 213.07
  Q 168.32 213.21 168.30 213.97
  Q 168.24 216.06 169.44 214.35
  C 172.23 210.38 177.89 206.27 183.08 207.60
  Q 184.98 208.09 188.59 210.56
  Q 193.55 213.95 198.64 217.59
  Z"
/>
<rect fill="#eef7ff" x="-5.87" y="-1.46" transform="translate(220.61,209.31) rotate(0.2)" width="11.74" height="2.92" rx="0.82"/>
<rect fill="#eef7ff" x="-6.87" y="-1.50" transform="translate(285.36,214.47) rotate(0.1)" width="13.74" height="3.00" rx="1.02"/>
<rect fill="#df98b2" x="-12.03" y="-1.77" transform="translate(318.02,220.61) rotate(-0.1)" width="24.06" height="3.54" rx="1.18"/>
<rect fill="#eef7ff" x="-12.13" y="-1.59" transform="translate(290.62,220.59) rotate(0.1)" width="24.26" height="3.18" rx="1.10"/>
<rect fill="#a6a9d4" x="-14.86" y="-1.55" transform="translate(348.40,220.60) rotate(-0.1)" width="29.72" height="3.10" rx="1.38"/>
<rect fill="#eef7ff" x="286.85" y="224.27" width="15.96" height="3.04" rx="1.23"/>
<rect fill="#eef7ff" x="305.98" y="224.25" width="85.76" height="3.12" rx="1.46"/>
<path fill="#ffddba" d="
  M 198.26 243.15
  Q 196.21 247.56 194.03 251.39
  Q 193.19 252.88 191.40 254.08
  Q 188.59 255.97 187.86 257.81
  Q 188.38 261.80 183.59 262.65
  C 176.11 263.99 172.13 259.28 168.96 253.37
  L 168.26 252.03
  Q 169.35 252.39 169.88 251.63
  Q 171.77 248.99 171.27 247.15
  C 170.28 243.38 167.27 239.56 167.21 235.93
  A 1.29 1.29 0.0 0 1 169.08 234.75
  C 171.14 235.80 171.42 238.55 172.32 240.23
  Q 173.25 241.96 173.75 240.06
  Q 175.25 234.35 175.26 228.46
  Q 175.27 227.84 175.85 228.05
  C 183.82 230.94 191.76 232.49 200.43 231.86
  Q 200.94 231.83 200.82 232.32
  L 198.26 243.15
  Z"
/>
<rect fill="#eef7ff" x="-7.64" y="-1.37" transform="translate(286.03,231.85) rotate(0.2)" width="15.28" height="2.74" rx="1.06"/>
<rect fill="#df98b2" x="-12.60" y="-1.63" transform="translate(309.43,237.90) rotate(0.1)" width="25.20" height="3.26" rx="1.47"/>
<rect fill="#2e90c0" x="-9.51" y="-1.62" transform="translate(334.08,237.92) rotate(0.2)" width="19.02" height="3.24" rx="1.44"/>
<rect fill="#eef7ff" x="-7.51" y="-1.43" transform="translate(285.47,237.93) rotate(-0.3)" width="15.02" height="2.86" rx="0.88"/>
<rect fill="#2e90c0" x="-4.49" y="-1.65" transform="translate(353.27,238.10) rotate(0.6)" width="8.98" height="3.30" rx="1.18"/>
<rect fill="#eef7ff" x="-10.72" y="-1.54" transform="translate(297.51,243.85) rotate(-0.1)" width="21.44" height="3.08" rx="1.37"/>
<rect fill="#df98b2" x="-13.95" y="-1.62" transform="translate(326.25,243.94) rotate(-0.1)" width="27.90" height="3.24" rx="1.36"/>
<rect fill="#ffddba" x="-8.15" y="-1.54" transform="translate(351.40,243.85) rotate(-0.5)" width="16.30" height="3.08" rx="1.49"/>
<path fill="#eef7ff" d="
  M 198.26 243.15
  L 198.52 262.74
  L 187.86 257.81
  Q 188.59 255.97 191.40 254.08
  Q 193.19 252.88 194.03 251.39
  Q 196.21 247.56 198.26 243.15
  Z"
/>
<path fill="#51489a" d="
  M 168.26 252.03
  L 168.96 253.37
  Q 166.29 253.88 163.78 254.50
  C 160.71 255.25 158.46 256.85 155.63 258.32
  C 153.50 259.43 149.89 261.81 149.11 263.36
  Q 147.34 266.88 144.48 268.24
  C 142.88 262.21 144.33 253.40 145.23 248.25
  C 152.34 247.52 163.64 245.78 168.26 252.03
  Z"
/>
<rect fill="#eef7ff" x="-27.49" y="-1.56" transform="translate(314.48,249.65) rotate(0.1)" width="54.98" height="3.12" rx="1.44"/>
<path fill="#322e79" d="
  M 145.23 248.25
  C 144.33 253.40 142.88 262.21 144.48 268.24
  Q 144.89 270.91 144.91 273.82
  C 144.97 281.56 146.77 289.70 148.39 297.25
  Q 148.46 297.57 148.19 298.01
  C 146.16 303.94 148.30 311.08 149.25 317.08
  A 1.19 1.19 0.0 0 0 150.50 318.08
  L 154.81 317.82
  L 166.23 317.89
  L 198.36 318.06
  Q 200.11 318.17 201.95 318.35
  Q 203.87 318.54 205.56 318.52
  Q 242.16 318.17 278.75 318.46
  Q 283.27 318.50 292.22 318.14
  Q 327.79 317.96 363.25 317.92
  C 367.26 317.91 369.35 322.36 368.58 325.73
  L 368.37 325.24
  Q 368.23 324.91 368.11 325.25
  Q 368.05 325.43 367.92 325.59
  Q 367.77 325.78 367.49 325.83
  Q 366.15 326.08 362.25 326.04
  C 317.25 325.62 249.87 325.94 184.39 325.97
  Q 130.16 326.00 75.87 325.95
  Q 74.68 321.57 77.93 319.11
  C 79.56 317.88 81.99 317.99 84.00 317.98
  Q 97.11 317.92 110.21 318.09
  L 119.75 317.96
  L 139.51 317.99
  A 0.25 0.24 86.0 0 0 139.75 317.70
  C 138.41 309.43 137.24 306.35 143.50 299.76
  C 147.88 295.15 142.33 283.54 139.32 279.62
  Q 136.87 276.42 136.35 274.99
  C 134.10 268.73 134.92 258.57 136.35 252.87
  C 137.19 249.47 142.16 248.44 145.23 248.25
  Z"
/>
<rect fill="#eef7ff" x="353.18" y="248.24" width="38.60" height="2.96" rx="1.46"/>
<path fill="#e62091" d="
  M 168.96 253.37
  C 172.13 259.28 176.11 263.99 183.59 262.65
  Q 188.38 261.80 187.86 257.81
  L 198.52 262.74
  Q 198.99 264.02 201.31 264.82
  L 205.17 268.29
  L 207.17 270.48
  Q 207.39 273.58 208.93 272.65
  L 209.30 276.05
  Q 213.35 285.32 214.13 294.25
  L 204.49 299.94
  Q 204.07 300.19 204.17 300.67
  L 205.08 305.18
  A 0.84 0.83 85.6 0 1 204.23 306.18
  L 176.49 305.00
  A 1.28 1.27 81.9 0 1 175.34 304.13
  L 173.95 299.88
  A 0.92 0.92 0.0 0 0 172.81 299.28
  L 156.81 304.08
  A 0.43 0.42 -18.2 0 0 156.53 304.63
  Q 159.23 312.23 166.23 317.89
  L 154.81 317.82
  C 153.76 315.65 152.66 313.70 152.18 311.26
  C 151.38 307.15 150.20 299.82 148.19 298.01
  Q 148.46 297.57 148.39 297.25
  C 146.77 289.70 144.97 281.56 144.91 273.82
  Q 144.89 270.91 144.48 268.24
  Q 147.34 266.88 149.11 263.36
  C 149.89 261.81 153.50 259.43 155.63 258.32
  C 158.46 256.85 160.71 255.25 163.78 254.50
  Q 166.29 253.88 168.96 253.37
  Z"
/>
<path fill="#96bde4" d="
  M 249.42 256.50
  L 293.06 256.48
  A 0.99 0.99 0.0 0 1 294.05 257.51
  L 293.69 267.53
  L 293.00 276.24
  L 291.42 313.67
  L 224.36 313.63
  Q 223.93 313.63 223.84 313.21
  Q 223.81 313.06 223.85 312.88
  L 225.81 272.72
  L 226.35 262.25
  L 226.76 257.77
  Q 226.86 256.67 227.96 256.67
  L 249.42 256.50
  Z
  M 264.18 280.90
  A 1.93 1.93 0.0 0 0 260.53 280.42
  L 258.69 284.40
  A 1.93 1.93 0.0 0 0 258.65 285.93
  L 259.84 288.90
  A 1.93 1.93 0.0 0 0 262.26 290.00
  L 263.99 289.40
  A 1.93 1.93 0.0 0 0 265.27 287.26
  L 264.18 280.90
  Z"
/>
<path fill="#202f64" d="
  M 225.81 272.72
  L 223.85 312.88
  Q 223.16 312.89 222.61 312.50
  L 222.93 302.93
  L 224.27 276.73
  Q 224.30 276.20 223.77 276.20
  L 209.30 276.05
  L 208.93 272.65
  Q 209.14 270.62 207.17 270.48
  L 205.17 268.29
  L 222.89 267.95
  A 1.36 1.35 -81.9 0 1 224.21 269.71
  Q 223.61 271.67 225.81 272.72
  Z
  M 212.82 271.98
  A 1.31 1.31 0.0 0 0 211.51 270.67
  A 1.31 1.31 0.0 0 0 210.20 271.98
  A 1.31 1.31 0.0 0 0 211.51 273.29
  A 1.31 1.31 0.0 0 0 212.82 271.98
  Z
  M 216.69 271.97
  A 1.30 1.30 0.0 0 0 215.39 270.67
  A 1.30 1.30 0.0 0 0 214.09 271.97
  A 1.30 1.30 0.0 0 0 215.39 273.27
  A 1.30 1.30 0.0 0 0 216.69 271.97
  Z"
/>
<path fill="#eef7ff" d="
  M 207.17 270.48
  Q 209.14 270.62 208.93 272.65
  Q 207.39 273.58 207.17 270.48
  Z"
/>
<circle fill="#eef7ff" cx="211.51" cy="271.98" r="1.31"/>
<circle fill="#eef7ff" cx="215.39" cy="271.97" r="1.30"/>
<path fill="#eef7ff" d="
  M 209.30 276.05
  L 223.77 276.20
  Q 224.30 276.20 224.27 276.73
  L 222.93 302.93
  Q 219.79 300.83 217.78 301.36
  A 1.19 1.18 -12.0 0 1 216.31 300.41
  Q 215.79 297.23 214.13 294.25
  Q 213.35 285.32 209.30 276.05
  Z"
/>
<path fill="#eef7ff" d="
  M 293.00 276.24
  L 403.95 276.20
  C 408.45 280.54 413.97 284.81 417.70 288.58
  C 440.99 312.10 452.75 342.47 446.25 375.39
  Q 442.60 393.89 432.77 410.29
  Q 427.92 418.37 416.41 433.44
  Q 409.54 442.42 402.30 447.25
  L 368.31 446.46
  L 346.97 330.24
  Q 355.63 330.18 363.75 330.03
  C 366.74 329.97 367.97 328.41 368.58 325.73
  C 369.35 322.36 367.26 317.91 363.25 317.92
  Q 327.79 317.96 292.22 318.14
  C 291.93 316.52 292.75 315.22 291.42 313.67
  L 293.00 276.24
  Z"
/>
<path fill="#eef7ff" d="
  M 264.18 280.90
  L 265.27 287.26
  A 1.93 1.93 0.0 0 1 263.99 289.40
  L 262.26 290.00
  A 1.93 1.93 0.0 0 1 259.84 288.90
  L 258.65 285.93
  A 1.93 1.93 0.0 0 1 258.69 284.40
  L 260.53 280.42
  A 1.93 1.93 0.0 0 1 264.18 280.90
  Z"
/>
<path fill="#ffddba" d="
  M 214.13 294.25
  Q 215.79 297.23 216.31 300.41
  A 1.19 1.18 -12.0 0 0 217.78 301.36
  Q 219.79 300.83 222.93 302.93
  L 222.61 312.50
  Q 222.60 313.54 221.99 313.53
  Q 213.35 313.41 198.84 313.64
  Q 198.28 313.64 198.29 314.20
  L 198.36 318.06
  L 166.23 317.89
  Q 159.23 312.23 156.53 304.63
  A 0.43 0.42 -18.2 0 1 156.81 304.08
  L 172.81 299.28
  A 0.92 0.92 0.0 0 1 173.95 299.88
  L 175.34 304.13
  A 1.28 1.27 81.9 0 0 176.49 305.00
  L 204.23 306.18
  A 0.84 0.83 85.6 0 0 205.08 305.18
  L 204.17 300.67
  Q 204.07 300.19 204.49 299.94
  L 214.13 294.25
  Z"
/>
<path fill="#51489a" d="
  M 148.19 298.01
  C 150.20 299.82 151.38 307.15 152.18 311.26
  C 152.66 313.70 153.76 315.65 154.81 317.82
  L 150.50 318.08
  A 1.19 1.19 0.0 0 1 149.25 317.08
  C 148.30 311.08 146.16 303.94 148.19 298.01
  Z"
/>
<path fill="#96bde4" d="
  M 119.75 317.96
  L 110.21 318.09
  Q 111.00 318.07 110.85 317.46
  Q 111.18 317.46 111.41 317.39
  Q 111.95 317.20 111.68 316.70
  C 111.21 315.81 110.74 315.17 110.82 314.09
  Q 111.26 307.79 110.53 301.48
  Q 110.37 300.04 108.28 300.35
  L 121.65 300.30
  A 0.59 0.58 89.0 0 1 122.24 300.88
  Q 122.32 307.60 122.20 314.47
  Q 122.18 315.68 119.75 317.96
  Z
  M 121.1338 302.4860
  A 0.84 0.84 0.0 0 0 120.3176 301.6229
  L 120.2376 301.6207
  A 0.84 0.84 0.0 0 0 119.3745 302.4369
  L 119.1662 309.8940
  A 0.84 0.84 0.0 0 0 119.9824 310.7571
  L 120.0624 310.7593
  A 0.84 0.84 0.0 0 0 120.9255 309.9431
  L 121.1338 302.4860
  Z"
/>
<path fill="#2e90c0" d="
  M 108.28 300.35
  Q 110.37 300.04 110.53 301.48
  Q 111.26 307.79 110.82 314.09
  C 110.74 315.17 111.21 315.81 111.68 316.70
  Q 111.95 317.20 111.41 317.39
  Q 111.18 317.46 110.85 317.46
  Q 108.72 316.79 107.72 314.63
  Q 107.50 314.15 107.01 313.97
  C 105.66 313.48 104.17 313.06 103.29 311.90
  C 100.73 308.48 102.69 304.04 107.12 303.82
  A 0.65 0.65 0.0 0 0 107.74 303.14
  Q 107.61 300.43 108.28 300.35
  Z
  M 107.79 311.87
  L 107.77 305.51
  A 0.52 0.52 0.0 0 0 107.25 304.99
  L 107.06 305.00
  A 3.57 3.54 -0.2 0 0 103.50 308.55
  L 103.50 308.87
  A 3.57 3.54 -0.2 0 0 107.08 312.39
  L 107.27 312.39
  A 0.52 0.52 0.0 0 0 107.79 311.87
  Z"
/>
<rect fill="#b7daf3" x="-0.88" y="-4.57" transform="translate(120.15,306.19) rotate(1.6)" width="1.76" height="9.14" rx="0.84"/>
<path fill="#eef7ff" d="
  M 107.79 311.87
  A 0.52 0.52 0.0 0 1 107.27 312.39
  L 107.08 312.39
  A 3.57 3.54 -0.2 0 1 103.50 308.87
  L 103.50 308.55
  A 3.57 3.54 -0.2 0 1 107.06 305.00
  L 107.25 304.99
  A 0.52 0.52 0.0 0 1 107.77 305.51
  L 107.79 311.87
  Z"
/>
<path fill="#2c4d9e" d="
  M 222.61 312.50
  Q 223.16 312.89 223.85 312.88
  Q 223.81 313.06 223.84 313.21
  Q 223.93 313.63 224.36 313.63
  L 291.42 313.67
  C 292.75 315.22 291.93 316.52 292.22 318.14
  Q 283.27 318.50 278.75 318.46
  Q 242.16 318.17 205.56 318.52
  Q 203.87 318.54 201.95 318.35
  Q 200.11 318.17 198.36 318.06
  L 198.29 314.20
  Q 198.28 313.64 198.84 313.64
  Q 213.35 313.41 221.99 313.53
  Q 222.60 313.54 222.61 312.50
  Z"
/>
<path fill="#1b1a48" d="
  M 368.58 325.73
  C 367.97 328.41 366.74 329.97 363.75 330.03
  Q 355.63 330.18 346.97 330.24
  L 338.66 330.26
  L 337.31 330.23
  L 300.29 330.24
  L 292.12 330.21
  L 214.21 330.34
  L 159.05 330.28
  L 151.77 330.22
  L 146.41 330.47
  L 136.28 330.25
  L 106.69 330.18
  Q 106.01 329.97 104.30 330.29
  L 96.21 330.29
  Q 87.96 330.28 80.75 330.12
  Q 76.75 330.04 75.87 325.95
  Q 130.16 326.00 184.39 325.97
  C 249.87 325.94 317.25 325.62 362.25 326.04
  Q 366.15 326.08 367.49 325.83
  Q 367.77 325.78 367.92 325.59
  Q 368.05 325.43 368.11 325.25
  Q 368.23 324.91 368.37 325.24
  L 368.58 325.73
  Z"
/>
<path fill="#b7daf3" d="
  M 106.69 330.18
  L 85.49 445.80
  A 0.72 0.72 0.0 0 0 86.21 446.65
  L 136.33 446.06
  C 139.30 451.41 147.81 451.31 149.32 444.99
  Q 152.82 446.37 156.39 445.89
  A 0.86 0.86 0.0 0 0 157.12 444.88
  L 154.86 432.51
  Q 154.84 430.77 154.06 430.63
  L 151.60 412.82
  Q 151.55 412.46 151.28 412.21
  Q 151.10 412.04 151.06 411.76
  C 150.14 405.31 148.26 398.39 147.33 392.72
  Q 146.19 385.85 145.07 378.97
  Q 144.89 377.88 144.69 376.79
  Q 144.00 373.16 143.34 369.52
  C 142.80 366.51 142.67 362.65 141.88 359.22
  A 0.43 0.42 14.8 0 0 141.75 359.00
  Q 141.64 358.89 141.55 358.79
  Q 141.41 358.62 141.37 358.40
  Q 138.46 344.58 136.77 330.50
  C 137.64 330.69 138.39 331.46 138.57 332.41
  Q 141.83 350.07 145.07 367.75
  C 146.05 373.08 147.72 380.00 148.72 386.22
  C 151.68 404.56 155.11 422.80 158.53 441.06
  C 158.98 443.46 159.22 446.36 159.75 448.84
  Q 160.00 450.01 161.21 450.01
  L 167.21 450.00
  Q 168.30 450.00 168.08 448.94
  L 167.45 445.88
  L 188.53 445.84
  Q 191.09 450.71 196.50 449.69
  Q 199.82 449.07 201.43 445.71
  L 241.47 445.62
  C 243.71 450.40 250.42 451.72 253.56 446.90
  A 0.46 0.46 0.0 0 1 254.41 447.17
  Q 254.35 448.18 254.70 449.08
  A 0.23 0.23 0.0 0 0 254.91 449.22
  L 293.51 449.25
  Q 294.01 449.25 293.99 448.75
  L 293.88 445.96
  L 357.15 446.29
  A 0.99 0.99 0.0 0 0 358.11 445.08
  Q 354.77 430.71 353.12 416.12
  Q 353.03 415.32 352.40 414.52
  Q 352.11 414.14 352.05 413.66
  Q 351.12 405.53 349.32 397.56
  C 349.01 396.17 349.16 394.77 349.13 393.35
  Q 349.12 393.00 348.86 392.77
  Q 348.68 392.63 348.61 392.25
  Q 347.00 384.41 345.53 376.54
  Q 343.95 368.12 342.34 359.71
  C 341.11 353.25 339.53 347.90 338.82 340.29
  C 338.58 337.82 337.38 335.75 337.38 333.33
  Q 337.39 331.83 337.31 330.23
  L 338.66 330.26
  Q 340.36 335.42 341.24 340.63
  C 343.15 351.94 345.51 363.25 346.66 370.25
  C 348.70 382.74 350.94 393.80 352.78 404.86
  Q 354.00 412.22 355.41 419.55
  Q 358.24 434.33 360.73 448.76
  A 1.20 1.18 84.1 0 0 361.93 449.75
  L 367.73 449.59
  A 0.92 0.91 85.2 0 0 368.60 448.55
  L 368.31 446.46
  L 402.30 447.25
  C 406.44 447.80 411.45 447.64 415.59 449.29
  A 0.67 0.66 19.6 0 1 415.98 450.10
  Q 415.82 450.63 415.23 450.75
  C 412.72 451.24 410.47 451.85 407.88 451.95
  Q 401.55 452.19 395.23 452.60
  C 387.06 453.13 378.26 452.85 371.25 453.07
  Q 346.82 453.84 328.63 453.89
  Q 226.94 454.14 125.25 453.81
  C 106.50 453.75 95.17 453.01 80.14 452.99
  C 71.93 452.97 63.81 452.21 55.58 451.94
  C 53.38 451.86 51.27 451.41 49.32 451.07
  Q 44.47 450.24 49.12 448.63
  Q 50.19 448.25 53.25 448.14
  Q 61.35 447.84 69.49 446.87
  L 75.03 447.13
  L 74.70 448.50
  A 1.01 1.01 0.0 0 0 75.69 449.76
  L 82.14 449.70
  A 0.63 0.63 0.0 0 0 82.75 449.18
  L 104.30 330.29
  Q 106.01 329.97 106.69 330.18
  Z"
/>
<path fill="#a6a9d4" d="
  M 96.21 330.29
  L 104.30 330.29
  L 82.75 449.18
  A 0.63 0.63 0.0 0 1 82.14 449.70
  L 75.69 449.76
  A 1.01 1.01 0.0 0 1 74.70 448.50
  L 75.03 447.13
  L 96.21 330.29
  Z"
/>
<path fill="#eef7ff" d="
  M 106.69 330.18
  L 136.28 330.25
  Q 136.47 330.48 136.77 330.50
  Q 138.46 344.58 141.37 358.40
  Q 141.41 358.62 141.55 358.79
  Q 141.64 358.89 141.75 359.00
  A 0.43 0.42 14.8 0 1 141.88 359.22
  C 142.67 362.65 142.80 366.51 143.34 369.52
  Q 144.00 373.16 144.69 376.79
  Q 144.89 377.88 145.07 378.97
  Q 146.19 385.85 147.33 392.72
  C 148.26 398.39 150.14 405.31 151.06 411.76
  Q 151.10 412.04 151.28 412.21
  Q 151.55 412.46 151.60 412.82
  L 154.06 430.63
  L 142.25 432.81
  A 0.68 0.68 0.0 0 0 141.69 433.49
  L 141.72 435.79
  Q 141.73 436.45 141.11 436.69
  C 136.79 438.37 134.81 441.19 136.33 446.06
  L 86.21 446.65
  A 0.72 0.72 0.0 0 1 85.49 445.80
  L 106.69 330.18
  Z"
/>
<path fill="#a6a9d4" d="
  M 136.28 330.25
  L 146.41 330.47
  L 150.74 354.86
  Q 150.81 355.22 151.15 355.36
  L 151.48 355.49
  Q 150.90 356.00 150.99 356.51
  C 151.87 361.04 152.89 365.60 153.44 370.19
  C 153.77 373.00 154.81 376.63 155.13 378.50
  Q 159.44 403.00 164.08 427.44
  C 164.17 427.92 164.44 428.19 164.79 428.47
  Q 164.17 429.54 164.71 430.56
  Q 164.85 430.84 165.49 430.96
  Q 165.04 430.80 164.84 431.00
  Q 164.70 431.14 164.77 431.52
  Q 166.19 438.60 167.45 445.88
  L 168.08 448.94
  Q 168.30 450.00 167.21 450.00
  L 161.21 450.01
  Q 160.00 450.01 159.75 448.84
  C 159.22 446.36 158.98 443.46 158.53 441.06
  C 155.11 422.80 151.68 404.56 148.72 386.22
  C 147.72 380.00 146.05 373.08 145.07 367.75
  Q 141.83 350.07 138.57 332.41
  C 138.39 331.46 137.64 330.69 136.77 330.50
  Q 136.47 330.48 136.28 330.25
  Z"
/>
<path fill="#322e79" d="
  M 151.77 330.22
  C 152.02 333.77 153.07 344.01 156.09 346.65
  A 1.48 1.46 -23.2 0 0 157.00 347.01
  L 164.97 347.31
  L 169.85 356.30
  Q 169.79 356.13 169.73 355.96
  L 161.61 355.40
  L 151.48 355.49
  L 151.15 355.36
  Q 150.81 355.22 150.74 354.86
  L 146.41 330.47
  L 151.77 330.22
  Z"
/>
<path fill="#51489a" d="
  M 151.77 330.22
  L 159.05 330.28
  C 159.58 332.41 159.67 334.52 160.45 336.51
  Q 162.55 341.84 164.97 347.31
  L 157.00 347.01
  A 1.48 1.46 -23.2 0 1 156.09 346.65
  C 153.07 344.01 152.02 333.77 151.77 330.22
  Z"
/>
<path fill="#e62091" d="
  M 159.05 330.28
  L 214.21 330.34
  Q 214.39 330.55 214.35 330.76
  Q 213.72 331.35 213.63 332.33
  Q 213.59 332.85 213.20 333.18
  Q 208.01 337.62 201.33 341.33
  Q 185.31 350.22 169.85 356.30
  L 164.97 347.31
  Q 162.55 341.84 160.45 336.51
  C 159.67 334.52 159.58 332.41 159.05 330.28
  Z"
/>
<path fill="#eef7ff" d="
  M 214.21 330.34
  L 292.12 330.21
  L 280.99 391.24
  C 278.21 385.45 274.13 378.05 273.54 372.03
  Q 273.68 357.46 270.51 347.96
  Q 268.69 342.49 262.42 340.56
  Q 242.63 334.46 223.76 334.50
  Q 217.66 334.64 214.35 330.76
  Q 214.39 330.55 214.21 330.34
  Z"
/>
<path fill="#a6a9d4" d="
  M 292.12 330.21
  L 300.29 330.24
  L 286.68 404.54
  L 280.99 391.24
  L 292.12 330.21
  Z"
/>
<path fill="#eef7ff" d="
  M 300.29 330.24
  L 337.31 330.23
  Q 337.39 331.83 337.38 333.33
  C 337.38 335.75 338.58 337.82 338.82 340.29
  C 339.53 347.90 341.11 353.25 342.34 359.71
  Q 343.95 368.12 345.53 376.54
  Q 347.00 384.41 348.61 392.25
  Q 348.68 392.63 348.86 392.77
  Q 349.12 393.00 349.13 393.35
  C 349.16 394.77 349.01 396.17 349.32 397.56
  Q 351.12 405.53 352.05 413.66
  Q 352.11 414.14 352.40 414.52
  Q 353.03 415.32 353.12 416.12
  Q 354.77 430.71 358.11 445.08
  A 0.99 0.99 0.0 0 1 357.15 446.29
  L 293.88 445.96
  Q 293.47 445.08 293.43 444.17
  Q 293.41 443.63 293.87 443.35
  L 319.41 427.46
  Q 321.57 426.11 319.85 424.24
  L 318.07 422.29
  Q 316.25 420.31 313.99 421.75
  Q 306.11 426.78 294.75 424.42
  Q 290.48 423.53 285.97 427.10
  Q 285.47 427.23 285.41 426.72
  L 292.91 421.23
  A 1.20 1.19 60.4 0 0 293.30 419.79
  L 286.68 404.54
  L 300.29 330.24
  Z"
/>
<path fill="#a6a9d4" d="
  M 338.66 330.26
  L 346.97 330.24
  L 368.31 446.46
  L 368.60 448.55
  A 0.92 0.91 85.2 0 1 367.73 449.59
  L 361.93 449.75
  A 1.20 1.18 84.1 0 1 360.73 448.76
  Q 358.24 434.33 355.41 419.55
  Q 354.00 412.22 352.78 404.86
  C 350.94 393.80 348.70 382.74 346.66 370.25
  C 345.51 363.25 343.15 351.94 341.24 340.63
  Q 340.36 335.42 338.66 330.26
  Z"
/>
<path fill="#233a40" d="
  M 214.35 330.76
  Q 217.66 334.64 223.76 334.50
  L 221.27 334.60
  Q 220.87 334.61 220.88 335.01
  Q 220.88 335.16 220.88 335.31
  Q 220.87 335.86 221.36 336.10
  Q 228.59 339.68 232.64 340.65
  Q 244.87 343.57 256.12 349.11
  C 265.30 353.64 266.99 360.00 271.32 368.67
  C 271.80 369.63 271.79 370.79 272.14 371.60
  Q 272.50 372.41 273.54 372.03
  C 274.13 378.05 278.21 385.45 280.99 391.24
  L 286.68 404.54
  L 293.30 419.79
  A 1.20 1.19 60.4 0 1 292.91 421.23
  L 285.41 426.72
  L 278.06 430.57
  A 0.85 0.84 60.8 0 1 276.95 430.25
  L 274.89 426.81
  Q 274.03 423.94 272.34 423.60
  Q 272.02 421.61 270.79 419.47
  Q 264.67 408.76 258.87 397.87
  C 257.63 395.54 256.08 393.34 254.74 390.99
  Q 254.49 390.54 254.03 390.78
  Q 253.57 391.02 253.19 391.08
  Q 253.30 387.56 252.12 385.39
  Q 248.47 378.65 244.70 371.98
  C 243.20 369.33 234.52 367.81 231.54 367.33
  Q 231.00 367.24 231.11 367.77
  C 231.93 371.80 231.72 374.90 227.53 376.91
  Q 227.71 375.71 223.98 376.04
  Q 227.95 376.23 229.57 374.64
  Q 230.61 373.62 230.28 372.35
  C 229.80 370.56 229.69 369.97 230.13 368.39
  Q 230.50 367.07 229.15 366.84
  C 214.84 364.37 201.02 365.81 186.63 366.05
  Q 179.63 366.17 173.72 363.91
  Q 170.69 360.13 169.73 355.96
  Q 169.79 356.13 169.85 356.30
  Q 185.31 350.22 201.33 341.33
  Q 208.01 337.62 213.20 333.18
  Q 213.59 332.85 213.63 332.33
  Q 213.72 331.35 214.35 330.76
  Z"
/>
<path fill="#111f20" d="
  M 223.76 334.50
  Q 242.63 334.46 262.42 340.56
  Q 268.69 342.49 270.51 347.96
  Q 273.68 357.46 273.54 372.03
  Q 272.50 372.41 272.14 371.60
  C 271.79 370.79 271.80 369.63 271.32 368.67
  C 266.99 360.00 265.30 353.64 256.12 349.11
  Q 244.87 343.57 232.64 340.65
  Q 228.59 339.68 221.36 336.10
  Q 220.87 335.86 220.88 335.31
  Q 220.88 335.16 220.88 335.01
  Q 220.87 334.61 221.27 334.60
  L 223.76 334.50
  Z"
/>
<path fill="#1b1a48" d="
  M 169.73 355.96
  Q 170.69 360.13 173.72 363.91
  L 165.16 364.03
  L 161.61 355.40
  L 169.73 355.96
  Z"
/>
<path fill="#eef7ff" d="
  M 151.48 355.49
  L 161.61 355.40
  L 165.16 364.03
  Q 162.46 363.88 159.95 363.97
  C 151.97 364.26 152.69 377.20 159.75 377.22
  Q 171.56 377.26 183.38 377.25
  C 183.94 377.25 184.35 377.57 184.59 378.03
  L 184.58 381.38
  A 0.85 0.85 0.0 0 0 185.44 382.23
  L 189.22 382.21
  A 0.51 0.51 0.0 0 1 189.74 382.72
  L 189.72 416.25
  A 0.51 0.49 87.9 0 0 190.25 416.76
  L 191.68 416.66
  A 0.53 0.53 0.0 0 1 192.25 417.19
  L 192.26 422.51
  A 0.77 0.76 -5.5 0 1 191.64 423.26
  L 164.79 428.47
  C 164.44 428.19 164.17 427.92 164.08 427.44
  Q 159.44 403.00 155.13 378.50
  C 154.81 376.63 153.77 373.00 153.44 370.19
  C 152.89 365.60 151.87 361.04 150.99 356.51
  Q 150.90 356.00 151.48 355.49
  Z"
/>
<path fill="#51489a" d="
  M 165.16 364.03
  L 173.72 363.91
  Q 179.63 366.17 186.63 366.05
  C 201.02 365.81 214.84 364.37 229.15 366.84
  Q 230.50 367.07 230.13 368.39
  C 229.69 369.97 229.80 370.56 230.28 372.35
  Q 230.61 373.62 229.57 374.64
  Q 227.95 376.23 223.98 376.04
  Q 216.30 375.96 208.50 376.04
  C 206.67 376.05 204.85 377.00 202.62 377.10
  Q 191.90 377.59 185.70 377.42
  Q 185.33 377.41 185.09 377.58
  Q 184.81 377.76 184.59 378.03
  C 184.35 377.57 183.94 377.25 183.38 377.25
  Q 171.56 377.26 159.75 377.22
  C 152.69 377.20 151.97 364.26 159.95 363.97
  Q 162.46 363.88 165.16 364.03
  Z"
/>
<path fill="#eef7ff" d="
  M 253.19 391.08
  L 254.43 428.65
  Q 254.44 429.06 254.85 429.12
  Q 263.16 430.21 271.53 429.55
  Q 272.06 429.51 272.09 428.97
  L 272.34 423.60
  Q 274.03 423.94 274.89 426.81
  L 272.94 434.19
  Q 265.76 429.10 257.02 432.08
  C 253.41 433.31 253.72 435.26 254.00 438.61
  A 0.35 0.34 17.8 0 1 253.43 438.90
  Q 251.48 437.25 248.92 436.31
  L 248.92 431.80
  Q 248.91 431.20 248.32 431.11
  L 198.78 423.25
  Q 197.75 423.08 197.75 422.03
  L 197.76 417.30
  Q 197.76 416.34 198.69 416.57
  Q 200.78 417.08 200.79 416.25
  Q 200.98 399.50 201.04 382.71
  Q 201.05 382.22 201.54 382.22
  L 205.36 382.24
  A 0.87 0.86 0.3 0 0 206.23 381.39
  L 206.29 377.79
  A 0.72 0.72 0.0 0 1 207.00 377.08
  L 227.53 376.91
  C 231.72 374.90 231.93 371.80 231.11 367.77
  Q 231.00 367.24 231.54 367.33
  C 234.52 367.81 243.20 369.33 244.70 371.98
  Q 248.47 378.65 252.12 385.39
  Q 253.30 387.56 253.19 391.08
  Z"
/>
<path fill="#1b1a48" d="
  M 223.98 376.04
  Q 227.71 375.71 227.53 376.91
  L 207.00 377.08
  A 0.72 0.72 0.0 0 0 206.29 377.79
  L 206.23 381.39
  A 0.87 0.86 0.3 0 1 205.36 382.24
  L 201.54 382.22
  Q 201.05 382.22 201.04 382.71
  Q 200.98 399.50 200.79 416.25
  Q 200.78 417.08 198.69 416.57
  Q 197.76 416.34 197.76 417.30
  L 197.75 422.03
  Q 197.75 423.08 198.78 423.25
  L 248.32 431.11
  Q 248.91 431.20 248.92 431.80
  L 248.92 436.31
  L 247.33 435.53
  L 247.32 433.04
  Q 247.32 432.50 246.78 432.44
  L 198.43 427.19
  A 0.65 0.65 0.0 0 0 197.71 427.84
  L 197.72 436.49
  A 0.92 0.91 14.1 0 0 198.21 437.30
  Q 202.97 439.96 201.43 445.71
  Q 199.82 449.07 196.50 449.69
  Q 191.09 450.71 188.53 445.84
  Q 186.74 440.04 191.86 437.17
  Q 192.27 436.94 192.27 436.47
  L 192.28 427.77
  Q 192.28 427.22 191.73 427.29
  L 165.49 430.96
  Q 164.85 430.84 164.71 430.56
  Q 164.17 429.54 164.79 428.47
  L 191.64 423.26
  A 0.77 0.76 -5.5 0 0 192.26 422.51
  L 192.25 417.19
  A 0.53 0.53 0.0 0 0 191.68 416.66
  L 190.25 416.76
  A 0.51 0.49 87.9 0 1 189.72 416.25
  L 189.74 382.72
  A 0.51 0.51 0.0 0 0 189.22 382.21
  L 185.44 382.23
  A 0.85 0.85 0.0 0 1 184.58 381.38
  L 184.59 378.03
  Q 184.81 377.76 185.09 377.58
  Q 185.33 377.41 185.70 377.42
  Q 191.90 377.59 202.62 377.10
  C 204.85 377.00 206.67 376.05 208.50 376.04
  Q 216.30 375.96 223.98 376.04
  Z"
/>
<path fill="#111f20" d="
  M 272.34 423.60
  L 272.09 428.97
  Q 272.06 429.51 271.53 429.55
  Q 263.16 430.21 254.85 429.12
  Q 254.44 429.06 254.43 428.65
  L 253.19 391.08
  Q 253.57 391.02 254.03 390.78
  Q 254.49 390.54 254.74 390.99
  C 256.08 393.34 257.63 395.54 258.87 397.87
  Q 264.67 408.76 270.79 419.47
  Q 272.02 421.61 272.34 423.60
  Z"
/>
<path fill="#1d2531" d="
  M 293.88 445.96
  L 293.99 448.75
  Q 294.01 449.25 293.51 449.25
  L 254.91 449.22
  A 0.23 0.23 0.0 0 1 254.70 449.08
  Q 254.35 448.18 254.41 447.17
  A 0.46 0.46 0.0 0 0 253.56 446.90
  C 250.42 451.72 243.71 450.40 241.47 445.62
  Q 240.01 438.36 246.94 436.42
  Q 247.48 436.27 247.33 435.53
  L 248.92 436.31
  Q 251.48 437.25 253.43 438.90
  A 0.35 0.34 17.8 0 0 254.00 438.61
  C 253.72 435.26 253.41 433.31 257.02 432.08
  Q 265.76 429.10 272.94 434.19
  Q 276.32 437.69 281.00 439.84
  Q 282.53 440.54 281.73 439.06
  C 280.51 436.80 278.49 433.80 280.84 431.35
  Q 283.20 428.89 285.97 427.10
  Q 290.48 423.53 294.75 424.42
  Q 306.11 426.78 313.99 421.75
  Q 316.25 420.31 318.07 422.29
  L 319.85 424.24
  Q 321.57 426.11 319.41 427.46
  L 293.87 443.35
  Q 293.41 443.63 293.43 444.17
  Q 293.47 445.08 293.88 445.96
  Z"
/>
<path fill="#a6a9d4" d="
  M 274.89 426.81
  L 276.95 430.25
  A 0.85 0.84 60.8 0 0 278.06 430.57
  L 285.41 426.72
  Q 285.47 427.23 285.97 427.10
  Q 283.20 428.89 280.84 431.35
  C 278.49 433.80 280.51 436.80 281.73 439.06
  Q 282.53 440.54 281.00 439.84
  Q 276.32 437.69 272.94 434.19
  L 274.89 426.81
  Z"
/>
<path fill="#eef7ff" d="
  M 188.53 445.84
  L 167.45 445.88
  Q 166.19 438.60 164.77 431.52
  Q 164.70 431.14 164.84 431.00
  Q 165.04 430.80 165.49 430.96
  L 191.73 427.29
  Q 192.28 427.22 192.28 427.77
  L 192.27 436.47
  Q 192.27 436.94 191.86 437.17
  Q 186.74 440.04 188.53 445.84
  Z"
/>
<path fill="#eef7ff" d="
  M 247.33 435.53
  Q 247.48 436.27 246.94 436.42
  Q 240.01 438.36 241.47 445.62
  L 201.43 445.71
  Q 202.97 439.96 198.21 437.30
  A 0.92 0.91 14.1 0 1 197.72 436.49
  L 197.71 427.84
  A 0.65 0.65 0.0 0 1 198.43 427.19
  L 246.78 432.44
  Q 247.32 432.50 247.32 433.04
  L 247.33 435.53
  Z"
/>
<path fill="#1b1a48" d="
  M 154.06 430.63
  Q 154.84 430.77 154.86 432.51
  L 143.97 434.05
  Q 143.38 434.14 143.42 434.73
  L 143.50 436.01
  Q 143.54 436.61 144.12 436.77
  Q 150.31 438.46 149.32 444.99
  C 147.81 451.31 139.30 451.41 136.33 446.06
  C 134.81 441.19 136.79 438.37 141.11 436.69
  Q 141.73 436.45 141.72 435.79
  L 141.69 433.49
  A 0.68 0.68 0.0 0 1 142.25 432.81
  L 154.06 430.63
  Z"
/>
<path fill="#eef7ff" d="
  M 154.86 432.51
  L 157.12 444.88
  A 0.86 0.86 0.0 0 1 156.39 445.89
  Q 152.82 446.37 149.32 444.99
  Q 150.31 438.46 144.12 436.77
  Q 143.54 436.61 143.50 436.01
  L 143.42 434.73
  Q 143.38 434.14 143.97 434.05
  L 154.86 432.51
  Z"
/>
</svg>
