<?xml version="1.0" encoding="UTF-8" standalone="no"?>
<!DOCTYPE svg PUBLIC "-//W3C//DTD SVG 1.1//EN" "http://www.w3.org/Graphics/SVG/1.1/DTD/svg11.dtd">
<svg xmlns="http://www.w3.org/2000/svg" version="1.1" viewBox="0.00 0.00 645.00 387.00">
<g stroke-width="2.00" fill="none" stroke-linecap="butt">
<path stroke="#816244" vector-effect="non-scaling-stroke" d="
  M 288.34 54.49
  L 277.65 49.89"
/>
<path stroke="#826b98" vector-effect="non-scaling-stroke" d="
  M 277.65 49.89
  Q 279.06 48.41 280.65 47.04
  C 286.66 41.81 288.18 35.88 283.72 28.52
  A 0.87 0.87 0.0 0 0 282.29 28.43
  C 278.76 32.89 275.28 34.82 269.49 33.55
  A 1.35 1.34 11.1 0 0 267.87 34.63
  L 265.31 48.81"
/>
<path stroke="#816244" vector-effect="non-scaling-stroke" d="
  M 265.31 48.81
  C 257.93 50.02 251.47 52.51 248.57 59.25
  Q 245.65 66.03 242.78 73.30"
/>
<path stroke="#fec168" vector-effect="non-scaling-stroke" d="
  M 277.65 49.89
  L 275.93 57.22
  A 1.37 1.37 0.0 0 1 273.58 57.83
  L 265.31 48.81"
/>
<path stroke="#816244" vector-effect="non-scaling-stroke" d="
  M 294.24 71.23
  L 284.80 93.30"
/>
<path stroke="#f6d282" vector-effect="non-scaling-stroke" d="
  M 284.80 93.30
  Q 280.54 93.43 276.50 93.27
  C 271.86 93.09 270.67 96.62 270.65 100.46"
/>
<path stroke="#8a6850" vector-effect="non-scaling-stroke" d="
  M 270.65 100.46
  L 255.78 100.36"
/>
<path stroke="#ead889" vector-effect="non-scaling-stroke" d="
  M 255.78 100.36
  Q 249.75 99.75 243.85 98.61
  C 237.91 97.46 239.86 91.57 239.62 87.44"
/>
<path stroke="#a6a6ca" vector-effect="non-scaling-stroke" d="
  M 283.53 99.61
  L 281.76 101.09"
/>
<path stroke="#8282bf" vector-effect="non-scaling-stroke" d="
  M 281.76 101.09
  L 270.65 100.46"
/>
<path stroke="#8b8bc6" vector-effect="non-scaling-stroke" d="
  M 336.24 127.25
  L 339.72 133.12
  Q 340.34 134.17 341.57 134.17
  Q 390.73 134.22 439.50 133.92
  C 446.96 133.88 449.14 137.24 448.45 144.30"
/>
<path stroke="#0e1281" vector-effect="non-scaling-stroke" d="
  M 448.45 144.30
  Q 445.89 144.72 444.25 144.72
  Q 396.55 144.71 349.15 144.92
  A 0.94 0.93 82.4 0 0 348.25 146.10
  C 349.17 149.61 351.36 152.64 352.76 155.99
  C 353.08 156.74 353.15 158.41 352.57 159.27
  C 350.67 162.13 347.34 162.94 344.48 160.53
  Q 339.64 156.46 338.37 155.13
  C 332.00 148.45 327.19 142.54 317.54 145.37
  C 315.45 145.99 315.52 146.82 314.91 148.64
  Q 312.45 156.03 310.21 163.48
  Q 309.73 165.05 307.94 166.00
  Q 307.51 166.23 307.03 166.15
  C 303.98 165.63 298.44 166.35 299.13 161.49
  Q 300.12 154.48 301.42 147.71
  A 2.27 2.26 5.6 0 0 299.21 145.03
  Q 276.81 144.94 255.12 145.13
  C 251.53 145.16 249.03 143.31 245.50 143.07
  Q 242.83 142.89 240.12 142.06"
/>
<path stroke="#8b70a5" vector-effect="non-scaling-stroke" d="
  M 240.12 142.06
  L 241.45 138.77
  A 0.72 0.72 0.0 0 0 240.85 137.78
  L 235.81 137.27
  A 0.87 0.86 79.7 0 0 234.95 138.52
  L 235.78 140.19"
/>
<path stroke="#0e1281" vector-effect="non-scaling-stroke" d="
  M 235.78 140.19
  Q 234.69 140.01 234.63 141.34
  Q 234.61 141.83 234.13 141.86
  L 231.96 141.99"
/>
<path stroke="#7c3bab" vector-effect="non-scaling-stroke" d="
  M 231.96 141.99
  Q 232.38 138.00 229.75 137.12
  A 2.07 2.07 0.0 0 0 227.07 138.60
  C 226.36 141.52 228.44 142.63 230.98 142.44"
/>
<path stroke="#0e1281" vector-effect="non-scaling-stroke" d="
  M 230.98 142.44
  Q 225.23 143.83 219.71 142.46"
/>
<path stroke="#8b8bc6" vector-effect="non-scaling-stroke" d="
  M 219.71 142.46
  C 220.37 140.23 220.42 135.89 223.24 135.22
  Q 228.54 133.97 234.00 134.00
  Q 268.24 134.19 302.40 134.18
  Q 303.74 134.18 304.17 132.90
  L 305.12 130.03"
/>
<path stroke="#0e1281" vector-effect="non-scaling-stroke" d="
  M 305.12 130.03
  Q 307.89 129.37 308.37 130.60
  Q 309.06 132.37 309.93 133.58
  C 311.85 136.24 313.46 139.02 314.99 141.63
  Q 316.61 144.40 318.05 141.53
  L 318.51 140.61
  Q 320.01 137.63 318.62 134.59
  C 317.04 131.12 309.75 118.41 305.92 125.02"
/>
<path stroke="#8b8bc6" vector-effect="non-scaling-stroke" d="
  M 305.92 125.02
  Q 305.89 124.82 305.86 124.70
  A 0.60 0.59 -17.1 0 0 305.04 124.27
  C 300.03 126.35 295.24 128.16 289.80 128.86
  C 278.74 130.28 265.71 131.24 255.64 126.00"
/>
<path stroke="#7687c6" vector-effect="non-scaling-stroke" d="
  M 255.78 100.36
  Q 250.98 112.45 254.52 124.49
  Q 254.79 125.40 255.64 126.00"
/>
<path stroke="#ebfbff" vector-effect="non-scaling-stroke" d="
  M 255.64 126.00
  C 254.82 128.03 252.45 127.56 250.25 127.57
  Q 236.13 127.65 221.99 127.92
  Q 214.41 128.06 213.53 135.01
  Q 212.37 144.26 212.22 176.86"
/>
<path stroke="#81e0ca" vector-effect="non-scaling-stroke" d="
  M 212.22 176.86
  C 204.04 167.79 181.84 143.88 167.96 156.70
  C 162.68 161.58 161.54 170.77 170.07 173.13
  Q 174.03 174.23 177.84 174.79
  A 4.04 4.03 5.8 0 1 181.28 179.01
  Q 181.10 181.98 180.94 185.34
  C 180.81 187.95 183.09 188.78 184.12 190.83"
/>
<path stroke="#85d1c6" vector-effect="non-scaling-stroke" d="
  M 184.12 190.83
  C 176.21 190.60 168.74 190.20 164.78 198.20
  Q 163.38 201.01 163.86 203.44
  C 165.45 211.43 173.43 209.01 178.28 206.90
  Q 180.14 206.09 181.09 207.88
  C 182.44 210.42 184.42 215.49 188.00 215.22
  Q 195.83 214.64 213.26 212.49"
/>
<path stroke="#ebfbff" vector-effect="non-scaling-stroke" d="
  M 213.26 212.49
  Q 212.72 214.35 212.73 216.00
  Q 212.88 238.58 212.69 261.16
  C 212.69 261.62 212.44 262.05 212.28 262.45"
/>
<path stroke="#ebe0dd" vector-effect="non-scaling-stroke" d="
  M 190.13 241.35
  Q 188.86 239.37 189.62 238.16"
/>
<path stroke="#6e82b9" vector-effect="non-scaling-stroke" d="
  M 189.62 238.16
  Q 191.91 237.57 193.35 235.26
  A 1.34 1.34 0.0 0 0 192.48 233.24
  Q 189.18 232.56 187.84 229.48
  A 1.33 1.31 -89.6 0 0 187.19 228.81
  C 181.19 226.02 166.69 224.06 163.77 232.49
  Q 161.10 240.20 164.80 248.23"
/>
<path stroke="#ebe0dd" vector-effect="non-scaling-stroke" d="
  M 164.80 248.23
  C 164.16 249.92 163.03 250.85 163.09 253.18"
/>
<path stroke="#e59cc6" vector-effect="non-scaling-stroke" d="
  M 163.09 253.18
  L 153.00 254.77"
/>
<path stroke="#31368c" vector-effect="non-scaling-stroke" d="
  M 315.54 100.24
  Q 313.43 99.87 311.25 99.80
  Q 298.55 99.38 285.83 99.17
  C 284.98 99.16 284.37 99.48 283.53 99.61"
/>
<path stroke="#7a7cb3" vector-effect="non-scaling-stroke" d="
  M 283.53 99.61
  L 284.80 93.30"
/>
<path stroke="#3a3b98" vector-effect="non-scaling-stroke" d="
  M 315.81 100.94
  Q 312.35 102.41 307.00 102.71
  Q 293.21 103.48 281.76 101.09"
/>
<path stroke="#826b98" vector-effect="non-scaling-stroke" d="
  M 240.12 142.06
  Q 238.82 143.12 236.74 143.19
  A 0.69 0.69 0.0 0 1 236.09 142.22
  Q 236.53 141.23 235.78 140.19"
/>
<path stroke="#73369e" vector-effect="non-scaling-stroke" d="
  M 231.96 141.99
  Q 231.60 142.29 230.98 142.44"
/>
<path stroke="#8286ba" vector-effect="non-scaling-stroke" d="
  M 219.71 142.46
  Q 219.33 200.12 219.07 257.80
  C 219.01 270.61 223.24 272.94 235.85 272.97
  Q 336.92 273.21 438.01 273.19
  Q 448.34 273.19 448.50 262.74
  Q 448.97 233.43 448.75 203.89"
/>
<path stroke="#8b8bc6" vector-effect="non-scaling-stroke" d="
  M 448.75 203.89
  L 455.56 203.38"
/>
<path stroke="#ebfbff" vector-effect="non-scaling-stroke" d="
  M 455.56 203.38
  C 455.19 206.35 454.63 209.28 454.67 212.23
  C 454.94 233.77 454.29 255.28 454.50 276.74
  A 2.61 2.61 0.0 0 1 451.98 279.38
  Q 444.44 279.64 436.99 279.96
  Q 434.86 280.06 433.79 281.47"
/>
<path stroke="#f7f6f8" vector-effect="non-scaling-stroke" d="
  M 383.46 281.56
  C 381.68 281.52 378.41 282.21 378.39 279.54
  Q 378.39 279.07 377.92 279.11
  C 375.81 279.28 373.78 279.63 371.71 279.53
  Q 338.21 277.88 304.63 281.04"
/>
<path stroke="#ebfbff" vector-effect="non-scaling-stroke" d="
  M 304.63 281.04
  Q 284.68 280.05 264.65 280.47"
/>
<path stroke="#99d5c6" vector-effect="non-scaling-stroke" d="
  M 213.26 212.49
  Q 214.21 206.60 212.97 201.25"
/>
<path stroke="#96e4cb" vector-effect="non-scaling-stroke" d="
  M 212.97 201.25
  Q 213.25 194.42 213.55 187.50
  Q 213.80 181.72 212.22 176.86"
/>
<path stroke="#0e1281" vector-effect="non-scaling-stroke" d="
  M 448.51 170.24
  C 445.20 173.19 439.84 173.11 435.90 174.64"
/>
<path stroke="#826b98" vector-effect="non-scaling-stroke" d="
  M 435.90 174.64
  Q 428.01 173.88 420.34 171.57
  Q 417.28 170.65 417.84 167.59
  A 0.65 0.65 0.0 0 1 418.97 167.28
  L 421.91 170.58
  A 0.95 0.95 0.0 0 0 423.52 170.27
  Q 424.20 168.36 422.11 165.86"
/>
<path stroke="#31368c" vector-effect="non-scaling-stroke" d="
  M 422.11 165.86
  L 421.90 163.56"
/>
<path stroke="#51559f" vector-effect="non-scaling-stroke" d="
  M 421.90 163.56
  Q 423.69 163.51 425.18 162.56
  A 0.65 0.64 61.6 0 0 425.42 161.75
  C 423.98 158.53 421.66 157.44 418.02 157.47
  Q 409.79 157.53 401.77 157.54
  Q 400.37 157.54 400.11 158.91
  Q 399.62 161.46 400.80 163.83"
/>
<path stroke="#31368c" vector-effect="non-scaling-stroke" d="
  M 400.80 163.83
  L 400.92 166.51"
/>
<path stroke="#826b98" vector-effect="non-scaling-stroke" d="
  M 400.92 166.51
  C 398.84 170.34 403.55 170.18 405.60 170.31
  Q 408.99 170.52 406.32 172.63
  Q 405.11 173.58 402.75 173.64
  A 1.42 1.41 -74.3 0 0 401.57 174.31
  L 401.38 174.62
  A 0.44 0.44 0.0 0 0 401.74 175.30
  L 405.71 175.45
  Q 406.80 175.49 407.29 176.46
  L 407.41 176.69
  A 0.57 0.56 -14.3 0 1 406.92 177.51
  L 401.89 177.66
  Q 400.49 177.70 400.46 179.11
  L 400.45 179.48
  A 1.03 1.03 0.0 0 0 401.51 180.53
  C 407.31 180.32 414.67 179.75 420.33 180.98
  C 427.30 182.50 433.94 184.55 440.93 186.63"
/>
<path stroke="#0e1281" vector-effect="non-scaling-stroke" d="
  M 440.93 186.63
  L 448.75 203.89"
/>
<path stroke="#8286ba" vector-effect="non-scaling-stroke" d="
  M 305.12 130.03
  L 305.92 125.02"
/>
<path stroke="#aeafd1" vector-effect="non-scaling-stroke" d="
  M 454.88 159.83
  L 454.73 163.35"
/>
<path stroke="#8b8bc6" vector-effect="non-scaling-stroke" d="
  M 455.31 169.19
  Q 452.14 170.63 448.51 170.24"
/>
<path stroke="#8286ba" vector-effect="non-scaling-stroke" d="
  M 448.51 170.24
  L 448.45 144.30"
/>
<path stroke="#ebfbff" vector-effect="non-scaling-stroke" d="
  M 435.02 126.52
  L 433.70 127.20
  Q 433.26 127.43 432.76 127.42
  L 336.24 127.25"
/>
<path stroke="#7687c6" vector-effect="non-scaling-stroke" d="
  M 336.24 127.25
  Q 328.80 112.29 315.81 100.94"
/>
<path stroke="#9aabd1" vector-effect="non-scaling-stroke" d="
  M 315.81 100.94
  Q 315.62 100.69 315.54 100.24"
/>
<path stroke="#6e82b9" vector-effect="non-scaling-stroke" d="
  M 315.54 100.24
  C 317.97 100.27 321.70 101.33 322.90 98.31
  Q 328.19 85.01 333.67 71.44"
/>
<path stroke="#f985a5" vector-effect="non-scaling-stroke" d="
  M 181.29 259.93
  Q 179.95 259.18 177.72 258.59
  C 174.61 257.77 173.22 259.82 172.11 262.13
  A 0.72 0.72 0.0 0 1 170.84 262.20
  Q 167.70 257.12 163.09 253.18"
/>
<path stroke="#826b98" vector-effect="non-scaling-stroke" d="
  M 189.62 238.16
  L 179.42 234.64
  A 0.84 0.83 -76.2 0 0 178.32 235.31
  C 178.05 237.03 178.09 239.34 175.77 239.67
  Q 173.04 240.06 172.31 241.43
  Q 171.18 243.53 170.84 241.15
  Q 170.67 239.89 169.48 239.37
  A 2.17 2.17 0.0 0 0 166.45 241.01
  Q 166.06 243.48 167.42 245.61
  A 0.85 0.85 0.0 0 1 167.45 246.49
  Q 166.79 247.66 164.80 248.23"
/>
<path stroke="#7c2781" vector-effect="non-scaling-stroke" d="
  M 199.38 285.25
  L 188.28 284.96
  A 2.06 2.06 0.0 0 0 186.31 286.26
  Q 181.61 298.02 176.82 310.02
  Q 176.14 311.72 174.18 312.37"
/>
<path stroke="#852c8d" vector-effect="non-scaling-stroke" d="
  M 174.18 312.37
  C 164.74 311.49 156.92 300.51 147.29 308.79
  Q 145.58 310.26 140.08 316.31"
/>
<path stroke="#ce90bd" vector-effect="non-scaling-stroke" d="
  M 139.72 313.28
  Q 142.84 311.41 141.29 307.48
  Q 140.34 305.08 136.54 299.99"
/>
<path stroke="#30ba92" vector-effect="non-scaling-stroke" d="
  M 212.97 201.25
  Q 213.13 201.69 213.07 202.18
  Q 213.02 202.58 212.66 202.39
  Q 212.29 202.19 212.38 201.87
  A 0.34 0.32 -68.7 0 0 212.22 201.48
  Q 200.91 195.60 188.74 191.80
  Q 187.31 191.35 184.12 190.83"
/>
<path stroke="#8b70a5" vector-effect="non-scaling-stroke" d="
  M 492.83 191.10
  L 487.63 196.64"
/>
<path stroke="#2e63c1" vector-effect="non-scaling-stroke" d="
  M 487.63 196.64
  Q 484.28 196.44 480.83 197.67"
/>
<path stroke="#7687c6" vector-effect="non-scaling-stroke" d="
  M 480.83 197.67
  L 455.56 203.38"
/>
<path stroke="#8b70a5" vector-effect="non-scaling-stroke" d="
  M 440.93 186.63
  L 435.90 174.64"
/>
<path stroke="#7687c6" vector-effect="non-scaling-stroke" d="
  M 481.42 225.85
  C 479.07 251.63 476.99 276.83 478.41 303.25
  Q 478.43 303.66 477.97 303.84"
/>
<path stroke="#8282bf" vector-effect="non-scaling-stroke" d="
  M 225.80 333.85
  L 235.41 324.19"
/>
<path stroke="#e2f2f8" vector-effect="non-scaling-stroke" d="
  M 304.54 302.82
  L 304.63 281.04"
/>
<path stroke="#ae94b0" vector-effect="non-scaling-stroke" d="
  M 422.11 165.86
  L 400.92 166.51"
/>
<path stroke="#7d7eb7" vector-effect="non-scaling-stroke" d="
  M 421.90 163.56
  L 400.80 163.83"
/>
<path stroke="#196b85" vector-effect="non-scaling-stroke" d="
  M 485.32 116.95
  C 481.64 118.45 469.54 120.43 471.91 127.12"
/>
<path stroke="#96c9a9" vector-effect="non-scaling-stroke" d="
  M 471.91 127.12
  Q 472.10 131.44 472.28 136.00
  C 472.49 141.34 473.31 143.16 475.82 147.83
  C 477.83 151.57 480.25 150.31 483.51 149.89
  A 0.66 0.66 0.0 0 1 484.25 150.57
  Q 484.17 152.16 482.24 152.73"
/>
<path stroke="#39bcc6" vector-effect="non-scaling-stroke" d="
  M 482.24 152.73
  C 477.59 152.52 473.78 157.32 471.09 160.97
  C 468.12 164.98 466.18 164.55 461.77 165.81
  Q 459.31 166.51 458.74 168.57"
/>
<path stroke="#217092" vector-effect="non-scaling-stroke" d="
  M 458.74 168.57
  L 455.31 169.19"
/>
<path stroke="#96e4cb" vector-effect="non-scaling-stroke" d="
  M 455.31 169.19
  Q 453.92 166.29 454.73 163.35"
/>
<path stroke="#45949d" vector-effect="non-scaling-stroke" d="
  M 454.73 163.35
  L 474.70 151.52
  A 0.79 0.77 -29.2 0 0 475.00 150.49
  L 474.86 150.22
  A 0.51 0.51 0.0 0 0 474.21 149.99
  C 468.67 152.36 462.97 155.39 458.29 159.33
  Q 456.01 161.24 454.88 159.83"
/>
<path stroke="#96e4cb" vector-effect="non-scaling-stroke" d="
  M 454.88 159.83
  L 454.83 137.03"
/>
<path stroke="#217092" vector-effect="non-scaling-stroke" d="
  M 454.83 137.03
  L 455.20 138.64
  Q 455.47 139.87 456.09 138.77
  Q 462.51 127.42 470.54 117.13
  Q 470.70 116.92 470.48 116.76
  L 470.21 116.56
  A 0.36 0.36 0.0 0 0 469.70 116.64
  L 455.41 136.35"
/>
<path stroke="#96e4cb" vector-effect="non-scaling-stroke" d="
  M 455.41 136.35
  Q 453.32 130.86 449.40 127.68"
/>
<path stroke="#8b8bc6" vector-effect="non-scaling-stroke" d="
  M 454.83 137.03
  L 455.41 136.35"
/>
<path stroke="#0e1281" vector-effect="non-scaling-stroke" d="
  M 216.11 306.85
  Q 214.29 310.09 212.03 313.84
  Q 210.37 316.57 207.00 316.49
  Q 190.60 316.05 177.28 314.96
  Q 175.11 314.78 174.18 312.37"
/>
<path stroke="#607bbd" vector-effect="non-scaling-stroke" d="
  M 194.47 349.27
  Q 191.45 348.21 187.24 349.03
  Q 183.21 349.82 173.26 352.31
  C 170.59 352.98 168.05 353.25 166.59 350.79
  A 1.34 1.34 0.0 0 0 165.27 350.15
  Q 156.12 351.36 147.16 348.22"
/>
<path stroke="#8ed3fa" vector-effect="non-scaling-stroke" d="
  M 520.18 209.80
  Q 517.56 217.23 519.59 225.90"
/>
<path stroke="#2e63c1" vector-effect="non-scaling-stroke" d="
  M 519.59 225.90
  Q 500.31 227.84 481.42 225.85"
/>
<path stroke="#8ed3fa" vector-effect="non-scaling-stroke" d="
  M 481.42 225.85
  L 480.83 197.67"
/>
<path stroke="#a2bcd9" vector-effect="non-scaling-stroke" d="
  M 521.34 196.28
  Q 510.30 197.18 499.40 200.29
  C 494.14 201.78 489.99 202.03 487.63 196.64"
/>
<path stroke="#8b70a5" vector-effect="non-scaling-stroke" d="
  M 496.82 191.34
  Q 503.41 195.71 510.72 190.18"
/>
<path stroke="#d4d4d4" vector-effect="non-scaling-stroke" d="
  M 519.86 185.42
  Q 521.95 185.81 524.00 184.62
  C 525.88 183.53 526.47 181.69 524.44 180.29
  Q 521.97 178.58 518.96 177.59"
/>
<path stroke="#a2bcd9" vector-effect="non-scaling-stroke" d="
  M 530.13 170.25
  C 526.61 171.14 519.08 172.23 518.96 177.59"
/>
<path stroke="#77c7f1" vector-effect="non-scaling-stroke" d="
  M 518.96 177.59
  L 519.86 185.42"
/>
<path stroke="#a2bcd9" vector-effect="non-scaling-stroke" d="
  M 519.86 185.42
  L 510.72 190.18"
/>
<path stroke="#2e63c1" vector-effect="non-scaling-stroke" d="
  M 510.72 190.18
  L 496.82 191.34"
/>
<path stroke="#a2bcd9" vector-effect="non-scaling-stroke" d="
  M 496.82 191.34
  Q 495.44 190.70 492.83 191.10"
/>
<path stroke="#2e63c1" vector-effect="non-scaling-stroke" d="
  M 492.83 191.10
  Q 486.77 179.74 481.05 168.42
  C 479.68 165.72 477.95 164.55 474.99 165.18
  Q 466.94 166.90 458.74 168.57"
/>
<path stroke="#607bbd" vector-effect="non-scaling-stroke" d="
  M 515.34 288.23
  Q 516.60 297.86 518.58 307.50
  Q 518.67 307.93 519.05 307.89"
/>
<path stroke="#826b98" vector-effect="non-scaling-stroke" d="
  M 495.14 139.43
  Q 493.67 139.73 492.23 139.05
  A 0.60 0.60 0.0 0 1 491.95 138.24
  C 492.65 136.82 493.71 135.37 493.56 133.82
  C 493.24 130.43 489.89 131.51 488.31 133.17
  A 2.19 2.18 -50.1 0 1 485.45 133.43
  C 480.61 129.90 479.08 124.69 471.91 127.12"
/>
<path stroke="#a2bcd9" vector-effect="non-scaling-stroke" d="
  M 502.24 150.78
  C 498.14 158.62 486.77 163.89 482.24 152.73"
/>
<path stroke="#c0ebf5" vector-effect="non-scaling-stroke" d="
  M 546.30 265.91
  Q 544.50 268.48 546.13 271.20
  A 1.80 1.79 66.4 0 1 545.10 273.85
  C 542.50 274.60 540.97 274.38 538.71 272.72
  Q 534.25 269.43 529.84 266.13
  Q 527.01 264.02 525.15 266.11
  A 1.91 1.91 0.0 0 0 525.29 268.78
  C 528.69 271.90 531.99 272.56 536.24 273.30
  C 536.65 273.38 537.07 273.67 537.31 273.98
  Q 537.61 274.36 537.15 274.53
  Q 525.73 278.56 515.34 288.23"
/>
<path stroke="#7687c6" vector-effect="non-scaling-stroke" d="
  M 515.34 288.23
  L 519.59 225.90"
/>
<path stroke="#ead889" vector-effect="non-scaling-stroke" d="
  M 252.9827 89.9308
  A 2.82 1.70 106.0 0 0 255.3941 87.6886
  A 2.82 1.70 106.0 0 0 254.5373 84.5092
  A 2.82 1.70 106.0 0 0 252.1259 86.7514
  A 2.82 1.70 106.0 0 0 252.9827 89.9308"
/>
<path stroke="#51559f" vector-effect="non-scaling-stroke" d="
  M 312.95 86.12
  L 311.30 83.04
  A 0.90 0.90 0.0 0 0 310.08 82.67
  L 309.93 82.75
  A 3.77 2.60 -28.1 0 0 307.83 86.82
  L 307.88 86.90
  A 3.77 2.60 -28.1 0 0 312.43 87.42
  L 312.58 87.34
  A 0.90 0.90 0.0 0 0 312.95 86.12"
/>
<path stroke="#25618d" vector-effect="non-scaling-stroke" d="
  M 246.4571 141.8888
  A 2.21 1.84 112.7 0 0 249.0075 140.5601
  A 2.21 1.84 112.7 0 0 248.1629 137.8112
  A 2.21 1.84 112.7 0 0 245.6125 139.1399
  A 2.21 1.84 112.7 0 0 246.4571 141.8888"
/>
<path stroke="#73369e" vector-effect="non-scaling-stroke" d="
  M 420.47 155.11
  L 428.26 154.05
  A 0.11 0.11 0.0 0 0 428.35 153.92
  L 428.35 153.86
  A 3.91 1.99 -7.8 0 0 424.20 152.42
  L 423.94 152.46
  A 3.91 1.99 -7.8 0 0 420.34 154.96
  L 420.35 155.02
  A 0.11 0.11 0.0 0 0 420.47 155.11"
/>
<path stroke="#73369e" vector-effect="non-scaling-stroke" d="
  M 249.9485 154.6216
  A 2.21 2.21 0.0 0 0 247.7231 152.4271
  L 238.2834 152.4930
  A 2.21 2.21 0.0 0 0 236.0888 154.7184
  L 236.0915 155.0984
  A 2.21 2.21 0.0 0 0 238.3169 157.2929
  L 247.7566 157.2270
  A 2.21 2.21 0.0 0 0 249.9512 155.0016
  L 249.9485 154.6216"
/>
<path stroke="#73369e" vector-effect="non-scaling-stroke" d="
  M 418.17 153.61
  A 1.11 1.11 0.0 0 0 417.06 152.50
  L 401.34 152.50
  A 1.11 1.11 0.0 0 0 400.23 153.61
  L 400.23 154.11
  A 1.11 1.11 0.0 0 0 401.34 155.22
  L 417.06 155.22
  A 1.11 1.11 0.0 0 0 418.17 154.11
  L 418.17 153.61"
/>
<path stroke="#826b98" vector-effect="non-scaling-stroke" d="
  M 355.5037 160.5984
  A 1.22 1.22 0.0 0 0 353.8072 160.2839
  L 348.7965 163.7277
  A 1.22 1.22 0.0 0 0 348.4821 165.4241
  L 349.4563 166.8416
  A 1.22 1.22 0.0 0 0 351.1528 167.1561
  L 356.1635 163.7123
  A 1.22 1.22 0.0 0 0 356.4779 162.0159
  L 355.5037 160.5984"
/>
<path stroke="#73369e" vector-effect="non-scaling-stroke" d="
  M 273.44 162.13
  A 1.58 1.58 0.0 0 0 271.86 160.55
  L 237.88 160.55
  A 1.58 1.58 0.0 0 0 236.30 162.13
  L 236.30 163.43
  A 1.58 1.58 0.0 0 0 237.88 165.01
  L 271.86 165.01
  A 1.58 1.58 0.0 0 0 273.44 163.43
  L 273.44 162.13"
/>
<path stroke="#51559f" vector-effect="non-scaling-stroke" d="
  M 373.6086 163.1068
  A 1.85 1.85 0.0 0 0 371.0803 162.4340
  L 352.9640 172.9357
  A 1.85 1.85 0.0 0 0 352.2913 175.4640
  L 352.3314 175.5332
  A 1.85 1.85 0.0 0 0 354.8597 176.2060
  L 372.9760 165.7043
  A 1.85 1.85 0.0 0 0 373.6487 163.1760
  L 373.6086 163.1068"
/>
<path stroke="#826b98" vector-effect="non-scaling-stroke" d="
  M 262.96 168.79
  A 1.08 1.08 0.0 0 0 261.88 167.71
  L 237.68 167.71
  A 1.08 1.08 0.0 0 0 236.60 168.79
  L 236.60 168.95
  A 1.08 1.08 0.0 0 0 237.68 170.03
  L 261.88 170.03
  A 1.08 1.08 0.0 0 0 262.96 168.95
  L 262.96 168.79"
/>
<path stroke="#826b98" vector-effect="non-scaling-stroke" d="
  M 306.5884 172.9011
  A 4.10 1.84 23.9 0 0 303.5855 169.5578
  A 4.10 1.84 23.9 0 0 299.0916 169.5789
  A 4.10 1.84 23.9 0 0 302.0945 172.9222
  A 4.10 1.84 23.9 0 0 306.5884 172.9011"
/>
<path stroke="#73369e" vector-effect="non-scaling-stroke" d="
  M 249.07 176.59
  Q 248.87 179.21 247.69 181.80
  A 0.90 0.90 0.0 0 0 248.53 183.07
  L 265.50 182.82
  A 0.70 0.70 0.0 0 0 266.19 182.16
  Q 266.23 181.47 266.02 180.80
  A 0.85 0.85 0.0 0 0 265.31 180.20
  Q 261.62 179.79 260.57 176.85"
/>
<path stroke="#826b98" vector-effect="non-scaling-stroke" d="
  M 260.57 176.85
  L 268.51 177.13
  Q 270.19 177.19 270.29 175.51
  L 270.37 174.24
  Q 270.46 172.75 268.97 172.79
  L 237.51 173.62
  Q 236.42 173.65 236.32 174.74
  L 236.27 175.23
  Q 236.14 176.45 237.37 176.47
  L 249.07 176.59"
/>
<path stroke="#f094c2" vector-effect="non-scaling-stroke" d="
  M 260.57 176.85
  L 249.07 176.59"
/>
<path stroke="#73369e" vector-effect="non-scaling-stroke" d="
  M 293.27 178.79
  C 290.91 179.98 283.35 179.00 280.60 178.79
  Q 278.87 178.66 278.32 180.31
  L 278.07 181.04
  Q 277.50 182.75 279.30 182.69
  L 293.01 182.28"
/>
<path stroke="#7a7cb3" vector-effect="non-scaling-stroke" d="
  M 293.01 182.28
  C 299.88 181.26 304.29 184.95 309.31 188.94"
/>
<path stroke="#73369e" vector-effect="non-scaling-stroke" d="
  M 309.31 188.94
  Q 309.47 189.91 305.93 190.01
  A 0.87 0.86 77.1 0 0 305.17 191.23
  L 305.34 191.61
  Q 306.03 193.17 307.74 193.19
  L 330.44 193.46
  A 1.66 1.66 0.0 0 0 332.12 191.72
  L 332.09 191.20
  Q 331.98 189.13 329.91 189.01
  L 312.45 188.02"
/>
<path stroke="#7a7cb3" vector-effect="non-scaling-stroke" d="
  M 312.45 188.02
  L 293.04 176.30
  A 0.59 0.59 0.0 0 0 292.15 176.88
  Q 292.27 177.86 293.27 178.79"
/>
<path stroke="#e8a6dd" vector-effect="non-scaling-stroke" d="
  M 312.45 188.02
  Q 311.53 188.68 309.31 188.94"
/>
<path stroke="#e8a6dd" vector-effect="non-scaling-stroke" d="
  M 293.01 182.28
  Q 293.78 179.93 293.27 178.79"
/>
<path stroke="#5775b0" vector-effect="non-scaling-stroke" d="
  M 245.3536 180.9179
  A 1.28 1.28 0.0 0 0 244.1424 179.5726
  L 237.6513 179.2324
  A 1.28 1.28 0.0 0 0 236.3060 180.4437
  L 236.2464 181.5821
  A 1.28 1.28 0.0 0 0 237.4576 182.9274
  L 243.9487 183.2676
  A 1.28 1.28 0.0 0 0 245.2940 182.0563
  L 245.3536 180.9179"
/>
<path stroke="#5775b0" vector-effect="non-scaling-stroke" d="
  M 276.5891 181.2114
  A 4.76 2.19 1.1 0 0 271.8720 178.9304
  A 4.76 2.19 1.1 0 0 267.0709 181.0286
  A 4.76 2.19 1.1 0 0 271.7880 183.3096
  A 4.76 2.19 1.1 0 0 276.5891 181.2114"
/>
<path stroke="#51559f" vector-effect="non-scaling-stroke" d="
  M 400.62 195.50
  Q 399.78 198.96 400.78 201.21"
/>
<path stroke="#31368c" vector-effect="non-scaling-stroke" d="
  M 400.78 201.21
  Q 401.26 201.81 400.66 202.99"
/>
<path stroke="#51559f" vector-effect="non-scaling-stroke" d="
  M 400.66 202.99
  Q 400.11 204.24 400.35 205.34
  Q 400.56 206.28 401.51 206.26
  Q 410.02 206.04 418.25 205.69
  Q 419.16 205.65 420.01 204.30"
/>
<path stroke="#31368c" vector-effect="non-scaling-stroke" d="
  M 420.01 204.30
  Q 421.58 204.02 422.69 200.39"
/>
<path stroke="#51559f" vector-effect="non-scaling-stroke" d="
  M 422.69 200.39
  L 425.14 197.89
  A 1.30 1.29 45.8 0 0 425.16 196.10
  Q 424.65 195.56 424.00 195.49"
/>
<path stroke="#31368c" vector-effect="non-scaling-stroke" d="
  M 424.00 195.49
  Q 423.35 195.00 423.73 191.96
  A 0.31 0.30 -79.7 0 0 423.50 191.62
  C 419.64 190.72 416.13 188.54 412.59 188.03
  C 408.72 187.47 399.66 186.21 400.21 192.71
  Q 400.36 194.47 400.62 195.50"
/>
<path stroke="#7d7eb7" vector-effect="non-scaling-stroke" d="
  M 424.00 195.49
  L 400.62 195.50"
/>
<path stroke="#7d7eb7" vector-effect="non-scaling-stroke" d="
  M 422.69 200.39
  C 415.85 200.47 407.39 199.71 400.78 201.21"
/>
<path stroke="#7d7eb7" vector-effect="non-scaling-stroke" d="
  M 420.01 204.30
  L 400.66 202.99"
/>
<path stroke="#5775b0" vector-effect="non-scaling-stroke" d="
  M 301.79 190.44
  A 1.80 1.80 0.0 0 0 299.99 188.64
  L 275.55 188.64
  A 1.80 1.80 0.0 0 0 273.75 190.44
  L 273.75 191.56
  A 1.80 1.80 0.0 0 0 275.55 193.36
  L 299.99 193.36
  A 1.80 1.80 0.0 0 0 301.79 191.56
  L 301.79 190.44"
/>
<path stroke="#5775b0" vector-effect="non-scaling-stroke" d="
  M 241.17 188.67
  L 237.19 188.88
  A 1.24 1.24 0.0 0 0 236.02 190.19
  L 236.07 191.02
  A 3.45 3.06 86.9 0 0 239.31 194.30
  L 239.65 194.28
  A 3.45 3.06 86.9 0 0 242.52 190.67
  L 242.47 189.84
  A 1.24 1.24 0.0 0 0 241.17 188.67"
/>
<path stroke="#73369e" vector-effect="non-scaling-stroke" d="
  M 271.16 190.44
  A 1.45 1.45 0.0 0 0 269.71 188.99
  L 246.41 188.99
  A 1.45 1.45 0.0 0 0 244.96 190.44
  L 244.96 191.88
  A 1.45 1.45 0.0 0 0 246.41 193.33
  L 269.71 193.33
  A 1.45 1.45 0.0 0 0 271.16 191.88
  L 271.16 190.44"
/>
<path stroke="#5775b0" vector-effect="non-scaling-stroke" d="
  M 293.50 196.97
  A 1.31 1.31 0.0 0 0 292.19 195.66
  L 280.79 195.66
  A 1.31 1.31 0.0 0 0 279.48 196.97
  L 279.48 197.41
  A 1.31 1.31 0.0 0 0 280.79 198.72
  L 292.19 198.72
  A 1.31 1.31 0.0 0 0 293.50 197.41
  L 293.50 196.97"
/>
<path stroke="#73369e" vector-effect="non-scaling-stroke" d="
  M 314.3596 197.0241
  A 1.45 1.45 0.0 0 0 312.9020 195.5817
  L 298.2622 195.6583
  A 1.45 1.45 0.0 0 0 296.8199 197.1159
  L 296.8204 197.2159
  A 1.45 1.45 0.0 0 0 298.2780 198.6583
  L 312.9178 198.5817
  A 1.45 1.45 0.0 0 0 314.3601 197.1241
  L 314.3596 197.0241"
/>
<path stroke="#73369e" vector-effect="non-scaling-stroke" d="
  M 276.8496 197.1297
  A 1.45 1.45 0.0 0 0 275.3945 195.6848
  L 238.0148 195.8152
  A 1.45 1.45 0.0 0 0 236.5698 197.2703
  L 236.5704 197.4303
  A 1.45 1.45 0.0 0 0 238.0255 198.8752
  L 275.4052 198.7448
  A 1.45 1.45 0.0 0 0 276.8502 197.2897
  L 276.8496 197.1297"
/>
<path stroke="#73369e" vector-effect="non-scaling-stroke" d="
  M 278.5076 202.7419
  A 1.34 1.34 0.0 0 0 277.1629 201.4066
  L 246.5431 201.5135
  A 1.34 1.34 0.0 0 0 245.2078 202.8581
  L 245.2124 204.1981
  A 1.34 1.34 0.0 0 0 246.5571 205.5334
  L 277.1769 205.4265
  A 1.34 1.34 0.0 0 0 278.5122 204.0819
  L 278.5076 202.7419"
/>
<path stroke="#5775b0" vector-effect="non-scaling-stroke" d="
  M 294.6090 202.3983
  A 1.21 1.21 0.0 0 0 293.3843 201.2032
  L 282.4251 201.3371
  A 1.21 1.21 0.0 0 0 281.2300 202.5618
  L 281.2510 204.2817
  A 1.21 1.21 0.0 0 0 282.4757 205.4768
  L 293.4349 205.3429
  A 1.21 1.21 0.0 0 0 294.6300 204.1182
  L 294.6090 202.3983"
/>
<path stroke="#826b98" vector-effect="non-scaling-stroke" d="
  M 312.0995 203.0762
  A 1.79 1.79 0.0 0 0 310.3064 201.2893
  L 298.0664 201.3107
  A 1.79 1.79 0.0 0 0 296.2795 203.1038
  L 296.2805 203.6638
  A 1.79 1.79 0.0 0 0 298.0736 205.4507
  L 310.3136 205.4293
  A 1.79 1.79 0.0 0 0 312.1005 203.6362
  L 312.0995 203.0762"
/>
<path stroke="#73369e" vector-effect="non-scaling-stroke" d="
  M 296.4394 209.3024
  A 1.38 1.38 0.0 0 0 295.0570 207.9248
  L 254.7371 207.9952
  A 1.38 1.38 0.0 0 0 253.3595 209.3776
  L 253.3606 209.9776
  A 1.38 1.38 0.0 0 0 254.7430 211.3552
  L 295.0629 211.2848
  A 1.38 1.38 0.0 0 0 296.4405 209.9024
  L 296.4394 209.3024"
/>
<path stroke="#73369e" vector-effect="non-scaling-stroke" d="
  M 342.3198 209.4611
  A 1.77 1.77 0.0 0 0 340.5436 207.6973
  L 316.0638 207.7827
  A 1.77 1.77 0.0 0 0 314.2999 209.5589
  L 314.3002 209.6389
  A 1.77 1.77 0.0 0 0 316.0764 211.4027
  L 340.5562 211.3173
  A 1.77 1.77 0.0 0 0 342.3201 209.5411
  L 342.3198 209.4611"
/>
<path stroke="#5775b0" vector-effect="non-scaling-stroke" d="
  M 312.5092 209.3284
  A 1.15 1.15 0.0 0 0 311.3572 208.1804
  L 300.3772 208.1996
  A 1.15 1.15 0.0 0 0 299.2292 209.3516
  L 299.2308 210.2516
  A 1.15 1.15 0.0 0 0 300.3828 211.3996
  L 311.3628 211.3804
  A 1.15 1.15 0.0 0 0 312.5108 210.2284
  L 312.5092 209.3284"
/>
<path stroke="#31368c" vector-effect="non-scaling-stroke" d="
  M 401.27 224.76
  L 401.46 225.89
  Q 401.48 226.01 401.60 226.02
  Q 401.75 226.03 401.84 225.92
  Q 401.88 225.87 401.89 225.93
  L 402.03 226.55"
/>
<path stroke="#51559f" vector-effect="non-scaling-stroke" d="
  M 402.03 226.55
  Q 400.70 226.51 400.07 227.65
  A 1.22 1.21 -71.0 0 0 400.94 229.44
  Q 412.87 231.28 424.29 227.49
  A 0.31 0.31 0.0 0 0 424.41 226.97
  Q 423.99 226.54 423.56 226.52"
/>
<path stroke="#31368c" vector-effect="non-scaling-stroke" d="
  M 423.56 226.52
  L 421.08 224.19"
/>
<path stroke="#51559f" vector-effect="non-scaling-stroke" d="
  M 421.08 224.19
  Q 424.23 222.66 425.41 220.02
  A 0.59 0.58 -75.8 0 0 424.93 219.20
  L 417.43 218.54
  A 0.52 0.51 -82.7 0 1 416.97 217.94
  L 417.03 217.56
  Q 417.19 216.61 418.16 216.63
  C 421.45 216.70 422.65 214.79 425.20 214.06
  Q 426.84 213.59 428.52 213.17
  A 0.76 0.76 0.0 0 0 428.72 211.77
  Q 423.97 209.01 420.11 212.82
  A 1.31 1.30 -41.1 0 1 418.15 212.69
  L 417.37 211.69
  A 1.00 1.00 0.0 0 0 416.57 211.29
  L 401.51 211.10
  A 1.16 1.16 0.0 0 0 400.34 212.41
  Q 401.01 217.52 400.18 222.27
  Q 400.03 223.10 400.17 223.68
  Q 400.51 225.09 401.27 224.76"
/>
<path stroke="#7d7eb7" vector-effect="non-scaling-stroke" d="
  M 421.08 224.19
  L 401.27 224.76"
/>
<path stroke="#7d7eb7" vector-effect="non-scaling-stroke" d="
  M 423.56 226.52
  Q 412.76 227.61 402.03 226.55"
/>
<path stroke="#5775b0" vector-effect="non-scaling-stroke" d="
  M 254.60 217.29
  C 264.74 218.13 275.30 217.95 285.50 218.19
  Q 287.06 218.22 288.31 217.08
  A 1.33 1.33 0.0 0 0 287.91 214.86
  C 283.57 213.10 280.70 213.81 276.18 214.67
  Q 274.56 214.99 272.36 214.44
  Q 267.31 213.20 262.31 214.97
  Q 261.83 215.14 261.34 215.02
  C 258.42 214.32 256.85 212.93 253.98 215.33
  A 1.11 1.11 0.0 0 0 254.60 217.29"
/>
<path stroke="#73369e" vector-effect="non-scaling-stroke" d="
  M 329.4502 225.1556
  A 1.56 1.56 0.0 0 0 327.8929 223.5929
  L 313.1529 223.5671
  A 1.56 1.56 0.0 0 0 311.5902 225.1244
  L 311.5898 225.3644
  A 1.56 1.56 0.0 0 0 313.1471 226.9271
  L 327.8871 226.9529
  A 1.56 1.56 0.0 0 0 329.4498 225.3956
  L 329.4502 225.1556"
/>
<path stroke="#73369e" vector-effect="non-scaling-stroke" d="
  M 296.23 225.98
  Q 302.32 227.75 308.34 225.77
  Q 309.63 225.35 309.29 224.38
  A 0.81 0.80 -9.6 0 0 308.55 223.86
  L 254.55 223.81
  Q 252.90 223.81 253.06 225.45
  L 253.09 225.78
  A 1.14 1.14 0.0 0 0 254.25 226.81
  Q 274.64 226.38 294.26 225.73
  Q 295.26 225.70 296.23 225.98"
/>
<path stroke="#73369e" vector-effect="non-scaling-stroke" d="
  M 281.20 231.28
  A 1.53 1.53 0.0 0 0 279.67 229.75
  L 249.23 229.75
  A 1.53 1.53 0.0 0 0 247.70 231.28
  L 247.70 231.98
  A 1.53 1.53 0.0 0 0 249.23 233.51
  L 279.67 233.51
  A 1.53 1.53 0.0 0 0 281.20 231.98
  L 281.20 231.28"
/>
<path stroke="#5775b0" vector-effect="non-scaling-stroke" d="
  M 296.96 231.43
  A 1.69 1.69 0.0 0 0 295.27 229.74
  L 285.45 229.74
  A 1.69 1.69 0.0 0 0 283.76 231.43
  L 283.76 231.79
  A 1.69 1.69 0.0 0 0 285.45 233.48
  L 295.27 233.48
  A 1.69 1.69 0.0 0 0 296.96 231.79
  L 296.96 231.43"
/>
<path stroke="#73369e" vector-effect="non-scaling-stroke" d="
  M 313.8994 231.8303
  A 1.22 1.22 0.0 0 0 312.7031 230.5871
  L 300.5253 230.3533
  A 1.22 1.22 0.0 0 0 299.2821 231.5497
  L 299.2806 231.6297
  A 1.22 1.22 0.0 0 0 300.4769 232.8729
  L 312.6547 233.1067
  A 1.22 1.22 0.0 0 0 313.8979 231.9103
  L 313.8994 231.8303"
/>
<path stroke="#31368c" vector-effect="non-scaling-stroke" d="
  M 401.69 235.31
  L 402.01 235.66
  Q 402.18 235.85 401.99 236.01
  Q 401.63 236.31 401.51 236.70"
/>
<path stroke="#51559f" vector-effect="non-scaling-stroke" d="
  M 401.51 236.70
  Q 399.96 237.21 400.04 238.84
  A 1.24 1.24 0.0 0 0 401.32 240.02
  L 424.25 239.24
  Q 426.17 239.17 425.24 237.49
  L 423.33 234.04
  Q 422.35 232.28 420.33 232.27
  L 401.03 232.25
  A 1.03 1.03 0.0 0 0 400.05 233.63
  Q 400.44 234.71 401.69 235.31"
/>
<path stroke="#7d7eb7" vector-effect="non-scaling-stroke" d="
  M 401.51 236.70
  C 408.44 238.41 415.73 237.71 422.63 237.61
  Q 423.63 237.59 423.54 236.60
  L 423.52 236.28
  Q 423.39 234.73 421.83 234.84
  Q 416.86 235.19 412.11 233.77
  Q 411.62 233.62 411.17 233.88
  C 408.63 235.35 404.64 234.94 401.69 235.31"
/>
<path stroke="#73369e" vector-effect="non-scaling-stroke" d="
  M 249.4878 244.1977
  A 1.60 1.60 0.0 0 0 247.8684 242.6173
  L 237.5891 242.7429
  A 1.60 1.60 0.0 0 0 236.0088 244.3624
  L 236.0122 244.6423
  A 1.60 1.60 0.0 0 0 237.6316 246.2227
  L 247.9109 246.0971
  A 1.60 1.60 0.0 0 0 249.4912 244.4776
  L 249.4878 244.1977"
/>
<path stroke="#51559f" vector-effect="non-scaling-stroke" d="
  M 400.58 247.21
  Q 399.91 249.91 400.75 251.48"
/>
<path stroke="#31368c" vector-effect="non-scaling-stroke" d="
  M 400.75 251.48
  L 400.74 253.05"
/>
<path stroke="#51559f" vector-effect="non-scaling-stroke" d="
  M 400.74 253.05
  Q 400.10 255.67 400.78 258.64"
/>
<path stroke="#31368c" vector-effect="non-scaling-stroke" d="
  M 400.78 258.64
  Q 400.06 260.76 400.32 261.84
  A 1.22 1.22 0.0 0 0 401.51 262.78
  L 417.75 262.86
  Q 420.20 262.87 419.63 260.49
  Q 419.37 259.41 420.21 258.51"
/>
<path stroke="#51559f" vector-effect="non-scaling-stroke" d="
  M 420.21 258.51
  C 421.94 257.63 425.54 255.05 425.15 252.84
  Q 424.12 247.10 417.96 247.48"
/>
<path stroke="#31368c" vector-effect="non-scaling-stroke" d="
  M 417.96 247.48
  Q 417.77 245.08 417.08 243.76
  Q 416.82 243.25 416.24 243.25
  L 401.52 243.21
  A 1.00 1.00 0.0 0 0 400.52 244.23
  L 400.58 247.21"
/>
<path stroke="#7d7eb7" vector-effect="non-scaling-stroke" d="
  M 417.96 247.48
  L 415.01 247.33
  Q 413.84 247.27 413.71 248.43
  L 413.68 248.77
  A 0.98 0.98 0.0 0 0 414.53 249.85
  L 422.02 250.74
  A 1.72 1.71 2.4 0 1 423.53 252.37
  Q 423.59 253.74 422.16 253.89
  Q 411.13 255.09 400.74 253.05"
/>
<path stroke="#7d7eb7" vector-effect="non-scaling-stroke" d="
  M 400.75 251.48
  C 403.33 250.43 406.78 250.59 409.60 250.29
  Q 410.11 250.24 410.25 249.75
  Q 410.47 249.00 410.21 248.28
  A 0.79 0.79 0.0 0 0 409.52 247.77
  L 400.58 247.21"
/>
<path stroke="#7d7eb7" vector-effect="non-scaling-stroke" d="
  M 420.21 258.51
  Q 410.34 257.84 400.78 258.64"
/>
<path stroke="#5775b0" vector-effect="non-scaling-stroke" d="
  M 250.17 251.29
  L 236.47 251.55
  A 0.45 0.45 0.0 0 0 236.03 252.01
  L 236.03 252.11
  A 3.60 3.43 -1.1 0 0 239.70 255.47
  L 247.10 255.33
  A 3.60 3.43 -1.1 0 0 250.63 251.83
  L 250.63 251.73
  A 0.45 0.45 0.0 0 0 250.17 251.29"
/>
<path stroke="#73369e" vector-effect="non-scaling-stroke" d="
  M 312.05 252.30
  A 0.69 0.69 0.0 0 0 311.36 251.61
  L 252.96 251.61
  A 0.69 0.69 0.0 0 0 252.27 252.30
  L 252.27 254.22
  A 0.69 0.69 0.0 0 0 252.96 254.91
  L 311.36 254.91
  A 0.69 0.69 0.0 0 0 312.05 254.22
  L 312.05 252.30"
/>
<path stroke="#826b98" vector-effect="non-scaling-stroke" d="
  M 301.78 260.88
  Q 301.95 259.87 301.68 258.90
  A 0.70 0.70 0.0 0 0 301.11 258.39
  C 296.39 257.68 293.02 258.11 288.82 258.66
  C 284.25 259.26 279.43 258.08 274.59 258.16
  Q 273.35 258.18 273.01 259.38
  L 272.77 260.24
  Q 272.51 261.18 273.49 261.19
  L 301.05 261.49
  A 0.74 0.74 0.0 0 0 301.78 260.88"
/>
<path stroke="#73369e" vector-effect="non-scaling-stroke" d="
  M 270.9591 259.2696
  A 1.08 1.08 0.0 0 0 269.8773 258.1915
  L 237.1773 258.2485
  A 1.08 1.08 0.0 0 0 236.0992 259.3304
  L 236.1009 260.2904
  A 1.08 1.08 0.0 0 0 237.1827 261.3685
  L 269.8827 261.3115
  A 1.08 1.08 0.0 0 0 270.9608 260.2296
  L 270.9591 259.2696"
/>
<path stroke="#45949d" vector-effect="non-scaling-stroke" d="
  M 212.45 191.98
  Q 210.65 191.11 209.98 190.26
  Q 197.69 174.77 180.75 164.45
  A 0.59 0.59 0.0 0 0 179.86 164.88
  L 179.82 165.16
  A 0.33 0.32 23.5 0 0 179.95 165.47
  C 186.38 170.18 192.93 174.83 198.39 180.36
  C 202.61 184.64 206.31 189.33 210.68 193.50
  A 1.56 1.56 0.0 0 0 213.18 193.02
  Q 213.26 192.85 212.95 192.40
  Q 212.78 192.14 212.45 191.98"
/>
<path stroke="#2e63c1" vector-effect="non-scaling-stroke" d="
  M 464.1419 183.0063
  A 2.05 2.05 0.0 0 0 461.7441 181.3768
  L 461.1940 181.4817
  A 2.05 2.05 0.0 0 0 459.5645 183.8795
  L 459.8381 185.3137
  A 2.05 2.05 0.0 0 0 462.2359 186.9432
  L 462.7860 186.8383
  A 2.05 2.05 0.0 0 0 464.4155 184.4405
  L 464.1419 183.0063"
/>
<path stroke="#488598" vector-effect="non-scaling-stroke" d="
  M 188.25 201.74
  C 195.88 202.27 204.40 205.79 211.27 209.02
  A 0.39 0.39 0.0 0 0 211.81 208.56
  L 211.66 208.06
  Q 211.42 207.24 210.65 206.85
  Q 194.56 198.82 176.54 198.54
  Q 175.36 198.52 175.50 199.70
  L 175.55 200.05
  A 0.73 0.71 89.0 0 0 176.20 200.69
  Q 182.54 201.34 188.25 201.74"
/>
<path stroke="#c0ebf5" vector-effect="non-scaling-stroke" d="
  M 535.47 264.69
  Q 533.83 263.76 533.33 261.98
  Q 533.19 261.49 533.46 261.06
  Q 536.45 256.40 536.58 250.87
  A 1.16 1.16 0.0 0 0 534.64 249.98
  Q 534.04 250.53 533.79 251.22
  Q 532.45 254.98 531.51 251.22
  Q 531.22 250.06 531.57 247.12
  A 1.31 1.31 0.0 0 0 529.59 245.85
  Q 528.64 246.43 528.23 247.45
  A 0.65 0.65 0.0 0 1 527.11 247.60
  Q 524.63 244.38 523.50 240.99
  Q 523.13 239.86 521.94 240.54
  Q 521.60 240.73 521.55 241.12
  Q 520.89 245.51 524.13 248.46
  A 0.76 0.75 48.3 0 1 524.07 249.63
  L 521.80 251.26
  A 1.81 1.81 0.0 0 0 522.01 254.32
  L 531.52 259.36
  A 1.84 1.83 6.5 0 1 532.41 260.47
  L 532.47 260.73
  A 0.56 0.56 0.0 0 1 531.74 261.41
  L 525.16 259.10
  A 1.70 1.70 0.0 0 0 522.89 260.64
  L 522.86 261.34
  A 1.35 1.35 0.0 0 0 524.01 262.73
  Q 530.45 263.67 535.58 267.71
  A 1.26 1.25 -55.1 0 0 537.42 267.38
  C 539.20 264.52 542.10 260.30 541.67 256.97
  A 1.42 1.41 60.6 0 0 539.16 256.27
  Q 536.38 259.77 536.21 264.28
  A 0.50 0.49 15.8 0 1 535.47 264.69"
/>
<path stroke="#51559f" vector-effect="non-scaling-stroke" d="
  M 413.7364 217.0447
  A 1.59 1.59 0.0 0 0 412.1080 215.4940
  L 405.8499 215.6470
  A 1.59 1.59 0.0 0 0 404.2992 217.2753
  L 404.3036 217.4553
  A 1.59 1.59 0.0 0 0 405.9320 219.0060
  L 412.1901 218.8530
  A 1.59 1.59 0.0 0 0 413.7408 217.2247
  L 413.7364 217.0447"
/>
<path stroke="#8286ba" vector-effect="non-scaling-stroke" d="
  M 199.6691 301.5881
  A 2.17 1.65 121.1 0 0 202.2028 300.5823
  A 2.17 1.65 121.1 0 0 201.9109 297.8719
  A 2.17 1.65 121.1 0 0 199.3772 298.8777
  A 2.17 1.65 121.1 0 0 199.6691 301.5881"
/>
</g>
<path fill="#050c74" d="
  M 288.34 54.49
  L 277.65 49.89
  Q 279.06 48.41 280.65 47.04
  C 286.66 41.81 288.18 35.88 283.72 28.52
  A 0.87 0.87 0.0 0 0 282.29 28.43
  C 278.76 32.89 275.28 34.82 269.49 33.55
  A 1.35 1.34 11.1 0 0 267.87 34.63
  L 265.31 48.81
  C 257.93 50.02 251.47 52.51 248.57 59.25
  Q 245.65 66.03 242.78 73.30
  C 239.44 64.84 244.80 58.90 250.20 52.94
  Q 255.72 46.85 257.06 38.67
  Q 258.46 30.17 260.05 26.50
  C 262.82 20.10 269.90 15.21 277.03 17.66
  C 284.08 20.08 291.51 25.43 290.23 34.01
  C 289.17 41.14 287.24 46.31 288.34 54.49
  Z"
/>
<path fill="#ffc9bc" d="
  M 277.65 49.89
  L 275.93 57.22
  A 1.37 1.37 0.0 0 1 273.58 57.83
  L 265.31 48.81
  L 267.87 34.63
  A 1.35 1.34 11.1 0 1 269.49 33.55
  C 275.28 34.82 278.76 32.89 282.29 28.43
  A 0.87 0.87 0.0 0 1 283.72 28.52
  C 288.18 35.88 286.66 41.81 280.65 47.04
  Q 279.06 48.41 277.65 49.89
  Z"
/>
<path fill="#fdb813" d="
  M 265.31 48.81
  L 273.58 57.83
  A 1.37 1.37 0.0 0 0 275.93 57.22
  L 277.65 49.89
  L 288.34 54.49
  L 294.24 71.23
  L 284.80 93.30
  Q 280.54 93.43 276.50 93.27
  C 271.86 93.09 270.67 96.62 270.65 100.46
  L 255.78 100.36
  Q 249.75 99.75 243.85 98.61
  C 237.91 97.46 239.86 91.57 239.62 87.44
  L 242.78 73.30
  Q 245.65 66.03 248.57 59.25
  C 251.47 52.51 257.93 50.02 265.31 48.81
  Z
  M 252.9827 89.9308
  A 2.82 1.70 106.0 0 0 255.3941 87.6886
  A 2.82 1.70 106.0 0 0 254.5373 84.5092
  A 2.82 1.70 106.0 0 0 252.1259 86.7514
  A 2.82 1.70 106.0 0 0 252.9827 89.9308
  Z"
/>
<path fill="#d6f7fe" d="
  M 435.02 126.52
  L 433.70 127.20
  Q 433.26 127.43 432.76 127.42
  L 336.24 127.25
  Q 328.80 112.29 315.81 100.94
  Q 315.62 100.69 315.54 100.24
  C 317.97 100.27 321.70 101.33 322.90 98.31
  Q 328.19 85.01 333.67 71.44
  C 334.35 71.26 335.07 71.13 335.74 70.72
  C 359.39 56.38 388.47 45.89 411.96 67.83
  C 415.08 70.74 418.07 74.95 420.97 78.54
  Q 423.22 81.34 426.31 88.72
  Q 432.48 103.49 434.81 117.77
  Q 435.37 121.22 435.02 126.52
  Z"
/>
<path fill="#050c74" d="
  M 294.24 71.23
  L 333.67 71.44
  Q 328.19 85.01 322.90 98.31
  C 321.70 101.33 317.97 100.27 315.54 100.24
  Q 313.43 99.87 311.25 99.80
  Q 298.55 99.38 285.83 99.17
  C 284.98 99.16 284.37 99.48 283.53 99.61
  L 284.80 93.30
  L 294.24 71.23
  Z
  M 312.95 86.12
  L 311.30 83.04
  A 0.90 0.90 0.0 0 0 310.08 82.67
  L 309.93 82.75
  A 3.77 2.60 -28.1 0 0 307.83 86.82
  L 307.88 86.90
  A 3.77 2.60 -28.1 0 0 312.43 87.42
  L 312.58 87.34
  A 0.90 0.90 0.0 0 0 312.95 86.12
  Z"
/>
<path fill="#9c9dca" d="
  M 312.95 86.12
  A 0.90 0.90 0.0 0 1 312.58 87.34
  L 312.43 87.42
  A 3.77 2.60 -28.1 0 1 307.88 86.90
  L 307.83 86.82
  A 3.77 2.60 -28.1 0 1 309.93 82.75
  L 310.08 82.67
  A 0.90 0.90 0.0 0 1 311.30 83.04
  L 312.95 86.12
  Z"
/>
<ellipse fill="#d6f7fe" cx="0.00" cy="0.00" transform="translate(253.76,87.22) rotate(106.0)" rx="2.82" ry="1.70"/>
<path fill="#d6f7fe" d="
  M 239.62 87.44
  C 239.86 91.57 237.91 97.46 243.85 98.61
  Q 249.75 99.75 255.78 100.36
  Q 250.98 112.45 254.52 124.49
  Q 254.79 125.40 255.64 126.00
  C 254.82 128.03 252.45 127.56 250.25 127.57
  Q 236.13 127.65 221.99 127.92
  Q 214.41 128.06 213.53 135.01
  Q 212.37 144.26 212.22 176.86
  C 204.04 167.79 181.84 143.88 167.96 156.70
  C 162.68 161.58 161.54 170.77 170.07 173.13
  Q 174.03 174.23 177.84 174.79
  A 4.04 4.03 5.8 0 1 181.28 179.01
  Q 181.10 181.98 180.94 185.34
  C 180.81 187.95 183.09 188.78 184.12 190.83
  C 176.21 190.60 168.74 190.20 164.78 198.20
  Q 163.38 201.01 163.86 203.44
  C 165.45 211.43 173.43 209.01 178.28 206.90
  Q 180.14 206.09 181.09 207.88
  C 182.44 210.42 184.42 215.49 188.00 215.22
  Q 195.83 214.64 213.26 212.49
  Q 212.72 214.35 212.73 216.00
  Q 212.88 238.58 212.69 261.16
  C 212.69 261.62 212.44 262.05 212.28 262.45
  C 209.55 262.48 205.86 263.50 205.75 259.24
  Q 205.59 252.53 204.12 246.03
  C 203.43 242.97 202.88 241.88 199.45 241.74
  Q 194.89 241.55 190.13 241.35
  Q 188.86 239.37 189.62 238.16
  Q 191.91 237.57 193.35 235.26
  A 1.34 1.34 0.0 0 0 192.48 233.24
  Q 189.18 232.56 187.84 229.48
  A 1.33 1.31 -89.6 0 0 187.19 228.81
  C 181.19 226.02 166.69 224.06 163.77 232.49
  Q 161.10 240.20 164.80 248.23
  C 164.16 249.92 163.03 250.85 163.09 253.18
  L 153.00 254.77
  Q 153.18 253.81 152.82 253.47
  C 151.50 252.21 150.41 251.11 149.51 249.44
  Q 132.51 217.90 123.18 183.32
  C 122.48 180.71 121.73 176.14 120.69 172.60
  Q 119.92 169.98 119.66 168.33
  C 113.20 126.87 137.19 96.07 177.74 89.03
  Q 184.55 87.84 199.25 87.91
  Q 212.47 87.97 225.70 88.09
  C 229.77 88.13 234.00 87.81 238.35 88.72
  Q 238.76 88.81 238.99 88.45
  L 239.62 87.44
  Z"
/>
<path fill="#eeecf1" d="
  M 284.80 93.30
  L 283.53 99.61
  L 281.76 101.09
  L 270.65 100.46
  C 270.67 96.62 271.86 93.09 276.50 93.27
  Q 280.54 93.43 284.80 93.30
  Z"
/>
<path fill="#5d5fa3" d="
  M 315.54 100.24
  Q 315.62 100.69 315.81 100.94
  Q 312.35 102.41 307.00 102.71
  Q 293.21 103.48 281.76 101.09
  L 283.53 99.61
  C 284.37 99.48 284.98 99.16 285.83 99.17
  Q 298.55 99.38 311.25 99.80
  Q 313.43 99.87 315.54 100.24
  Z"
/>
<path fill="#16178d" d="
  M 255.78 100.36
  L 270.65 100.46
  L 281.76 101.09
  Q 293.21 103.48 307.00 102.71
  Q 312.35 102.41 315.81 100.94
  Q 328.80 112.29 336.24 127.25
  L 339.72 133.12
  Q 340.34 134.17 341.57 134.17
  Q 390.73 134.22 439.50 133.92
  C 446.96 133.88 449.14 137.24 448.45 144.30
  Q 445.89 144.72 444.25 144.72
  Q 396.55 144.71 349.15 144.92
  A 0.94 0.93 82.4 0 0 348.25 146.10
  C 349.17 149.61 351.36 152.64 352.76 155.99
  C 353.08 156.74 353.15 158.41 352.57 159.27
  C 350.67 162.13 347.34 162.94 344.48 160.53
  Q 339.64 156.46 338.37 155.13
  C 332.00 148.45 327.19 142.54 317.54 145.37
  C 315.45 145.99 315.52 146.82 314.91 148.64
  Q 312.45 156.03 310.21 163.48
  Q 309.73 165.05 307.94 166.00
  Q 307.51 166.23 307.03 166.15
  C 303.98 165.63 298.44 166.35 299.13 161.49
  Q 300.12 154.48 301.42 147.71
  A 2.27 2.26 5.6 0 0 299.21 145.03
  Q 276.81 144.94 255.12 145.13
  C 251.53 145.16 249.03 143.31 245.50 143.07
  Q 242.83 142.89 240.12 142.06
  L 241.45 138.77
  A 0.72 0.72 0.0 0 0 240.85 137.78
  L 235.81 137.27
  A 0.87 0.86 79.7 0 0 234.95 138.52
  L 235.78 140.19
  Q 234.69 140.01 234.63 141.34
  Q 234.61 141.83 234.13 141.86
  L 231.96 141.99
  Q 232.38 138.00 229.75 137.12
  A 2.07 2.07 0.0 0 0 227.07 138.60
  C 226.36 141.52 228.44 142.63 230.98 142.44
  Q 225.23 143.83 219.71 142.46
  C 220.37 140.23 220.42 135.89 223.24 135.22
  Q 228.54 133.97 234.00 134.00
  Q 268.24 134.19 302.40 134.18
  Q 303.74 134.18 304.17 132.90
  L 305.12 130.03
  Q 307.89 129.37 308.37 130.60
  Q 309.06 132.37 309.93 133.58
  C 311.85 136.24 313.46 139.02 314.99 141.63
  Q 316.61 144.40 318.05 141.53
  L 318.51 140.61
  Q 320.01 137.63 318.62 134.59
  C 317.04 131.12 309.75 118.41 305.92 125.02
  Q 305.89 124.82 305.86 124.70
  A 0.60 0.59 -17.1 0 0 305.04 124.27
  C 300.03 126.35 295.24 128.16 289.80 128.86
  C 278.74 130.28 265.71 131.24 255.64 126.00
  Q 254.79 125.40 254.52 124.49
  Q 250.98 112.45 255.78 100.36
  Z
  M 246.4571 141.8888
  A 2.21 1.84 112.7 0 0 249.0075 140.5601
  A 2.21 1.84 112.7 0 0 248.1629 137.8112
  A 2.21 1.84 112.7 0 0 245.6125 139.1399
  A 2.21 1.84 112.7 0 0 246.4571 141.8888
  Z"
/>
<path fill="#2cc996" d="
  M 485.32 116.95
  C 481.64 118.45 469.54 120.43 471.91 127.12
  Q 472.10 131.44 472.28 136.00
  C 472.49 141.34 473.31 143.16 475.82 147.83
  C 477.83 151.57 480.25 150.31 483.51 149.89
  A 0.66 0.66 0.0 0 1 484.25 150.57
  Q 484.17 152.16 482.24 152.73
  C 477.59 152.52 473.78 157.32 471.09 160.97
  C 468.12 164.98 466.18 164.55 461.77 165.81
  Q 459.31 166.51 458.74 168.57
  L 455.31 169.19
  Q 453.92 166.29 454.73 163.35
  L 474.70 151.52
  A 0.79 0.77 -29.2 0 0 475.00 150.49
  L 474.86 150.22
  A 0.51 0.51 0.0 0 0 474.21 149.99
  C 468.67 152.36 462.97 155.39 458.29 159.33
  Q 456.01 161.24 454.88 159.83
  L 454.83 137.03
  L 455.20 138.64
  Q 455.47 139.87 456.09 138.77
  Q 462.51 127.42 470.54 117.13
  Q 470.70 116.92 470.48 116.76
  L 470.21 116.56
  A 0.36 0.36 0.0 0 0 469.70 116.64
  L 455.41 136.35
  Q 453.32 130.86 449.40 127.68
  Q 453.71 119.05 459.13 113.39
  C 463.88 108.43 471.35 104.75 478.27 106.41
  C 484.21 107.84 484.03 112.19 485.32 116.95
  Z"
/>
<path fill="#16178d" d="
  M 454.83 137.03
  L 455.41 136.35
  L 469.70 116.64
  A 0.36 0.36 0.0 0 1 470.21 116.56
  L 470.48 116.76
  Q 470.70 116.92 470.54 117.13
  Q 462.51 127.42 456.09 138.77
  Q 455.47 139.87 455.20 138.64
  L 454.83 137.03
  Z"
/>
<path fill="#050c74" d="
  M 485.32 116.95
  C 489.25 117.37 489.89 119.18 492.06 121.38
  A 1.47 1.44 -14.6 0 0 492.76 121.78
  L 496.69 122.76
  Q 497.20 122.89 497.44 123.37
  C 500.07 128.67 498.59 134.64 495.14 139.43
  Q 493.67 139.73 492.23 139.05
  A 0.60 0.60 0.0 0 1 491.95 138.24
  C 492.65 136.82 493.71 135.37 493.56 133.82
  C 493.24 130.43 489.89 131.51 488.31 133.17
  A 2.19 2.18 -50.1 0 1 485.45 133.43
  C 480.61 129.90 479.08 124.69 471.91 127.12
  C 469.54 120.43 481.64 118.45 485.32 116.95
  Z"
/>
<path fill="#050c74" d="
  M 305.12 130.03
  L 305.92 125.02
  C 309.75 118.41 317.04 131.12 318.62 134.59
  Q 320.01 137.63 318.51 140.61
  L 318.05 141.53
  Q 316.61 144.40 314.99 141.63
  C 313.46 139.02 311.85 136.24 309.93 133.58
  Q 309.06 132.37 308.37 130.60
  Q 307.89 129.37 305.12 130.03
  Z"
/>
<path fill="#ffffff" d="
  M 305.92 125.02
  L 305.12 130.03
  L 304.17 132.90
  Q 303.74 134.18 302.40 134.18
  Q 268.24 134.19 234.00 134.00
  Q 228.54 133.97 223.24 135.22
  C 220.42 135.89 220.37 140.23 219.71 142.46
  Q 219.33 200.12 219.07 257.80
  C 219.01 270.61 223.24 272.94 235.85 272.97
  Q 336.92 273.21 438.01 273.19
  Q 448.34 273.19 448.50 262.74
  Q 448.97 233.43 448.75 203.89
  L 455.56 203.38
  C 455.19 206.35 454.63 209.28 454.67 212.23
  C 454.94 233.77 454.29 255.28 454.50 276.74
  A 2.61 2.61 0.0 0 1 451.98 279.38
  Q 444.44 279.64 436.99 279.96
  Q 434.86 280.06 433.79 281.47
  Q 414.46 281.08 396.19 280.99
  C 392.39 280.97 387.78 281.72 383.46 281.56
  C 381.68 281.52 378.41 282.21 378.39 279.54
  Q 378.39 279.07 377.92 279.11
  C 375.81 279.28 373.78 279.63 371.71 279.53
  Q 338.21 277.88 304.63 281.04
  Q 284.68 280.05 264.65 280.47
  Q 263.97 280.35 263.21 280.17
  Q 262.46 279.99 261.77 279.99
  Q 242.01 280.07 222.26 279.72
  C 209.19 279.48 215.21 270.26 212.28 262.45
  C 212.44 262.05 212.69 261.62 212.69 261.16
  Q 212.88 238.58 212.73 216.00
  Q 212.72 214.35 213.26 212.49
  Q 214.21 206.60 212.97 201.25
  Q 213.25 194.42 213.55 187.50
  Q 213.80 181.72 212.22 176.86
  Q 212.37 144.26 213.53 135.01
  Q 214.41 128.06 221.99 127.92
  Q 236.13 127.65 250.25 127.57
  C 252.45 127.56 254.82 128.03 255.64 126.00
  C 265.71 131.24 278.74 130.28 289.80 128.86
  C 295.24 128.16 300.03 126.35 305.04 124.27
  A 0.60 0.59 -17.1 0 1 305.86 124.70
  Q 305.89 124.82 305.92 125.02
  Z"
/>
<path fill="#ffffff" d="
  M 435.02 126.52
  C 436.94 128.20 446.24 127.76 449.40 127.68
  Q 453.32 130.86 455.41 136.35
  L 454.83 137.03
  L 454.88 159.83
  L 454.73 163.35
  Q 453.92 166.29 455.31 169.19
  Q 452.14 170.63 448.51 170.24
  L 448.45 144.30
  C 449.14 137.24 446.96 133.88 439.50 133.92
  Q 390.73 134.22 341.57 134.17
  Q 340.34 134.17 339.72 133.12
  L 336.24 127.25
  L 432.76 127.42
  Q 433.26 127.43 433.70 127.20
  L 435.02 126.52
  Z"
/>
<path fill="#ffc9bc" d="
  M 495.14 139.43
  Q 496.69 146.42 502.24 150.78
  C 498.14 158.62 486.77 163.89 482.24 152.73
  Q 484.17 152.16 484.25 150.57
  A 0.66 0.66 0.0 0 0 483.51 149.89
  C 480.25 150.31 477.83 151.57 475.82 147.83
  C 473.31 143.16 472.49 141.34 472.28 136.00
  Q 472.10 131.44 471.91 127.12
  C 479.08 124.69 480.61 129.90 485.45 133.43
  A 2.19 2.18 -50.1 0 0 488.31 133.17
  C 489.89 131.51 493.24 130.43 493.56 133.82
  C 493.71 135.37 492.65 136.82 491.95 138.24
  A 0.60 0.60 0.0 0 0 492.23 139.05
  Q 493.67 139.73 495.14 139.43
  Z"
/>
<path fill="#e15fc8" d="
  M 231.96 141.99
  Q 231.60 142.29 230.98 142.44
  C 228.44 142.63 226.36 141.52 227.07 138.60
  A 2.07 2.07 0.0 0 1 229.75 137.12
  Q 232.38 138.00 231.96 141.99
  Z"
/>
<path fill="#ffc9bc" d="
  M 240.12 142.06
  Q 238.82 143.12 236.74 143.19
  A 0.69 0.69 0.0 0 1 236.09 142.22
  Q 236.53 141.23 235.78 140.19
  L 234.95 138.52
  A 0.87 0.86 79.7 0 1 235.81 137.27
  L 240.85 137.78
  A 0.72 0.72 0.0 0 1 241.45 138.77
  L 240.12 142.06
  Z"
/>
<ellipse fill="#33aa8d" cx="0.00" cy="0.00" transform="translate(247.31,139.85) rotate(112.7)" rx="2.21" ry="1.84"/>
<path fill="#050c74" d="
  M 235.78 140.19
  Q 236.53 141.23 236.09 142.22
  A 0.69 0.69 0.0 0 0 236.74 143.19
  Q 238.82 143.12 240.12 142.06
  Q 242.83 142.89 245.50 143.07
  C 249.03 143.31 251.53 145.16 255.12 145.13
  Q 276.81 144.94 299.21 145.03
  A 2.27 2.26 5.6 0 1 301.42 147.71
  Q 300.12 154.48 299.13 161.49
  C 298.44 166.35 303.98 165.63 307.03 166.15
  Q 307.51 166.23 307.94 166.00
  Q 309.73 165.05 310.21 163.48
  Q 312.45 156.03 314.91 148.64
  C 315.52 146.82 315.45 145.99 317.54 145.37
  C 327.19 142.54 332.00 148.45 338.37 155.13
  Q 339.64 156.46 344.48 160.53
  C 347.34 162.94 350.67 162.13 352.57 159.27
  C 353.15 158.41 353.08 156.74 352.76 155.99
  C 351.36 152.64 349.17 149.61 348.25 146.10
  A 0.94 0.93 82.4 0 1 349.15 144.92
  Q 396.55 144.71 444.25 144.72
  Q 445.89 144.72 448.45 144.30
  L 448.51 170.24
  C 445.20 173.19 439.84 173.11 435.90 174.64
  Q 428.01 173.88 420.34 171.57
  Q 417.28 170.65 417.84 167.59
  A 0.65 0.65 0.0 0 1 418.97 167.28
  L 421.91 170.58
  A 0.95 0.95 0.0 0 0 423.52 170.27
  Q 424.20 168.36 422.11 165.86
  L 421.90 163.56
  Q 423.69 163.51 425.18 162.56
  A 0.65 0.64 61.6 0 0 425.42 161.75
  C 423.98 158.53 421.66 157.44 418.02 157.47
  Q 409.79 157.53 401.77 157.54
  Q 400.37 157.54 400.11 158.91
  Q 399.62 161.46 400.80 163.83
  L 400.92 166.51
  C 398.84 170.34 403.55 170.18 405.60 170.31
  Q 408.99 170.52 406.32 172.63
  Q 405.11 173.58 402.75 173.64
  A 1.42 1.41 -74.3 0 0 401.57 174.31
  L 401.38 174.62
  A 0.44 0.44 0.0 0 0 401.74 175.30
  L 405.71 175.45
  Q 406.80 175.49 407.29 176.46
  L 407.41 176.69
  A 0.57 0.56 -14.3 0 1 406.92 177.51
  L 401.89 177.66
  Q 400.49 177.70 400.46 179.11
  L 400.45 179.48
  A 1.03 1.03 0.0 0 0 401.51 180.53
  C 407.31 180.32 414.67 179.75 420.33 180.98
  C 427.30 182.50 433.94 184.55 440.93 186.63
  L 448.75 203.89
  Q 448.97 233.43 448.50 262.74
  Q 448.34 273.19 438.01 273.19
  Q 336.92 273.21 235.85 272.97
  C 223.24 272.94 219.01 270.61 219.07 257.80
  Q 219.33 200.12 219.71 142.46
  Q 225.23 143.83 230.98 142.44
  Q 231.60 142.29 231.96 141.99
  L 234.13 141.86
  Q 234.61 141.83 234.63 141.34
  Q 234.69 140.01 235.78 140.19
  Z
  M 420.47 155.11
  L 428.26 154.05
  A 0.11 0.11 0.0 0 0 428.35 153.92
  L 428.35 153.86
  A 3.91 1.99 -7.8 0 0 424.20 152.42
  L 423.94 152.46
  A 3.91 1.99 -7.8 0 0 420.34 154.96
  L 420.35 155.02
  A 0.11 0.11 0.0 0 0 420.47 155.11
  Z
  M 249.9485 154.6216
  A 2.21 2.21 0.0 0 0 247.7231 152.4271
  L 238.2834 152.4930
  A 2.21 2.21 0.0 0 0 236.0888 154.7184
  L 236.0915 155.0984
  A 2.21 2.21 0.0 0 0 238.3169 157.2929
  L 247.7566 157.2270
  A 2.21 2.21 0.0 0 0 249.9512 155.0016
  L 249.9485 154.6216
  Z
  M 418.17 153.61
  A 1.11 1.11 0.0 0 0 417.06 152.50
  L 401.34 152.50
  A 1.11 1.11 0.0 0 0 400.23 153.61
  L 400.23 154.11
  A 1.11 1.11 0.0 0 0 401.34 155.22
  L 417.06 155.22
  A 1.11 1.11 0.0 0 0 418.17 154.11
  L 418.17 153.61
  Z
  M 355.5037 160.5984
  A 1.22 1.22 0.0 0 0 353.8072 160.2839
  L 348.7965 163.7277
  A 1.22 1.22 0.0 0 0 348.4821 165.4241
  L 349.4563 166.8416
  A 1.22 1.22 0.0 0 0 351.1528 167.1561
  L 356.1635 163.7123
  A 1.22 1.22 0.0 0 0 356.4779 162.0159
  L 355.5037 160.5984
  Z
  M 273.44 162.13
  A 1.58 1.58 0.0 0 0 271.86 160.55
  L 237.88 160.55
  A 1.58 1.58 0.0 0 0 236.30 162.13
  L 236.30 163.43
  A 1.58 1.58 0.0 0 0 237.88 165.01
  L 271.86 165.01
  A 1.58 1.58 0.0 0 0 273.44 163.43
  L 273.44 162.13
  Z
  M 373.6086 163.1068
  A 1.85 1.85 0.0 0 0 371.0803 162.4340
  L 352.9640 172.9357
  A 1.85 1.85 0.0 0 0 352.2913 175.4640
  L 352.3314 175.5332
  A 1.85 1.85 0.0 0 0 354.8597 176.2060
  L 372.9760 165.7043
  A 1.85 1.85 0.0 0 0 373.6487 163.1760
  L 373.6086 163.1068
  Z
  M 262.96 168.79
  A 1.08 1.08 0.0 0 0 261.88 167.71
  L 237.68 167.71
  A 1.08 1.08 0.0 0 0 236.60 168.79
  L 236.60 168.95
  A 1.08 1.08 0.0 0 0 237.68 170.03
  L 261.88 170.03
  A 1.08 1.08 0.0 0 0 262.96 168.95
  L 262.96 168.79
  Z
  M 306.5884 172.9011
  A 4.10 1.84 23.9 0 0 303.5855 169.5578
  A 4.10 1.84 23.9 0 0 299.0916 169.5789
  A 4.10 1.84 23.9 0 0 302.0945 172.9222
  A 4.10 1.84 23.9 0 0 306.5884 172.9011
  Z
  M 249.07 176.59
  Q 248.87 179.21 247.69 181.80
  A 0.90 0.90 0.0 0 0 248.53 183.07
  L 265.50 182.82
  A 0.70 0.70 0.0 0 0 266.19 182.16
  Q 266.23 181.47 266.02 180.80
  A 0.85 0.85 0.0 0 0 265.31 180.20
  Q 261.62 179.79 260.57 176.85
  L 268.51 177.13
  Q 270.19 177.19 270.29 175.51
  L 270.37 174.24
  Q 270.46 172.75 268.97 172.79
  L 237.51 173.62
  Q 236.42 173.65 236.32 174.74
  L 236.27 175.23
  Q 236.14 176.45 237.37 176.47
  L 249.07 176.59
  Z
  M 293.27 178.79
  C 290.91 179.98 283.35 179.00 280.60 178.79
  Q 278.87 178.66 278.32 180.31
  L 278.07 181.04
  Q 277.50 182.75 279.30 182.69
  L 293.01 182.28
  C 299.88 181.26 304.29 184.95 309.31 188.94
  Q 309.47 189.91 305.93 190.01
  A 0.87 0.86 77.1 0 0 305.17 191.23
  L 305.34 191.61
  Q 306.03 193.17 307.74 193.19
  L 330.44 193.46
  A 1.66 1.66 0.0 0 0 332.12 191.72
  L 332.09 191.20
  Q 331.98 189.13 329.91 189.01
  L 312.45 188.02
  L 293.04 176.30
  A 0.59 0.59 0.0 0 0 292.15 176.88
  Q 292.27 177.86 293.27 178.79
  Z
  M 245.3536 180.9179
  A 1.28 1.28 0.0 0 0 244.1424 179.5726
  L 237.6513 179.2324
  A 1.28 1.28 0.0 0 0 236.3060 180.4437
  L 236.2464 181.5821
  A 1.28 1.28 0.0 0 0 237.4576 182.9274
  L 243.9487 183.2676
  A 1.28 1.28 0.0 0 0 245.2940 182.0563
  L 245.3536 180.9179
  Z
  M 276.5891 181.2114
  A 4.76 2.19 1.1 0 0 271.8720 178.9304
  A 4.76 2.19 1.1 0 0 267.0709 181.0286
  A 4.76 2.19 1.1 0 0 271.7880 183.3096
  A 4.76 2.19 1.1 0 0 276.5891 181.2114
  Z
  M 400.62 195.50
  Q 399.78 198.96 400.78 201.21
  Q 401.26 201.81 400.66 202.99
  Q 400.11 204.24 400.35 205.34
  Q 400.56 206.28 401.51 206.26
  Q 410.02 206.04 418.25 205.69
  Q 419.16 205.65 420.01 204.30
  Q 421.58 204.02 422.69 200.39
  L 425.14 197.89
  A 1.30 1.29 45.8 0 0 425.16 196.10
  Q 424.65 195.56 424.00 195.49
  Q 423.35 195.00 423.73 191.96
  A 0.31 0.30 -79.7 0 0 423.50 191.62
  C 419.64 190.72 416.13 188.54 412.59 188.03
  C 408.72 187.47 399.66 186.21 400.21 192.71
  Q 400.36 194.47 400.62 195.50
  Z
  M 301.79 190.44
  A 1.80 1.80 0.0 0 0 299.99 188.64
  L 275.55 188.64
  A 1.80 1.80 0.0 0 0 273.75 190.44
  L 273.75 191.56
  A 1.80 1.80 0.0 0 0 275.55 193.36
  L 299.99 193.36
  A 1.80 1.80 0.0 0 0 301.79 191.56
  L 301.79 190.44
  Z
  M 241.17 188.67
  L 237.19 188.88
  A 1.24 1.24 0.0 0 0 236.02 190.19
  L 236.07 191.02
  A 3.45 3.06 86.9 0 0 239.31 194.30
  L 239.65 194.28
  A 3.45 3.06 86.9 0 0 242.52 190.67
  L 242.47 189.84
  A 1.24 1.24 0.0 0 0 241.17 188.67
  Z
  M 271.16 190.44
  A 1.45 1.45 0.0 0 0 269.71 188.99
  L 246.41 188.99
  A 1.45 1.45 0.0 0 0 244.96 190.44
  L 244.96 191.88
  A 1.45 1.45 0.0 0 0 246.41 193.33
  L 269.71 193.33
  A 1.45 1.45 0.0 0 0 271.16 191.88
  L 271.16 190.44
  Z
  M 293.50 196.97
  A 1.31 1.31 0.0 0 0 292.19 195.66
  L 280.79 195.66
  A 1.31 1.31 0.0 0 0 279.48 196.97
  L 279.48 197.41
  A 1.31 1.31 0.0 0 0 280.79 198.72
  L 292.19 198.72
  A 1.31 1.31 0.0 0 0 293.50 197.41
  L 293.50 196.97
  Z
  M 314.3596 197.0241
  A 1.45 1.45 0.0 0 0 312.9020 195.5817
  L 298.2622 195.6583
  A 1.45 1.45 0.0 0 0 296.8199 197.1159
  L 296.8204 197.2159
  A 1.45 1.45 0.0 0 0 298.2780 198.6583
  L 312.9178 198.5817
  A 1.45 1.45 0.0 0 0 314.3601 197.1241
  L 314.3596 197.0241
  Z
  M 276.8496 197.1297
  A 1.45 1.45 0.0 0 0 275.3945 195.6848
  L 238.0148 195.8152
  A 1.45 1.45 0.0 0 0 236.5698 197.2703
  L 236.5704 197.4303
  A 1.45 1.45 0.0 0 0 238.0255 198.8752
  L 275.4052 198.7448
  A 1.45 1.45 0.0 0 0 276.8502 197.2897
  L 276.8496 197.1297
  Z
  M 278.5076 202.7419
  A 1.34 1.34 0.0 0 0 277.1629 201.4066
  L 246.5431 201.5135
  A 1.34 1.34 0.0 0 0 245.2078 202.8581
  L 245.2124 204.1981
  A 1.34 1.34 0.0 0 0 246.5571 205.5334
  L 277.1769 205.4265
  A 1.34 1.34 0.0 0 0 278.5122 204.0819
  L 278.5076 202.7419
  Z
  M 294.6090 202.3983
  A 1.21 1.21 0.0 0 0 293.3843 201.2032
  L 282.4251 201.3371
  A 1.21 1.21 0.0 0 0 281.2300 202.5618
  L 281.2510 204.2817
  A 1.21 1.21 0.0 0 0 282.4757 205.4768
  L 293.4349 205.3429
  A 1.21 1.21 0.0 0 0 294.6300 204.1182
  L 294.6090 202.3983
  Z
  M 312.0995 203.0762
  A 1.79 1.79 0.0 0 0 310.3064 201.2893
  L 298.0664 201.3107
  A 1.79 1.79 0.0 0 0 296.2795 203.1038
  L 296.2805 203.6638
  A 1.79 1.79 0.0 0 0 298.0736 205.4507
  L 310.3136 205.4293
  A 1.79 1.79 0.0 0 0 312.1005 203.6362
  L 312.0995 203.0762
  Z
  M 296.4394 209.3024
  A 1.38 1.38 0.0 0 0 295.0570 207.9248
  L 254.7371 207.9952
  A 1.38 1.38 0.0 0 0 253.3595 209.3776
  L 253.3606 209.9776
  A 1.38 1.38 0.0 0 0 254.7430 211.3552
  L 295.0629 211.2848
  A 1.38 1.38 0.0 0 0 296.4405 209.9024
  L 296.4394 209.3024
  Z
  M 342.3198 209.4611
  A 1.77 1.77 0.0 0 0 340.5436 207.6973
  L 316.0638 207.7827
  A 1.77 1.77 0.0 0 0 314.2999 209.5589
  L 314.3002 209.6389
  A 1.77 1.77 0.0 0 0 316.0764 211.4027
  L 340.5562 211.3173
  A 1.77 1.77 0.0 0 0 342.3201 209.5411
  L 342.3198 209.4611
  Z
  M 312.5092 209.3284
  A 1.15 1.15 0.0 0 0 311.3572 208.1804
  L 300.3772 208.1996
  A 1.15 1.15 0.0 0 0 299.2292 209.3516
  L 299.2308 210.2516
  A 1.15 1.15 0.0 0 0 300.3828 211.3996
  L 311.3628 211.3804
  A 1.15 1.15 0.0 0 0 312.5108 210.2284
  L 312.5092 209.3284
  Z
  M 401.27 224.76
  L 401.46 225.89
  Q 401.48 226.01 401.60 226.02
  Q 401.75 226.03 401.84 225.92
  Q 401.88 225.87 401.89 225.93
  L 402.03 226.55
  Q 400.70 226.51 400.07 227.65
  A 1.22 1.21 -71.0 0 0 400.94 229.44
  Q 412.87 231.28 424.29 227.49
  A 0.31 0.31 0.0 0 0 424.41 226.97
  Q 423.99 226.54 423.56 226.52
  L 421.08 224.19
  Q 424.23 222.66 425.41 220.02
  A 0.59 0.58 -75.8 0 0 424.93 219.20
  L 417.43 218.54
  A 0.52 0.51 -82.7 0 1 416.97 217.94
  L 417.03 217.56
  Q 417.19 216.61 418.16 216.63
  C 421.45 216.70 422.65 214.79 425.20 214.06
  Q 426.84 213.59 428.52 213.17
  A 0.76 0.76 0.0 0 0 428.72 211.77
  Q 423.97 209.01 420.11 212.82
  A 1.31 1.30 -41.1 0 1 418.15 212.69
  L 417.37 211.69
  A 1.00 1.00 0.0 0 0 416.57 211.29
  L 401.51 211.10
  A 1.16 1.16 0.0 0 0 400.34 212.41
  Q 401.01 217.52 400.18 222.27
  Q 400.03 223.10 400.17 223.68
  Q 400.51 225.09 401.27 224.76
  Z
  M 254.60 217.29
  C 264.74 218.13 275.30 217.95 285.50 218.19
  Q 287.06 218.22 288.31 217.08
  A 1.33 1.33 0.0 0 0 287.91 214.86
  C 283.57 213.10 280.70 213.81 276.18 214.67
  Q 274.56 214.99 272.36 214.44
  Q 267.31 213.20 262.31 214.97
  Q 261.83 215.14 261.34 215.02
  C 258.42 214.32 256.85 212.93 253.98 215.33
  A 1.11 1.11 0.0 0 0 254.60 217.29
  Z
  M 329.4502 225.1556
  A 1.56 1.56 0.0 0 0 327.8929 223.5929
  L 313.1529 223.5671
  A 1.56 1.56 0.0 0 0 311.5902 225.1244
  L 311.5898 225.3644
  A 1.56 1.56 0.0 0 0 313.1471 226.9271
  L 327.8871 226.9529
  A 1.56 1.56 0.0 0 0 329.4498 225.3956
  L 329.4502 225.1556
  Z
  M 296.23 225.98
  Q 302.32 227.75 308.34 225.77
  Q 309.63 225.35 309.29 224.38
  A 0.81 0.80 -9.6 0 0 308.55 223.86
  L 254.55 223.81
  Q 252.90 223.81 253.06 225.45
  L 253.09 225.78
  A 1.14 1.14 0.0 0 0 254.25 226.81
  Q 274.64 226.38 294.26 225.73
  Q 295.26 225.70 296.23 225.98
  Z
  M 281.20 231.28
  A 1.53 1.53 0.0 0 0 279.67 229.75
  L 249.23 229.75
  A 1.53 1.53 0.0 0 0 247.70 231.28
  L 247.70 231.98
  A 1.53 1.53 0.0 0 0 249.23 233.51
  L 279.67 233.51
  A 1.53 1.53 0.0 0 0 281.20 231.98
  L 281.20 231.28
  Z
  M 296.96 231.43
  A 1.69 1.69 0.0 0 0 295.27 229.74
  L 285.45 229.74
  A 1.69 1.69 0.0 0 0 283.76 231.43
  L 283.76 231.79
  A 1.69 1.69 0.0 0 0 285.45 233.48
  L 295.27 233.48
  A 1.69 1.69 0.0 0 0 296.96 231.79
  L 296.96 231.43
  Z
  M 313.8994 231.8303
  A 1.22 1.22 0.0 0 0 312.7031 230.5871
  L 300.5253 230.3533
  A 1.22 1.22 0.0 0 0 299.2821 231.5497
  L 299.2806 231.6297
  A 1.22 1.22 0.0 0 0 300.4769 232.8729
  L 312.6547 233.1067
  A 1.22 1.22 0.0 0 0 313.8979 231.9103
  L 313.8994 231.8303
  Z
  M 401.69 235.31
  L 402.01 235.66
  Q 402.18 235.85 401.99 236.01
  Q 401.63 236.31 401.51 236.70
  Q 399.96 237.21 400.04 238.84
  A 1.24 1.24 0.0 0 0 401.32 240.02
  L 424.25 239.24
  Q 426.17 239.17 425.24 237.49
  L 423.33 234.04
  Q 422.35 232.28 420.33 232.27
  L 401.03 232.25
  A 1.03 1.03 0.0 0 0 400.05 233.63
  Q 400.44 234.71 401.69 235.31
  Z
  M 249.4878 244.1977
  A 1.60 1.60 0.0 0 0 247.8684 242.6173
  L 237.5891 242.7429
  A 1.60 1.60 0.0 0 0 236.0088 244.3624
  L 236.0122 244.6423
  A 1.60 1.60 0.0 0 0 237.6316 246.2227
  L 247.9109 246.0971
  A 1.60 1.60 0.0 0 0 249.4912 244.4776
  L 249.4878 244.1977
  Z
  M 400.58 247.21
  Q 399.91 249.91 400.75 251.48
  L 400.74 253.05
  Q 400.10 255.67 400.78 258.64
  Q 400.06 260.76 400.32 261.84
  A 1.22 1.22 0.0 0 0 401.51 262.78
  L 417.75 262.86
  Q 420.20 262.87 419.63 260.49
  Q 419.37 259.41 420.21 258.51
  C 421.94 257.63 425.54 255.05 425.15 252.84
  Q 424.12 247.10 417.96 247.48
  Q 417.77 245.08 417.08 243.76
  Q 416.82 243.25 416.24 243.25
  L 401.52 243.21
  A 1.00 1.00 0.0 0 0 400.52 244.23
  L 400.58 247.21
  Z
  M 250.17 251.29
  L 236.47 251.55
  A 0.45 0.45 0.0 0 0 236.03 252.01
  L 236.03 252.11
  A 3.60 3.43 -1.1 0 0 239.70 255.47
  L 247.10 255.33
  A 3.60 3.43 -1.1 0 0 250.63 251.83
  L 250.63 251.73
  A 0.45 0.45 0.0 0 0 250.17 251.29
  Z
  M 312.05 252.30
  A 0.69 0.69 0.0 0 0 311.36 251.61
  L 252.96 251.61
  A 0.69 0.69 0.0 0 0 252.27 252.30
  L 252.27 254.22
  A 0.69 0.69 0.0 0 0 252.96 254.91
  L 311.36 254.91
  A 0.69 0.69 0.0 0 0 312.05 254.22
  L 312.05 252.30
  Z
  M 301.78 260.88
  Q 301.95 259.87 301.68 258.90
  A 0.70 0.70 0.0 0 0 301.11 258.39
  C 296.39 257.68 293.02 258.11 288.82 258.66
  C 284.25 259.26 279.43 258.08 274.59 258.16
  Q 273.35 258.18 273.01 259.38
  L 272.77 260.24
  Q 272.51 261.18 273.49 261.19
  L 301.05 261.49
  A 0.74 0.74 0.0 0 0 301.78 260.88
  Z
  M 270.9591 259.2696
  A 1.08 1.08 0.0 0 0 269.8773 258.1915
  L 237.1773 258.2485
  A 1.08 1.08 0.0 0 0 236.0992 259.3304
  L 236.1009 260.2904
  A 1.08 1.08 0.0 0 0 237.1827 261.3685
  L 269.8827 261.3115
  A 1.08 1.08 0.0 0 0 270.9608 260.2296
  L 270.9591 259.2696
  Z"
/>
<path fill="#5d5fa3" d="
  M 454.73 163.35
  L 454.88 159.83
  Q 456.01 161.24 458.29 159.33
  C 462.97 155.39 468.67 152.36 474.21 149.99
  A 0.51 0.51 0.0 0 1 474.86 150.22
  L 475.00 150.49
  A 0.79 0.77 -29.2 0 1 474.70 151.52
  L 454.73 163.35
  Z"
/>
<path fill="#45aff5" d="
  M 502.24 150.78
  C 515.76 150.95 523.96 159.22 530.13 170.25
  C 526.61 171.14 519.08 172.23 518.96 177.59
  L 519.86 185.42
  L 510.72 190.18
  L 496.82 191.34
  Q 495.44 190.70 492.83 191.10
  Q 486.77 179.74 481.05 168.42
  C 479.68 165.72 477.95 164.55 474.99 165.18
  Q 466.94 166.90 458.74 168.57
  Q 459.31 166.51 461.77 165.81
  C 466.18 164.55 468.12 164.98 471.09 160.97
  C 473.78 157.32 477.59 152.52 482.24 152.73
  C 486.77 163.89 498.14 158.62 502.24 150.78
  Z"
/>
<path fill="#e15fc8" d="
  M 420.47 155.11
  A 0.11 0.11 0.0 0 1 420.35 155.02
  L 420.34 154.96
  A 3.91 1.99 -7.8 0 1 423.94 152.46
  L 424.20 152.42
  A 3.91 1.99 -7.8 0 1 428.35 153.86
  L 428.35 153.92
  A 0.11 0.11 0.0 0 1 428.26 154.05
  L 420.47 155.11
  Z"
/>
<rect fill="#e15fc8" x="-6.93" y="-2.40" transform="translate(243.02,154.86) rotate(-0.4)" width="13.86" height="4.80" rx="2.21"/>
<rect fill="#e15fc8" x="400.23" y="152.50" width="17.94" height="2.72" rx="1.11"/>
<path fill="#2cc996" d="
  M 212.22 176.86
  Q 213.80 181.72 213.55 187.50
  Q 213.25 194.42 212.97 201.25
  Q 213.13 201.69 213.07 202.18
  Q 213.02 202.58 212.66 202.39
  Q 212.29 202.19 212.38 201.87
  A 0.34 0.32 -68.7 0 0 212.22 201.48
  Q 200.91 195.60 188.74 191.80
  Q 187.31 191.35 184.12 190.83
  C 183.09 188.78 180.81 187.95 180.94 185.34
  Q 181.10 181.98 181.28 179.01
  A 4.04 4.03 5.8 0 0 177.84 174.79
  Q 174.03 174.23 170.07 173.13
  C 161.54 170.77 162.68 161.58 167.96 156.70
  C 181.84 143.88 204.04 167.79 212.22 176.86
  Z
  M 212.45 191.98
  Q 210.65 191.11 209.98 190.26
  Q 197.69 174.77 180.75 164.45
  A 0.59 0.59 0.0 0 0 179.86 164.88
  L 179.82 165.16
  A 0.33 0.32 23.5 0 0 179.95 165.47
  C 186.38 170.18 192.93 174.83 198.39 180.36
  C 202.61 184.64 206.31 189.33 210.68 193.50
  A 1.56 1.56 0.0 0 0 213.18 193.02
  Q 213.26 192.85 212.95 192.40
  Q 212.78 192.14 212.45 191.98
  Z"
/>
<path fill="#9c9dca" d="
  M 421.90 163.56
  L 400.80 163.83
  Q 399.62 161.46 400.11 158.91
  Q 400.37 157.54 401.77 157.54
  Q 409.79 157.53 418.02 157.47
  C 421.66 157.44 423.98 158.53 425.42 161.75
  A 0.65 0.64 61.6 0 1 425.18 162.56
  Q 423.69 163.51 421.90 163.56
  Z"
/>
<rect fill="#ffc9bc" x="-4.26" y="-2.08" transform="translate(352.48,163.72) rotate(-34.5)" width="8.52" height="4.16" rx="1.22"/>
<rect fill="#e15fc8" x="236.30" y="160.55" width="37.14" height="4.46" rx="1.58"/>
<rect fill="#9c9dca" x="-12.32" y="-1.89" transform="translate(362.97,169.32) rotate(-30.1)" width="24.64" height="3.78" rx="1.85"/>
<path fill="#5d5fa3" d="
  M 421.90 163.56
  L 422.11 165.86
  L 400.92 166.51
  L 400.80 163.83
  L 421.90 163.56
  Z"
/>
<path fill="#5d5fa3" d="
  M 212.95 192.40
  Q 213.26 192.85 213.18 193.02
  A 1.56 1.56 0.0 0 1 210.68 193.50
  C 206.31 189.33 202.61 184.64 198.39 180.36
  C 192.93 174.83 186.38 170.18 179.95 165.47
  A 0.33 0.32 23.5 0 1 179.82 165.16
  L 179.86 164.88
  A 0.59 0.59 0.0 0 1 180.75 164.45
  Q 197.69 174.77 209.98 190.26
  Q 210.65 191.11 212.45 191.98
  Q 212.78 192.14 212.95 192.40
  Z"
/>
<path fill="#16178d" d="
  M 492.83 191.10
  L 487.63 196.64
  Q 484.28 196.44 480.83 197.67
  L 455.56 203.38
  L 448.75 203.89
  L 440.93 186.63
  L 435.90 174.64
  C 439.84 173.11 445.20 173.19 448.51 170.24
  Q 452.14 170.63 455.31 169.19
  L 458.74 168.57
  Q 466.94 166.90 474.99 165.18
  C 477.95 164.55 479.68 165.72 481.05 168.42
  Q 486.77 179.74 492.83 191.10
  Z
  M 464.1419 183.0063
  A 2.05 2.05 0.0 0 0 461.7441 181.3768
  L 461.1940 181.4817
  A 2.05 2.05 0.0 0 0 459.5645 183.8795
  L 459.8381 185.3137
  A 2.05 2.05 0.0 0 0 462.2359 186.9432
  L 462.7860 186.8383
  A 2.05 2.05 0.0 0 0 464.4155 184.4405
  L 464.1419 183.0063
  Z"
/>
<path fill="#ffc9bc" d="
  M 422.11 165.86
  Q 424.20 168.36 423.52 170.27
  A 0.95 0.95 0.0 0 1 421.91 170.58
  L 418.97 167.28
  A 0.65 0.65 0.0 0 0 417.84 167.59
  Q 417.28 170.65 420.34 171.57
  Q 428.01 173.88 435.90 174.64
  L 440.93 186.63
  C 433.94 184.55 427.30 182.50 420.33 180.98
  C 414.67 179.75 407.31 180.32 401.51 180.53
  A 1.03 1.03 0.0 0 1 400.45 179.48
  L 400.46 179.11
  Q 400.49 177.70 401.89 177.66
  L 406.92 177.51
  A 0.57 0.56 -14.3 0 0 407.41 176.69
  L 407.29 176.46
  Q 406.80 175.49 405.71 175.45
  L 401.74 175.30
  A 0.44 0.44 0.0 0 1 401.38 174.62
  L 401.57 174.31
  A 1.42 1.41 -74.3 0 1 402.75 173.64
  Q 405.11 173.58 406.32 172.63
  Q 408.99 170.52 405.60 170.31
  C 403.55 170.18 398.84 170.34 400.92 166.51
  L 422.11 165.86
  Z"
/>
<rect fill="#ffc9bc" x="236.60" y="167.71" width="26.36" height="2.32" rx="1.08"/>
<ellipse fill="#ffc9bc" cx="0.00" cy="0.00" transform="translate(302.84,171.24) rotate(23.9)" rx="4.10" ry="1.84"/>
<path fill="#ffc9bc" d="
  M 530.13 170.25
  C 532.54 173.50 535.60 176.24 537.32 179.73
  Q 538.58 182.27 540.08 185.75
  C 541.41 188.85 534.76 191.75 532.58 192.51
  Q 527.00 194.47 521.34 196.28
  Q 510.30 197.18 499.40 200.29
  C 494.14 201.78 489.99 202.03 487.63 196.64
  L 492.83 191.10
  Q 495.44 190.70 496.82 191.34
  Q 503.41 195.71 510.72 190.18
  L 519.86 185.42
  Q 521.95 185.81 524.00 184.62
  C 525.88 183.53 526.47 181.69 524.44 180.29
  Q 521.97 178.58 518.96 177.59
  C 519.08 172.23 526.61 171.14 530.13 170.25
  Z"
/>
<path fill="#ffc9bc" d="
  M 260.57 176.85
  L 249.07 176.59
  L 237.37 176.47
  Q 236.14 176.45 236.27 175.23
  L 236.32 174.74
  Q 236.42 173.65 237.51 173.62
  L 268.97 172.79
  Q 270.46 172.75 270.37 174.24
  L 270.29 175.51
  Q 270.19 177.19 268.51 177.13
  L 260.57 176.85
  Z"
/>
<path fill="#eeecf1" d="
  M 312.45 188.02
  Q 311.53 188.68 309.31 188.94
  C 304.29 184.95 299.88 181.26 293.01 182.28
  Q 293.78 179.93 293.27 178.79
  Q 292.27 177.86 292.15 176.88
  A 0.59 0.59 0.0 0 1 293.04 176.30
  L 312.45 188.02
  Z"
/>
<path fill="#e15fc8" d="
  M 260.57 176.85
  Q 261.62 179.79 265.31 180.20
  A 0.85 0.85 0.0 0 1 266.02 180.80
  Q 266.23 181.47 266.19 182.16
  A 0.70 0.70 0.0 0 1 265.50 182.82
  L 248.53 183.07
  A 0.90 0.90 0.0 0 1 247.69 181.80
  Q 248.87 179.21 249.07 176.59
  L 260.57 176.85
  Z"
/>
<path fill="#a9deec" d="
  M 518.96 177.59
  Q 521.97 178.58 524.44 180.29
  C 526.47 181.69 525.88 183.53 524.00 184.62
  Q 521.95 185.81 519.86 185.42
  L 518.96 177.59
  Z"
/>
<path fill="#e15fc8" d="
  M 293.27 178.79
  Q 293.78 179.93 293.01 182.28
  L 279.30 182.69
  Q 277.50 182.75 278.07 181.04
  L 278.32 180.31
  Q 278.87 178.66 280.60 178.79
  C 283.35 179.00 290.91 179.98 293.27 178.79
  Z"
/>
<rect fill="#a9deec" x="-4.53" y="-1.85" transform="translate(240.80,181.25) rotate(3.0)" width="9.06" height="3.70" rx="1.28"/>
<ellipse fill="#a9deec" cx="0.00" cy="0.00" transform="translate(271.83,181.12) rotate(1.1)" rx="4.76" ry="2.19"/>
<rect fill="#45aff5" x="-2.33" y="-2.78" transform="translate(461.99,184.16) rotate(-10.8)" width="4.66" height="5.56" rx="2.05"/>
<path fill="#e15fc8" d="
  M 312.45 188.02
  L 329.91 189.01
  Q 331.98 189.13 332.09 191.20
  L 332.12 191.72
  A 1.66 1.66 0.0 0 1 330.44 193.46
  L 307.74 193.19
  Q 306.03 193.17 305.34 191.61
  L 305.17 191.23
  A 0.87 0.86 77.1 0 1 305.93 190.01
  Q 309.47 189.91 309.31 188.94
  Q 311.53 188.68 312.45 188.02
  Z"
/>
<path fill="#5d5fa3" d="
  M 424.00 195.49
  L 400.62 195.50
  Q 400.36 194.47 400.21 192.71
  C 399.66 186.21 408.72 187.47 412.59 188.03
  C 416.13 188.54 419.64 190.72 423.50 191.62
  A 0.31 0.30 -79.7 0 1 423.73 191.96
  Q 423.35 195.00 424.00 195.49
  Z"
/>
<rect fill="#a9deec" x="273.75" y="188.64" width="28.04" height="4.72" rx="1.80"/>
<path fill="#a9deec" d="
  M 241.17 188.67
  A 1.24 1.24 0.0 0 1 242.47 189.84
  L 242.52 190.67
  A 3.45 3.06 86.9 0 1 239.65 194.28
  L 239.31 194.30
  A 3.45 3.06 86.9 0 1 236.07 191.02
  L 236.02 190.19
  A 1.24 1.24 0.0 0 1 237.19 188.88
  L 241.17 188.67
  Z"
/>
<rect fill="#e15fc8" x="244.96" y="188.99" width="26.20" height="4.34" rx="1.45"/>
<path fill="#16178d" d="
  M 510.72 190.18
  Q 503.41 195.71 496.82 191.34
  L 510.72 190.18
  Z"
/>
<path fill="#33aa8d" d="
  M 184.12 190.83
  Q 187.31 191.35 188.74 191.80
  Q 200.91 195.60 212.22 201.48
  A 0.34 0.32 -68.7 0 1 212.38 201.87
  Q 212.29 202.19 212.66 202.39
  Q 213.02 202.58 213.07 202.18
  Q 213.13 201.69 212.97 201.25
  Q 214.21 206.60 213.26 212.49
  Q 195.83 214.64 188.00 215.22
  C 184.42 215.49 182.44 210.42 181.09 207.88
  Q 180.14 206.09 178.28 206.90
  C 173.43 209.01 165.45 211.43 163.86 203.44
  Q 163.38 201.01 164.78 198.20
  C 168.74 190.20 176.21 190.60 184.12 190.83
  Z
  M 188.25 201.74
  C 195.88 202.27 204.40 205.79 211.27 209.02
  A 0.39 0.39 0.0 0 0 211.81 208.56
  L 211.66 208.06
  Q 211.42 207.24 210.65 206.85
  Q 194.56 198.82 176.54 198.54
  Q 175.36 198.52 175.50 199.70
  L 175.55 200.05
  A 0.73 0.71 89.0 0 0 176.20 200.69
  Q 182.54 201.34 188.25 201.74
  Z"
/>
<path fill="#9c9dca" d="
  M 424.00 195.49
  Q 424.65 195.56 425.16 196.10
  A 1.30 1.29 45.8 0 1 425.14 197.89
  L 422.69 200.39
  C 415.85 200.47 407.39 199.71 400.78 201.21
  Q 399.78 198.96 400.62 195.50
  L 424.00 195.49
  Z"
/>
<rect fill="#a9deec" x="279.48" y="195.66" width="14.02" height="3.06" rx="1.31"/>
<rect fill="#e15fc8" x="-8.77" y="-1.50" transform="translate(305.59,197.12) rotate(-0.3)" width="17.54" height="3.00" rx="1.45"/>
<rect fill="#e15fc8" x="-20.14" y="-1.53" transform="translate(256.71,197.28) rotate(-0.2)" width="40.28" height="3.06" rx="1.45"/>
<path fill="#45aff5" d="
  M 521.34 196.28
  L 520.18 209.80
  Q 517.56 217.23 519.59 225.90
  Q 500.31 227.84 481.42 225.85
  L 480.83 197.67
  Q 484.28 196.44 487.63 196.64
  C 489.99 202.03 494.14 201.78 499.40 200.29
  Q 510.30 197.18 521.34 196.28
  Z"
/>
<path fill="#d6f7fe" d="
  M 480.83 197.67
  L 481.42 225.85
  C 479.07 251.63 476.99 276.83 478.41 303.25
  Q 478.43 303.66 477.97 303.84
  Q 477.25 303.55 476.51 303.57
  Q 464.63 303.88 452.75 303.84
  C 449.43 303.83 446.36 303.98 445.15 300.92
  Q 440.83 289.91 433.79 281.47
  Q 434.86 280.06 436.99 279.96
  Q 444.44 279.64 451.98 279.38
  A 2.61 2.61 0.0 0 0 454.50 276.74
  C 454.29 255.28 454.94 233.77 454.67 212.23
  C 454.63 209.28 455.19 206.35 455.56 203.38
  L 480.83 197.67
  Z"
/>
<path fill="#5d5fa3" d="
  M 211.27 209.02
  C 204.40 205.79 195.88 202.27 188.25 201.74
  Q 182.54 201.34 176.20 200.69
  A 0.73 0.71 89.0 0 1 175.55 200.05
  L 175.50 199.70
  Q 175.36 198.52 176.54 198.54
  Q 194.56 198.82 210.65 206.85
  Q 211.42 207.24 211.66 208.06
  L 211.81 208.56
  A 0.39 0.39 0.0 0 1 211.27 209.02
  Z"
/>
<path fill="#5d5fa3" d="
  M 422.69 200.39
  Q 421.58 204.02 420.01 204.30
  L 400.66 202.99
  Q 401.26 201.81 400.78 201.21
  C 407.39 199.71 415.85 200.47 422.69 200.39
  Z"
/>
<rect fill="#e15fc8" x="-16.65" y="-2.01" transform="translate(261.86,203.47) rotate(-0.2)" width="33.30" height="4.02" rx="1.34"/>
<rect fill="#a9deec" x="-6.69" y="-2.07" transform="translate(287.93,203.34) rotate(-0.7)" width="13.38" height="4.14" rx="1.21"/>
<rect fill="#ffc9bc" x="-7.91" y="-2.07" transform="translate(304.19,203.37) rotate(-0.1)" width="15.82" height="4.14" rx="1.79"/>
<path fill="#9c9dca" d="
  M 400.66 202.99
  L 420.01 204.30
  Q 419.16 205.65 418.25 205.69
  Q 410.02 206.04 401.51 206.26
  Q 400.56 206.28 400.35 205.34
  Q 400.11 204.24 400.66 202.99
  Z"
/>
<rect fill="#e15fc8" x="-21.54" y="-1.68" transform="translate(274.90,209.64) rotate(-0.1)" width="43.08" height="3.36" rx="1.38"/>
<rect fill="#e15fc8" x="-14.01" y="-1.81" transform="translate(328.31,209.55) rotate(-0.2)" width="28.02" height="3.62" rx="1.77"/>
<rect fill="#a9deec" x="-6.64" y="-1.60" transform="translate(305.87,209.79) rotate(-0.1)" width="13.28" height="3.20" rx="1.15"/>
<path fill="#d6f7fe" d="
  M 520.18 209.80
  Q 527.29 213.57 532.30 219.39
  Q 536.44 224.21 539.70 232.59
  C 544.11 243.94 544.68 254.52 546.30 265.91
  Q 544.50 268.48 546.13 271.20
  A 1.80 1.79 66.4 0 1 545.10 273.85
  C 542.50 274.60 540.97 274.38 538.71 272.72
  Q 534.25 269.43 529.84 266.13
  Q 527.01 264.02 525.15 266.11
  A 1.91 1.91 0.0 0 0 525.29 268.78
  C 528.69 271.90 531.99 272.56 536.24 273.30
  C 536.65 273.38 537.07 273.67 537.31 273.98
  Q 537.61 274.36 537.15 274.53
  Q 525.73 278.56 515.34 288.23
  L 519.59 225.90
  Q 517.56 217.23 520.18 209.80
  Z
  M 535.47 264.69
  Q 533.83 263.76 533.33 261.98
  Q 533.19 261.49 533.46 261.06
  Q 536.45 256.40 536.58 250.87
  A 1.16 1.16 0.0 0 0 534.64 249.98
  Q 534.04 250.53 533.79 251.22
  Q 532.45 254.98 531.51 251.22
  Q 531.22 250.06 531.57 247.12
  A 1.31 1.31 0.0 0 0 529.59 245.85
  Q 528.64 246.43 528.23 247.45
  A 0.65 0.65 0.0 0 1 527.11 247.60
  Q 524.63 244.38 523.50 240.99
  Q 523.13 239.86 521.94 240.54
  Q 521.60 240.73 521.55 241.12
  Q 520.89 245.51 524.13 248.46
  A 0.76 0.75 48.3 0 1 524.07 249.63
  L 521.80 251.26
  A 1.81 1.81 0.0 0 0 522.01 254.32
  L 531.52 259.36
  A 1.84 1.83 6.5 0 1 532.41 260.47
  L 532.47 260.73
  A 0.56 0.56 0.0 0 1 531.74 261.41
  L 525.16 259.10
  A 1.70 1.70 0.0 0 0 522.89 260.64
  L 522.86 261.34
  A 1.35 1.35 0.0 0 0 524.01 262.73
  Q 530.45 263.67 535.58 267.71
  A 1.26 1.25 -55.1 0 0 537.42 267.38
  C 539.20 264.52 542.10 260.30 541.67 256.97
  A 1.42 1.41 60.6 0 0 539.16 256.27
  Q 536.38 259.77 536.21 264.28
  A 0.50 0.49 15.8 0 1 535.47 264.69
  Z"
/>
<path fill="#9c9dca" d="
  M 421.08 224.19
  L 401.27 224.76
  Q 400.51 225.09 400.17 223.68
  Q 400.03 223.10 400.18 222.27
  Q 401.01 217.52 400.34 212.41
  A 1.16 1.16 0.0 0 1 401.51 211.10
  L 416.57 211.29
  A 1.00 1.00 0.0 0 1 417.37 211.69
  L 418.15 212.69
  A 1.31 1.30 -41.1 0 0 420.11 212.82
  Q 423.97 209.01 428.72 211.77
  A 0.76 0.76 0.0 0 1 428.52 213.17
  Q 426.84 213.59 425.20 214.06
  C 422.65 214.79 421.45 216.70 418.16 216.63
  Q 417.19 216.61 417.03 217.56
  L 416.97 217.94
  A 0.52 0.51 -82.7 0 0 417.43 218.54
  L 424.93 219.20
  A 0.59 0.58 -75.8 0 1 425.41 220.02
  Q 424.23 222.66 421.08 224.19
  Z
  M 413.7364 217.0447
  A 1.59 1.59 0.0 0 0 412.1080 215.4940
  L 405.8499 215.6470
  A 1.59 1.59 0.0 0 0 404.2992 217.2753
  L 404.3036 217.4553
  A 1.59 1.59 0.0 0 0 405.9320 219.0060
  L 412.1901 218.8530
  A 1.59 1.59 0.0 0 0 413.7408 217.2247
  L 413.7364 217.0447
  Z"
/>
<path fill="#a9deec" d="
  M 285.50 218.19
  C 275.30 217.95 264.74 218.13 254.60 217.29
  A 1.11 1.11 0.0 0 1 253.98 215.33
  C 256.85 212.93 258.42 214.32 261.34 215.02
  Q 261.83 215.14 262.31 214.97
  Q 267.31 213.20 272.36 214.44
  Q 274.56 214.99 276.18 214.67
  C 280.70 213.81 283.57 213.10 287.91 214.86
  A 1.33 1.33 0.0 0 1 288.31 217.08
  Q 287.06 218.22 285.50 218.19
  Z"
/>
<rect fill="#050c74" x="-4.72" y="-1.68" transform="translate(409.02,217.25) rotate(-1.4)" width="9.44" height="3.36" rx="1.59"/>
<rect fill="#e15fc8" x="-8.93" y="-1.68" transform="translate(320.52,225.26) rotate(0.1)" width="17.86" height="3.36" rx="1.56"/>
<path fill="#e15fc8" d="
  M 296.23 225.98
  Q 295.26 225.70 294.26 225.73
  Q 274.64 226.38 254.25 226.81
  A 1.14 1.14 0.0 0 1 253.09 225.78
  L 253.06 225.45
  Q 252.90 223.81 254.55 223.81
  L 308.55 223.86
  A 0.81 0.80 -9.6 0 1 309.29 224.38
  Q 309.63 225.35 308.34 225.77
  Q 302.32 227.75 296.23 225.98
  Z"
/>
<path fill="#5d5fa3" d="
  M 421.08 224.19
  L 423.56 226.52
  Q 412.76 227.61 402.03 226.55
  L 401.89 225.93
  Q 401.88 225.87 401.84 225.92
  Q 401.75 226.03 401.60 226.02
  Q 401.48 226.01 401.46 225.89
  L 401.27 224.76
  L 421.08 224.19
  Z"
/>
<path fill="#16178d" d="
  M 481.42 225.85
  Q 500.31 227.84 519.59 225.90
  L 515.34 288.23
  Q 516.60 297.86 518.58 307.50
  Q 518.67 307.93 519.05 307.89
  Q 518.69 308.69 518.81 309.38
  Q 521.35 324.14 523.82 339.57
  A 1.33 1.32 -11.7 0 1 522.83 341.06
  L 516.19 342.71
  A 2.03 2.03 0.0 0 1 513.80 341.46
  Q 501.06 307.67 497.27 271.74
  A 0.32 0.31 67.0 0 0 496.76 271.53
  Q 495.98 272.18 495.78 273.45
  C 494.31 282.74 493.37 291.48 493.27 301.40
  C 493.12 315.53 493.14 329.74 492.25 343.85
  A 0.87 0.87 0.0 0 1 491.33 344.66
  L 483.16 344.18
  Q 481.54 344.08 481.43 342.46
  Q 480.09 323.06 478.75 305.00
  Q 478.69 304.22 477.97 303.84
  Q 478.43 303.66 478.41 303.25
  C 476.99 276.83 479.07 251.63 481.42 225.85
  Z"
/>
<path fill="#050c74" d="
  M 189.62 238.16
  L 179.42 234.64
  A 0.84 0.83 -76.2 0 0 178.32 235.31
  C 178.05 237.03 178.09 239.34 175.77 239.67
  Q 173.04 240.06 172.31 241.43
  Q 171.18 243.53 170.84 241.15
  Q 170.67 239.89 169.48 239.37
  A 2.17 2.17 0.0 0 0 166.45 241.01
  Q 166.06 243.48 167.42 245.61
  A 0.85 0.85 0.0 0 1 167.45 246.49
  Q 166.79 247.66 164.80 248.23
  Q 161.10 240.20 163.77 232.49
  C 166.69 224.06 181.19 226.02 187.19 228.81
  A 1.33 1.31 -89.6 0 1 187.84 229.48
  Q 189.18 232.56 192.48 233.24
  A 1.34 1.34 0.0 0 1 193.35 235.26
  Q 191.91 237.57 189.62 238.16
  Z"
/>
<path fill="#9c9dca" d="
  M 402.03 226.55
  Q 412.76 227.61 423.56 226.52
  Q 423.99 226.54 424.41 226.97
  A 0.31 0.31 0.0 0 1 424.29 227.49
  Q 412.87 231.28 400.94 229.44
  A 1.22 1.21 -71.0 0 1 400.07 227.65
  Q 400.70 226.51 402.03 226.55
  Z"
/>
<rect fill="#e15fc8" x="247.70" y="229.75" width="33.50" height="3.76" rx="1.53"/>
<rect fill="#a9deec" x="283.76" y="229.74" width="13.20" height="3.74" rx="1.69"/>
<rect fill="#e15fc8" x="-7.31" y="-1.26" transform="translate(306.59,231.73) rotate(1.1)" width="14.62" height="2.52" rx="1.22"/>
<path fill="#9c9dca" d="
  M 401.51 236.70
  C 408.44 238.41 415.73 237.71 422.63 237.61
  Q 423.63 237.59 423.54 236.60
  L 423.52 236.28
  Q 423.39 234.73 421.83 234.84
  Q 416.86 235.19 412.11 233.77
  Q 411.62 233.62 411.17 233.88
  C 408.63 235.35 404.64 234.94 401.69 235.31
  Q 400.44 234.71 400.05 233.63
  A 1.03 1.03 0.0 0 1 401.03 232.25
  L 420.33 232.27
  Q 422.35 232.28 423.33 234.04
  L 425.24 237.49
  Q 426.17 239.17 424.25 239.24
  L 401.32 240.02
  A 1.24 1.24 0.0 0 1 400.04 238.84
  Q 399.96 237.21 401.51 236.70
  Z"
/>
<path fill="#5d5fa3" d="
  M 401.51 236.70
  Q 401.63 236.31 401.99 236.01
  Q 402.18 235.85 402.01 235.66
  L 401.69 235.31
  C 404.64 234.94 408.63 235.35 411.17 233.88
  Q 411.62 233.62 412.11 233.77
  Q 416.86 235.19 421.83 234.84
  Q 423.39 234.73 423.52 236.28
  L 423.54 236.60
  Q 423.63 237.59 422.63 237.61
  C 415.73 237.71 408.44 238.41 401.51 236.70
  Z"
/>
<path fill="#ffc9bc" d="
  M 189.62 238.16
  Q 188.86 239.37 190.13 241.35
  C 190.06 249.91 186.98 254.28 181.29 259.93
  Q 179.95 259.18 177.72 258.59
  C 174.61 257.77 173.22 259.82 172.11 262.13
  A 0.72 0.72 0.0 0 1 170.84 262.20
  Q 167.70 257.12 163.09 253.18
  C 163.03 250.85 164.16 249.92 164.80 248.23
  Q 166.79 247.66 167.45 246.49
  A 0.85 0.85 0.0 0 0 167.42 245.61
  Q 166.06 243.48 166.45 241.01
  A 2.17 2.17 0.0 0 1 169.48 239.37
  Q 170.67 239.89 170.84 241.15
  Q 171.18 243.53 172.31 241.43
  Q 173.04 240.06 175.77 239.67
  C 178.09 239.34 178.05 237.03 178.32 235.31
  A 0.84 0.83 -76.2 0 1 179.42 234.64
  L 189.62 238.16
  Z"
/>
<path fill="#a9deec" d="
  M 535.47 264.69
  A 0.50 0.49 15.8 0 0 536.21 264.28
  Q 536.38 259.77 539.16 256.27
  A 1.42 1.41 60.6 0 1 541.67 256.97
  C 542.10 260.30 539.20 264.52 537.42 267.38
  A 1.26 1.25 -55.1 0 1 535.58 267.71
  Q 530.45 263.67 524.01 262.73
  A 1.35 1.35 0.0 0 1 522.86 261.34
  L 522.89 260.64
  A 1.70 1.70 0.0 0 1 525.16 259.10
  L 531.74 261.41
  A 0.56 0.56 0.0 0 0 532.47 260.73
  L 532.41 260.47
  A 1.84 1.83 6.5 0 0 531.52 259.36
  L 522.01 254.32
  A 1.81 1.81 0.0 0 1 521.80 251.26
  L 524.07 249.63
  A 0.76 0.75 48.3 0 0 524.13 248.46
  Q 520.89 245.51 521.55 241.12
  Q 521.60 240.73 521.94 240.54
  Q 523.13 239.86 523.50 240.99
  Q 524.63 244.38 527.11 247.60
  A 0.65 0.65 0.0 0 0 528.23 247.45
  Q 528.64 246.43 529.59 245.85
  A 1.31 1.31 0.0 0 1 531.57 247.12
  Q 531.22 250.06 531.51 251.22
  Q 532.45 254.98 533.79 251.22
  Q 534.04 250.53 534.64 249.98
  A 1.16 1.16 0.0 0 1 536.58 250.87
  Q 536.45 256.40 533.46 261.06
  Q 533.19 261.49 533.33 261.98
  Q 533.83 263.76 535.47 264.69
  Z"
/>
<rect fill="#e15fc8" x="-6.74" y="-1.74" transform="translate(242.75,244.42) rotate(-0.7)" width="13.48" height="3.48" rx="1.60"/>
<path fill="#5d5fa3" d="
  M 417.96 247.48
  L 415.01 247.33
  Q 413.84 247.27 413.71 248.43
  L 413.68 248.77
  A 0.98 0.98 0.0 0 0 414.53 249.85
  L 422.02 250.74
  A 1.72 1.71 2.4 0 1 423.53 252.37
  Q 423.59 253.74 422.16 253.89
  Q 411.13 255.09 400.74 253.05
  L 400.75 251.48
  C 403.33 250.43 406.78 250.59 409.60 250.29
  Q 410.11 250.24 410.25 249.75
  Q 410.47 249.00 410.21 248.28
  A 0.79 0.79 0.0 0 0 409.52 247.77
  L 400.58 247.21
  L 400.52 244.23
  A 1.00 1.00 0.0 0 1 401.52 243.21
  L 416.24 243.25
  Q 416.82 243.25 417.08 243.76
  Q 417.77 245.08 417.96 247.48
  Z"
/>
<path fill="#9c9dca" d="
  M 400.75 251.48
  Q 399.91 249.91 400.58 247.21
  L 409.52 247.77
  A 0.79 0.79 0.0 0 1 410.21 248.28
  Q 410.47 249.00 410.25 249.75
  Q 410.11 250.24 409.60 250.29
  C 406.78 250.59 403.33 250.43 400.75 251.48
  Z"
/>
<path fill="#9c9dca" d="
  M 417.96 247.48
  Q 424.12 247.10 425.15 252.84
  C 425.54 255.05 421.94 257.63 420.21 258.51
  Q 410.34 257.84 400.78 258.64
  Q 400.10 255.67 400.74 253.05
  Q 411.13 255.09 422.16 253.89
  Q 423.59 253.74 423.53 252.37
  A 1.72 1.71 2.4 0 0 422.02 250.74
  L 414.53 249.85
  A 0.98 0.98 0.0 0 1 413.68 248.77
  L 413.71 248.43
  Q 413.84 247.27 415.01 247.33
  L 417.96 247.48
  Z"
/>
<path fill="#a9deec" d="
  M 250.17 251.29
  A 0.45 0.45 0.0 0 1 250.63 251.73
  L 250.63 251.83
  A 3.60 3.43 -1.1 0 1 247.10 255.33
  L 239.70 255.47
  A 3.60 3.43 -1.1 0 1 236.03 252.11
  L 236.03 252.01
  A 0.45 0.45 0.0 0 1 236.47 251.55
  L 250.17 251.29
  Z"
/>
<rect fill="#e15fc8" x="252.27" y="251.61" width="59.78" height="3.30" rx="0.69"/>
<path fill="#f3418d" d="
  M 163.09 253.18
  Q 167.70 257.12 170.84 262.20
  A 0.72 0.72 0.0 0 0 172.11 262.13
  C 173.22 259.82 174.61 257.77 177.72 258.59
  Q 179.95 259.18 181.29 259.93
  Q 187.25 267.26 193.05 274.59
  C 195.62 277.83 197.29 281.55 199.38 285.25
  L 188.28 284.96
  A 2.06 2.06 0.0 0 0 186.31 286.26
  Q 181.61 298.02 176.82 310.02
  Q 176.14 311.72 174.18 312.37
  C 164.74 311.49 156.92 300.51 147.29 308.79
  Q 145.58 310.26 140.08 316.31
  L 139.72 313.28
  Q 142.84 311.41 141.29 307.48
  Q 140.34 305.08 136.54 299.99
  Q 136.84 289.78 137.39 279.75
  C 137.91 270.49 138.00 260.02 148.48 256.43
  Q 150.89 255.60 153.00 254.77
  L 163.09 253.18
  Z"
/>
<path fill="#ffc9bc" d="
  M 301.05 261.49
  L 273.49 261.19
  Q 272.51 261.18 272.77 260.24
  L 273.01 259.38
  Q 273.35 258.18 274.59 258.16
  C 279.43 258.08 284.25 259.26 288.82 258.66
  C 293.02 258.11 296.39 257.68 301.11 258.39
  A 0.70 0.70 0.0 0 1 301.68 258.90
  Q 301.95 259.87 301.78 260.88
  A 0.74 0.74 0.0 0 1 301.05 261.49
  Z"
/>
<rect fill="#e15fc8" x="-17.43" y="-1.56" transform="translate(253.53,259.78) rotate(-0.1)" width="34.86" height="3.12" rx="1.08"/>
<path fill="#5d5fa3" d="
  M 420.21 258.51
  Q 419.37 259.41 419.63 260.49
  Q 420.20 262.87 417.75 262.86
  L 401.51 262.78
  A 1.22 1.22 0.0 0 1 400.32 261.84
  Q 400.06 260.76 400.78 258.64
  Q 410.34 257.84 420.21 258.51
  Z"
/>
<path fill="#a9deec" d="
  M 546.30 265.91
  C 547.96 270.54 550.92 274.15 555.33 276.53
  C 564.43 281.43 569.88 286.32 571.89 297.00
  Q 572.14 298.30 571.92 299.41
  A 0.99 0.99 0.0 0 1 571.34 300.11
  Q 570.05 300.66 569.00 300.68
  Q 560.78 300.81 552.85 300.82
  A 1.21 1.21 0.0 0 0 551.88 302.75
  Q 553.14 304.44 553.61 306.48
  Q 553.77 307.14 553.10 307.29
  Q 550.05 307.97 547.00 307.94
  Q 536.49 307.86 525.98 307.98
  C 523.97 308.00 521.38 307.27 519.05 307.89
  Q 518.67 307.93 518.58 307.50
  Q 516.60 297.86 515.34 288.23
  Q 525.73 278.56 537.15 274.53
  Q 537.61 274.36 537.31 273.98
  C 537.07 273.67 536.65 273.38 536.24 273.30
  C 531.99 272.56 528.69 271.90 525.29 268.78
  A 1.91 1.91 0.0 0 1 525.15 266.11
  Q 527.01 264.02 529.84 266.13
  Q 534.25 269.43 538.71 272.72
  C 540.97 274.38 542.50 274.60 545.10 273.85
  A 1.80 1.79 66.4 0 0 546.13 271.20
  Q 544.50 268.48 546.30 265.91
  Z"
/>
<path fill="#eeecf1" d="
  M 383.46 281.56
  L 365.25 283.19
  A 2.49 2.49 0.0 0 0 362.99 285.69
  Q 363.12 302.88 362.84 320.00
  Q 362.80 322.15 363.67 324.04
  A 1.20 1.19 86.6 0 0 364.41 324.70
  Q 366.02 325.19 368.25 325.14
  Q 389.98 324.66 432.23 324.42
  Q 436.92 324.39 437.73 324.62
  C 440.92 325.48 442.44 329.91 441.90 333.00
  C 441.36 336.19 434.21 335.28 431.88 335.33
  C 416.29 335.66 400.47 336.27 384.90 335.47
  C 375.78 335.00 366.89 334.68 357.39 334.76
  Q 294.07 335.26 230.75 334.95
  Q 227.85 334.94 225.80 333.85
  L 235.41 324.19
  Q 244.01 325.16 252.00 325.12
  Q 277.29 325.01 302.73 325.12
  A 2.11 2.11 0.0 0 0 304.85 322.98
  L 304.54 302.82
  L 304.63 281.04
  Q 338.21 277.88 371.71 279.53
  C 373.78 279.63 375.81 279.28 377.92 279.11
  Q 378.39 279.07 378.39 279.54
  C 378.41 282.21 381.68 281.52 383.46 281.56
  Z"
/>
<path fill="#d6f7fe" d="
  M 304.63 281.04
  L 304.54 302.82
  Q 286.04 302.91 267.50 303.24
  Q 265.30 303.28 263.78 302.64
  A 1.85 1.84 -78.9 0 1 262.65 300.95
  Q 262.55 290.40 264.65 280.47
  Q 284.68 280.05 304.63 281.04
  Z"
/>
<path fill="#050c74" d="
  M 199.38 285.25
  L 224.07 286.66
  Q 224.63 286.69 224.65 287.26
  Q 224.70 288.45 223.98 289.74
  Q 219.51 297.86 216.11 306.85
  Q 214.29 310.09 212.03 313.84
  Q 210.37 316.57 207.00 316.49
  Q 190.60 316.05 177.28 314.96
  Q 175.11 314.78 174.18 312.37
  Q 176.14 311.72 176.82 310.02
  Q 181.61 298.02 186.31 286.26
  A 2.06 2.06 0.0 0 1 188.28 284.96
  L 199.38 285.25
  Z
  M 199.6691 301.5881
  A 2.17 1.65 121.1 0 0 202.2028 300.5823
  A 2.17 1.65 121.1 0 0 201.9109 297.8719
  A 2.17 1.65 121.1 0 0 199.3772 298.8777
  A 2.17 1.65 121.1 0 0 199.6691 301.5881
  Z"
/>
<path fill="#a9deec" d="
  M 136.54 299.99
  Q 140.34 305.08 141.29 307.48
  Q 142.84 311.41 139.72 313.28
  L 77.54 313.74
  Q 76.07 313.75 76.09 312.29
  Q 76.09 312.02 76.70 311.15
  Q 81.08 304.94 88.25 304.12
  C 90.80 303.82 92.27 304.01 94.32 302.40
  Q 96.24 300.89 97.98 299.20
  C 108.31 289.19 116.35 296.61 127.24 298.76
  Q 130.82 299.47 136.54 299.99
  Z"
/>
<ellipse fill="#ffffff" cx="0.00" cy="0.00" transform="translate(200.79,299.73) rotate(121.1)" rx="2.17" ry="1.65"/>
<path fill="#16178d" d="
  M 174.18 312.37
  Q 175.11 314.78 177.28 314.96
  Q 190.60 316.05 207.00 316.49
  Q 210.37 316.57 212.03 313.84
  Q 214.29 310.09 216.11 306.85
  C 224.23 305.15 239.86 305.23 237.32 317.80
  Q 236.74 320.69 235.41 324.19
  L 225.80 333.85
  Q 219.28 337.30 213.07 341.05
  Q 212.17 341.59 211.78 342.35
  Q 210.94 343.93 212.62 344.57
  Q 221.96 348.09 231.52 350.71
  Q 234.55 351.53 233.64 354.32
  C 231.19 361.82 199.87 351.06 194.47 349.27
  Q 191.45 348.21 187.24 349.03
  Q 183.21 349.82 173.26 352.31
  C 170.59 352.98 168.05 353.25 166.59 350.79
  A 1.34 1.34 0.0 0 0 165.27 350.15
  Q 156.12 351.36 147.16 348.22
  Q 142.51 345.14 140.35 341.86
  Q 136.95 336.73 138.14 330.03
  Q 139.41 322.86 140.08 316.31
  Q 145.58 310.26 147.29 308.79
  C 156.92 300.51 164.74 311.49 174.18 312.37
  Z
  M 178.51 343.20
  A 0.86 0.86 0.0 0 0 178.34 341.65
  L 175.56 340.71
  A 0.86 0.86 0.0 0 0 174.63 340.96
  L 170.17 346.19
  A 0.86 0.86 0.0 0 0 171.26 347.48
  L 178.51 343.20
  Z"
/>
<path fill="#050c74" d="
  M 480.29 351.90
  C 480.34 349.82 479.42 346.91 481.38 345.28
  Q 481.86 344.88 482.26 345.35
  C 485.52 349.25 485.86 348.71 490.77 349.02
  A 1.92 1.91 89.5 0 1 492.56 350.79
  L 492.84 354.68
  Q 492.97 356.36 491.29 356.53
  Q 484.84 357.19 478.36 357.73
  C 472.89 358.19 468.66 357.71 464.44 354.77
  A 0.90 0.90 0.0 0 1 464.71 353.17
  L 476.56 349.75
  A 0.70 0.69 -27.3 0 1 477.30 349.98
  C 477.87 350.67 478.16 352.16 478.73 352.59
  Q 479.20 352.93 479.82 352.63
  A 0.86 0.84 78.4 0 0 480.29 351.90
  Z"
/>
<path fill="#050c74" d="
  M 515.13 350.85
  A 1.30 1.29 -53.3 0 0 514.91 349.29
  L 513.54 347.94
  A 1.03 1.01 22.8 0 1 513.24 347.22
  C 513.25 344.39 516.99 345.58 518.66 345.83
  C 520.78 346.15 522.49 345.70 524.60 345.48
  A 1.01 1.01 0.0 0 1 525.47 345.81
  Q 527.45 348.05 527.79 351.04
  A 0.87 0.86 74.4 0 1 527.30 351.92
  C 523.18 353.87 518.75 355.48 514.51 357.16
  C 510.83 358.61 507.31 358.86 503.51 358.89
  Q 501.63 358.90 500.80 357.97
  A 1.49 1.49 0.0 0 1 501.13 355.71
  L 509.14 350.77
  Q 509.63 350.46 510.19 350.63
  C 511.79 351.12 513.85 353.11 515.13 350.85
  Z"
/>
<path fill="#a9deec" d="
  M 194.47 349.27
  Q 196.31 352.69 199.69 354.95
  A 1.12 1.11 37.2 0 1 199.92 356.60
  C 197.23 359.74 193.53 359.06 189.85 359.16
  C 187.23 359.24 183.89 360.30 181.50 360.05
  Q 170.90 358.92 160.25 358.69
  C 157.51 358.64 154.21 357.56 151.23 357.30
  C 147.00 356.92 138.89 356.28 135.61 353.43
  A 1.17 1.17 0.0 0 1 135.52 351.75
  Q 137.34 349.78 139.99 349.18
  A 1.75 1.71 45.7 0 1 140.81 349.20
  Q 145.34 350.46 147.16 348.22
  Q 156.12 351.36 165.27 350.15
  A 1.34 1.34 0.0 0 1 166.59 350.79
  C 168.05 353.25 170.59 352.98 173.26 352.31
  Q 183.21 349.82 187.24 349.03
  Q 191.45 348.21 194.47 349.27
  Z"
/>
<path fill="#a9deec" d="
  M 463.59 355.92
  Q 464.92 358.54 467.40 360.07
  Q 468.67 360.86 467.18 360.98
  C 462.40 361.36 457.43 360.02 453.95 359.82
  Q 446.65 359.40 437.69 359.30
  A 0.73 0.73 0.0 0 1 437.04 358.25
  L 437.16 358.02
  A 2.44 2.44 0.0 0 1 439.01 356.68
  Q 448.75 355.30 458.00 354.28
  Q 460.63 353.98 461.79 354.56
  Q 463.28 355.32 463.59 355.92
  Z"
/>
</svg>
